  0
SECTION
  2
HEADER
  9
$ACADVER
  1
AC1014
  9
$HANDSEED
  5
FFFF
  9
$MEASUREMENT
 70
     1
  0
ENDSEC
  0
SECTION
  2
TABLES
  0
TABLE
  2
VPORT
  5
8
330
0
100
AcDbSymbolTable
 70
     4
  0
VPORT
  5
2E
330
8
100
AcDbSymbolTableRecord
100
AcDbViewportTableRecord
  2
*ACTIVE
 70
     0
 10
0.0
 20
0.0
 11
1.0
 21
1.0
 12
210.0
 22
148.5
 13
0.0
 23
0.0
 14
10.0
 24
10.0
 15
10.0
 25
10.0
 16
0.0
 26
0.0
 36
1.0
 17
0.0
 27
0.0
 37
0.0
 40
341.0
 41
1.24
 42
50.0
 43
0.0
 44
0.0
 50
0.0
 51
0.0
 71
     0
 72
   100
 73
     1
 74
     3
 75
     0
 76
     0
 77
     0
 78
     0
  0
ENDTAB
  0
TABLE
  2
LTYPE
  5
5
330
0
100
AcDbSymbolTable
 70
     1
  0
LTYPE
  5
14
330
5
100
AcDbSymbolTableRecord
100
AcDbLinetypeTableRecord
  2
BYBLOCK
 70
     0
  3

 72
    65
 73
     0
 40
0.0
  0
LTYPE
  5
15
330
5
100
AcDbSymbolTableRecord
100
AcDbLinetypeTableRecord
  2
BYLAYER
 70
     0
  3

 72
    65
 73
     0
 40
0.0
  0
LTYPE
  5
16
330
5
100
AcDbSymbolTableRecord
100
AcDbLinetypeTableRecord
  2
CONTINUOUS
 70
     0
  3
Solid line
 72
    65
 73
     0
 40
0.0
  0
ENDTAB
  0
TABLE
  2
LAYER
  5
2
100
AcDbSymbolTable
 70
1
  0
LAYER
  5
50
100
AcDbSymbolTableRecord
100
AcDbLayerTableRecord
  2
0
 70
0
  6
CONTINUOUS
  0
ENDTAB
  0
TABLE
  2
STYLE
  5
3
330
0
100
AcDbSymbolTable
 70
     1
  0
STYLE
  5
11
330
3
100
AcDbSymbolTableRecord
100
AcDbTextStyleTableRecord
  2
STANDARD
 70
     0
 40
0.0
 41
1.0
 50
0.0
 71
     0
 42
2.5
  3
txt
  4

  0
ENDTAB
  0
TABLE
  2
VIEW
  5
6
330
0
100
AcDbSymbolTable
 70
     0
  0
ENDTAB
  0
TABLE
  2
UCS
  5
7
330
0
100
AcDbSymbolTable
 70
     0
  0
ENDTAB
  0
TABLE
  2
APPID
  5
9
330
0
100
AcDbSymbolTable
 70
     2
  0
APPID
  5
12
330
9
100
AcDbSymbolTableRecord
100
AcDbRegAppTableRecord
  2
ACAD
 70
     0
  0
ENDTAB
  0
TABLE
  2
DIMSTYLE
  5
A
330
0
100
AcDbSymbolTable
 70
     1
  0
DIMSTYLE
105
27
330
A
100
AcDbSymbolTableRecord
100
AcDbDimStyleTableRecord
  2
ISO-25
 70
     0
  3

  4

  5

  6

  7

 40
1.0
 41
2.5
 42
0.625
 43
3.75
 44
1.25
 45
0.0
 46
0.0
 47
0.0
 48
0.0
140
2.5
141
2.5
142
0.0
143
0.03937007874016
144
1.0
145
0.0
146
1.0
147
0.625
 71
     0
 72
     0
 73
     0
 74
     0
 75
     0
 76
     0
 77
     1
 78
     8
170
     0
171
     3
172
     1
173
     0
174
     0
175
     0
176
     0
177
     0
178
     0
270
     2
271
     2
272
     2
273
     2
274
     3
340
11
275
     0
280
     0
281
     0
282
     0
283
     0
284
     8
285
     0
286
     0
287
     3
288
     0
  0
ENDTAB
  0
TABLE
  2
BLOCK_RECORD
  5
1
330
0
100
AcDbSymbolTable
 70
     1
  0
BLOCK_RECORD
  5
1F
330
1
100
AcDbSymbolTableRecord
100
AcDbBlockTableRecord
  2
*MODEL_SPACE
  0
BLOCK_RECORD
  5
1B
330
1
100
AcDbSymbolTableRecord
100
AcDbBlockTableRecord
  2
*PAPER_SPACE
  0
ENDTAB
  0
ENDSEC
  0
SECTION
  2
BLOCKS
  0
BLOCK
  5
20
330
1F
100
AcDbEntity
  8
0
100
AcDbBlockBegin
  2
*MODEL_SPACE
 70
     0
 10
0.0
 20
0.0
 30
0.0
  3
*MODEL_SPACE
  1

  0
ENDBLK
  5
21
330
1F
100
AcDbEntity
  8
0
100
AcDbBlockEnd
  0
BLOCK
  5
1C
330
1B
100
AcDbEntity
 67
     1
  8
0
100
AcDbBlockBegin
  2
*PAPER_SPACE
  1

  0
ENDBLK
  5
1D
330
1B
100
AcDbEntity
 67
     1
  8
0
100
AcDbBlockEnd
  0
ENDSEC
  0
SECTION
  2
ENTITIES
  0
SPLINE
  5
100
100
AcDbEntity
  8
0
 62
7
100
AcDbSpline
 70
8
 71
3
 72
8
 73
4
 74
0
 40
0
 40
0
 40
0
 40
0
 40
1
 40
1
 40
1
 40
1
 10
4.228802
 20
7.379403
 30
0.0
 10
3.995212
 20
7.374415
 30
0.0
 10
3.764407
 20
7.276594
 30
0.0
 10
3.600866
 20
7.109284
 30
0.0
  0
SPLINE
  5
101
100
AcDbEntity
  8
0
 62
7
100
AcDbSpline
 70
8
 71
3
 72
8
 73
4
 74
0
 40
0
 40
0
 40
0
 40
0
 40
1
 40
1
 40
1
 40
1
 10
3.600866
 20
7.109284
 30
0.0
 10
3.451795
 20
6.958308
 30
0.0
 10
3.358451
 20
6.753779
 30
0.0
 10
3.342588
 20
6.542157
 30
0.0
  0
SPLINE
  5
102
100
AcDbEntity
  8
0
 62
7
100
AcDbSpline
 70
8
 71
3
 72
8
 73
4
 74
0
 40
0
 40
0
 40
0
 40
0
 40
1
 40
1
 40
1
 40
1
 10
3.342588
 20
6.542157
 30
0.0
 10
3.338747
 20
6.503488
 30
0.0
 10
3.339804
 20
6.464601
 30
0.0
 10
3.342215
 20
6.425881
 30
0.0
  0
SPLINE
  5
103
100
AcDbEntity
  8
0
 62
7
100
AcDbSpline
 70
8
 71
3
 72
8
 73
4
 74
0
 40
0
 40
0
 40
0
 40
0
 40
1
 40
1
 40
1
 40
1
 10
3.342215
 20
6.425881
 30
0.0
 10
3.365614
 20
6.424836
 30
0.0
 10
3.392930
 20
6.414916
 30
0.0
 10
3.412859
 20
6.432198
 30
0.0
  0
SPLINE
  5
104
100
AcDbEntity
  8
0
 62
7
100
AcDbSpline
 70
8
 71
3
 72
8
 73
4
 74
0
 40
0
 40
0
 40
0
 40
0
 40
1
 40
1
 40
1
 40
1
 10
3.412859
 20
6.432198
 30
0.0
 10
3.430007
 20
6.447699
 30
0.0
 10
3.423915
 20
6.472228
 30
0.0
 10
3.426172
 20
6.492707
 30
0.0
  0
SPLINE
  5
105
100
AcDbEntity
  8
0
 62
7
100
AcDbSpline
 70
8
 71
3
 72
8
 73
4
 74
0
 40
0
 40
0
 40
0
 40
0
 40
1
 40
1
 40
1
 40
1
 10
3.426172
 20
6.492707
 30
0.0
 10
3.430020
 20
6.642571
 30
0.0
 10
3.475596
 20
6.791004
 30
0.0
 10
3.556919
 20
6.916964
 30
0.0
  0
SPLINE
  5
106
100
AcDbEntity
  8
0
 62
7
100
AcDbSpline
 70
8
 71
3
 72
8
 73
4
 74
0
 40
0
 40
0
 40
0
 40
0
 40
1
 40
1
 40
1
 40
1
 10
3.556919
 20
6.916964
 30
0.0
 10
3.628299
 20
7.029222
 30
0.0
 10
3.727834
 20
7.123350
 30
0.0
 10
3.844235
 20
7.187835
 30
0.0
  0
SPLINE
  5
107
100
AcDbEntity
  8
0
 62
7
100
AcDbSpline
 70
8
 71
3
 72
8
 73
4
 74
0
 40
0
 40
0
 40
0
 40
0
 40
1
 40
1
 40
1
 40
1
 10
3.844235
 20
7.187835
 30
0.0
 10
3.852482
 20
7.192433
 30
0.0
 10
3.865671
 20
7.199529
 30
0.0
 10
3.876121
 20
7.204708
 30
0.0
  0
SPLINE
  5
108
100
AcDbEntity
  8
0
 62
7
100
AcDbSpline
 70
8
 71
3
 72
8
 73
4
 74
0
 40
0
 40
0
 40
0
 40
0
 40
1
 40
1
 40
1
 40
1
 10
3.876121
 20
7.204708
 30
0.0
 10
3.966996
 20
7.250390
 30
0.0
 10
4.066318
 20
7.278913
 30
0.0
 10
4.167449
 20
7.289402
 30
0.0
  0
SPLINE
  5
109
100
AcDbEntity
  8
0
 62
7
100
AcDbSpline
 70
8
 71
3
 72
8
 73
4
 74
0
 40
0
 40
0
 40
0
 40
0
 40
1
 40
1
 40
1
 40
1
 10
4.167449
 20
7.289402
 30
0.0
 10
4.181833
 20
7.290944
 30
0.0
 10
4.200963
 20
7.292375
 30
0.0
 10
4.217280
 20
7.293054
 30
0.0
  0
SPLINE
  5
10a
100
AcDbEntity
  8
0
 62
7
100
AcDbSpline
 70
8
 71
3
 72
8
 73
4
 74
0
 40
0
 40
0
 40
0
 40
0
 40
1
 40
1
 40
1
 40
1
 10
4.217280
 20
7.293054
 30
0.0
 10
4.236827
 20
7.293989
 30
0.0
 10
4.256399
 20
7.293842
 30
0.0
 10
4.275962
 20
7.293888
 30
0.0
  0
SPLINE
  5
10b
100
AcDbEntity
  8
0
 62
7
100
AcDbSpline
 70
8
 71
3
 72
8
 73
4
 74
0
 40
0
 40
0
 40
0
 40
0
 40
1
 40
1
 40
1
 40
1
 10
4.275962
 20
7.293888
 30
0.0
 10
4.288683
 20
7.306369
 30
0.0
 10
4.299531
 20
7.322429
 30
0.0
 10
4.297346
 20
7.341122
 30
0.0
  0
SPLINE
  5
10c
100
AcDbEntity
  8
0
 62
7
100
AcDbSpline
 70
8
 71
3
 72
8
 73
4
 74
0
 40
0
 40
0
 40
0
 40
0
 40
1
 40
1
 40
1
 40
1
 10
4.297346
 20
7.341122
 30
0.0
 10
4.296718
 20
7.355799
 30
0.0
 10
4.287137
 20
7.369536
 30
0.0
 10
4.276459
 20
7.377962
 30
0.0
  0
SPLINE
  5
10d
100
AcDbEntity
  8
0
 62
7
100
AcDbSpline
 70
8
 71
3
 72
8
 73
4
 74
0
 40
0
 40
0
 40
0
 40
0
 40
1
 40
1
 40
1
 40
1
 10
4.276459
 20
7.377962
 30
0.0
 10
4.260579
 20
7.379397
 30
0.0
 10
4.244744
 20
7.380097
 30
0.0
 10
4.228801
 20
7.379403
 30
0.0
  0
SPLINE
  5
10e
100
AcDbEntity
  8
0
 62
7
100
AcDbSpline
 70
8
 71
3
 72
8
 73
4
 74
0
 40
0
 40
0
 40
0
 40
0
 40
1
 40
1
 40
1
 40
1
 10
4.251335
 20
10.719357
 30
0.0
 10
4.226511
 20
10.716015
 30
0.0
 10
4.212527
 20
10.691946
 30
0.0
 10
4.195325
 20
10.676312
 30
0.0
  0
SPLINE
  5
10f
100
AcDbEntity
  8
0
 62
7
100
AcDbSpline
 70
8
 71
3
 72
8
 73
4
 74
0
 40
0
 40
0
 40
0
 40
0
 40
1
 40
1
 40
1
 40
1
 10
4.195325
 20
10.676312
 30
0.0
 10
4.146850
 20
10.626697
 30
0.0
 10
4.098668
 20
10.573705
 30
0.0
 10
4.054781
 20
10.521806
 30
0.0
  0
SPLINE
  5
110
100
AcDbEntity
  8
0
 62
7
100
AcDbSpline
 70
8
 71
3
 72
8
 73
4
 74
0
 40
0
 40
0
 40
0
 40
0
 40
1
 40
1
 40
1
 40
1
 10
4.054781
 20
10.521806
 30
0.0
 10
3.906383
 20
10.346357
 30
0.0
 10
3.778990
 20
10.152572
 30
0.0
 10
3.681981
 20
9.944076
 30
0.0
  0
SPLINE
  5
111
100
AcDbEntity
  8
0
 62
7
100
AcDbSpline
 70
8
 71
3
 72
8
 73
4
 74
0
 40
0
 40
0
 40
0
 40
0
 40
1
 40
1
 40
1
 40
1
 10
3.681981
 20
9.944076
 30
0.0
 10
3.673235
 20
9.924993
 30
0.0
 10
3.662865
 20
9.901993
 30
0.0
 10
3.653930
 20
9.881228
 30
0.0
  0
SPLINE
  5
112
100
AcDbEntity
  8
0
 62
7
100
AcDbSpline
 70
8
 71
3
 72
8
 73
4
 74
0
 40
0
 40
0
 40
0
 40
0
 40
1
 40
1
 40
1
 40
1
 10
3.653930
 20
9.881228
 30
0.0
 10
3.640419
 20
9.849573
 30
0.0
 10
3.627606
 20
9.817627
 30
0.0
 10
3.615410
 20
9.785443
 30
0.0
  0
SPLINE
  5
113
100
AcDbEntity
  8
0
 62
7
100
AcDbSpline
 70
8
 71
3
 72
8
 73
4
 74
0
 40
0
 40
0
 40
0
 40
0
 40
1
 40
1
 40
1
 40
1
 10
3.615410
 20
9.785443
 30
0.0
 10
3.610051
 20
9.770918
 30
0.0
 10
3.602962
 20
9.751886
 30
0.0
 10
3.597403
 20
9.735457
 30
0.0
  0
SPLINE
  5
114
100
AcDbEntity
  8
0
 62
7
100
AcDbSpline
 70
8
 71
3
 72
8
 73
4
 74
0
 40
0
 40
0
 40
0
 40
0
 40
1
 40
1
 40
1
 40
1
 10
3.597403
 20
9.735457
 30
0.0
 10
3.548338
 20
9.594696
 30
0.0
 10
3.513581
 20
9.448944
 30
0.0
 10
3.494600
 20
9.301071
 30
0.0
  0
SPLINE
  5
115
100
AcDbEntity
  8
0
 62
7
100
AcDbSpline
 70
8
 71
3
 72
8
 73
4
 74
0
 40
0
 40
0
 40
0
 40
0
 40
1
 40
1
 40
1
 40
1
 10
3.494600
 20
9.301071
 30
0.0
 10
3.493038
 20
9.286811
 30
0.0
 10
3.490404
 20
9.267819
 30
0.0
 10
3.488914
 20
9.251598
 30
0.0
  0
SPLINE
  5
116
100
AcDbEntity
  8
0
 62
7
100
AcDbSpline
 70
8
 71
3
 72
8
 73
4
 74
0
 40
0
 40
0
 40
0
 40
0
 40
1
 40
1
 40
1
 40
1
 10
3.488914
 20
9.251598
 30
0.0
 10
3.478192
 20
9.149207
 30
0.0
 10
3.475079
 20
9.048414
 30
0.0
 10
3.479373
 20
8.944941
 30
0.0
  0
SPLINE
  5
117
100
AcDbEntity
  8
0
 62
7
100
AcDbSpline
 70
8
 71
3
 72
8
 73
4
 74
0
 40
0
 40
0
 40
0
 40
0
 40
1
 40
1
 40
1
 40
1
 10
3.479373
 20
8.944941
 30
0.0
 10
3.484504
 20
8.825485
 30
0.0
 10
3.499237
 20
8.708988
 30
0.0
 10
3.523481
 20
8.592228
 30
0.0
  0
SPLINE
  5
118
100
AcDbEntity
  8
0
 62
7
100
AcDbSpline
 70
8
 71
3
 72
8
 73
4
 74
0
 40
0
 40
0
 40
0
 40
0
 40
1
 40
1
 40
1
 40
1
 10
3.523481
 20
8.592228
 30
0.0
 10
3.539212
 20
8.515845
 30
0.0
 10
3.559787
 20
8.438156
 30
0.0
 10
3.583547
 20
8.362953
 30
0.0
  0
SPLINE
  5
119
100
AcDbEntity
  8
0
 62
7
100
AcDbSpline
 70
8
 71
3
 72
8
 73
4
 74
0
 40
0
 40
0
 40
0
 40
0
 40
1
 40
1
 40
1
 40
1
 10
3.583547
 20
8.362953
 30
0.0
 10
3.593425
 20
8.339876
 30
0.0
 10
3.588414
 20
8.314418
 30
0.0
 10
3.590100
 20
8.290030
 30
0.0
  0
SPLINE
  5
11a
100
AcDbEntity
  8
0
 62
7
100
AcDbSpline
 70
8
 71
3
 72
8
 73
4
 74
0
 40
0
 40
0
 40
0
 40
0
 40
1
 40
1
 40
1
 40
1
 10
3.590100
 20
8.290030
 30
0.0
 10
3.591026
 20
8.219368
 30
0.0
 10
3.591951
 20
8.148706
 30
0.0
 10
3.592877
 20
8.078044
 30
0.0
  0
SPLINE
  5
11b
100
AcDbEntity
  8
0
 62
7
100
AcDbSpline
 70
8
 71
3
 72
8
 73
4
 74
0
 40
0
 40
0
 40
0
 40
0
 40
1
 40
1
 40
1
 40
1
 10
3.592877
 20
8.078044
 30
0.0
 10
3.531911
 20
8.140097
 30
0.0
 10
3.468933
 20
8.200198
 30
0.0
 10
3.408521
 20
8.262758
 30
0.0
  0
SPLINE
  5
11c
100
AcDbEntity
  8
0
 62
7
100
AcDbSpline
 70
8
 71
3
 72
8
 73
4
 74
0
 40
0
 40
0
 40
0
 40
0
 40
1
 40
1
 40
1
 40
1
 10
3.408521
 20
8.262758
 30
0.0
 10
3.388507
 20
8.288545
 30
0.0
 10
3.376663
 20
8.319407
 30
0.0
 10
3.358933
 20
8.346703
 30
0.0
  0
SPLINE
  5
11d
100
AcDbEntity
  8
0
 62
7
100
AcDbSpline
 70
8
 71
3
 72
8
 73
4
 74
0
 40
0
 40
0
 40
0
 40
0
 40
1
 40
1
 40
1
 40
1
 10
3.358933
 20
8.346703
 30
0.0
 10
3.332053
 20
8.393001
 30
0.0
 10
3.301528
 20
8.440426
 30
0.0
 10
3.272288
 20
8.483083
 30
0.0
  0
SPLINE
  5
11e
100
AcDbEntity
  8
0
 62
7
100
AcDbSpline
 70
8
 71
3
 72
8
 73
4
 74
0
 40
0
 40
0
 40
0
 40
0
 40
1
 40
1
 40
1
 40
1
 10
3.272288
 20
8.483083
 30
0.0
 10
3.118553
 20
8.705710
 30
0.0
 10
2.923266
 20
8.899427
 30
0.0
 10
2.699710
 20
9.051773
 30
0.0
  0
SPLINE
  5
11f
100
AcDbEntity
  8
0
 62
7
100
AcDbSpline
 70
8
 71
3
 72
8
 73
4
 74
0
 40
0
 40
0
 40
0
 40
0
 40
1
 40
1
 40
1
 40
1
 10
2.699710
 20
9.051773
 30
0.0
 10
2.675973
 20
9.067801
 30
0.0
 10
2.649150
 20
9.085766
 30
0.0
 10
2.623655
 20
9.101666
 30
0.0
  0
SPLINE
  5
120
100
AcDbEntity
  8
0
 62
7
100
AcDbSpline
 70
8
 71
3
 72
8
 73
4
 74
0
 40
0
 40
0
 40
0
 40
0
 40
1
 40
1
 40
1
 40
1
 10
2.623655
 20
9.101666
 30
0.0
 10
2.326629
 20
9.288411
 30
0.0
 10
1.989045
 20
9.408519
 30
0.0
 10
1.642128
 20
9.458640
 30
0.0
  0
SPLINE
  5
121
100
AcDbEntity
  8
0
 62
7
100
AcDbSpline
 70
8
 71
3
 72
8
 73
4
 74
0
 40
0
 40
0
 40
0
 40
0
 40
1
 40
1
 40
1
 40
1
 10
1.642128
 20
9.458640
 30
0.0
 10
1.578816
 20
9.467729
 30
0.0
 10
1.510019
 20
9.475204
 30
0.0
 10
1.443875
 20
9.479582
 30
0.0
  0
SPLINE
  5
122
100
AcDbEntity
  8
0
 62
7
100
AcDbSpline
 70
8
 71
3
 72
8
 73
4
 74
0
 40
0
 40
0
 40
0
 40
0
 40
1
 40
1
 40
1
 40
1
 10
1.443875
 20
9.479582
 30
0.0
 10
1.384322
 20
9.483024
 30
0.0
 10
1.324546
 20
9.486394
 30
0.0
 10
1.264918
 20
9.484413
 30
0.0
  0
SPLINE
  5
123
100
AcDbEntity
  8
0
 62
7
100
AcDbSpline
 70
8
 71
3
 72
8
 73
4
 74
0
 40
0
 40
0
 40
0
 40
0
 40
1
 40
1
 40
1
 40
1
 10
1.264918
 20
9.484413
 30
0.0
 10
1.249466
 20
9.482987
 30
0.0
 10
1.235937
 20
9.471109
 30
0.0
 10
1.235219
 20
9.455105
 30
0.0
  0
SPLINE
  5
124
100
AcDbEntity
  8
0
 62
7
100
AcDbSpline
 70
8
 71
3
 72
8
 73
4
 74
0
 40
0
 40
0
 40
0
 40
0
 40
1
 40
1
 40
1
 40
1
 10
1.235219
 20
9.455105
 30
0.0
 10
1.231740
 20
9.425504
 30
0.0
 10
1.235553
 20
9.395614
 30
0.0
 10
1.235036
 20
9.365880
 30
0.0
  0
SPLINE
  5
125
100
AcDbEntity
  8
0
 62
7
100
AcDbSpline
 70
8
 71
3
 72
8
 73
4
 74
0
 40
0
 40
0
 40
0
 40
0
 40
1
 40
1
 40
1
 40
1
 10
1.235036
 20
9.365880
 30
0.0
 10
1.235404
 20
9.347023
 30
0.0
 10
1.236229
 20
9.326818
 30
0.0
 10
1.236922
 20
9.308915
 30
0.0
  0
SPLINE
  5
126
100
AcDbEntity
  8
0
 62
7
100
AcDbSpline
 70
8
 71
3
 72
8
 73
4
 74
0
 40
0
 40
0
 40
0
 40
0
 40
1
 40
1
 40
1
 40
1
 10
1.236922
 20
9.308915
 30
0.0
 10
1.239261
 20
9.257940
 30
0.0
 10
1.242825
 20
9.207022
 30
0.0
 10
1.247757
 20
9.156232
 30
0.0
  0
SPLINE
  5
127
100
AcDbEntity
  8
0
 62
7
100
AcDbSpline
 70
8
 71
3
 72
8
 73
4
 74
0
 40
0
 40
0
 40
0
 40
0
 40
1
 40
1
 40
1
 40
1
 10
1.247757
 20
9.156232
 30
0.0
 10
1.250485
 20
9.129179
 30
0.0
 10
1.253825
 20
9.098435
 30
0.0
 10
1.257571
 20
9.070034
 30
0.0
  0
SPLINE
  5
128
100
AcDbEntity
  8
0
 62
7
100
AcDbSpline
 70
8
 71
3
 72
8
 73
4
 74
0
 40
0
 40
0
 40
0
 40
0
 40
1
 40
1
 40
1
 40
1
 10
1.257571
 20
9.070034
 30
0.0
 10
1.275001
 20
8.934703
 30
0.0
 10
1.302837
 20
8.800682
 30
0.0
 10
1.341580
 20
8.669832
 30
0.0
  0
SPLINE
  5
129
100
AcDbEntity
  8
0
 62
7
100
AcDbSpline
 70
8
 71
3
 72
8
 73
4
 74
0
 40
0
 40
0
 40
0
 40
0
 40
1
 40
1
 40
1
 40
1
 10
1.341580
 20
8.669832
 30
0.0
 10
1.347391
 20
8.650342
 30
0.0
 10
1.354772
 20
8.626405
 30
0.0
 10
1.361061
 20
8.607179
 30
0.0
  0
SPLINE
  5
12a
100
AcDbEntity
  8
0
 62
7
100
AcDbSpline
 70
8
 71
3
 72
8
 73
4
 74
0
 40
0
 40
0
 40
0
 40
0
 40
1
 40
1
 40
1
 40
1
 10
1.361061
 20
8.607179
 30
0.0
 10
1.457404
 20
8.311330
 30
0.0
 10
1.614327
 20
8.034609
 30
0.0
 10
1.824068
 20
7.804361
 30
0.0
  0
SPLINE
  5
12b
100
AcDbEntity
  8
0
 62
7
100
AcDbSpline
 70
8
 71
3
 72
8
 73
4
 74
0
 40
0
 40
0
 40
0
 40
0
 40
1
 40
1
 40
1
 40
1
 10
1.824068
 20
7.804361
 30
0.0
 10
1.973501
 20
7.639733
 30
0.0
 10
2.148693
 20
7.499016
 30
0.0
 10
2.339572
 20
7.385253
 30
0.0
  0
SPLINE
  5
12c
100
AcDbEntity
  8
0
 62
7
100
AcDbSpline
 70
8
 71
3
 72
8
 73
4
 74
0
 40
0
 40
0
 40
0
 40
0
 40
1
 40
1
 40
1
 40
1
 10
2.339572
 20
7.385253
 30
0.0
 10
2.373662
 20
7.364924
 30
0.0
 10
2.411026
 20
7.343894
 30
0.0
 10
2.447245
 20
7.324836
 30
0.0
  0
SPLINE
  5
12d
100
AcDbEntity
  8
0
 62
7
100
AcDbSpline
 70
8
 71
3
 72
8
 73
4
 74
0
 40
0
 40
0
 40
0
 40
0
 40
1
 40
1
 40
1
 40
1
 10
2.447245
 20
7.324836
 30
0.0
 10
2.469862
 20
7.314342
 30
0.0
 10
2.491512
 20
7.301214
 30
0.0
 10
2.507416
 20
7.281591
 30
0.0
  0
SPLINE
  5
12e
100
AcDbEntity
  8
0
 62
7
100
AcDbSpline
 70
8
 71
3
 72
8
 73
4
 74
0
 40
0
 40
0
 40
0
 40
0
 40
1
 40
1
 40
1
 40
1
 10
2.507416
 20
7.281591
 30
0.0
 10
2.560688
 20
7.227792
 30
0.0
 10
2.614145
 20
7.174130
 30
0.0
 10
2.667472
 20
7.120367
 30
0.0
  0
SPLINE
  5
12f
100
AcDbEntity
  8
0
 62
7
100
AcDbSpline
 70
8
 71
3
 72
8
 73
4
 74
0
 40
0
 40
0
 40
0
 40
0
 40
1
 40
1
 40
1
 40
1
 10
2.667472
 20
7.120367
 30
0.0
 10
2.579575
 20
7.120799
 30
0.0
 10
2.491675
 20
7.119496
 30
0.0
 10
2.403782
 20
7.120537
 30
0.0
  0
SPLINE
  5
130
100
AcDbEntity
  8
0
 62
7
100
AcDbSpline
 70
8
 71
3
 72
8
 73
4
 74
0
 40
0
 40
0
 40
0
 40
0
 40
1
 40
1
 40
1
 40
1
 10
2.403782
 20
7.120537
 30
0.0
 10
2.242082
 20
7.172986
 30
0.0
 10
2.074307
 20
7.206978
 30
0.0
 10
1.904753
 20
7.219878
 30
0.0
  0
SPLINE
  5
131
100
AcDbEntity
  8
0
 62
7
100
AcDbSpline
 70
8
 71
3
 72
8
 73
4
 74
0
 40
0
 40
0
 40
0
 40
0
 40
1
 40
1
 40
1
 40
1
 10
1.904753
 20
7.219878
 30
0.0
 10
1.887779
 20
7.220991
 30
0.0
 10
1.866164
 20
7.222575
 30
0.0
 10
1.847395
 20
7.223379
 30
0.0
  0
SPLINE
  5
132
100
AcDbEntity
  8
0
 62
7
100
AcDbSpline
 70
8
 71
3
 72
8
 73
4
 74
0
 40
0
 40
0
 40
0
 40
0
 40
1
 40
1
 40
1
 40
1
 10
1.847395
 20
7.223379
 30
0.0
 10
1.807036
 20
7.225397
 30
0.0
 10
1.762474
 20
7.226221
 30
0.0
 10
1.720331
 20
7.225790
 30
0.0
  0
SPLINE
  5
133
100
AcDbEntity
  8
0
 62
7
100
AcDbSpline
 70
8
 71
3
 72
8
 73
4
 74
0
 40
0
 40
0
 40
0
 40
0
 40
1
 40
1
 40
1
 40
1
 10
1.720331
 20
7.225790
 30
0.0
 10
1.644646
 20
7.225060
 30
0.0
 10
1.569014
 20
7.220281
 30
0.0
 10
1.493798
 20
7.211868
 30
0.0
  0
SPLINE
  5
134
100
AcDbEntity
  8
0
 62
7
100
AcDbSpline
 70
8
 71
3
 72
8
 73
4
 74
0
 40
0
 40
0
 40
0
 40
0
 40
1
 40
1
 40
1
 40
1
 10
1.493798
 20
7.211868
 30
0.0
 10
1.474297
 20
7.209534
 30
0.0
 10
1.450556
 20
7.206583
 30
0.0
 10
1.429500
 20
7.203539
 30
0.0
  0
SPLINE
  5
135
100
AcDbEntity
  8
0
 62
7
100
AcDbSpline
 70
8
 71
3
 72
8
 73
4
 74
0
 40
0
 40
0
 40
0
 40
0
 40
1
 40
1
 40
1
 40
1
 10
1.429500
 20
7.203539
 30
0.0
 10
1.364292
 20
7.194227
 30
0.0
 10
1.297225
 20
7.181258
 30
0.0
 10
1.234529
 20
7.166734
 30
0.0
  0
SPLINE
  5
136
100
AcDbEntity
  8
0
 62
7
100
AcDbSpline
 70
8
 71
3
 72
8
 73
4
 74
0
 40
0
 40
0
 40
0
 40
0
 40
1
 40
1
 40
1
 40
1
 10
1.234529
 20
7.166734
 30
0.0
 10
1.185934
 20
7.155235
 30
0.0
 10
1.138251
 20
7.142604
 30
0.0
 10
1.091284
 20
7.128414
 30
0.0
  0
SPLINE
  5
137
100
AcDbEntity
  8
0
 62
7
100
AcDbSpline
 70
8
 71
3
 72
8
 73
4
 74
0
 40
0
 40
0
 40
0
 40
0
 40
1
 40
1
 40
1
 40
1
 10
1.091284
 20
7.128414
 30
0.0
 10
1.005610
 20
7.102779
 30
0.0
 10
0.921501
 20
7.072070
 30
0.0
 10
0.839128
 20
7.037283
 30
0.0
  0
SPLINE
  5
138
100
AcDbEntity
  8
0
 62
7
100
AcDbSpline
 70
8
 71
3
 72
8
 73
4
 74
0
 40
0
 40
0
 40
0
 40
0
 40
1
 40
1
 40
1
 40
1
 10
0.839128
 20
7.037283
 30
0.0
 10
0.814976
 20
7.027036
 30
0.0
 10
0.787517
 20
7.014934
 30
0.0
 10
0.762407
 20
7.003200
 30
0.0
  0
SPLINE
  5
139
100
AcDbEntity
  8
0
 62
7
100
AcDbSpline
 70
8
 71
3
 72
8
 73
4
 74
0
 40
0
 40
0
 40
0
 40
0
 40
1
 40
1
 40
1
 40
1
 10
0.762407
 20
7.003200
 30
0.0
 10
0.566508
 20
6.912526
 30
0.0
 10
0.382343
 20
6.796890
 30
0.0
 10
0.214470
 20
6.661258
 30
0.0
  0
SPLINE
  5
13a
100
AcDbEntity
  8
0
 62
7
100
AcDbSpline
 70
8
 71
3
 72
8
 73
4
 74
0
 40
0
 40
0
 40
0
 40
0
 40
1
 40
1
 40
1
 40
1
 10
0.214470
 20
6.661258
 30
0.0
 10
0.198499
 20
6.648229
 30
0.0
 10
0.179351
 20
6.632324
 30
0.0
 10
0.162395
 20
6.617921
 30
0.0
  0
SPLINE
  5
13b
100
AcDbEntity
  8
0
 62
7
100
AcDbSpline
 70
8
 71
3
 72
8
 73
4
 74
0
 40
0
 40
0
 40
0
 40
0
 40
1
 40
1
 40
1
 40
1
 10
0.162395
 20
6.617921
 30
0.0
 10
0.107967
 20
6.571167
 30
0.0
 10
0.054539
 20
6.522925
 30
0.0
 10
0.005353
 20
6.470686
 30
0.0
  0
SPLINE
  5
13c
100
AcDbEntity
  8
0
 62
7
100
AcDbSpline
 70
8
 71
3
 72
8
 73
4
 74
0
 40
0
 40
0
 40
0
 40
0
 40
1
 40
1
 40
1
 40
1
 10
0.005353
 20
6.470686
 30
0.0
 10
-0.005834
 20
6.452819
 30
0.0
 10
0.001569
 20
6.429290
 30
0.0
 10
0.017790
 20
6.417218
 30
0.0
  0
SPLINE
  5
13d
100
AcDbEntity
  8
0
 62
7
100
AcDbSpline
 70
8
 71
3
 72
8
 73
4
 74
0
 40
0
 40
0
 40
0
 40
0
 40
1
 40
1
 40
1
 40
1
 10
0.017790
 20
6.417218
 30
0.0
 10
0.062151
 20
6.372617
 30
0.0
 10
0.108337
 20
6.329834
 30
0.0
 10
0.155510
 20
6.288224
 30
0.0
  0
SPLINE
  5
13e
100
AcDbEntity
  8
0
 62
7
100
AcDbSpline
 70
8
 71
3
 72
8
 73
4
 74
0
 40
0
 40
0
 40
0
 40
0
 40
1
 40
1
 40
1
 40
1
 10
0.155510
 20
6.288224
 30
0.0
 10
0.177604
 20
6.269088
 30
0.0
 10
0.202500
 20
6.247700
 30
0.0
 10
0.226283
 20
6.228389
 30
0.0
  0
SPLINE
  5
13f
100
AcDbEntity
  8
0
 62
7
100
AcDbSpline
 70
8
 71
3
 72
8
 73
4
 74
0
 40
0
 40
0
 40
0
 40
0
 40
1
 40
1
 40
1
 40
1
 10
0.226283
 20
6.228389
 30
0.0
 10
0.487936
 20
6.013363
 30
0.0
 10
0.791801
 20
5.846869
 30
0.0
 10
1.119324
 20
5.757759
 30
0.0
  0
SPLINE
  5
140
100
AcDbEntity
  8
0
 62
7
100
AcDbSpline
 70
8
 71
3
 72
8
 73
4
 74
0
 40
0
 40
0
 40
0
 40
0
 40
1
 40
1
 40
1
 40
1
 10
1.119324
 20
5.757759
 30
0.0
 10
1.279798
 20
5.713661
 30
0.0
 10
1.445455
 20
5.688598
 30
0.0
 10
1.611784
 20
5.683042
 30
0.0
  0
SPLINE
  5
141
100
AcDbEntity
  8
0
 62
7
100
AcDbSpline
 70
8
 71
3
 72
8
 73
4
 74
0
 40
0
 40
0
 40
0
 40
0
 40
1
 40
1
 40
1
 40
1
 10
1.611784
 20
5.683042
 30
0.0
 10
1.744226
 20
5.678495
 30
0.0
 10
1.882118
 20
5.686632
 30
0.0
 10
2.012968
 20
5.707171
 30
0.0
  0
SPLINE
  5
142
100
AcDbEntity
  8
0
 62
7
100
AcDbSpline
 70
8
 71
3
 72
8
 73
4
 74
0
 40
0
 40
0
 40
0
 40
0
 40
1
 40
1
 40
1
 40
1
 10
2.012968
 20
5.707171
 30
0.0
 10
2.125720
 20
5.724555
 30
0.0
 10
2.236948
 20
5.751168
 30
0.0
 10
2.345820
 20
5.785174
 30
0.0
  0
SPLINE
  5
143
100
AcDbEntity
  8
0
 62
7
100
AcDbSpline
 70
8
 71
3
 72
8
 73
4
 74
0
 40
0
 40
0
 40
0
 40
0
 40
1
 40
1
 40
1
 40
1
 10
2.345820
 20
5.785174
 30
0.0
 10
2.436485
 20
5.787492
 30
0.0
 10
2.527152
 20
5.789731
 30
0.0
 10
2.617818
 20
5.792020
 30
0.0
  0
SPLINE
  5
144
100
AcDbEntity
  8
0
 62
7
100
AcDbSpline
 70
8
 71
3
 72
8
 73
4
 74
0
 40
0
 40
0
 40
0
 40
0
 40
1
 40
1
 40
1
 40
1
 10
2.617818
 20
5.792020
 30
0.0
 10
2.553320
 20
5.729365
 30
0.0
 10
2.490689
 20
5.664809
 30
0.0
 10
2.425751
 20
5.602612
 30
0.0
  0
SPLINE
  5
145
100
AcDbEntity
  8
0
 62
7
100
AcDbSpline
 70
8
 71
3
 72
8
 73
4
 74
0
 40
0
 40
0
 40
0
 40
0
 40
1
 40
1
 40
1
 40
1
 10
2.425751
 20
5.602612
 30
0.0
 10
2.392110
 20
5.580141
 30
0.0
 10
2.355608
 20
5.562354
 30
0.0
 10
2.321791
 20
5.540101
 30
0.0
  0
SPLINE
  5
146
100
AcDbEntity
  8
0
 62
7
100
AcDbSpline
 70
8
 71
3
 72
8
 73
4
 74
0
 40
0
 40
0
 40
0
 40
0
 40
1
 40
1
 40
1
 40
1
 10
2.321791
 20
5.540101
 30
0.0
 10
2.024785
 20
5.356039
 30
0.0
 10
1.774890
 20
5.098455
 30
0.0
 10
1.595076
 20
4.799209
 30
0.0
  0
SPLINE
  5
147
100
AcDbEntity
  8
0
 62
7
100
AcDbSpline
 70
8
 71
3
 72
8
 73
4
 74
0
 40
0
 40
0
 40
0
 40
0
 40
1
 40
1
 40
1
 40
1
 10
1.595076
 20
4.799209
 30
0.0
 10
1.507905
 20
4.655081
 30
0.0
 10
1.434203
 20
4.497384
 30
0.0
 10
1.378223
 20
4.336153
 30
0.0
  0
SPLINE
  5
148
100
AcDbEntity
  8
0
 62
7
100
AcDbSpline
 70
8
 71
3
 72
8
 73
4
 74
0
 40
0
 40
0
 40
0
 40
0
 40
1
 40
1
 40
1
 40
1
 10
1.378223
 20
4.336153
 30
0.0
 10
1.364259
 20
4.296660
 30
0.0
 10
1.350849
 20
4.254296
 30
0.0
 10
1.338523
 20
4.212776
 30
0.0
  0
SPLINE
  5
149
100
AcDbEntity
  8
0
 62
7
100
AcDbSpline
 70
8
 71
3
 72
8
 73
4
 74
0
 40
0
 40
0
 40
0
 40
0
 40
1
 40
1
 40
1
 40
1
 10
1.338523
 20
4.212776
 30
0.0
 10
1.332874
 20
4.193005
 30
0.0
 10
1.326032
 20
4.169118
 30
0.0
 10
1.320393
 20
4.147646
 30
0.0
  0
SPLINE
  5
14a
100
AcDbEntity
  8
0
 62
7
100
AcDbSpline
 70
8
 71
3
 72
8
 73
4
 74
0
 40
0
 40
0
 40
0
 40
0
 40
1
 40
1
 40
1
 40
1
 10
1.320393
 20
4.147646
 30
0.0
 10
1.312790
 20
4.119372
 30
0.0
 10
1.305208
 20
4.087665
 30
0.0
 10
1.299039
 20
4.061157
 30
0.0
  0
SPLINE
  5
14b
100
AcDbEntity
  8
0
 62
7
100
AcDbSpline
 70
8
 71
3
 72
8
 73
4
 74
0
 40
0
 40
0
 40
0
 40
0
 40
1
 40
1
 40
1
 40
1
 10
1.299039
 20
4.061157
 30
0.0
 10
1.276583
 20
3.961689
 30
0.0
 10
1.259457
 20
3.861013
 30
0.0
 10
1.248588
 20
3.759612
 30
0.0
  0
SPLINE
  5
14c
100
AcDbEntity
  8
0
 62
7
100
AcDbSpline
 70
8
 71
3
 72
8
 73
4
 74
0
 40
0
 40
0
 40
0
 40
0
 40
1
 40
1
 40
1
 40
1
 10
1.248588
 20
3.759612
 30
0.0
 10
1.244872
 20
3.724327
 30
0.0
 10
1.241472
 20
3.685835
 30
0.0
 10
1.239116
 20
3.649205
 30
0.0
  0
SPLINE
  5
14d
100
AcDbEntity
  8
0
 62
7
100
AcDbSpline
 70
8
 71
3
 72
8
 73
4
 74
0
 40
0
 40
0
 40
0
 40
0
 40
1
 40
1
 40
1
 40
1
 10
1.239116
 20
3.649205
 30
0.0
 10
1.237329
 20
3.620575
 30
0.0
 10
1.235682
 20
3.586907
 30
0.0
 10
1.235023
 20
3.558175
 30
0.0
  0
SPLINE
  5
14e
100
AcDbEntity
  8
0
 62
7
100
AcDbSpline
 70
8
 71
3
 72
8
 73
4
 74
0
 40
0
 40
0
 40
0
 40
0
 40
1
 40
1
 40
1
 40
1
 10
1.235023
 20
3.558175
 30
0.0
 10
1.235029
 20
3.529782
 30
0.0
 10
1.232506
 20
3.501098
 30
0.0
 10
1.235454
 20
3.472864
 30
0.0
  0
SPLINE
  5
14f
100
AcDbEntity
  8
0
 62
7
100
AcDbSpline
 70
8
 71
3
 72
8
 73
4
 74
0
 40
0
 40
0
 40
0
 40
0
 40
1
 40
1
 40
1
 40
1
 10
1.235454
 20
3.472864
 30
0.0
 10
1.237666
 20
3.457541
 30
0.0
 10
1.251179
 20
3.447039
 30
0.0
 10
1.266269
 20
3.446369
 30
0.0
  0
SPLINE
  5
150
100
AcDbEntity
  8
0
 62
7
100
AcDbSpline
 70
8
 71
3
 72
8
 73
4
 74
0
 40
0
 40
0
 40
0
 40
0
 40
1
 40
1
 40
1
 40
1
 10
1.266269
 20
3.446369
 30
0.0
 10
1.296874
 20
3.443985
 30
0.0
 10
1.327642
 20
3.447009
 30
0.0
 10
1.358324
 20
3.446728
 30
0.0
  0
SPLINE
  5
151
100
AcDbEntity
  8
0
 62
7
100
AcDbSpline
 70
8
 71
3
 72
8
 73
4
 74
0
 40
0
 40
0
 40
0
 40
0
 40
1
 40
1
 40
1
 40
1
 10
1.358324
 20
3.446728
 30
0.0
 10
1.396867
 20
3.447710
 30
0.0
 10
1.438840
 20
3.449640
 30
0.0
 10
1.477246
 20
3.452294
 30
0.0
  0
SPLINE
  5
152
100
AcDbEntity
  8
0
 62
7
100
AcDbSpline
 70
8
 71
3
 72
8
 73
4
 74
0
 40
0
 40
0
 40
0
 40
0
 40
1
 40
1
 40
1
 40
1
 10
1.477246
 20
3.452294
 30
0.0
 10
1.597698
 20
3.460424
 30
0.0
 10
1.717702
 20
3.475944
 30
0.0
 10
1.836023
 20
3.500011
 30
0.0
  0
SPLINE
  5
153
100
AcDbEntity
  8
0
 62
7
100
AcDbSpline
 70
8
 71
3
 72
8
 73
4
 74
0
 40
0
 40
0
 40
0
 40
0
 40
1
 40
1
 40
1
 40
1
 10
1.836023
 20
3.500011
 30
0.0
 10
2.002560
 20
3.533953
 30
0.0
 10
2.168809
 20
3.585334
 30
0.0
 10
2.325416
 20
3.654482
 30
0.0
  0
SPLINE
  5
154
100
AcDbEntity
  8
0
 62
7
100
AcDbSpline
 70
8
 71
3
 72
8
 73
4
 74
0
 40
0
 40
0
 40
0
 40
0
 40
1
 40
1
 40
1
 40
1
 10
2.325416
 20
3.654482
 30
0.0
 10
2.446609
 20
3.707642
 30
0.0
 10
2.565061
 20
3.773075
 30
0.0
 10
2.675250
 20
3.848324
 30
0.0
  0
SPLINE
  5
155
100
AcDbEntity
  8
0
 62
7
100
AcDbSpline
 70
8
 71
3
 72
8
 73
4
 74
0
 40
0
 40
0
 40
0
 40
0
 40
1
 40
1
 40
1
 40
1
 10
2.675250
 20
3.848324
 30
0.0
 10
2.868650
 20
3.979751
 30
0.0
 10
3.041871
 20
4.146049
 30
0.0
 10
3.182723
 20
4.334381
 30
0.0
  0
SPLINE
  5
156
100
AcDbEntity
  8
0
 62
7
100
AcDbSpline
 70
8
 71
3
 72
8
 73
4
 74
0
 40
0
 40
0
 40
0
 40
0
 40
1
 40
1
 40
1
 40
1
 10
3.182723
 20
4.334381
 30
0.0
 10
3.259468
 20
4.435833
 30
0.0
 10
3.326219
 20
4.544498
 30
0.0
 10
3.385687
 20
4.656867
 30
0.0
  0
SPLINE
  5
157
100
AcDbEntity
  8
0
 62
7
100
AcDbSpline
 70
8
 71
3
 72
8
 73
4
 74
0
 40
0
 40
0
 40
0
 40
0
 40
1
 40
1
 40
1
 40
1
 10
3.385687
 20
4.656867
 30
0.0
 10
3.411917
 20
4.691239
 30
0.0
 10
3.445347
 20
4.719095
 30
0.0
 10
3.474455
 20
4.750896
 30
0.0
  0
SPLINE
  5
158
100
AcDbEntity
  8
0
 62
7
100
AcDbSpline
 70
8
 71
3
 72
8
 73
4
 74
0
 40
0
 40
0
 40
0
 40
0
 40
1
 40
1
 40
1
 40
1
 10
3.474455
 20
4.750896
 30
0.0
 10
3.508321
 20
4.785405
 30
0.0
 10
3.542174
 20
4.819928
 30
0.0
 10
3.576026
 20
4.854451
 30
0.0
  0
SPLINE
  5
159
100
AcDbEntity
  8
0
 62
7
100
AcDbSpline
 70
8
 71
3
 72
8
 73
4
 74
0
 40
0
 40
0
 40
0
 40
0
 40
1
 40
1
 40
1
 40
1
 10
3.576026
 20
4.854451
 30
0.0
 10
3.574813
 20
4.767754
 30
0.0
 10
3.576009
 20
4.681037
 30
0.0
 10
3.574298
 20
4.594351
 30
0.0
  0
SPLINE
  5
15a
100
AcDbEntity
  8
0
 62
7
100
AcDbSpline
 70
8
 71
3
 72
8
 73
4
 74
0
 40
0
 40
0
 40
0
 40
0
 40
1
 40
1
 40
1
 40
1
 10
3.574298
 20
4.594351
 30
0.0
 10
3.570476
 20
4.561489
 30
0.0
 10
3.556558
 20
4.530971
 30
0.0
 10
3.549632
 20
4.498751
 30
0.0
  0
SPLINE
  5
15b
100
AcDbEntity
  8
0
 62
7
100
AcDbSpline
 70
8
 71
3
 72
8
 73
4
 74
0
 40
0
 40
0
 40
0
 40
0
 40
1
 40
1
 40
1
 40
1
 10
3.549632
 20
4.498751
 30
0.0
 10
3.490891
 20
4.277620
 30
0.0
 10
3.468506
 20
4.047000
 30
0.0
 10
3.482735
 20
3.818671
 30
0.0
  0
SPLINE
  5
15c
100
AcDbEntity
  8
0
 62
7
100
AcDbSpline
 70
8
 71
3
 72
8
 73
4
 74
0
 40
0
 40
0
 40
0
 40
0
 40
1
 40
1
 40
1
 40
1
 10
3.482735
 20
3.818671
 30
0.0
 10
3.484924
 20
3.784670
 30
0.0
 10
3.488130
 20
3.747308
 30
0.0
 10
3.492059
 20
3.712132
 30
0.0
  0
SPLINE
  5
15d
100
AcDbEntity
  8
0
 62
7
100
AcDbSpline
 70
8
 71
3
 72
8
 73
4
 74
0
 40
0
 40
0
 40
0
 40
0
 40
1
 40
1
 40
1
 40
1
 10
3.492059
 20
3.712132
 30
0.0
 10
3.529355
 20
3.378050
 30
0.0
 10
3.643256
 20
3.051093
 30
0.0
 10
3.813023
 20
2.760012
 30
0.0
  0
SPLINE
  5
15e
100
AcDbEntity
  8
0
 62
7
100
AcDbSpline
 70
8
 71
3
 72
8
 73
4
 74
0
 40
0
 40
0
 40
0
 40
0
 40
1
 40
1
 40
1
 40
1
 10
3.813023
 20
2.760012
 30
0.0
 10
3.891439
 20
2.625309
 30
0.0
 10
3.981924
 20
2.497673
 30
0.0
 10
4.082666
 20
2.378750
 30
0.0
  0
SPLINE
  5
15f
100
AcDbEntity
  8
0
 62
7
100
AcDbSpline
 70
8
 71
3
 72
8
 73
4
 74
0
 40
0
 40
0
 40
0
 40
0
 40
1
 40
1
 40
1
 40
1
 10
4.082666
 20
2.378750
 30
0.0
 10
4.088501
 20
2.371966
 30
0.0
 10
4.098311
 20
2.360774
 30
0.0
 10
4.105670
 20
2.352301
 30
0.0
  0
SPLINE
  5
160
100
AcDbEntity
  8
0
 62
7
100
AcDbSpline
 70
8
 71
3
 72
8
 73
4
 74
0
 40
0
 40
0
 40
0
 40
0
 40
1
 40
1
 40
1
 40
1
 10
4.105670
 20
2.352301
 30
0.0
 10
4.147177
 20
2.304990
 30
0.0
 10
4.189597
 20
2.258026
 30
0.0
 10
4.235747
 20
2.215316
 30
0.0
  0
SPLINE
  5
161
100
AcDbEntity
  8
0
 62
7
100
AcDbSpline
 70
8
 71
3
 72
8
 73
4
 74
0
 40
0
 40
0
 40
0
 40
0
 40
1
 40
1
 40
1
 40
1
 10
4.235747
 20
2.215316
 30
0.0
 10
4.251360
 20
2.207466
 30
0.0
 10
4.272820
 20
2.209646
 30
0.0
 10
4.283154
 20
2.224917
 30
0.0
  0
SPLINE
  5
162
100
AcDbEntity
  8
0
 62
7
100
AcDbSpline
 70
8
 71
3
 72
8
 73
4
 74
0
 40
0
 40
0
 40
0
 40
0
 40
1
 40
1
 40
1
 40
1
 10
4.283154
 20
2.224917
 30
0.0
 10
4.331989
 20
2.275032
 30
0.0
 10
4.380350
 20
2.326682
 30
0.0
 10
4.425188
 20
2.379153
 30
0.0
  0
SPLINE
  5
163
100
AcDbEntity
  8
0
 62
7
100
AcDbSpline
 70
8
 71
3
 72
8
 73
4
 74
0
 40
0
 40
0
 40
0
 40
0
 40
1
 40
1
 40
1
 40
1
 10
4.425188
 20
2.379153
 30
0.0
 10
4.450178
 20
2.408514
 30
0.0
 10
4.477138
 20
2.440893
 30
0.0
 10
4.501721
 20
2.472406
 30
0.0
  0
SPLINE
  5
164
100
AcDbEntity
  8
0
 62
7
100
AcDbSpline
 70
8
 71
3
 72
8
 73
4
 74
0
 40
0
 40
0
 40
0
 40
0
 40
1
 40
1
 40
1
 40
1
 10
4.501721
 20
2.472406
 30
0.0
 10
4.530213
 20
2.508601
 30
0.0
 10
4.557620
 20
2.545347
 30
0.0
 10
4.583663
 20
2.582035
 30
0.0
  0
SPLINE
  5
165
100
AcDbEntity
  8
0
 62
7
100
AcDbSpline
 70
8
 71
3
 72
8
 73
4
 74
0
 40
0
 40
0
 40
0
 40
0
 40
1
 40
1
 40
1
 40
1
 10
4.583663
 20
2.582035
 30
0.0
 10
4.639737
 20
2.661274
 30
0.0
 10
4.691500
 20
2.743572
 30
0.0
 10
4.738300
 20
2.828623
 30
0.0
  0
SPLINE
  5
166
100
AcDbEntity
  8
0
 62
7
100
AcDbSpline
 70
8
 71
3
 72
8
 73
4
 74
0
 40
0
 40
0
 40
0
 40
0
 40
1
 40
1
 40
1
 40
1
 10
4.738300
 20
2.828623
 30
0.0
 10
4.751773
 20
2.853405
 30
0.0
 10
4.766788
 20
2.881557
 30
0.0
 10
4.780010
 20
2.908093
 30
0.0
  0
SPLINE
  5
167
100
AcDbEntity
  8
0
 62
7
100
AcDbSpline
 70
8
 71
3
 72
8
 73
4
 74
0
 40
0
 40
0
 40
0
 40
0
 40
1
 40
1
 40
1
 40
1
 10
4.780010
 20
2.908093
 30
0.0
 10
4.931027
 20
3.208098
 30
0.0
 10
5.015644
 20
3.542664
 30
0.0
 10
5.015286
 20
3.879053
 30
0.0
  0
SPLINE
  5
168
100
AcDbEntity
  8
0
 62
7
100
AcDbSpline
 70
8
 71
3
 72
8
 73
4
 74
0
 40
0
 40
0
 40
0
 40
0
 40
1
 40
1
 40
1
 40
1
 10
5.015286
 20
3.879053
 30
0.0
 10
5.015320
 20
3.910776
 30
0.0
 10
5.014556
 20
3.943529
 30
0.0
 10
5.013355
 20
3.972817
 30
0.0
  0
SPLINE
  5
169
100
AcDbEntity
  8
0
 62
7
100
AcDbSpline
 70
8
 71
3
 72
8
 73
4
 74
0
 40
0
 40
0
 40
0
 40
0
 40
1
 40
1
 40
1
 40
1
 10
5.013355
 20
3.972817
 30
0.0
 10
5.005731
 20
4.150064
 30
0.0
 10
4.976279
 20
4.326294
 30
0.0
 10
4.926545
 20
4.496573
 30
0.0
  0
SPLINE
  5
16a
100
AcDbEntity
  8
0
 62
7
100
AcDbSpline
 70
8
 71
3
 72
8
 73
4
 74
0
 40
0
 40
0
 40
0
 40
0
 40
1
 40
1
 40
1
 40
1
 10
4.926545
 20
4.496573
 30
0.0
 10
4.908576
 20
4.558421
 30
0.0
 10
4.886886
 20
4.622628
 30
0.0
 10
4.863509
 20
4.684019
 30
0.0
  0
SPLINE
  5
16b
100
AcDbEntity
  8
0
 62
7
100
AcDbSpline
 70
8
 71
3
 72
8
 73
4
 74
0
 40
0
 40
0
 40
0
 40
0
 40
1
 40
1
 40
1
 40
1
 10
4.863509
 20
4.684019
 30
0.0
 10
4.856808
 20
4.703269
 30
0.0
 10
4.847679
 20
4.722008
 30
0.0
 10
4.841905
 20
4.741356
 30
0.0
  0
SPLINE
  5
16c
100
AcDbEntity
  8
0
 62
7
100
AcDbSpline
 70
8
 71
3
 72
8
 73
4
 74
0
 40
0
 40
0
 40
0
 40
0
 40
1
 40
1
 40
1
 40
1
 10
4.841905
 20
4.741356
 30
0.0
 10
4.841668
 20
4.750968
 30
0.0
 10
4.844216
 20
4.761764
 30
0.0
 10
4.842359
 20
4.770664
 30
0.0
  0
SPLINE
  5
16d
100
AcDbEntity
  8
0
 62
7
100
AcDbSpline
 70
8
 71
3
 72
8
 73
4
 74
0
 40
0
 40
0
 40
0
 40
0
 40
1
 40
1
 40
1
 40
1
 10
4.842359
 20
4.770664
 30
0.0
 10
4.822541
 20
4.787446
 30
0.0
 10
4.809549
 20
4.810218
 30
0.0
 10
4.800604
 20
4.834252
 30
0.0
  0
SPLINE
  5
16e
100
AcDbEntity
  8
0
 62
7
100
AcDbSpline
 70
8
 71
3
 72
8
 73
4
 74
0
 40
0
 40
0
 40
0
 40
0
 40
1
 40
1
 40
1
 40
1
 10
4.800604
 20
4.834252
 30
0.0
 10
4.769905
 20
4.901234
 30
0.0
 10
4.735963
 20
4.966659
 30
0.0
 10
4.703303
 20
5.032692
 30
0.0
  0
SPLINE
  5
16f
100
AcDbEntity
  8
0
 62
7
100
AcDbSpline
 70
8
 71
3
 72
8
 73
4
 74
0
 40
0
 40
0
 40
0
 40
0
 40
1
 40
1
 40
1
 40
1
 10
4.703303
 20
5.032692
 30
0.0
 10
4.774971
 20
5.061873
 30
0.0
 10
4.846655
 20
5.091017
 30
0.0
 10
4.918335
 20
5.120167
 30
0.0
  0
SPLINE
  5
170
100
AcDbEntity
  8
0
 62
7
100
AcDbSpline
 70
8
 71
3
 72
8
 73
4
 74
0
 40
0
 40
0
 40
0
 40
0
 40
1
 40
1
 40
1
 40
1
 10
4.918335
 20
5.120167
 30
0.0
 10
4.947095
 20
5.036287
 30
0.0
 10
4.974318
 20
4.951795
 30
0.0
 10
5.007905
 20
4.869673
 30
0.0
  0
SPLINE
  5
171
100
AcDbEntity
  8
0
 62
7
100
AcDbSpline
 70
8
 71
3
 72
8
 73
4
 74
0
 40
0
 40
0
 40
0
 40
0
 40
1
 40
1
 40
1
 40
1
 10
5.007905
 20
4.869673
 30
0.0
 10
5.008146
 20
4.859405
 30
0.0
 10
5.005489
 20
4.847931
 30
0.0
 10
5.007472
 20
4.838398
 30
0.0
  0
SPLINE
  5
172
100
AcDbEntity
  8
0
 62
7
100
AcDbSpline
 70
8
 71
3
 72
8
 73
4
 74
0
 40
0
 40
0
 40
0
 40
0
 40
1
 40
1
 40
1
 40
1
 10
5.007472
 20
4.838398
 30
0.0
 10
5.026790
 20
4.821982
 30
0.0
 10
5.039666
 20
4.799848
 30
0.0
 10
5.048479
 20
4.776400
 30
0.0
  0
SPLINE
  5
173
100
AcDbEntity
  8
0
 62
7
100
AcDbSpline
 70
8
 71
3
 72
8
 73
4
 74
0
 40
0
 40
0
 40
0
 40
0
 40
1
 40
1
 40
1
 40
1
 10
5.048479
 20
4.776400
 30
0.0
 10
5.095459
 20
4.674175
 30
0.0
 10
5.150394
 20
4.575638
 30
0.0
 10
5.212368
 20
4.481750
 30
0.0
  0
SPLINE
  5
174
100
AcDbEntity
  8
0
 62
7
100
AcDbSpline
 70
8
 71
3
 72
8
 73
4
 74
0
 40
0
 40
0
 40
0
 40
0
 40
1
 40
1
 40
1
 40
1
 10
5.212368
 20
4.481750
 30
0.0
 10
5.217678
 20
4.473761
 30
0.0
 10
5.226343
 20
4.461063
 30
0.0
 10
5.232939
 20
4.451269
 30
0.0
  0
SPLINE
  5
175
100
AcDbEntity
  8
0
 62
7
100
AcDbSpline
 70
8
 71
3
 72
8
 73
4
 74
0
 40
0
 40
0
 40
0
 40
0
 40
1
 40
1
 40
1
 40
1
 10
5.232939
 20
4.451269
 30
0.0
 10
5.368043
 20
4.253663
 30
0.0
 10
5.536700
 20
4.079461
 30
0.0
 10
5.728181
 20
3.935959
 30
0.0
  0
SPLINE
  5
176
100
AcDbEntity
  8
0
 62
7
100
AcDbSpline
 70
8
 71
3
 72
8
 73
4
 74
0
 40
0
 40
0
 40
0
 40
0
 40
1
 40
1
 40
1
 40
1
 10
5.728181
 20
3.935959
 30
0.0
 10
5.862305
 20
3.835294
 30
0.0
 10
6.010225
 20
3.748159
 30
0.0
 10
6.163763
 20
3.677919
 30
0.0
  0
SPLINE
  5
177
100
AcDbEntity
  8
0
 62
7
100
AcDbSpline
 70
8
 71
3
 72
8
 73
4
 74
0
 40
0
 40
0
 40
0
 40
0
 40
1
 40
1
 40
1
 40
1
 10
6.163763
 20
3.677919
 30
0.0
 10
6.221187
 20
3.651723
 30
0.0
 10
6.277917
 20
3.628202
 30
0.0
 10
6.337426
 20
3.606155
 30
0.0
  0
SPLINE
  5
178
100
AcDbEntity
  8
0
 62
7
100
AcDbSpline
 70
8
 71
3
 72
8
 73
4
 74
0
 40
0
 40
0
 40
0
 40
0
 40
1
 40
1
 40
1
 40
1
 10
6.337426
 20
3.606155
 30
0.0
 10
6.379093
 20
3.590702
 30
0.0
 10
6.425148
 20
3.575046
 30
0.0
 10
6.468129
 20
3.561755
 30
0.0
  0
SPLINE
  5
179
100
AcDbEntity
  8
0
 62
7
100
AcDbSpline
 70
8
 71
3
 72
8
 73
4
 74
0
 40
0
 40
0
 40
0
 40
0
 40
1
 40
1
 40
1
 40
1
 10
6.468129
 20
3.561755
 30
0.0
 10
6.699636
 20
3.489811
 30
0.0
 10
6.941309
 20
3.451054
 30
0.0
 10
7.183657
 20
3.446003
 30
0.0
  0
SPLINE
  5
17a
100
AcDbEntity
  8
0
 62
7
100
AcDbSpline
 70
8
 71
3
 72
8
 73
4
 74
0
 40
0
 40
0
 40
0
 40
0
 40
1
 40
1
 40
1
 40
1
 10
7.183657
 20
3.446003
 30
0.0
 10
7.203169
 20
3.445918
 30
0.0
 10
7.226810
 20
3.444725
 30
0.0
 10
7.247723
 20
3.447213
 30
0.0
  0
SPLINE
  5
17b
100
AcDbEntity
  8
0
 62
7
100
AcDbSpline
 70
8
 71
3
 72
8
 73
4
 74
0
 40
0
 40
0
 40
0
 40
0
 40
1
 40
1
 40
1
 40
1
 10
7.247723
 20
3.447213
 30
0.0
 10
7.264320
 20
3.450708
 30
0.0
 10
7.274071
 20
3.467160
 30
0.0
 10
7.273027
 20
3.483426
 30
0.0
  0
SPLINE
  5
17c
100
AcDbEntity
  8
0
 62
7
100
AcDbSpline
 70
8
 71
3
 72
8
 73
4
 74
0
 40
0
 40
0
 40
0
 40
0
 40
1
 40
1
 40
1
 40
1
 10
7.273027
 20
3.483426
 30
0.0
 10
7.274725
 20
3.524730
 30
0.0
 10
7.271687
 20
3.566067
 30
0.0
 10
7.271119
 20
3.607381
 30
0.0
  0
SPLINE
  5
17d
100
AcDbEntity
  8
0
 62
7
100
AcDbSpline
 70
8
 71
3
 72
8
 73
4
 74
0
 40
0
 40
0
 40
0
 40
0
 40
1
 40
1
 40
1
 40
1
 10
7.271119
 20
3.607381
 30
0.0
 10
7.268136
 20
3.684652
 30
0.0
 10
7.262040
 20
3.761797
 30
0.0
 10
7.252853
 20
3.838579
 30
0.0
  0
SPLINE
  5
17e
100
AcDbEntity
  8
0
 62
7
100
AcDbSpline
 70
8
 71
3
 72
8
 73
4
 74
0
 40
0
 40
0
 40
0
 40
0
 40
1
 40
1
 40
1
 40
1
 10
7.252853
 20
3.838579
 30
0.0
 10
7.250224
 20
3.858822
 30
0.0
 10
7.247123
 20
3.883378
 30
0.0
 10
7.243871
 20
3.905208
 30
0.0
  0
SPLINE
  5
17f
100
AcDbEntity
  8
0
 62
7
100
AcDbSpline
 70
8
 71
3
 72
8
 73
4
 74
0
 40
0
 40
0
 40
0
 40
0
 40
1
 40
1
 40
1
 40
1
 10
7.243871
 20
3.905208
 30
0.0
 10
7.236060
 20
3.958810
 30
0.0
 10
7.226475
 20
4.012149
 30
0.0
 10
7.215430
 20
4.065177
 30
0.0
  0
SPLINE
  5
180
100
AcDbEntity
  8
0
 62
7
100
AcDbSpline
 70
8
 71
3
 72
8
 73
4
 74
0
 40
0
 40
0
 40
0
 40
0
 40
1
 40
1
 40
1
 40
1
 10
7.215430
 20
4.065177
 30
0.0
 10
7.211505
 20
4.083391
 30
0.0
 10
7.206634
 20
4.105982
 30
0.0
 10
7.201855
 20
4.125763
 30
0.0
  0
SPLINE
  5
181
100
AcDbEntity
  8
0
 62
7
100
AcDbSpline
 70
8
 71
3
 72
8
 73
4
 74
0
 40
0
 40
0
 40
0
 40
0
 40
1
 40
1
 40
1
 40
1
 10
7.201855
 20
4.125763
 30
0.0
 10
7.180532
 20
4.216177
 30
0.0
 10
7.153822
 20
4.305296
 30
0.0
 10
7.122504
 20
4.392745
 30
0.0
  0
SPLINE
  5
182
100
AcDbEntity
  8
0
 62
7
100
AcDbSpline
 70
8
 71
3
 72
8
 73
4
 74
0
 40
0
 40
0
 40
0
 40
0
 40
1
 40
1
 40
1
 40
1
 10
7.122504
 20
4.392745
 30
0.0
 10
7.118265
 20
4.404228
 30
0.0
 10
7.112282
 20
4.420693
 30
0.0
 10
7.107074
 20
4.433997
 30
0.0
  0
SPLINE
  5
183
100
AcDbEntity
  8
0
 62
7
100
AcDbSpline
 70
8
 71
3
 72
8
 73
4
 74
0
 40
0
 40
0
 40
0
 40
0
 40
1
 40
1
 40
1
 40
1
 10
7.107074
 20
4.433997
 30
0.0
 10
7.044998
 20
4.596530
 30
0.0
 10
6.962278
 20
4.754206
 30
0.0
 10
6.864597
 20
4.895995
 30
0.0
  0
SPLINE
  5
184
100
AcDbEntity
  8
0
 62
7
100
AcDbSpline
 70
8
 71
3
 72
8
 73
4
 74
0
 40
0
 40
0
 40
0
 40
0
 40
1
 40
1
 40
1
 40
1
 10
6.864597
 20
4.895995
 30
0.0
 10
6.767539
 20
5.036504
 30
0.0
 10
6.653544
 20
5.165214
 30
0.0
 10
6.526128
 20
5.278899
 30
0.0
  0
SPLINE
  5
185
100
AcDbEntity
  8
0
 62
7
100
AcDbSpline
 70
8
 71
3
 72
8
 73
4
 74
0
 40
0
 40
0
 40
0
 40
0
 40
1
 40
1
 40
1
 40
1
 10
6.526128
 20
5.278899
 30
0.0
 10
6.519436
 20
5.284817
 30
0.0
 10
6.508181
 20
5.294577
 30
0.0
 10
6.499740
 20
5.301967
 30
0.0
  0
SPLINE
  5
186
100
AcDbEntity
  8
0
 62
7
100
AcDbSpline
 70
8
 71
3
 72
8
 73
4
 74
0
 40
0
 40
0
 40
0
 40
0
 40
1
 40
1
 40
1
 40
1
 10
6.499740
 20
5.301967
 30
0.0
 10
6.368728
 20
5.414788
 30
0.0
 10
6.225467
 20
5.510681
 30
0.0
 10
6.072579
 20
5.591313
 30
0.0
  0
SPLINE
  5
187
100
AcDbEntity
  8
0
 62
7
100
AcDbSpline
 70
8
 71
3
 72
8
 73
4
 74
0
 40
0
 40
0
 40
0
 40
0
 40
1
 40
1
 40
1
 40
1
 10
6.072579
 20
5.591313
 30
0.0
 10
6.054204
 20
5.602112
 30
0.0
 10
6.032434
 20
5.608230
 30
0.0
 10
6.018836
 20
5.625564
 30
0.0
  0
SPLINE
  5
188
100
AcDbEntity
  8
0
 62
7
100
AcDbSpline
 70
8
 71
3
 72
8
 73
4
 74
0
 40
0
 40
0
 40
0
 40
0
 40
1
 40
1
 40
1
 40
1
 10
6.018836
 20
5.625564
 30
0.0
 10
5.961124
 20
5.682876
 30
0.0
 10
5.903409
 20
5.740186
 30
0.0
 10
5.845701
 20
5.797504
 30
0.0
  0
SPLINE
  5
189
100
AcDbEntity
  8
0
 62
7
100
AcDbSpline
 70
8
 71
3
 72
8
 73
4
 74
0
 40
0
 40
0
 40
0
 40
0
 40
1
 40
1
 40
1
 40
1
 10
5.845701
 20
5.797504
 30
0.0
 10
5.930941
 20
5.796957
 30
0.0
 10
6.016182
 20
5.799050
 30
0.0
 10
6.101414
 20
5.797936
 30
0.0
  0
SPLINE
  5
18a
100
AcDbEntity
  8
0
 62
7
100
AcDbSpline
 70
8
 71
3
 72
8
 73
4
 74
0
 40
0
 40
0
 40
0
 40
0
 40
1
 40
1
 40
1
 40
1
 10
6.101414
 20
5.797936
 30
0.0
 10
6.133917
 20
5.794178
 30
0.0
 10
6.163997
 20
5.780171
 30
0.0
 10
6.195807
 20
5.773143
 30
0.0
  0
SPLINE
  5
18b
100
AcDbEntity
  8
0
 62
7
100
AcDbSpline
 70
8
 71
3
 72
8
 73
4
 74
0
 40
0
 40
0
 40
0
 40
0
 40
1
 40
1
 40
1
 40
1
 10
6.195807
 20
5.773143
 30
0.0
 10
6.328280
 20
5.737020
 30
0.0
 10
6.462194
 20
5.713382
 30
0.0
 10
6.599362
 20
5.702814
 30
0.0
  0
SPLINE
  5
18c
100
AcDbEntity
  8
0
 62
7
100
AcDbSpline
 70
8
 71
3
 72
8
 73
4
 74
0
 40
0
 40
0
 40
0
 40
0
 40
1
 40
1
 40
1
 40
1
 10
6.599362
 20
5.702814
 30
0.0
 10
6.700197
 20
5.694945
 30
0.0
 10
6.802198
 20
5.694270
 30
0.0
 10
6.904247
 20
5.700656
 30
0.0
  0
SPLINE
  5
18d
100
AcDbEntity
  8
0
 62
7
100
AcDbSpline
 70
8
 71
3
 72
8
 73
4
 74
0
 40
0
 40
0
 40
0
 40
0
 40
1
 40
1
 40
1
 40
1
 10
6.904247
 20
5.700656
 30
0.0
 10
6.923851
 20
5.701988
 30
0.0
 10
6.948747
 20
5.703819
 30
0.0
 10
6.968354
 20
5.705658
 30
0.0
  0
SPLINE
  5
18e
100
AcDbEntity
  8
0
 62
7
100
AcDbSpline
 70
8
 71
3
 72
8
 73
4
 74
0
 40
0
 40
0
 40
0
 40
0
 40
1
 40
1
 40
1
 40
1
 10
6.968354
 20
5.705658
 30
0.0
 10
7.069967
 20
5.714990
 30
0.0
 10
7.171047
 20
5.731277
 30
0.0
 10
7.271484
 20
5.754071
 30
0.0
  0
SPLINE
  5
18f
100
AcDbEntity
  8
0
 62
7
100
AcDbSpline
 70
8
 71
3
 72
8
 73
4
 74
0
 40
0
 40
0
 40
0
 40
0
 40
1
 40
1
 40
1
 40
1
 10
7.271484
 20
5.754071
 30
0.0
 10
7.309009
 20
5.762582
 30
0.0
 10
7.351458
 20
5.773412
 30
0.0
 10
7.388553
 20
5.783744
 30
0.0
  0
SPLINE
  5
190
100
AcDbEntity
  8
0
 62
7
100
AcDbSpline
 70
8
 71
3
 72
8
 73
4
 74
0
 40
0
 40
0
 40
0
 40
0
 40
1
 40
1
 40
1
 40
1
 10
7.388553
 20
5.783744
 30
0.0
 10
7.798002
 20
5.899106
 30
0.0
 10
8.176207
 20
6.117201
 30
0.0
 10
8.489640
 20
6.403816
 30
0.0
  0
SPLINE
  5
191
100
AcDbEntity
  8
0
 62
7
100
AcDbSpline
 70
8
 71
3
 72
8
 73
4
 74
0
 40
0
 40
0
 40
0
 40
0
 40
1
 40
1
 40
1
 40
1
 10
8.489640
 20
6.403816
 30
0.0
 10
8.502303
 20
6.418109
 30
0.0
 10
8.524189
 20
6.429219
 30
0.0
 10
8.522642
 20
6.451210
 30
0.0
  0
SPLINE
  5
192
100
AcDbEntity
  8
0
 62
7
100
AcDbSpline
 70
8
 71
3
 72
8
 73
4
 74
0
 40
0
 40
0
 40
0
 40
0
 40
1
 40
1
 40
1
 40
1
 10
8.522642
 20
6.451210
 30
0.0
 10
8.522625
 20
6.475694
 30
0.0
 10
8.498206
 20
6.488078
 30
0.0
 10
8.484104
 20
6.504583
 30
0.0
  0
SPLINE
  5
193
100
AcDbEntity
  8
0
 62
7
100
AcDbSpline
 70
8
 71
3
 72
8
 73
4
 74
0
 40
0
 40
0
 40
0
 40
0
 40
1
 40
1
 40
1
 40
1
 10
8.484104
 20
6.504583
 30
0.0
 10
8.392247
 20
6.594009
 30
0.0
 10
8.295291
 20
6.678306
 30
0.0
 10
8.192482
 20
6.754948
 30
0.0
  0
SPLINE
  5
194
100
AcDbEntity
  8
0
 62
7
100
AcDbSpline
 70
8
 71
3
 72
8
 73
4
 74
0
 40
0
 40
0
 40
0
 40
0
 40
1
 40
1
 40
1
 40
1
 10
8.192482
 20
6.754948
 30
0.0
 10
8.170174
 20
6.771587
 30
0.0
 10
8.144641
 20
6.790025
 30
0.0
 10
8.120641
 20
6.806760
 30
0.0
  0
SPLINE
  5
195
100
AcDbEntity
  8
0
 62
7
100
AcDbSpline
 70
8
 71
3
 72
8
 73
4
 74
0
 40
0
 40
0
 40
0
 40
0
 40
1
 40
1
 40
1
 40
1
 10
8.120641
 20
6.806760
 30
0.0
 10
7.838949
 20
7.004048
 30
0.0
 10
7.515254
 20
7.144746
 30
0.0
 10
7.174909
 20
7.199618
 30
0.0
  0
SPLINE
  5
196
100
AcDbEntity
  8
0
 62
7
100
AcDbSpline
 70
8
 71
3
 72
8
 73
4
 74
0
 40
0
 40
0
 40
0
 40
0
 40
1
 40
1
 40
1
 40
1
 10
7.174909
 20
7.199618
 30
0.0
 10
7.094300
 20
7.212806
 30
0.0
 10
7.011845
 20
7.221248
 30
0.0
 10
6.931451
 20
7.224896
 30
0.0
  0
SPLINE
  5
197
100
AcDbEntity
  8
0
 62
7
100
AcDbSpline
 70
8
 71
3
 72
8
 73
4
 74
0
 40
0
 40
0
 40
0
 40
0
 40
1
 40
1
 40
1
 40
1
 10
6.931451
 20
7.224896
 30
0.0
 10
6.644437
 20
7.237921
 30
0.0
 10
6.355726
 20
7.190949
 30
0.0
 10
6.085663
 20
7.093713
 30
0.0
  0
SPLINE
  5
198
100
AcDbEntity
  8
0
 62
7
100
AcDbSpline
 70
8
 71
3
 72
8
 73
4
 74
0
 40
0
 40
0
 40
0
 40
0
 40
1
 40
1
 40
1
 40
1
 10
6.085663
 20
7.093713
 30
0.0
 10
6.049509
 20
7.081439
 30
0.0
 10
6.014099
 20
7.066271
 30
0.0
 10
5.978271
 20
7.053692
 30
0.0
  0
SPLINE
  5
199
100
AcDbEntity
  8
0
 62
7
100
AcDbSpline
 70
8
 71
3
 72
8
 73
4
 74
0
 40
0
 40
0
 40
0
 40
0
 40
1
 40
1
 40
1
 40
1
 10
5.978271
 20
7.053692
 30
0.0
 10
5.968391
 20
7.052432
 30
0.0
 10
5.956725
 20
7.056615
 30
0.0
 10
5.948033
 20
7.053434
 30
0.0
  0
SPLINE
  5
19a
100
AcDbEntity
  8
0
 62
7
100
AcDbSpline
 70
8
 71
3
 72
8
 73
4
 74
0
 40
0
 40
0
 40
0
 40
0
 40
1
 40
1
 40
1
 40
1
 10
5.948033
 20
7.053434
 30
0.0
 10
5.931469
 20
7.033879
 30
0.0
 10
5.908890
 20
7.021236
 30
0.0
 10
5.885216
 20
7.012363
 30
0.0
  0
SPLINE
  5
19b
100
AcDbEntity
  8
0
 62
7
100
AcDbSpline
 70
8
 71
3
 72
8
 73
4
 74
0
 40
0
 40
0
 40
0
 40
0
 40
1
 40
1
 40
1
 40
1
 10
5.885216
 20
7.012363
 30
0.0
 10
5.818143
 20
6.981586
 30
0.0
 10
5.752572
 20
6.947689
 30
0.0
 10
5.686570
 20
6.914710
 30
0.0
  0
SPLINE
  5
19c
100
AcDbEntity
  8
0
 62
7
100
AcDbSpline
 70
8
 71
3
 72
8
 73
4
 74
0
 40
0
 40
0
 40
0
 40
0
 40
1
 40
1
 40
1
 40
1
 10
5.686570
 20
6.914710
 30
0.0
 10
5.657380
 20
6.986439
 30
0.0
 10
5.628198
 20
7.058171
 30
0.0
 10
5.599028
 20
7.129908
 30
0.0
  0
SPLINE
  5
19d
100
AcDbEntity
  8
0
 62
7
100
AcDbSpline
 70
8
 71
3
 72
8
 73
4
 74
0
 40
0
 40
0
 40
0
 40
0
 40
1
 40
1
 40
1
 40
1
 10
5.599028
 20
7.129908
 30
0.0
 10
5.681126
 20
7.157513
 30
0.0
 10
5.763088
 20
7.185674
 30
0.0
 10
5.844039
 20
7.216420
 30
0.0
  0
SPLINE
  5
19e
100
AcDbEntity
  8
0
 62
7
100
AcDbSpline
 70
8
 71
3
 72
8
 73
4
 74
0
 40
0
 40
0
 40
0
 40
0
 40
1
 40
1
 40
1
 40
1
 10
5.844039
 20
7.216420
 30
0.0
 10
5.855888
 20
7.220024
 30
0.0
 10
5.869294
 20
7.217858
 30
0.0
 10
5.880665
 20
7.219046
 30
0.0
  0
SPLINE
  5
19f
100
AcDbEntity
  8
0
 62
7
100
AcDbSpline
 70
8
 71
3
 72
8
 73
4
 74
0
 40
0
 40
0
 40
0
 40
0
 40
1
 40
1
 40
1
 40
1
 10
5.880665
 20
7.219046
 30
0.0
 10
5.897498
 20
7.238967
 30
0.0
 10
5.920464
 20
7.251816
 30
0.0
 10
5.944522
 20
7.260899
 30
0.0
  0
SPLINE
  5
1a0
100
AcDbEntity
  8
0
 62
7
100
AcDbSpline
 70
8
 71
3
 72
8
 73
4
 74
0
 40
0
 40
0
 40
0
 40
0
 40
1
 40
1
 40
1
 40
1
 10
5.944522
 20
7.260899
 30
0.0
 10
5.980402
 20
7.277358
 30
0.0
 10
6.015629
 20
7.294900
 30
0.0
 10
6.048790
 20
7.312288
 30
0.0
  0
SPLINE
  5
1a1
100
AcDbEntity
  8
0
 62
7
100
AcDbSpline
 70
8
 71
3
 72
8
 73
4
 74
0
 40
0
 40
0
 40
0
 40
0
 40
1
 40
1
 40
1
 40
1
 10
6.048790
 20
7.312288
 30
0.0
 10
6.225073
 20
7.405131
 30
0.0
 10
6.391699
 20
7.523892
 30
0.0
 10
6.536802
 20
7.662450
 30
0.0
  0
SPLINE
  5
1a2
100
AcDbEntity
  8
0
 62
7
100
AcDbSpline
 70
8
 71
3
 72
8
 73
4
 74
0
 40
0
 40
0
 40
0
 40
0
 40
1
 40
1
 40
1
 40
1
 10
6.536802
 20
7.662450
 30
0.0
 10
6.818936
 20
7.930321
 30
0.0
 10
7.025365
 20
8.273442
 30
0.0
 10
7.145470
 20
8.642537
 30
0.0
  0
SPLINE
  5
1a3
100
AcDbEntity
  8
0
 62
7
100
AcDbSpline
 70
8
 71
3
 72
8
 73
4
 74
0
 40
0
 40
0
 40
0
 40
0
 40
1
 40
1
 40
1
 40
1
 10
7.145470
 20
8.642537
 30
0.0
 10
7.153825
 20
8.668042
 30
0.0
 10
7.161907
 20
8.694077
 30
0.0
 10
7.168981
 20
8.718343
 30
0.0
  0
SPLINE
  5
1a4
100
AcDbEntity
  8
0
 62
7
100
AcDbSpline
 70
8
 71
3
 72
8
 73
4
 74
0
 40
0
 40
0
 40
0
 40
0
 40
1
 40
1
 40
1
 40
1
 10
7.168981
 20
8.718343
 30
0.0
 10
7.176403
 20
8.743580
 30
0.0
 10
7.182989
 20
8.767566
 30
0.0
 10
7.189812
 20
8.793789
 30
0.0
  0
SPLINE
  5
1a5
100
AcDbEntity
  8
0
 62
7
100
AcDbSpline
 70
8
 71
3
 72
8
 73
4
 74
0
 40
0
 40
0
 40
0
 40
0
 40
1
 40
1
 40
1
 40
1
 10
7.189812
 20
8.793789
 30
0.0
 10
7.234879
 20
8.967110
 30
0.0
 10
7.262294
 20
9.145067
 30
0.0
 10
7.270700
 20
9.323973
 30
0.0
  0
SPLINE
  5
1a6
100
AcDbEntity
  8
0
 62
7
100
AcDbSpline
 70
8
 71
3
 72
8
 73
4
 74
0
 40
0
 40
0
 40
0
 40
0
 40
1
 40
1
 40
1
 40
1
 10
7.270700
 20
9.323973
 30
0.0
 10
7.271750
 20
9.347738
 30
0.0
 10
7.272760
 20
9.375480
 30
0.0
 10
7.272944
 20
9.400820
 30
0.0
  0
SPLINE
  5
1a7
100
AcDbEntity
  8
0
 62
7
100
AcDbSpline
 70
8
 71
3
 72
8
 73
4
 74
0
 40
0
 40
0
 40
0
 40
0
 40
1
 40
1
 40
1
 40
1
 10
7.272944
 20
9.400820
 30
0.0
 10
7.272217
 20
9.421362
 30
0.0
 10
7.275147
 20
9.442501
 30
0.0
 10
7.270966
 20
9.462664
 30
0.0
  0
SPLINE
  5
1a8
100
AcDbEntity
  8
0
 62
7
100
AcDbSpline
 70
8
 71
3
 72
8
 73
4
 74
0
 40
0
 40
0
 40
0
 40
0
 40
1
 40
1
 40
1
 40
1
 10
7.270966
 20
9.462664
 30
0.0
 10
7.265896
 20
9.478918
 30
0.0
 10
7.248748
 20
9.485789
 30
0.0
 10
7.232940
 20
9.484811
 30
0.0
  0
SPLINE
  5
1a9
100
AcDbEntity
  8
0
 62
7
100
AcDbSpline
 70
8
 71
3
 72
8
 73
4
 74
0
 40
0
 40
0
 40
0
 40
0
 40
1
 40
1
 40
1
 40
1
 10
7.232940
 20
9.484811
 30
0.0
 10
7.202452
 20
9.486439
 30
0.0
 10
7.173787
 20
9.483671
 30
0.0
 10
7.142760
 20
9.483808
 30
0.0
  0
SPLINE
  5
1aa
100
AcDbEntity
  8
0
 62
7
100
AcDbSpline
 70
8
 71
3
 72
8
 73
4
 74
0
 40
0
 40
0
 40
0
 40
0
 40
1
 40
1
 40
1
 40
1
 10
7.142760
 20
9.483808
 30
0.0
 10
7.039328
 20
9.480898
 30
0.0
 10
6.937687
 20
9.472607
 30
0.0
 10
6.834995
 20
9.458568
 30
0.0
  0
SPLINE
  5
1ab
100
AcDbEntity
  8
0
 62
7
100
AcDbSpline
 70
8
 71
3
 72
8
 73
4
 74
0
 40
0
 40
0
 40
0
 40
0
 40
1
 40
1
 40
1
 40
1
 10
6.834995
 20
9.458568
 30
0.0
 10
6.565993
 20
9.421793
 30
0.0
 10
6.297245
 20
9.341364
 30
0.0
 10
6.054208
 20
9.215024
 30
0.0
  0
SPLINE
  5
1ac
100
AcDbEntity
  8
0
 62
7
100
AcDbSpline
 70
8
 71
3
 72
8
 73
4
 74
0
 40
0
 40
0
 40
0
 40
0
 40
1
 40
1
 40
1
 40
1
 10
6.054208
 20
9.215024
 30
0.0
 10
6.005618
 20
9.189920
 30
0.0
 10
5.955836
 20
9.161568
 30
0.0
 10
5.910743
 20
9.133601
 30
0.0
  0
SPLINE
  5
1ad
100
AcDbEntity
  8
0
 62
7
100
AcDbSpline
 70
8
 71
3
 72
8
 73
4
 74
0
 40
0
 40
0
 40
0
 40
0
 40
1
 40
1
 40
1
 40
1
 10
5.910743
 20
9.133601
 30
0.0
 10
5.885616
 20
9.117995
 30
0.0
 10
5.861991
 20
9.102615
 30
0.0
 10
5.836861
 20
9.085609
 30
0.0
  0
SPLINE
  5
1ae
100
AcDbEntity
  8
0
 62
7
100
AcDbSpline
 70
8
 71
3
 72
8
 73
4
 74
0
 40
0
 40
0
 40
0
 40
0
 40
1
 40
1
 40
1
 40
1
 10
5.836861
 20
9.085609
 30
0.0
 10
5.703021
 20
8.995072
 30
0.0
 10
5.579871
 20
8.888871
 30
0.0
 10
5.469976
 20
8.770438
 30
0.0
  0
SPLINE
  5
1af
100
AcDbEntity
  8
0
 62
7
100
AcDbSpline
 70
8
 71
3
 72
8
 73
4
 74
0
 40
0
 40
0
 40
0
 40
0
 40
1
 40
1
 40
1
 40
1
 10
5.469976
 20
8.770438
 30
0.0
 10
5.379698
 20
8.673138
 30
0.0
 10
5.296228
 20
8.565055
 30
0.0
 10
5.224762
 20
8.451697
 30
0.0
  0
SPLINE
  5
1b0
100
AcDbEntity
  8
0
 62
7
100
AcDbSpline
 70
8
 71
3
 72
8
 73
4
 74
0
 40
0
 40
0
 40
0
 40
0
 40
1
 40
1
 40
1
 40
1
 10
5.224762
 20
8.451697
 30
0.0
 10
5.188801
 20
8.396081
 30
0.0
 10
5.156866
 20
8.338061
 30
0.0
 10
5.124893
 20
8.280120
 30
0.0
  0
SPLINE
  5
1b1
100
AcDbEntity
  8
0
 62
7
100
AcDbSpline
 70
8
 71
3
 72
8
 73
4
 74
0
 40
0
 40
0
 40
0
 40
0
 40
1
 40
1
 40
1
 40
1
 10
5.124893
 20
8.280120
 30
0.0
 10
5.111923
 20
8.254853
 30
0.0
 10
5.088104
 20
8.238044
 30
0.0
 10
5.069543
 20
8.217143
 30
0.0
  0
SPLINE
  5
1b2
100
AcDbEntity
  8
0
 62
7
100
AcDbSpline
 70
8
 71
3
 72
8
 73
4
 74
0
 40
0
 40
0
 40
0
 40
0
 40
1
 40
1
 40
1
 40
1
 10
5.069543
 20
8.217143
 30
0.0
 10
5.023510
 20
8.170329
 30
0.0
 10
4.977479
 20
8.123514
 30
0.0
 10
4.931463
 20
8.076684
 30
0.0
  0
SPLINE
  5
1b3
100
AcDbEntity
  8
0
 62
7
100
AcDbSpline
 70
8
 71
3
 72
8
 73
4
 74
0
 40
0
 40
0
 40
0
 40
0
 40
1
 40
1
 40
1
 40
1
 10
4.931463
 20
8.076684
 30
0.0
 10
4.932676
 20
8.163281
 30
0.0
 10
4.931480
 20
8.249899
 30
0.0
 10
4.933191
 20
8.336485
 30
0.0
  0
SPLINE
  5
1b4
100
AcDbEntity
  8
0
 62
7
100
AcDbSpline
 70
8
 71
3
 72
8
 73
4
 74
0
 40
0
 40
0
 40
0
 40
0
 40
1
 40
1
 40
1
 40
1
 10
4.933191
 20
8.336485
 30
0.0
 10
4.935143
 20
8.359169
 30
0.0
 10
4.944306
 20
8.382032
 30
0.0
 10
4.949888
 20
8.401881
 30
0.0
  0
SPLINE
  5
1b5
100
AcDbEntity
  8
0
 62
7
100
AcDbSpline
 70
8
 71
3
 72
8
 73
4
 74
0
 40
0
 40
0
 40
0
 40
0
 40
1
 40
1
 40
1
 40
1
 10
4.949888
 20
8.401881
 30
0.0
 10
4.987245
 20
8.536907
 30
0.0
 10
5.012159
 20
8.675409
 30
0.0
 10
5.022727
 20
8.815140
 30
0.0
  0
SPLINE
  5
1b6
100
AcDbEntity
  8
0
 62
7
100
AcDbSpline
 70
8
 71
3
 72
8
 73
4
 74
0
 40
0
 40
0
 40
0
 40
0
 40
1
 40
1
 40
1
 40
1
 10
5.022727
 20
8.815140
 30
0.0
 10
5.023818
 20
8.831982
 30
0.0
 10
5.025459
 20
8.853452
 30
0.0
 10
5.026231
 20
8.872096
 30
0.0
  0
SPLINE
  5
1b7
100
AcDbEntity
  8
0
 62
7
100
AcDbSpline
 70
8
 71
3
 72
8
 73
4
 74
0
 40
0
 40
0
 40
0
 40
0
 40
1
 40
1
 40
1
 40
1
 10
5.026231
 20
8.872096
 30
0.0
 10
5.028710
 20
8.919959
 30
0.0
 10
5.029536
 20
8.971722
 30
0.0
 10
5.028459
 20
9.021324
 30
0.0
  0
SPLINE
  5
1b8
100
AcDbEntity
  8
0
 62
7
100
AcDbSpline
 70
8
 71
3
 72
8
 73
4
 74
0
 40
0
 40
0
 40
0
 40
0
 40
1
 40
1
 40
1
 40
1
 10
5.028459
 20
9.021324
 30
0.0
 10
5.028073
 20
9.040611
 30
0.0
 10
5.027598
 20
9.058264
 30
0.0
 10
5.026569
 20
9.077076
 30
0.0
  0
SPLINE
  5
1b9
100
AcDbEntity
  8
0
 62
7
100
AcDbSpline
 70
8
 71
3
 72
8
 73
4
 74
0
 40
0
 40
0
 40
0
 40
0
 40
1
 40
1
 40
1
 40
1
 10
5.026569
 20
9.077076
 30
0.0
 10
5.016881
 20
9.291830
 30
0.0
 10
4.974482
 20
9.504670
 30
0.0
 10
4.905639
 20
9.708174
 30
0.0
  0
SPLINE
  5
1ba
100
AcDbEntity
  8
0
 62
7
100
AcDbSpline
 70
8
 71
3
 72
8
 73
4
 74
0
 40
0
 40
0
 40
0
 40
0
 40
1
 40
1
 40
1
 40
1
 10
4.905639
 20
9.708174
 30
0.0
 10
4.900006
 20
9.724373
 30
0.0
 10
4.893047
 20
9.744988
 30
0.0
 10
4.886382
 20
9.762734
 30
0.0
  0
SPLINE
  5
1bb
100
AcDbEntity
  8
0
 62
7
100
AcDbSpline
 70
8
 71
3
 72
8
 73
4
 74
0
 40
0
 40
0
 40
0
 40
0
 40
1
 40
1
 40
1
 40
1
 10
4.886382
 20
9.762734
 30
0.0
 10
4.869740
 20
9.808580
 30
0.0
 10
4.851426
 20
9.853798
 30
0.0
 10
4.832189
 20
9.898612
 30
0.0
  0
SPLINE
  5
1bc
100
AcDbEntity
  8
0
 62
7
100
AcDbSpline
 70
8
 71
3
 72
8
 73
4
 74
0
 40
0
 40
0
 40
0
 40
0
 40
1
 40
1
 40
1
 40
1
 10
4.832189
 20
9.898612
 30
0.0
 10
4.824779
 20
9.915402
 30
0.0
 10
4.815676
 20
9.936367
 30
0.0
 10
4.807089
 20
9.954531
 30
0.0
  0
SPLINE
  5
1bd
100
AcDbEntity
  8
0
 62
7
100
AcDbSpline
 70
8
 71
3
 72
8
 73
4
 74
0
 40
0
 40
0
 40
0
 40
0
 40
1
 40
1
 40
1
 40
1
 10
4.807089
 20
9.954531
 30
0.0
 10
4.723881
 20
10.134733
 30
0.0
 10
4.619502
 20
10.305016
 30
0.0
 10
4.498008
 20
10.461916
 30
0.0
  0
SPLINE
  5
1be
100
AcDbEntity
  8
0
 62
7
100
AcDbSpline
 70
8
 71
3
 72
8
 73
4
 74
0
 40
0
 40
0
 40
0
 40
0
 40
1
 40
1
 40
1
 40
1
 10
4.498008
 20
10.461916
 30
0.0
 10
4.486607
 20
10.476170
 30
0.0
 10
4.472677
 20
10.494204
 30
0.0
 10
4.459970
 20
10.509663
 30
0.0
  0
SPLINE
  5
1bf
100
AcDbEntity
  8
0
 62
7
100
AcDbSpline
 70
8
 71
3
 72
8
 73
4
 74
0
 40
0
 40
0
 40
0
 40
0
 40
1
 40
1
 40
1
 40
1
 10
4.459970
 20
10.509663
 30
0.0
 10
4.403370
 20
10.578702
 30
0.0
 10
4.344114
 20
10.645800
 30
0.0
 10
4.280003
 20
10.707985
 30
0.0
  0
SPLINE
  5
1c0
100
AcDbEntity
  8
0
 62
7
100
AcDbSpline
 70
8
 71
3
 72
8
 73
4
 74
0
 40
0
 40
0
 40
0
 40
0
 40
1
 40
1
 40
1
 40
1
 10
4.280003
 20
10.707985
 30
0.0
 10
4.272844
 20
10.715822
 30
0.0
 10
4.261873
 20
10.719940
 30
0.0
 10
4.251335
 20
10.719357
 30
0.0
  0
LWPOLYLINE
  5
1c1
100
AcDbEntity
  8
0
 62
7
100
AcDbPolyline
 90
1
 70
1
 10
4.228801
 20
7.379403
 30
0.0
  0
SPLINE
  5
1c2
100
AcDbEntity
  8
0
 62
7
100
AcDbSpline
 70
8
 71
3
 72
8
 73
4
 74
0
 40
0
 40
0
 40
0
 40
0
 40
1
 40
1
 40
1
 40
1
 10
4.281048
 20
10.584554
 30
0.0
 10
4.363174
 20
10.489398
 30
0.0
 10
4.442341
 20
10.391446
 30
0.0
 10
4.512413
 20
10.286982
 30
0.0
  0
SPLINE
  5
1c3
100
AcDbEntity
  8
0
 62
7
100
AcDbSpline
 70
8
 71
3
 72
8
 73
4
 74
0
 40
0
 40
0
 40
0
 40
0
 40
1
 40
1
 40
1
 40
1
 10
4.512413
 20
10.286982
 30
0.0
 10
4.755027
 20
9.927188
 30
0.0
 10
4.910024
 20
9.503829
 30
0.0
 10
4.930589
 20
9.068764
 30
0.0
  0
SPLINE
  5
1c4
100
AcDbEntity
  8
0
 62
7
100
AcDbSpline
 70
8
 71
3
 72
8
 73
4
 74
0
 40
0
 40
0
 40
0
 40
0
 40
1
 40
1
 40
1
 40
1
 10
4.930589
 20
9.068764
 30
0.0
 10
4.946627
 20
8.750375
 30
0.0
 10
4.886987
 20
8.428692
 30
0.0
 10
4.758530
 20
8.136958
 30
0.0
  0
SPLINE
  5
1c5
100
AcDbEntity
  8
0
 62
7
100
AcDbSpline
 70
8
 71
3
 72
8
 73
4
 74
0
 40
0
 40
0
 40
0
 40
0
 40
1
 40
1
 40
1
 40
1
 10
4.758530
 20
8.136958
 30
0.0
 10
4.724962
 20
8.059767
 30
0.0
 10
4.686177
 20
7.984986
 30
0.0
 10
4.645739
 20
7.911202
 30
0.0
  0
SPLINE
  5
1c6
100
AcDbEntity
  8
0
 62
7
100
AcDbSpline
 70
8
 71
3
 72
8
 73
4
 74
0
 40
0
 40
0
 40
0
 40
0
 40
1
 40
1
 40
1
 40
1
 10
4.645739
 20
7.911202
 30
0.0
 10
4.540968
 20
7.936002
 30
0.0
 10
4.434303
 20
7.952516
 30
0.0
 10
4.326913
 20
7.960291
 30
0.0
  0
SPLINE
  5
1c7
100
AcDbEntity
  8
0
 62
7
100
AcDbSpline
 70
8
 71
3
 72
8
 73
4
 74
0
 40
0
 40
0
 40
0
 40
0
 40
1
 40
1
 40
1
 40
1
 10
4.326913
 20
7.960291
 30
0.0
 10
4.303984
 20
7.965132
 30
0.0
 10
4.292153
 20
7.990434
 30
0.0
 10
4.297075
 20
8.012196
 30
0.0
  0
SPLINE
  5
1c8
100
AcDbEntity
  8
0
 62
7
100
AcDbSpline
 70
8
 71
3
 72
8
 73
4
 74
0
 40
0
 40
0
 40
0
 40
0
 40
1
 40
1
 40
1
 40
1
 10
4.297075
 20
8.012196
 30
0.0
 10
4.296386
 20
8.227026
 30
0.0
 10
4.297742
 20
8.442137
 30
0.0
 10
4.296037
 20
8.657037
 30
0.0
  0
SPLINE
  5
1c9
100
AcDbEntity
  8
0
 62
7
100
AcDbSpline
 70
8
 71
3
 72
8
 73
4
 74
0
 40
0
 40
0
 40
0
 40
0
 40
1
 40
1
 40
1
 40
1
 10
4.296037
 20
8.657037
 30
0.0
 10
4.293953
 20
8.674231
 30
0.0
 10
4.278132
 20
8.686454
 30
0.0
 10
4.261208
 20
8.686287
 30
0.0
  0
SPLINE
  5
1ca
100
AcDbEntity
  8
0
 62
7
100
AcDbSpline
 70
8
 71
3
 72
8
 73
4
 74
0
 40
0
 40
0
 40
0
 40
0
 40
1
 40
1
 40
1
 40
1
 10
4.261208
 20
8.686287
 30
0.0
 10
4.242148
 20
8.688855
 30
0.0
 10
4.215022
 20
8.682425
 30
0.0
 10
4.212790
 20
8.659587
 30
0.0
  0
SPLINE
  5
1cb
100
AcDbEntity
  8
0
 62
7
100
AcDbSpline
 70
8
 71
3
 72
8
 73
4
 74
0
 40
0
 40
0
 40
0
 40
0
 40
1
 40
1
 40
1
 40
1
 10
4.212790
 20
8.659587
 30
0.0
 10
4.207560
 20
8.626793
 30
0.0
 10
4.212412
 20
8.593407
 30
0.0
 10
4.210655
 20
8.560362
 30
0.0
  0
SPLINE
  5
1cc
100
AcDbEntity
  8
0
 62
7
100
AcDbSpline
 70
8
 71
3
 72
8
 73
4
 74
0
 40
0
 40
0
 40
0
 40
0
 40
1
 40
1
 40
1
 40
1
 10
4.210655
 20
8.560362
 30
0.0
 10
4.210655
 20
8.361247
 30
0.0
 10
4.210655
 20
8.162131
 30
0.0
 10
4.210655
 20
7.963016
 30
0.0
  0
SPLINE
  5
1cd
100
AcDbEntity
  8
0
 62
7
100
AcDbSpline
 70
8
 71
3
 72
8
 73
4
 74
0
 40
0
 40
0
 40
0
 40
0
 40
1
 40
1
 40
1
 40
1
 10
4.210655
 20
7.963016
 30
0.0
 10
4.148042
 20
7.957488
 30
0.0
 10
4.082631
 20
7.951997
 30
0.0
 10
4.022144
 20
7.942676
 30
0.0
  0
SPLINE
  5
1ce
100
AcDbEntity
  8
0
 62
7
100
AcDbSpline
 70
8
 71
3
 72
8
 73
4
 74
0
 40
0
 40
0
 40
0
 40
0
 40
1
 40
1
 40
1
 40
1
 10
4.022144
 20
7.942676
 30
0.0
 10
3.967931
 20
7.934675
 30
0.0
 10
3.914449
 20
7.922629
 30
0.0
 10
3.860886
 20
7.911202
 30
0.0
  0
SPLINE
  5
1cf
100
AcDbEntity
  8
0
 62
7
100
AcDbSpline
 70
8
 71
3
 72
8
 73
4
 74
0
 40
0
 40
0
 40
0
 40
0
 40
1
 40
1
 40
1
 40
1
 10
3.860886
 20
7.911202
 30
0.0
 10
3.754847
 20
8.106438
 30
0.0
 10
3.669051
 20
8.313747
 30
0.0
 10
3.619061
 20
8.530621
 30
0.0
  0
SPLINE
  5
1d0
100
AcDbEntity
  8
0
 62
7
100
AcDbSpline
 70
8
 71
3
 72
8
 73
4
 74
0
 40
0
 40
0
 40
0
 40
0
 40
1
 40
1
 40
1
 40
1
 10
3.619061
 20
8.530621
 30
0.0
 10
3.538084
 20
8.874310
 30
0.0
 10
3.544976
 20
9.238647
 30
0.0
 10
3.642048
 20
9.578338
 30
0.0
  0
SPLINE
  5
1d1
100
AcDbEntity
  8
0
 62
7
100
AcDbSpline
 70
8
 71
3
 72
8
 73
4
 74
0
 40
0
 40
0
 40
0
 40
0
 40
1
 40
1
 40
1
 40
1
 10
3.642048
 20
9.578338
 30
0.0
 10
3.736104
 20
9.911204
 30
0.0
 10
3.911357
 20
10.218339
 30
0.0
 10
4.136642
 20
10.479722
 30
0.0
  0
SPLINE
  5
1d2
100
AcDbEntity
  8
0
 62
7
100
AcDbSpline
 70
8
 71
3
 72
8
 73
4
 74
0
 40
0
 40
0
 40
0
 40
0
 40
1
 40
1
 40
1
 40
1
 10
4.136642
 20
10.479722
 30
0.0
 10
4.175730
 20
10.525202
 30
0.0
 10
4.215816
 20
10.569801
 30
0.0
 10
4.255756
 20
10.614532
 30
0.0
  0
SPLINE
  5
1d3
100
AcDbEntity
  8
0
 62
7
100
AcDbSpline
 70
8
 71
3
 72
8
 73
4
 74
0
 40
0
 40
0
 40
0
 40
0
 40
1
 40
1
 40
1
 40
1
 10
4.255756
 20
10.614532
 30
0.0
 10
4.264186
 20
10.604540
 30
0.0
 10
4.272617
 20
10.594547
 30
0.0
 10
4.281048
 20
10.584554
 30
0.0
  0
LWPOLYLINE
  5
1d4
100
AcDbEntity
  8
0
 62
7
100
AcDbPolyline
 90
1
 70
1
 10
4.251335
 20
10.719357
 30
0.0
  0
SPLINE
  5
1d5
100
AcDbEntity
  8
0
 62
7
100
AcDbSpline
 70
8
 71
3
 72
8
 73
4
 74
0
 40
0
 40
0
 40
0
 40
0
 40
1
 40
1
 40
1
 40
1
 10
1.351617
 20
9.405032
 30
0.0
 10
1.449717
 20
9.397983
 30
0.0
 10
1.549293
 20
9.389247
 30
0.0
 10
1.647200
 20
9.373228
 30
0.0
  0
SPLINE
  5
1d6
100
AcDbEntity
  8
0
 62
7
100
AcDbSpline
 70
8
 71
3
 72
8
 73
4
 74
0
 40
0
 40
0
 40
0
 40
0
 40
1
 40
1
 40
1
 40
1
 10
1.647200
 20
9.373228
 30
0.0
 10
2.075208
 20
9.304719
 30
0.0
 10
2.488701
 20
9.127035
 30
0.0
 10
2.820447
 20
8.846066
 30
0.0
  0
SPLINE
  5
1d7
100
AcDbEntity
  8
0
 62
7
100
AcDbSpline
 70
8
 71
3
 72
8
 73
4
 74
0
 40
0
 40
0
 40
0
 40
0
 40
1
 40
1
 40
1
 40
1
 10
2.820447
 20
8.846066
 30
0.0
 10
3.051733
 20
8.650828
 30
0.0
 10
3.239785
 20
8.404769
 30
0.0
 10
3.366876
 20
8.130057
 30
0.0
  0
SPLINE
  5
1d8
100
AcDbEntity
  8
0
 62
7
100
AcDbSpline
 70
8
 71
3
 72
8
 73
4
 74
0
 40
0
 40
0
 40
0
 40
0
 40
1
 40
1
 40
1
 40
1
 10
3.366876
 20
8.130057
 30
0.0
 10
3.422213
 20
8.011325
 30
0.0
 10
3.465115
 20
7.887227
 30
0.0
 10
3.501081
 20
7.761377
 30
0.0
  0
SPLINE
  5
1d9
100
AcDbEntity
  8
0
 62
7
100
AcDbSpline
 70
8
 71
3
 72
8
 73
4
 74
0
 40
0
 40
0
 40
0
 40
0
 40
1
 40
1
 40
1
 40
1
 10
3.501081
 20
7.761377
 30
0.0
 10
3.408264
 20
7.704202
 30
0.0
 10
3.320448
 20
7.639165
 30
0.0
 10
3.238043
 20
7.567823
 30
0.0
  0
SPLINE
  5
1da
100
AcDbEntity
  8
0
 62
7
100
AcDbSpline
 70
8
 71
3
 72
8
 73
4
 74
0
 40
0
 40
0
 40
0
 40
0
 40
1
 40
1
 40
1
 40
1
 10
3.238043
 20
7.567823
 30
0.0
 10
3.229834
 20
7.565835
 30
0.0
 10
3.219186
 20
7.569385
 30
0.0
 10
3.210659
 20
7.571866
 30
0.0
  0
SPLINE
  5
1db
100
AcDbEntity
  8
0
 62
7
100
AcDbSpline
 70
8
 71
3
 72
8
 73
4
 74
0
 40
0
 40
0
 40
0
 40
0
 40
1
 40
1
 40
1
 40
1
 10
3.210659
 20
7.571866
 30
0.0
 10
3.191816
 20
7.581037
 30
0.0
 10
3.180500
 20
7.599987
 30
0.0
 10
3.164755
 20
7.613273
 30
0.0
  0
SPLINE
  5
1dc
100
AcDbEntity
  8
0
 62
7
100
AcDbSpline
 70
8
 71
3
 72
8
 73
4
 74
0
 40
0
 40
0
 40
0
 40
0
 40
1
 40
1
 40
1
 40
1
 10
3.164755
 20
7.613273
 30
0.0
 10
3.002735
 20
7.775086
 30
0.0
 10
2.841382
 20
7.937623
 30
0.0
 10
2.678450
 20
8.098487
 30
0.0
  0
SPLINE
  5
1dd
100
AcDbEntity
  8
0
 62
7
100
AcDbSpline
 70
8
 71
3
 72
8
 73
4
 74
0
 40
0
 40
0
 40
0
 40
0
 40
1
 40
1
 40
1
 40
1
 10
2.678450
 20
8.098487
 30
0.0
 10
2.655500
 20
8.115626
 30
0.0
 10
2.621353
 20
8.098572
 30
0.0
 10
2.615143
 20
8.072248
 30
0.0
  0
SPLINE
  5
1de
100
AcDbEntity
  8
0
 62
7
100
AcDbSpline
 70
8
 71
3
 72
8
 73
4
 74
0
 40
0
 40
0
 40
0
 40
0
 40
1
 40
1
 40
1
 40
1
 10
2.615143
 20
8.072248
 30
0.0
 10
2.608726
 20
8.054187
 30
0.0
 10
2.621365
 20
8.038133
 30
0.0
 10
2.633638
 20
8.026363
 30
0.0
  0
SPLINE
  5
1df
100
AcDbEntity
  8
0
 62
7
100
AcDbSpline
 70
8
 71
3
 72
8
 73
4
 74
0
 40
0
 40
0
 40
0
 40
0
 40
1
 40
1
 40
1
 40
1
 10
2.633638
 20
8.026363
 30
0.0
 10
2.777770
 20
7.882746
 30
0.0
 10
2.921420
 20
7.738589
 30
0.0
 10
3.065414
 20
7.594809
 30
0.0
  0
SPLINE
  5
1e0
100
AcDbEntity
  8
0
 62
7
100
AcDbSpline
 70
8
 71
3
 72
8
 73
4
 74
0
 40
0
 40
0
 40
0
 40
0
 40
1
 40
1
 40
1
 40
1
 10
3.065414
 20
7.594809
 30
0.0
 10
3.098278
 20
7.561948
 30
0.0
 10
3.131145
 20
7.529089
 30
0.0
 10
3.164008
 20
7.496226
 30
0.0
  0
SPLINE
  5
1e1
100
AcDbEntity
  8
0
 62
7
100
AcDbSpline
 70
8
 71
3
 72
8
 73
4
 74
0
 40
0
 40
0
 40
0
 40
0
 40
1
 40
1
 40
1
 40
1
 10
3.164008
 20
7.496226
 30
0.0
 10
3.099248
 20
7.420379
 30
0.0
 10
3.036482
 20
7.342496
 30
0.0
 10
2.983378
 20
7.257904
 30
0.0
  0
SPLINE
  5
1e2
100
AcDbEntity
  8
0
 62
7
100
AcDbSpline
 70
8
 71
3
 72
8
 73
4
 74
0
 40
0
 40
0
 40
0
 40
0
 40
1
 40
1
 40
1
 40
1
 10
2.983378
 20
7.257904
 30
0.0
 10
2.974431
 20
7.244149
 30
0.0
 10
2.965477
 20
7.230398
 30
0.0
 10
2.956519
 20
7.216650
 30
0.0
  0
SPLINE
  5
1e3
100
AcDbEntity
  8
0
 62
7
100
AcDbSpline
 70
8
 71
3
 72
8
 73
4
 74
0
 40
0
 40
0
 40
0
 40
0
 40
1
 40
1
 40
1
 40
1
 10
2.956519
 20
7.216650
 30
0.0
 10
2.738931
 20
7.283375
 30
0.0
 10
2.527222
 20
7.372658
 30
0.0
 10
2.334425
 20
7.494355
 30
0.0
  0
SPLINE
  5
1e4
100
AcDbEntity
  8
0
 62
7
100
AcDbSpline
 70
8
 71
3
 72
8
 73
4
 74
0
 40
0
 40
0
 40
0
 40
0
 40
1
 40
1
 40
1
 40
1
 10
2.334425
 20
7.494355
 30
0.0
 10
2.023921
 20
7.687648
 30
0.0
 10
1.764081
 20
7.962567
 30
0.0
 10
1.592599
 20
8.285950
 30
0.0
  0
SPLINE
  5
1e5
100
AcDbEntity
  8
0
 62
7
100
AcDbSpline
 70
8
 71
3
 72
8
 73
4
 74
0
 40
0
 40
0
 40
0
 40
0
 40
1
 40
1
 40
1
 40
1
 10
1.592599
 20
8.285950
 30
0.0
 10
1.429136
 20
8.591477
 30
0.0
 10
1.342863
 20
8.934708
 30
0.0
 10
1.321044
 20
9.279519
 30
0.0
  0
SPLINE
  5
1e6
100
AcDbEntity
  8
0
 62
7
100
AcDbSpline
 70
8
 71
3
 72
8
 73
4
 74
0
 40
0
 40
0
 40
0
 40
0
 40
1
 40
1
 40
1
 40
1
 10
1.321044
 20
9.279519
 30
0.0
 10
1.318021
 20
9.322403
 30
0.0
 10
1.315174
 20
9.365298
 30
0.0
 10
1.312267
 20
9.408189
 30
0.0
  0
SPLINE
  5
1e7
100
AcDbEntity
  8
0
 62
7
100
AcDbSpline
 70
8
 71
3
 72
8
 73
4
 74
0
 40
0
 40
0
 40
0
 40
0
 40
1
 40
1
 40
1
 40
1
 10
1.312267
 20
9.408189
 30
0.0
 10
1.325384
 20
9.407136
 30
0.0
 10
1.338501
 20
9.406084
 30
0.0
 10
1.351617
 20
9.405032
 30
0.0
  0
LWPOLYLINE
  5
1e8
100
AcDbEntity
  8
0
 62
7
100
AcDbPolyline
 90
1
 70
1
 10
4.281048
 20
10.584554
 30
0.0
  0
SPLINE
  5
1e9
100
AcDbEntity
  8
0
 62
7
100
AcDbSpline
 70
8
 71
3
 72
8
 73
4
 74
0
 40
0
 40
0
 40
0
 40
0
 40
1
 40
1
 40
1
 40
1
 10
7.177608
 20
9.367874
 30
0.0
 10
7.171709
 20
9.259259
 30
0.0
 10
7.163568
 20
9.150630
 30
0.0
 10
7.146203
 20
9.043165
 30
0.0
  0
SPLINE
  5
1ea
100
AcDbEntity
  8
0
 62
7
100
AcDbSpline
 70
8
 71
3
 72
8
 73
4
 74
0
 40
0
 40
0
 40
0
 40
0
 40
1
 40
1
 40
1
 40
1
 10
7.146203
 20
9.043165
 30
0.0
 10
7.078560
 20
8.613310
 30
0.0
 10
6.896072
 20
8.199019
 30
0.0
 10
6.609118
 20
7.870323
 30
0.0
  0
SPLINE
  5
1eb
100
AcDbEntity
  8
0
 62
7
100
AcDbSpline
 70
8
 71
3
 72
8
 73
4
 74
0
 40
0
 40
0
 40
0
 40
0
 40
1
 40
1
 40
1
 40
1
 10
6.609118
 20
7.870323
 30
0.0
 10
6.418415
 20
7.651669
 30
0.0
 10
6.181354
 20
7.473828
 30
0.0
 10
5.918008
 20
7.352060
 30
0.0
  0
SPLINE
  5
1ec
100
AcDbEntity
  8
0
 62
7
100
AcDbSpline
 70
8
 71
3
 72
8
 73
4
 74
0
 40
0
 40
0
 40
0
 40
0
 40
1
 40
1
 40
1
 40
1
 10
5.918008
 20
7.352060
 30
0.0
 10
5.799446
 20
7.296793
 30
0.0
 10
5.675509
 20
7.253920
 30
0.0
 10
5.549807
 20
7.218079
 30
0.0
  0
SPLINE
  5
1ed
100
AcDbEntity
  8
0
 62
7
100
AcDbSpline
 70
8
 71
3
 72
8
 73
4
 74
0
 40
0
 40
0
 40
0
 40
0
 40
1
 40
1
 40
1
 40
1
 10
5.549807
 20
7.218079
 30
0.0
 10
5.496582
 20
7.303729
 30
0.0
 10
5.437781
 20
7.385953
 30
0.0
 10
5.371870
 20
7.462334
 30
0.0
  0
SPLINE
  5
1ee
100
AcDbEntity
  8
0
 62
7
100
AcDbSpline
 70
8
 71
3
 72
8
 73
4
 74
0
 40
0
 40
0
 40
0
 40
0
 40
1
 40
1
 40
1
 40
1
 10
5.371870
 20
7.462334
 30
0.0
 10
5.355211
 20
7.476663
 30
0.0
 10
5.351992
 20
7.503799
 30
0.0
 10
5.367212
 20
7.520321
 30
0.0
  0
SPLINE
  5
1ef
100
AcDbEntity
  8
0
 62
7
100
AcDbSpline
 70
8
 71
3
 72
8
 73
4
 74
0
 40
0
 40
0
 40
0
 40
0
 40
1
 40
1
 40
1
 40
1
 10
5.367212
 20
7.520321
 30
0.0
 10
5.444768
 20
7.596895
 30
0.0
 10
5.521712
 20
7.674655
 30
0.0
 10
5.599048
 20
7.751673
 30
0.0
  0
SPLINE
  5
1f0
100
AcDbEntity
  8
0
 62
7
100
AcDbSpline
 70
8
 71
3
 72
8
 73
4
 74
0
 40
0
 40
0
 40
0
 40
0
 40
1
 40
1
 40
1
 40
1
 10
5.599048
 20
7.751673
 30
0.0
 10
5.695269
 20
7.848144
 30
0.0
 10
5.792036
 20
7.944154
 30
0.0
 10
5.887445
 20
8.041385
 30
0.0
  0
SPLINE
  5
1f1
100
AcDbEntity
  8
0
 62
7
100
AcDbSpline
 70
8
 71
3
 72
8
 73
4
 74
0
 40
0
 40
0
 40
0
 40
0
 40
1
 40
1
 40
1
 40
1
 10
5.887445
 20
8.041385
 30
0.0
 10
5.904445
 20
8.065493
 30
0.0
 10
5.885129
 20
8.100330
 30
0.0
 10
5.857560
 20
8.104700
 30
0.0
  0
SPLINE
  5
1f2
100
AcDbEntity
  8
0
 62
7
100
AcDbSpline
 70
8
 71
3
 72
8
 73
4
 74
0
 40
0
 40
0
 40
0
 40
0
 40
1
 40
1
 40
1
 40
1
 10
5.857560
 20
8.104700
 30
0.0
 10
5.834674
 20
8.110345
 30
0.0
 10
5.819176
 20
8.088771
 30
0.0
 10
5.804369
 20
8.075246
 30
0.0
  0
SPLINE
  5
1f3
100
AcDbEntity
  8
0
 62
7
100
AcDbSpline
 70
8
 71
3
 72
8
 73
4
 74
0
 40
0
 40
0
 40
0
 40
0
 40
1
 40
1
 40
1
 40
1
 10
5.804369
 20
8.075246
 30
0.0
 10
5.723801
 20
7.993605
 30
0.0
 10
5.642112
 20
7.913043
 30
0.0
 10
5.561206
 20
7.831721
 30
0.0
  0
SPLINE
  5
1f4
100
AcDbEntity
  8
0
 62
7
100
AcDbSpline
 70
8
 71
3
 72
8
 73
4
 74
0
 40
0
 40
0
 40
0
 40
0
 40
1
 40
1
 40
1
 40
1
 10
5.561206
 20
7.831721
 30
0.0
 10
5.469022
 20
7.739531
 30
0.0
 10
5.376841
 20
7.647340
 30
0.0
 10
5.284656
 20
7.555152
 30
0.0
  0
SPLINE
  5
1f5
100
AcDbEntity
  8
0
 62
7
100
AcDbSpline
 70
8
 71
3
 72
8
 73
4
 74
0
 40
0
 40
0
 40
0
 40
0
 40
1
 40
1
 40
1
 40
1
 10
5.284656
 20
7.555152
 30
0.0
 10
5.209186
 20
7.619347
 30
0.0
 10
5.131958
 20
7.681881
 30
0.0
 10
5.047945
 20
7.734691
 30
0.0
  0
SPLINE
  5
1f6
100
AcDbEntity
  8
0
 62
7
100
AcDbSpline
 70
8
 71
3
 72
8
 73
4
 74
0
 40
0
 40
0
 40
0
 40
0
 40
1
 40
1
 40
1
 40
1
 10
5.047945
 20
7.734691
 30
0.0
 10
5.033969
 20
7.743779
 30
0.0
 10
5.019991
 20
7.752862
 30
0.0
 10
5.006010
 20
7.761942
 30
0.0
  0
SPLINE
  5
1f7
100
AcDbEntity
  8
0
 62
7
100
AcDbSpline
 70
8
 71
3
 72
8
 73
4
 74
0
 40
0
 40
0
 40
0
 40
0
 40
1
 40
1
 40
1
 40
1
 10
5.006010
 20
7.761942
 30
0.0
 10
5.069463
 20
7.981329
 30
0.0
 10
5.157469
 20
8.194630
 30
0.0
 10
5.279046
 20
8.388441
 30
0.0
  0
SPLINE
  5
1f8
100
AcDbEntity
  8
0
 62
7
100
AcDbSpline
 70
8
 71
3
 72
8
 73
4
 74
0
 40
0
 40
0
 40
0
 40
0
 40
1
 40
1
 40
1
 40
1
 10
5.279046
 20
8.388441
 30
0.0
 10
5.466998
 20
8.691314
 30
0.0
 10
5.733722
 20
8.945019
 30
0.0
 10
6.046809
 20
9.115685
 30
0.0
  0
SPLINE
  5
1f9
100
AcDbEntity
  8
0
 62
7
100
AcDbSpline
 70
8
 71
3
 72
8
 73
4
 74
0
 40
0
 40
0
 40
0
 40
0
 40
1
 40
1
 40
1
 40
1
 10
6.046809
 20
9.115685
 30
0.0
 10
6.348858
 20
9.281342
 30
0.0
 10
6.688924
 20
9.372083
 30
0.0
 10
7.031727
 20
9.396487
 30
0.0
  0
SPLINE
  5
1fa
100
AcDbEntity
  8
0
 62
7
100
AcDbSpline
 70
8
 71
3
 72
8
 73
4
 74
0
 40
0
 40
0
 40
0
 40
0
 40
1
 40
1
 40
1
 40
1
 10
7.031727
 20
9.396487
 30
0.0
 10
7.081141
 20
9.400263
 30
0.0
 10
7.130622
 20
9.403174
 30
0.0
 10
7.180068
 20
9.406560
 30
0.0
  0
SPLINE
  5
1fb
100
AcDbEntity
  8
0
 62
7
100
AcDbSpline
 70
8
 71
3
 72
8
 73
4
 74
0
 40
0
 40
0
 40
0
 40
0
 40
1
 40
1
 40
1
 40
1
 10
7.180068
 20
9.406560
 30
0.0
 10
7.179247
 20
9.393665
 30
0.0
 10
7.178429
 20
9.380770
 30
0.0
 10
7.177608
 20
9.367874
 30
0.0
  0
LWPOLYLINE
  5
1fc
100
AcDbEntity
  8
0
 62
7
100
AcDbPolyline
 90
1
 70
1
 10
1.351617
 20
9.405032
 30
0.0
  0
SPLINE
  5
1fd
100
AcDbEntity
  8
0
 62
7
100
AcDbSpline
 70
8
 71
3
 72
8
 73
4
 74
0
 40
0
 40
0
 40
0
 40
0
 40
1
 40
1
 40
1
 40
1
 10
4.248377
 20
7.870688
 30
0.0
 10
4.377272
 20
7.870569
 30
0.0
 10
4.505957
 20
7.851617
 30
0.0
 10
4.629919
 20
7.816515
 30
0.0
  0
SPLINE
  5
1fe
100
AcDbEntity
  8
0
 62
7
100
AcDbSpline
 70
8
 71
3
 72
8
 73
4
 74
0
 40
0
 40
0
 40
0
 40
0
 40
1
 40
1
 40
1
 40
1
 10
4.629919
 20
7.816515
 30
0.0
 10
4.672842
 20
7.817900
 30
0.0
 10
4.712119
 20
7.797676
 30
0.0
 10
4.751982
 20
7.784693
 30
0.0
  0
SPLINE
  5
1ff
100
AcDbEntity
  8
0
 62
7
100
AcDbSpline
 70
8
 71
3
 72
8
 73
4
 74
0
 40
0
 40
0
 40
0
 40
0
 40
1
 40
1
 40
1
 40
1
 10
4.751982
 20
7.784693
 30
0.0
 10
5.024443
 20
7.683289
 30
0.0
 10
5.262920
 20
7.493560
 30
0.0
 10
5.423044
 20
7.250931
 30
0.0
  0
SPLINE
  5
200
100
AcDbEntity
  8
0
 62
7
100
AcDbSpline
 70
8
 71
3
 72
8
 73
4
 74
0
 40
0
 40
0
 40
0
 40
0
 40
1
 40
1
 40
1
 40
1
 10
5.423044
 20
7.250931
 30
0.0
 10
5.454558
 20
7.204332
 30
0.0
 10
5.481722
 20
7.155015
 30
0.0
 10
5.510136
 20
7.106548
 30
0.0
  0
SPLINE
  5
201
100
AcDbEntity
  8
0
 62
7
100
AcDbSpline
 70
8
 71
3
 72
8
 73
4
 74
0
 40
0
 40
0
 40
0
 40
0
 40
1
 40
1
 40
1
 40
1
 10
5.510136
 20
7.106548
 30
0.0
 10
5.592300
 20
6.944796
 30
0.0
 10
5.642526
 20
6.767023
 30
0.0
 10
5.657418
 20
6.586210
 30
0.0
  0
SPLINE
  5
202
100
AcDbEntity
  8
0
 62
7
100
AcDbSpline
 70
8
 71
3
 72
8
 73
4
 74
0
 40
0
 40
0
 40
0
 40
0
 40
1
 40
1
 40
1
 40
1
 10
5.657418
 20
6.586210
 30
0.0
 10
5.679384
 20
6.329380
 30
0.0
 10
5.631095
 20
6.066492
 30
0.0
 10
5.515878
 20
5.835663
 30
0.0
  0
SPLINE
  5
203
100
AcDbEntity
  8
0
 62
7
100
AcDbSpline
 70
8
 71
3
 72
8
 73
4
 74
0
 40
0
 40
0
 40
0
 40
0
 40
1
 40
1
 40
1
 40
1
 10
5.515878
 20
5.835663
 30
0.0
 10
5.397576
 20
5.596377
 30
0.0
 10
5.208055
 20
5.393494
 30
0.0
 10
4.978462
 20
5.257581
 30
0.0
  0
SPLINE
  5
204
100
AcDbEntity
  8
0
 62
7
100
AcDbSpline
 70
8
 71
3
 72
8
 73
4
 74
0
 40
0
 40
0
 40
0
 40
0
 40
1
 40
1
 40
1
 40
1
 10
4.978462
 20
5.257581
 30
0.0
 10
4.942765
 20
5.237054
 30
0.0
 10
4.907464
 20
5.215773
 30
0.0
 10
4.870842
 20
5.196938
 30
0.0
  0
SPLINE
  5
205
100
AcDbEntity
  8
0
 62
7
100
AcDbSpline
 70
8
 71
3
 72
8
 73
4
 74
0
 40
0
 40
0
 40
0
 40
0
 40
1
 40
1
 40
1
 40
1
 10
4.870842
 20
5.196938
 30
0.0
 10
4.733495
 20
5.131044
 30
0.0
 10
4.585737
 20
5.086733
 30
0.0
 10
4.434485
 20
5.067991
 30
0.0
  0
SPLINE
  5
206
100
AcDbEntity
  8
0
 62
7
100
AcDbSpline
 70
8
 71
3
 72
8
 73
4
 74
0
 40
0
 40
0
 40
0
 40
0
 40
1
 40
1
 40
1
 40
1
 10
4.434485
 20
5.067991
 30
0.0
 10
4.159494
 20
5.032905
 30
0.0
 10
3.874091
 20
5.078751
 30
0.0
 10
3.625666
 20
5.202457
 30
0.0
  0
SPLINE
  5
207
100
AcDbEntity
  8
0
 62
7
100
AcDbSpline
 70
8
 71
3
 72
8
 73
4
 74
0
 40
0
 40
0
 40
0
 40
0
 40
1
 40
1
 40
1
 40
1
 10
3.625666
 20
5.202457
 30
0.0
 10
3.387356
 20
5.319820
 30
0.0
 10
3.185103
 20
5.507887
 30
0.0
 10
3.048895
 20
5.735786
 30
0.0
  0
SPLINE
  5
208
100
AcDbEntity
  8
0
 62
7
100
AcDbSpline
 70
8
 71
3
 72
8
 73
4
 74
0
 40
0
 40
0
 40
0
 40
0
 40
1
 40
1
 40
1
 40
1
 10
3.048895
 20
5.735786
 30
0.0
 10
3.028770
 20
5.769958
 30
0.0
 10
3.009004
 20
5.804361
 30
0.0
 10
2.989981
 20
5.839140
 30
0.0
  0
SPLINE
  5
209
100
AcDbEntity
  8
0
 62
7
100
AcDbSpline
 70
8
 71
3
 72
8
 73
4
 74
0
 40
0
 40
0
 40
0
 40
0
 40
1
 40
1
 40
1
 40
1
 10
2.989981
 20
5.839140
 30
0.0
 10
2.959257
 20
5.902900
 30
0.0
 10
2.931545
 20
5.968407
 30
0.0
 10
2.911220
 20
6.036296
 30
0.0
  0
SPLINE
  5
20a
100
AcDbEntity
  8
0
 62
7
100
AcDbSpline
 70
8
 71
3
 72
8
 73
4
 74
0
 40
0
 40
0
 40
0
 40
0
 40
1
 40
1
 40
1
 40
1
 10
2.911220
 20
6.036296
 30
0.0
 10
2.907365
 20
6.047885
 30
0.0
 10
2.905075
 20
6.059445
 30
0.0
 10
2.906301
 20
6.071592
 30
0.0
  0
SPLINE
  5
20b
100
AcDbEntity
  8
0
 62
7
100
AcDbSpline
 70
8
 71
3
 72
8
 73
4
 74
0
 40
0
 40
0
 40
0
 40
0
 40
1
 40
1
 40
1
 40
1
 10
2.906301
 20
6.071592
 30
0.0
 10
2.901161
 20
6.096131
 30
0.0
 10
2.889326
 20
6.118799
 30
0.0
 10
2.884856
 20
6.143600
 30
0.0
  0
SPLINE
  5
20c
100
AcDbEntity
  8
0
 62
7
100
AcDbSpline
 70
8
 71
3
 72
8
 73
4
 74
0
 40
0
 40
0
 40
0
 40
0
 40
1
 40
1
 40
1
 40
1
 10
2.884856
 20
6.143600
 30
0.0
 10
2.838288
 20
6.318964
 30
0.0
 10
2.835290
 20
6.503911
 30
0.0
 10
2.861234
 20
6.682824
 30
0.0
  0
SPLINE
  5
20d
100
AcDbEntity
  8
0
 62
7
100
AcDbSpline
 70
8
 71
3
 72
8
 73
4
 74
0
 40
0
 40
0
 40
0
 40
0
 40
1
 40
1
 40
1
 40
1
 10
2.861234
 20
6.682824
 30
0.0
 10
2.905885
 20
6.974415
 30
0.0
 10
3.043949
 20
7.251803
 30
0.0
 10
3.254117
 20
7.459409
 30
0.0
  0
SPLINE
  5
20e
100
AcDbEntity
  8
0
 62
7
100
AcDbSpline
 70
8
 71
3
 72
8
 73
4
 74
0
 40
0
 40
0
 40
0
 40
0
 40
1
 40
1
 40
1
 40
1
 10
3.254117
 20
7.459409
 30
0.0
 10
3.352603
 20
7.558160
 30
0.0
 10
3.466306
 20
7.641374
 30
0.0
 10
3.589127
 20
7.707287
 30
0.0
  0
SPLINE
  5
20f
100
AcDbEntity
  8
0
 62
7
100
AcDbSpline
 70
8
 71
3
 72
8
 73
4
 74
0
 40
0
 40
0
 40
0
 40
0
 40
1
 40
1
 40
1
 40
1
 10
3.589127
 20
7.707287
 30
0.0
 10
3.641167
 20
7.739718
 30
0.0
 10
3.698781
 20
7.761795
 30
0.0
 10
3.755531
 20
7.784428
 30
0.0
  0
SPLINE
  5
210
100
AcDbEntity
  8
0
 62
7
100
AcDbSpline
 70
8
 71
3
 72
8
 73
4
 74
0
 40
0
 40
0
 40
0
 40
0
 40
1
 40
1
 40
1
 40
1
 10
3.755531
 20
7.784428
 30
0.0
 10
3.785701
 20
7.795325
 30
0.0
 10
3.816118
 20
7.807589
 30
0.0
 10
3.847668
 20
7.813022
 30
0.0
  0
SPLINE
  5
211
100
AcDbEntity
  8
0
 62
7
100
AcDbSpline
 70
8
 71
3
 72
8
 73
4
 74
0
 40
0
 40
0
 40
0
 40
0
 40
1
 40
1
 40
1
 40
1
 10
3.847668
 20
7.813022
 30
0.0
 10
3.878062
 20
7.811231
 30
0.0
 10
3.905378
 20
7.828185
 30
0.0
 10
3.934984
 20
7.832410
 30
0.0
  0
SPLINE
  5
212
100
AcDbEntity
  8
0
 62
7
100
AcDbSpline
 70
8
 71
3
 72
8
 73
4
 74
0
 40
0
 40
0
 40
0
 40
0
 40
1
 40
1
 40
1
 40
1
 10
3.934984
 20
7.832410
 30
0.0
 10
4.037352
 20
7.857978
 30
0.0
 10
4.142892
 20
7.870511
 30
0.0
 10
4.248377
 20
7.870688
 30
0.0
  0
LWPOLYLINE
  5
213
100
AcDbEntity
  8
0
 62
7
100
AcDbPolyline
 90
1
 70
1
 10
7.177608
 20
9.367874
 30
0.0
  0
SPLINE
  5
214
100
AcDbEntity
  8
0
 62
7
100
AcDbSpline
 70
8
 71
3
 72
8
 73
4
 74
0
 40
0
 40
0
 40
0
 40
0
 40
1
 40
1
 40
1
 40
1
 10
6.799755
 20
7.149780
 30
0.0
 10
7.171496
 20
7.151126
 30
0.0
 10
7.541598
 20
7.049566
 30
0.0
 10
7.864491
 20
6.866336
 30
0.0
  0
SPLINE
  5
215
100
AcDbEntity
  8
0
 62
7
100
AcDbSpline
 70
8
 71
3
 72
8
 73
4
 74
0
 40
0
 40
0
 40
0
 40
0
 40
1
 40
1
 40
1
 40
1
 10
7.864491
 20
6.866336
 30
0.0
 10
8.033314
 20
6.771598
 30
0.0
 10
8.189370
 20
6.655181
 30
0.0
 10
8.333168
 20
6.525853
 30
0.0
  0
SPLINE
  5
216
100
AcDbEntity
  8
0
 62
7
100
AcDbSpline
 70
8
 71
3
 72
8
 73
4
 74
0
 40
0
 40
0
 40
0
 40
0
 40
1
 40
1
 40
1
 40
1
 10
8.333168
 20
6.525853
 30
0.0
 10
8.366028
 20
6.503648
 30
0.0
 10
8.377852
 20
6.452729
 30
0.0
 10
8.351036
 20
6.421439
 30
0.0
  0
SPLINE
  5
217
100
AcDbEntity
  8
0
 62
7
100
AcDbSpline
 70
8
 71
3
 72
8
 73
4
 74
0
 40
0
 40
0
 40
0
 40
0
 40
1
 40
1
 40
1
 40
1
 10
8.351036
 20
6.421439
 30
0.0
 10
8.336078
 20
6.403410
 30
0.0
 10
8.315537
 20
6.391262
 30
0.0
 10
8.298694
 20
6.375129
 30
0.0
  0
SPLINE
  5
218
100
AcDbEntity
  8
0
 62
7
100
AcDbSpline
 70
8
 71
3
 72
8
 73
4
 74
0
 40
0
 40
0
 40
0
 40
0
 40
1
 40
1
 40
1
 40
1
 10
8.298694
 20
6.375129
 30
0.0
 10
7.968243
 20
6.097519
 30
0.0
 10
7.568452
 20
5.898857
 30
0.0
 10
7.142844
 20
5.821164
 30
0.0
  0
SPLINE
  5
219
100
AcDbEntity
  8
0
 62
7
100
AcDbSpline
 70
8
 71
3
 72
8
 73
4
 74
0
 40
0
 40
0
 40
0
 40
0
 40
1
 40
1
 40
1
 40
1
 10
7.142844
 20
5.821164
 30
0.0
 10
6.845317
 20
5.766884
 30
0.0
 10
6.535874
 20
5.774816
 30
0.0
 10
6.242837
 20
5.850901
 30
0.0
  0
SPLINE
  5
21a
100
AcDbEntity
  8
0
 62
7
100
AcDbSpline
 70
8
 71
3
 72
8
 73
4
 74
0
 40
0
 40
0
 40
0
 40
0
 40
1
 40
1
 40
1
 40
1
 10
6.242837
 20
5.850901
 30
0.0
 10
6.063255
 20
5.896695
 30
0.0
 10
5.890863
 20
5.968402
 30
0.0
 10
5.728664
 20
6.057624
 30
0.0
  0
SPLINE
  5
21b
100
AcDbEntity
  8
0
 62
7
100
AcDbSpline
 70
8
 71
3
 72
8
 73
4
 74
0
 40
0
 40
0
 40
0
 40
0
 40
1
 40
1
 40
1
 40
1
 10
5.728664
 20
6.057624
 30
0.0
 10
5.719032
 20
6.062748
 30
0.0
 10
5.709398
 20
6.067867
 30
0.0
 10
5.699765
 20
6.072988
 30
0.0
  0
SPLINE
  5
21c
100
AcDbEntity
  8
0
 62
7
100
AcDbSpline
 70
8
 71
3
 72
8
 73
4
 74
0
 40
0
 40
0
 40
0
 40
0
 40
1
 40
1
 40
1
 40
1
 10
5.699765
 20
6.072988
 30
0.0
 10
5.714919
 20
6.142810
 30
0.0
 10
5.729667
 20
6.212834
 30
0.0
 10
5.737952
 20
6.283867
 30
0.0
  0
SPLINE
  5
21d
100
AcDbEntity
  8
0
 62
7
100
AcDbSpline
 70
8
 71
3
 72
8
 73
4
 74
0
 40
0
 40
0
 40
0
 40
0
 40
1
 40
1
 40
1
 40
1
 10
5.737952
 20
6.283867
 30
0.0
 10
5.740731
 20
6.307366
 30
0.0
 10
5.743526
 20
6.334853
 30
0.0
 10
5.745775
 20
6.359976
 30
0.0
  0
SPLINE
  5
21e
100
AcDbEntity
  8
0
 62
7
100
AcDbSpline
 70
8
 71
3
 72
8
 73
4
 74
0
 40
0
 40
0
 40
0
 40
0
 40
1
 40
1
 40
1
 40
1
 10
5.745775
 20
6.359976
 30
0.0
 10
5.747601
 20
6.380737
 30
0.0
 10
5.749425
 20
6.401498
 30
0.0
 10
5.751247
 20
6.422259
 30
0.0
  0
SPLINE
  5
21f
100
AcDbEntity
  8
0
 62
7
100
AcDbSpline
 70
8
 71
3
 72
8
 73
4
 74
0
 40
0
 40
0
 40
0
 40
0
 40
1
 40
1
 40
1
 40
1
 10
5.751247
 20
6.422259
 30
0.0
 10
5.982802
 20
6.422582
 30
0.0
 10
6.214409
 20
6.421294
 30
0.0
 10
6.445932
 20
6.423222
 30
0.0
  0
SPLINE
  5
220
100
AcDbEntity
  8
0
 62
7
100
AcDbSpline
 70
8
 71
3
 72
8
 73
4
 74
0
 40
0
 40
0
 40
0
 40
0
 40
1
 40
1
 40
1
 40
1
 10
6.445932
 20
6.423222
 30
0.0
 10
6.462860
 20
6.425453
 30
0.0
 10
6.474621
 20
6.440942
 30
0.0
 10
6.474636
 20
6.457550
 30
0.0
  0
SPLINE
  5
221
100
AcDbEntity
  8
0
 62
7
100
AcDbSpline
 70
8
 71
3
 72
8
 73
4
 74
0
 40
0
 40
0
 40
0
 40
0
 40
1
 40
1
 40
1
 40
1
 10
6.474636
 20
6.457550
 30
0.0
 10
6.477407
 20
6.477020
 30
0.0
 10
6.470660
 20
6.504761
 30
0.0
 10
6.447118
 20
6.506494
 30
0.0
  0
SPLINE
  5
222
100
AcDbEntity
  8
0
 62
7
100
AcDbSpline
 70
8
 71
3
 72
8
 73
4
 74
0
 40
0
 40
0
 40
0
 40
0
 40
1
 40
1
 40
1
 40
1
 10
6.447118
 20
6.506494
 30
0.0
 10
6.413428
 20
6.511372
 30
0.0
 10
6.379235
 20
6.506783
 30
0.0
 10
6.345328
 20
6.508470
 30
0.0
  0
SPLINE
  5
223
100
AcDbEntity
  8
0
 62
7
100
AcDbSpline
 70
8
 71
3
 72
8
 73
4
 74
0
 40
0
 40
0
 40
0
 40
0
 40
1
 40
1
 40
1
 40
1
 10
6.345328
 20
6.508470
 30
0.0
 10
6.147301
 20
6.508470
 30
0.0
 10
5.949274
 20
6.508470
 30
0.0
 10
5.751247
 20
6.508470
 30
0.0
  0
SPLINE
  5
224
100
AcDbEntity
  8
0
 62
7
100
AcDbSpline
 70
8
 71
3
 72
8
 73
4
 74
0
 40
0
 40
0
 40
0
 40
0
 40
1
 40
1
 40
1
 40
1
 10
5.751247
 20
6.508470
 30
0.0
 10
5.745583
 20
6.573482
 30
0.0
 10
5.740221
 20
6.639634
 30
0.0
 10
5.730165
 20
6.702853
 30
0.0
  0
SPLINE
  5
225
100
AcDbEntity
  8
0
 62
7
100
AcDbSpline
 70
8
 71
3
 72
8
 73
4
 74
0
 40
0
 40
0
 40
0
 40
0
 40
1
 40
1
 40
1
 40
1
 10
5.730165
 20
6.702853
 30
0.0
 10
5.722197
 20
6.755401
 30
0.0
 10
5.710369
 20
6.807237
 30
0.0
 10
5.699366
 20
6.859203
 30
0.0
  0
SPLINE
  5
226
100
AcDbEntity
  8
0
 62
7
100
AcDbSpline
 70
8
 71
3
 72
8
 73
4
 74
0
 40
0
 40
0
 40
0
 40
0
 40
1
 40
1
 40
1
 40
1
 10
5.699366
 20
6.859203
 30
0.0
 10
5.899873
 20
6.964471
 30
0.0
 10
6.112227
 20
7.049275
 30
0.0
 10
6.333875
 20
7.097636
 30
0.0
  0
SPLINE
  5
227
100
AcDbEntity
  8
0
 62
7
100
AcDbSpline
 70
8
 71
3
 72
8
 73
4
 74
0
 40
0
 40
0
 40
0
 40
0
 40
1
 40
1
 40
1
 40
1
 10
6.333875
 20
7.097636
 30
0.0
 10
6.486708
 20
7.131582
 30
0.0
 10
6.643185
 20
7.149256
 30
0.0
 10
6.799755
 20
7.149780
 30
0.0
  0
LWPOLYLINE
  5
228
100
AcDbEntity
  8
0
 62
7
100
AcDbPolyline
 90
1
 70
1
 10
4.248377
 20
7.870688
 30
0.0
  0
SPLINE
  5
229
100
AcDbEntity
  8
0
 62
7
100
AcDbSpline
 70
8
 71
3
 72
8
 73
4
 74
0
 40
0
 40
0
 40
0
 40
0
 40
1
 40
1
 40
1
 40
1
 10
1.725349
 20
7.148385
 30
0.0
 10
2.074427
 20
7.149716
 30
0.0
 10
2.422208
 20
7.060509
 30
0.0
 10
2.730864
 20
6.898323
 30
0.0
  0
SPLINE
  5
22a
100
AcDbEntity
  8
0
 62
7
100
AcDbSpline
 70
8
 71
3
 72
8
 73
4
 74
0
 40
0
 40
0
 40
0
 40
0
 40
1
 40
1
 40
1
 40
1
 10
2.730864
 20
6.898323
 30
0.0
 10
2.756625
 20
6.885179
 30
0.0
 10
2.782299
 20
6.871861
 30
0.0
 10
2.808024
 20
6.858639
 30
0.0
  0
SPLINE
  5
22b
100
AcDbEntity
  8
0
 62
7
100
AcDbSpline
 70
8
 71
3
 72
8
 73
4
 74
0
 40
0
 40
0
 40
0
 40
0
 40
1
 40
1
 40
1
 40
1
 10
2.808024
 20
6.858639
 30
0.0
 10
2.789322
 20
6.774538
 30
0.0
 10
2.772617
 20
6.689834
 30
0.0
 10
2.764857
 20
6.603929
 30
0.0
  0
SPLINE
  5
22c
100
AcDbEntity
  8
0
 62
7
100
AcDbSpline
 70
8
 71
3
 72
8
 73
4
 74
0
 40
0
 40
0
 40
0
 40
0
 40
1
 40
1
 40
1
 40
1
 10
2.764857
 20
6.603929
 30
0.0
 10
2.761641
 20
6.572139
 30
0.0
 10
2.759018
 20
6.540294
 30
0.0
 10
2.756143
 20
6.508472
 30
0.0
  0
SPLINE
  5
22d
100
AcDbEntity
  8
0
 62
7
100
AcDbSpline
 70
8
 71
3
 72
8
 73
4
 74
0
 40
0
 40
0
 40
0
 40
0
 40
1
 40
1
 40
1
 40
1
 10
2.756143
 20
6.508472
 30
0.0
 10
2.524863
 20
6.508233
 30
0.0
 10
2.293548
 20
6.509253
 30
0.0
 10
2.062289
 20
6.507674
 30
0.0
  0
SPLINE
  5
22e
100
AcDbEntity
  8
0
 62
7
100
AcDbSpline
 70
8
 71
3
 72
8
 73
4
 74
0
 40
0
 40
0
 40
0
 40
0
 40
1
 40
1
 40
1
 40
1
 10
2.062289
 20
6.507674
 30
0.0
 10
2.046045
 20
6.505606
 30
0.0
 10
2.033447
 20
6.491535
 30
0.0
 10
2.033175
 20
6.475203
 30
0.0
  0
SPLINE
  5
22f
100
AcDbEntity
  8
0
 62
7
100
AcDbSpline
 70
8
 71
3
 72
8
 73
4
 74
0
 40
0
 40
0
 40
0
 40
0
 40
1
 40
1
 40
1
 40
1
 10
2.033175
 20
6.475203
 30
0.0
 10
2.029703
 20
6.455301
 30
0.0
 10
2.036132
 20
6.426066
 30
0.0
 10
2.060474
 20
6.424285
 30
0.0
  0
SPLINE
  5
230
100
AcDbEntity
  8
0
 62
7
100
AcDbSpline
 70
8
 71
3
 72
8
 73
4
 74
0
 40
0
 40
0
 40
0
 40
0
 40
1
 40
1
 40
1
 40
1
 10
2.060474
 20
6.424285
 30
0.0
 10
2.094747
 20
6.419290
 30
0.0
 10
2.129532
 20
6.423940
 30
0.0
 10
2.164022
 20
6.422259
 30
0.0
  0
SPLINE
  5
231
100
AcDbEntity
  8
0
 62
7
100
AcDbSpline
 70
8
 71
3
 72
8
 73
4
 74
0
 40
0
 40
0
 40
0
 40
0
 40
1
 40
1
 40
1
 40
1
 10
2.164022
 20
6.422259
 30
0.0
 10
2.361496
 20
6.422259
 30
0.0
 10
2.558969
 20
6.422259
 30
0.0
 10
2.756442
 20
6.422259
 30
0.0
  0
SPLINE
  5
232
100
AcDbEntity
  8
0
 62
7
100
AcDbSpline
 70
8
 71
3
 72
8
 73
4
 74
0
 40
0
 40
0
 40
0
 40
0
 40
1
 40
1
 40
1
 40
1
 10
2.756442
 20
6.422259
 30
0.0
 10
2.764197
 20
6.313922
 30
0.0
 10
2.777262
 20
6.205561
 30
0.0
 10
2.802307
 20
6.099843
 30
0.0
  0
SPLINE
  5
233
100
AcDbEntity
  8
0
 62
7
100
AcDbSpline
 70
8
 71
3
 72
8
 73
4
 74
0
 40
0
 40
0
 40
0
 40
0
 40
1
 40
1
 40
1
 40
1
 10
2.802307
 20
6.099843
 30
0.0
 10
2.806795
 20
6.077441
 30
0.0
 10
2.788609
 20
6.057678
 30
0.0
 10
2.768008
 20
6.051984
 30
0.0
  0
SPLINE
  5
234
100
AcDbEntity
  8
0
 62
7
100
AcDbSpline
 70
8
 71
3
 72
8
 73
4
 74
0
 40
0
 40
0
 40
0
 40
0
 40
1
 40
1
 40
1
 40
1
 10
2.768008
 20
6.051984
 30
0.0
 10
2.532727
 20
5.925990
 30
0.0
 10
2.276963
 20
5.835561
 30
0.0
 10
2.012358
 20
5.797238
 30
0.0
  0
SPLINE
  5
235
100
AcDbEntity
  8
0
 62
7
100
AcDbSpline
 70
8
 71
3
 72
8
 73
4
 74
0
 40
0
 40
0
 40
0
 40
0
 40
1
 40
1
 40
1
 40
1
 10
2.012358
 20
5.797238
 30
0.0
 10
1.682216
 20
5.747911
 30
0.0
 10
1.340480
 20
5.780307
 30
0.0
 10
1.025238
 20
5.889944
 30
0.0
  0
SPLINE
  5
236
100
AcDbEntity
  8
0
 62
7
100
AcDbSpline
 70
8
 71
3
 72
8
 73
4
 74
0
 40
0
 40
0
 40
0
 40
0
 40
1
 40
1
 40
1
 40
1
 10
1.025238
 20
5.889944
 30
0.0
 10
0.733383
 20
5.990312
 30
0.0
 10
0.464809
 20
6.152801
 30
0.0
 10
0.232003
 20
6.354584
 30
0.0
  0
SPLINE
  5
237
100
AcDbEntity
  8
0
 62
7
100
AcDbSpline
 70
8
 71
3
 72
8
 73
4
 74
0
 40
0
 40
0
 40
0
 40
0
 40
1
 40
1
 40
1
 40
1
 10
0.232003
 20
6.354584
 30
0.0
 10
0.202910
 20
6.379629
 30
0.0
 10
0.174253
 20
6.405175
 30
0.0
 10
0.145640
 20
6.430767
 30
0.0
  0
SPLINE
  5
238
100
AcDbEntity
  8
0
 62
7
100
AcDbSpline
 70
8
 71
3
 72
8
 73
4
 74
0
 40
0
 40
0
 40
0
 40
0
 40
1
 40
1
 40
1
 40
1
 10
0.145640
 20
6.430767
 30
0.0
 10
0.139845
 20
6.461337
 30
0.0
 10
0.142175
 20
6.497225
 30
0.0
 10
0.166844
 20
6.519339
 30
0.0
  0
SPLINE
  5
239
100
AcDbEntity
  8
0
 62
7
100
AcDbSpline
 70
8
 71
3
 72
8
 73
4
 74
0
 40
0
 40
0
 40
0
 40
0
 40
1
 40
1
 40
1
 40
1
 10
0.166844
 20
6.519339
 30
0.0
 10
0.241665
 20
6.585734
 30
0.0
 10
0.318176
 20
6.650471
 30
0.0
 10
0.399910
 20
6.708325
 30
0.0
  0
SPLINE
  5
23a
100
AcDbEntity
  8
0
 62
7
100
AcDbSpline
 70
8
 71
3
 72
8
 73
4
 74
0
 40
0
 40
0
 40
0
 40
0
 40
1
 40
1
 40
1
 40
1
 10
0.399910
 20
6.708325
 30
0.0
 10
0.779643
 20
6.981505
 30
0.0
 10
1.242092
 20
7.144424
 30
0.0
 10
1.711319
 20
7.148165
 30
0.0
  0
SPLINE
  5
23b
100
AcDbEntity
  8
0
 62
7
100
AcDbSpline
 70
8
 71
3
 72
8
 73
4
 74
0
 40
0
 40
0
 40
0
 40
0
 40
1
 40
1
 40
1
 40
1
 10
1.711319
 20
7.148165
 30
0.0
 10
1.715996
 20
7.148233
 30
0.0
 10
1.720672
 20
7.148318
 30
0.0
 10
1.725349
 20
7.148385
 30
0.0
  0
LWPOLYLINE
  5
23c
100
AcDbEntity
  8
0
 62
7
100
AcDbPolyline
 90
1
 70
1
 10
6.799755
 20
7.149780
 30
0.0
  0
SPLINE
  5
23d
100
AcDbEntity
  8
0
 62
7
100
AcDbSpline
 70
8
 71
3
 72
8
 73
4
 74
0
 40
0
 40
0
 40
0
 40
0
 40
1
 40
1
 40
1
 40
1
 10
5.576163
 20
5.719132
 30
0.0
 10
5.592145
 20
5.718293
 30
0.0
 10
5.606130
 20
5.709148
 30
0.0
 10
5.621632
 20
5.705673
 30
0.0
  0
SPLINE
  5
23e
100
AcDbEntity
  8
0
 62
7
100
AcDbSpline
 70
8
 71
3
 72
8
 73
4
 74
0
 40
0
 40
0
 40
0
 40
0
 40
1
 40
1
 40
1
 40
1
 10
5.621632
 20
5.705673
 30
0.0
 10
5.934562
 20
5.604222
 30
0.0
 10
6.231041
 20
5.444470
 30
0.0
 10
6.475291
 20
5.222720
 30
0.0
  0
SPLINE
  5
23f
100
AcDbEntity
  8
0
 62
7
100
AcDbSpline
 70
8
 71
3
 72
8
 73
4
 74
0
 40
0
 40
0
 40
0
 40
0
 40
1
 40
1
 40
1
 40
1
 10
6.475291
 20
5.222720
 30
0.0
 10
6.706340
 20
5.014183
 30
0.0
 10
6.888597
 20
4.752666
 30
0.0
 10
7.006730
 20
4.464848
 30
0.0
  0
SPLINE
  5
240
100
AcDbEntity
  8
0
 62
7
100
AcDbSpline
 70
8
 71
3
 72
8
 73
4
 74
0
 40
0
 40
0
 40
0
 40
0
 40
1
 40
1
 40
1
 40
1
 10
7.006730
 20
4.464848
 30
0.0
 10
7.113509
 20
4.207021
 30
0.0
 10
7.170570
 20
3.930247
 30
0.0
 10
7.187559
 20
3.652169
 30
0.0
  0
SPLINE
  5
241
100
AcDbEntity
  8
0
 62
7
100
AcDbSpline
 70
8
 71
3
 72
8
 73
4
 74
0
 40
0
 40
0
 40
0
 40
0
 40
1
 40
1
 40
1
 40
1
 10
7.187559
 20
3.652169
 30
0.0
 10
7.189932
 20
3.628393
 30
0.0
 10
7.193492
 20
3.602709
 30
0.0
 10
7.180300
 20
3.581135
 30
0.0
  0
SPLINE
  5
242
100
AcDbEntity
  8
0
 62
7
100
AcDbSpline
 70
8
 71
3
 72
8
 73
4
 74
0
 40
0
 40
0
 40
0
 40
0
 40
1
 40
1
 40
1
 40
1
 10
7.180300
 20
3.581135
 30
0.0
 10
7.165993
 20
3.553326
 30
0.0
 10
7.132931
 20
3.538973
 30
0.0
 10
7.102602
 20
3.544890
 30
0.0
  0
SPLINE
  5
243
100
AcDbEntity
  8
0
 62
7
100
AcDbSpline
 70
8
 71
3
 72
8
 73
4
 74
0
 40
0
 40
0
 40
0
 40
0
 40
1
 40
1
 40
1
 40
1
 10
7.102602
 20
3.544890
 30
0.0
 10
6.663152
 20
3.566302
 30
0.0
 10
6.227288
 20
3.703480
 30
0.0
 10
5.863124
 20
3.952208
 30
0.0
  0
SPLINE
  5
244
100
AcDbEntity
  8
0
 62
7
100
AcDbSpline
 70
8
 71
3
 72
8
 73
4
 74
0
 40
0
 40
0
 40
0
 40
0
 40
1
 40
1
 40
1
 40
1
 10
5.863124
 20
3.952208
 30
0.0
 10
5.613944
 20
4.121553
 30
0.0
 10
5.400565
 20
4.344114
 30
0.0
 10
5.245839
 20
4.602881
 30
0.0
  0
SPLINE
  5
245
100
AcDbEntity
  8
0
 62
7
100
AcDbSpline
 70
8
 71
3
 72
8
 73
4
 74
0
 40
0
 40
0
 40
0
 40
0
 40
1
 40
1
 40
1
 40
1
 10
5.245839
 20
4.602881
 30
0.0
 10
5.148752
 20
4.763821
 30
0.0
 10
5.074427
 20
4.938017
 30
0.0
 10
5.021711
 20
5.118317
 30
0.0
  0
SPLINE
  5
246
100
AcDbEntity
  8
0
 62
7
100
AcDbSpline
 70
8
 71
3
 72
8
 73
4
 74
0
 40
0
 40
0
 40
0
 40
0
 40
1
 40
1
 40
1
 40
1
 10
5.021711
 20
5.118317
 30
0.0
 10
5.016561
 20
5.135039
 30
0.0
 10
5.011415
 20
5.151763
 30
0.0
 10
5.006276
 20
5.168489
 30
0.0
  0
SPLINE
  5
247
100
AcDbEntity
  8
0
 62
7
100
AcDbSpline
 70
8
 71
3
 72
8
 73
4
 74
0
 40
0
 40
0
 40
0
 40
0
 40
1
 40
1
 40
1
 40
1
 10
5.006276
 20
5.168489
 30
0.0
 10
5.079092
 20
5.216125
 30
0.0
 10
5.152031
 20
5.263999
 30
0.0
 10
5.218376
 20
5.320540
 30
0.0
  0
SPLINE
  5
248
100
AcDbEntity
  8
0
 62
7
100
AcDbSpline
 70
8
 71
3
 72
8
 73
4
 74
0
 40
0
 40
0
 40
0
 40
0
 40
1
 40
1
 40
1
 40
1
 10
5.218376
 20
5.320540
 30
0.0
 10
5.240575
 20
5.338779
 30
0.0
 10
5.262774
 20
5.357018
 30
0.0
 10
5.284955
 20
5.375279
 30
0.0
  0
SPLINE
  5
249
100
AcDbEntity
  8
0
 62
7
100
AcDbSpline
 70
8
 71
3
 72
8
 73
4
 74
0
 40
0
 40
0
 40
0
 40
0
 40
1
 40
1
 40
1
 40
1
 10
5.284955
 20
5.375279
 30
0.0
 10
5.466941
 20
5.193596
 30
0.0
 10
5.648139
 20
5.011049
 30
0.0
 10
5.831022
 20
4.830311
 30
0.0
  0
SPLINE
  5
24a
100
AcDbEntity
  8
0
 62
7
100
AcDbSpline
 70
8
 71
3
 72
8
 73
4
 74
0
 40
0
 40
0
 40
0
 40
0
 40
1
 40
1
 40
1
 40
1
 10
5.831022
 20
4.830311
 30
0.0
 10
5.850493
 20
4.817590
 30
0.0
 10
5.877016
 20
4.827939
 30
0.0
 10
5.887601
 20
4.847358
 30
0.0
  0
SPLINE
  5
24b
100
AcDbEntity
  8
0
 62
7
100
AcDbSpline
 70
8
 71
3
 72
8
 73
4
 74
0
 40
0
 40
0
 40
0
 40
0
 40
1
 40
1
 40
1
 40
1
 10
5.887601
 20
4.847358
 30
0.0
 10
5.898004
 20
4.862929
 30
0.0
 10
5.895229
 20
4.885007
 30
0.0
 10
5.880407
 20
4.896844
 30
0.0
  0
SPLINE
  5
24c
100
AcDbEntity
  8
0
 62
7
100
AcDbSpline
 70
8
 71
3
 72
8
 73
4
 74
0
 40
0
 40
0
 40
0
 40
0
 40
1
 40
1
 40
1
 40
1
 10
5.880407
 20
4.896844
 30
0.0
 10
5.844697
 20
4.934967
 30
0.0
 10
5.806416
 20
4.970589
 30
0.0
 10
5.770018
 20
5.008063
 30
0.0
  0
SPLINE
  5
24d
100
AcDbEntity
  8
0
 62
7
100
AcDbSpline
 70
8
 71
3
 72
8
 73
4
 74
0
 40
0
 40
0
 40
0
 40
0
 40
1
 40
1
 40
1
 40
1
 10
5.770018
 20
5.008063
 30
0.0
 10
5.627801
 20
5.150239
 30
0.0
 10
5.485624
 20
5.292453
 30
0.0
 10
5.343382
 20
5.434604
 30
0.0
  0
SPLINE
  5
24e
100
AcDbEntity
  8
0
 62
7
100
AcDbSpline
 70
8
 71
3
 72
8
 73
4
 74
0
 40
0
 40
0
 40
0
 40
0
 40
1
 40
1
 40
1
 40
1
 10
5.343382
 20
5.434604
 30
0.0
 10
5.416959
 20
5.519666
 30
0.0
 10
5.486339
 20
5.608899
 30
0.0
 10
5.544452
 20
5.705255
 30
0.0
  0
SPLINE
  5
24f
100
AcDbEntity
  8
0
 62
7
100
AcDbSpline
 70
8
 71
3
 72
8
 73
4
 74
0
 40
0
 40
0
 40
0
 40
0
 40
1
 40
1
 40
1
 40
1
 10
5.544452
 20
5.705255
 30
0.0
 10
5.552312
 20
5.714330
 30
0.0
 10
5.564078
 20
5.719733
 30
0.0
 10
5.576163
 20
5.719132
 30
0.0
  0
LWPOLYLINE
  5
250
100
AcDbEntity
  8
0
 62
7
100
AcDbPolyline
 90
1
 70
1
 10
1.725349
 20
7.148385
 30
0.0
  0
SPLINE
  5
251
100
AcDbEntity
  8
0
 62
7
100
AcDbSpline
 70
8
 71
3
 72
8
 73
4
 74
0
 40
0
 40
0
 40
0
 40
0
 40
1
 40
1
 40
1
 40
1
 10
2.971010
 20
5.691547
 30
0.0
 10
3.005473
 20
5.637998
 30
0.0
 10
3.041279
 20
5.585263
 30
0.0
 10
3.080919
 20
5.535374
 30
0.0
  0
SPLINE
  5
252
100
AcDbEntity
  8
0
 62
7
100
AcDbSpline
 70
8
 71
3
 72
8
 73
4
 74
0
 40
0
 40
0
 40
0
 40
0
 40
1
 40
1
 40
1
 40
1
 10
3.080919
 20
5.535374
 30
0.0
 10
3.093685
 20
5.519080
 30
0.0
 10
3.109378
 20
5.499680
 30
0.0
 10
3.123623
 20
5.482488
 30
0.0
  0
SPLINE
  5
253
100
AcDbEntity
  8
0
 62
7
100
AcDbSpline
 70
8
 71
3
 72
8
 73
4
 74
0
 40
0
 40
0
 40
0
 40
0
 40
1
 40
1
 40
1
 40
1
 10
3.123623
 20
5.482488
 30
0.0
 10
3.137059
 20
5.466467
 30
0.0
 10
3.150488
 20
5.450439
 30
0.0
 10
3.163908
 20
5.434405
 30
0.0
  0
SPLINE
  5
254
100
AcDbEntity
  8
0
 62
7
100
AcDbSpline
 70
8
 71
3
 72
8
 73
4
 74
0
 40
0
 40
0
 40
0
 40
0
 40
1
 40
1
 40
1
 40
1
 10
3.163908
 20
5.434405
 30
0.0
 10
2.982836
 20
5.253084
 30
0.0
 10
2.800933
 20
5.072551
 30
0.0
 10
2.620816
 20
4.890304
 30
0.0
  0
SPLINE
  5
255
100
AcDbEntity
  8
0
 62
7
100
AcDbSpline
 70
8
 71
3
 72
8
 73
4
 74
0
 40
0
 40
0
 40
0
 40
0
 40
1
 40
1
 40
1
 40
1
 10
2.620816
 20
4.890304
 30
0.0
 10
2.607704
 20
4.873112
 30
0.0
 10
2.614007
 20
4.847829
 30
0.0
 10
2.630314
 20
4.835072
 30
0.0
  0
SPLINE
  5
256
100
AcDbEntity
  8
0
 62
7
100
AcDbSpline
 70
8
 71
3
 72
8
 73
4
 74
0
 40
0
 40
0
 40
0
 40
0
 40
1
 40
1
 40
1
 40
1
 10
2.630314
 20
4.835072
 30
0.0
 10
2.645564
 20
4.819884
 30
0.0
 10
2.672379
 20
4.821631
 30
0.0
 10
2.685823
 20
4.838381
 30
0.0
  0
SPLINE
  5
257
100
AcDbEntity
  8
0
 62
7
100
AcDbSpline
 70
8
 71
3
 72
8
 73
4
 74
0
 40
0
 40
0
 40
0
 40
0
 40
1
 40
1
 40
1
 40
1
 10
2.685823
 20
4.838381
 30
0.0
 10
2.864749
 20
5.017610
 30
0.0
 10
3.043964
 20
5.196605
 30
0.0
 10
3.223000
 20
5.375744
 30
0.0
  0
SPLINE
  5
258
100
AcDbEntity
  8
0
 62
7
100
AcDbSpline
 70
8
 71
3
 72
8
 73
4
 74
0
 40
0
 40
0
 40
0
 40
0
 40
1
 40
1
 40
1
 40
1
 10
3.223000
 20
5.375744
 30
0.0
 10
3.307451
 20
5.303057
 30
0.0
 10
3.395413
 20
5.233358
 30
0.0
 10
3.491409
 20
5.176665
 30
0.0
  0
SPLINE
  5
259
100
AcDbEntity
  8
0
 62
7
100
AcDbSpline
 70
8
 71
3
 72
8
 73
4
 74
0
 40
0
 40
0
 40
0
 40
0
 40
1
 40
1
 40
1
 40
1
 10
3.491409
 20
5.176665
 30
0.0
 10
3.510117
 20
5.163239
 30
0.0
 10
3.510265
 20
5.136729
 30
0.0
 10
3.500686
 20
5.117682
 30
0.0
  0
SPLINE
  5
25a
100
AcDbEntity
  8
0
 62
7
100
AcDbSpline
 70
8
 71
3
 72
8
 73
4
 74
0
 40
0
 40
0
 40
0
 40
0
 40
1
 40
1
 40
1
 40
1
 10
3.500686
 20
5.117682
 30
0.0
 10
3.411377
 20
4.837461
 30
0.0
 10
3.277682
 20
4.569079
 30
0.0
 10
3.092500
 20
4.339455
 30
0.0
  0
SPLINE
  5
25b
100
AcDbEntity
  8
0
 62
7
100
AcDbSpline
 70
8
 71
3
 72
8
 73
4
 74
0
 40
0
 40
0
 40
0
 40
0
 40
1
 40
1
 40
1
 40
1
 10
3.092500
 20
4.339455
 30
0.0
 10
2.902071
 20
4.101598
 30
0.0
 10
2.658975
 20
3.906197
 30
0.0
 10
2.385274
 20
3.772205
 30
0.0
  0
SPLINE
  5
25c
100
AcDbEntity
  8
0
 62
7
100
AcDbSpline
 70
8
 71
3
 72
8
 73
4
 74
0
 40
0
 40
0
 40
0
 40
0
 40
1
 40
1
 40
1
 40
1
 10
2.385274
 20
3.772205
 30
0.0
 10
2.103487
 20
3.633211
 30
0.0
 10
1.793038
 20
3.557052
 30
0.0
 10
1.480282
 20
3.534563
 30
0.0
  0
SPLINE
  5
25d
100
AcDbEntity
  8
0
 62
7
100
AcDbSpline
 70
8
 71
3
 72
8
 73
4
 74
0
 40
0
 40
0
 40
0
 40
0
 40
1
 40
1
 40
1
 40
1
 10
1.480282
 20
3.534563
 30
0.0
 10
1.429599
 20
3.530658
 30
0.0
 10
1.378856
 20
3.527621
 30
0.0
 10
1.328120
 20
3.524436
 30
0.0
  0
SPLINE
  5
25e
100
AcDbEntity
  8
0
 62
7
100
AcDbSpline
 70
8
 71
3
 72
8
 73
4
 74
0
 40
0
 40
0
 40
0
 40
0
 40
1
 40
1
 40
1
 40
1
 10
1.328120
 20
3.524436
 30
0.0
 10
1.335558
 20
3.691687
 30
0.0
 10
1.349939
 20
3.859267
 30
0.0
 10
1.386496
 20
4.022949
 30
0.0
  0
SPLINE
  5
25f
100
AcDbEntity
  8
0
 62
7
100
AcDbSpline
 70
8
 71
3
 72
8
 73
4
 74
0
 40
0
 40
0
 40
0
 40
0
 40
1
 40
1
 40
1
 40
1
 10
1.386496
 20
4.022949
 30
0.0
 10
1.469993
 20
4.410250
 30
0.0
 10
1.647792
 20
4.779293
 30
0.0
 10
1.911965
 20
5.075829
 30
0.0
  0
SPLINE
  5
260
100
AcDbEntity
  8
0
 62
7
100
AcDbSpline
 70
8
 71
3
 72
8
 73
4
 74
0
 40
0
 40
0
 40
0
 40
0
 40
1
 40
1
 40
1
 40
1
 10
1.911965
 20
5.075829
 30
0.0
 10
2.143058
 20
5.336089
 30
0.0
 10
2.441187
 20
5.535540
 30
0.0
 10
2.768902
 20
5.652337
 30
0.0
  0
SPLINE
  5
261
100
AcDbEntity
  8
0
 62
7
100
AcDbSpline
 70
8
 71
3
 72
8
 73
4
 74
0
 40
0
 40
0
 40
0
 40
0
 40
1
 40
1
 40
1
 40
1
 10
2.768902
 20
5.652337
 30
0.0
 10
2.830897
 20
5.674652
 30
0.0
 10
2.893911
 20
5.693941
 30
0.0
 10
2.957084
 20
5.712618
 30
0.0
  0
SPLINE
  5
262
100
AcDbEntity
  8
0
 62
7
100
AcDbSpline
 70
8
 71
3
 72
8
 73
4
 74
0
 40
0
 40
0
 40
0
 40
0
 40
1
 40
1
 40
1
 40
1
 10
2.957084
 20
5.712618
 30
0.0
 10
2.961726
 20
5.705594
 30
0.0
 10
2.966368
 20
5.698570
 30
0.0
 10
2.971010
 20
5.691547
 30
0.0
  0
LWPOLYLINE
  5
263
100
AcDbEntity
  8
0
 62
7
100
AcDbPolyline
 90
1
 70
1
 10
5.576163
 20
5.719132
 30
0.0
  0
SPLINE
  5
264
100
AcDbEntity
  8
0
 62
7
100
AcDbSpline
 70
8
 71
3
 72
8
 73
4
 74
0
 40
0
 40
0
 40
0
 40
0
 40
1
 40
1
 40
1
 40
1
 10
3.886411
 20
5.014077
 30
0.0
 10
3.947401
 20
5.000565
 30
0.0
 10
4.011292
 20
4.988501
 30
0.0
 10
4.071798
 20
4.981241
 30
0.0
  0
SPLINE
  5
265
100
AcDbEntity
  8
0
 62
7
100
AcDbSpline
 70
8
 71
3
 72
8
 73
4
 74
0
 40
0
 40
0
 40
0
 40
0
 40
1
 40
1
 40
1
 40
1
 10
4.071798
 20
4.981241
 30
0.0
 10
4.117980
 20
4.975768
 30
0.0
 10
4.164336
 20
4.971994
 30
0.0
 10
4.210655
 20
4.967913
 30
0.0
  0
SPLINE
  5
266
100
AcDbEntity
  8
0
 62
7
100
AcDbSpline
 70
8
 71
3
 72
8
 73
4
 74
0
 40
0
 40
0
 40
0
 40
0
 40
1
 40
1
 40
1
 40
1
 10
4.210655
 20
4.967913
 30
0.0
 10
4.210894
 20
4.736566
 30
0.0
 10
4.209874
 20
4.505186
 30
0.0
 10
4.211453
 20
4.273860
 30
0.0
  0
SPLINE
  5
267
100
AcDbEntity
  8
0
 62
7
100
AcDbSpline
 70
8
 71
3
 72
8
 73
4
 74
0
 40
0
 40
0
 40
0
 40
0
 40
1
 40
1
 40
1
 40
1
 10
4.211453
 20
4.273860
 30
0.0
 10
4.213583
 20
4.256987
 30
0.0
 10
4.228746
 20
4.244538
 30
0.0
 10
4.245520
 20
4.244579
 30
0.0
  0
SPLINE
  5
268
100
AcDbEntity
  8
0
 62
7
100
AcDbSpline
 70
8
 71
3
 72
8
 73
4
 74
0
 40
0
 40
0
 40
0
 40
0
 40
1
 40
1
 40
1
 40
1
 10
4.245520
 20
4.244579
 30
0.0
 10
4.265389
 20
4.241514
 30
0.0
 10
4.293738
 20
4.248722
 30
0.0
 10
4.295036
 20
4.272843
 30
0.0
  0
SPLINE
  5
269
100
AcDbEntity
  8
0
 62
7
100
AcDbSpline
 70
8
 71
3
 72
8
 73
4
 74
0
 40
0
 40
0
 40
0
 40
0
 40
1
 40
1
 40
1
 40
1
 10
4.295036
 20
4.272843
 30
0.0
 10
4.299719
 20
4.306889
 30
0.0
 10
4.295172
 20
4.341386
 30
0.0
 10
4.296868
 20
4.375626
 30
0.0
  0
SPLINE
  5
26a
100
AcDbEntity
  8
0
 62
7
100
AcDbSpline
 70
8
 71
3
 72
8
 73
4
 74
0
 40
0
 40
0
 40
0
 40
0
 40
1
 40
1
 40
1
 40
1
 10
4.296868
 20
4.375626
 30
0.0
 10
4.296868
 20
4.573111
 30
0.0
 10
4.296868
 20
4.770595
 30
0.0
 10
4.296868
 20
4.968080
 30
0.0
  0
SPLINE
  5
26b
100
AcDbEntity
  8
0
 62
7
100
AcDbSpline
 70
8
 71
3
 72
8
 73
4
 74
0
 40
0
 40
0
 40
0
 40
0
 40
1
 40
1
 40
1
 40
1
 10
4.296868
 20
4.968080
 30
0.0
 10
4.405686
 20
4.975816
 30
0.0
 10
4.514482
 20
4.989113
 30
0.0
 10
4.620680
 20
5.014177
 30
0.0
  0
SPLINE
  5
26c
100
AcDbEntity
  8
0
 62
7
100
AcDbSpline
 70
8
 71
3
 72
8
 73
4
 74
0
 40
0
 40
0
 40
0
 40
0
 40
1
 40
1
 40
1
 40
1
 10
4.620680
 20
5.014177
 30
0.0
 10
4.642875
 20
5.017996
 30
0.0
 10
4.661827
 20
4.999637
 30
0.0
 10
4.667409
 20
4.979380
 30
0.0
  0
SPLINE
  5
26d
100
AcDbEntity
  8
0
 62
7
100
AcDbSpline
 70
8
 71
3
 72
8
 73
4
 74
0
 40
0
 40
0
 40
0
 40
0
 40
1
 40
1
 40
1
 40
1
 10
4.667409
 20
4.979380
 30
0.0
 10
4.818941
 20
4.696948
 30
0.0
 10
4.917710
 20
4.384031
 30
0.0
 10
4.939295
 20
4.063457
 30
0.0
  0
SPLINE
  5
26e
100
AcDbEntity
  8
0
 62
7
100
AcDbSpline
 70
8
 71
3
 72
8
 73
4
 74
0
 40
0
 40
0
 40
0
 40
0
 40
1
 40
1
 40
1
 40
1
 10
4.939295
 20
4.063457
 30
0.0
 10
4.962033
 20
3.746166
 30
0.0
 10
4.908851
 20
3.424419
 30
0.0
 10
4.789224
 20
3.129892
 30
0.0
  0
SPLINE
  5
26f
100
AcDbEntity
  8
0
 62
7
100
AcDbSpline
 70
8
 71
3
 72
8
 73
4
 74
0
 40
0
 40
0
 40
0
 40
0
 40
1
 40
1
 40
1
 40
1
 10
4.789224
 20
3.129892
 30
0.0
 10
4.685177
 20
2.870830
 30
0.0
 10
4.531548
 20
2.633345
 30
0.0
 10
4.347610
 20
2.423945
 30
0.0
  0
SPLINE
  5
270
100
AcDbEntity
  8
0
 62
7
100
AcDbSpline
 70
8
 71
3
 72
8
 73
4
 74
0
 40
0
 40
0
 40
0
 40
0
 40
1
 40
1
 40
1
 40
1
 10
4.347610
 20
2.423945
 30
0.0
 10
4.331584
 20
2.407054
 30
0.0
 10
4.317806
 20
2.388108
 30
0.0
 10
4.301222
 20
2.371867
 30
0.0
  0
SPLINE
  5
271
100
AcDbEntity
  8
0
 62
7
100
AcDbSpline
 70
8
 71
3
 72
8
 73
4
 74
0
 40
0
 40
0
 40
0
 40
0
 40
1
 40
1
 40
1
 40
1
 10
4.301222
 20
2.371867
 30
0.0
 10
4.274528
 20
2.348721
 30
0.0
 10
4.230765
 20
2.347155
 30
0.0
 10
4.205020
 20
2.372597
 30
0.0
  0
SPLINE
  5
272
100
AcDbEntity
  8
0
 62
7
100
AcDbSpline
 70
8
 71
3
 72
8
 73
4
 74
0
 40
0
 40
0
 40
0
 40
0
 40
1
 40
1
 40
1
 40
1
 10
4.205020
 20
2.372597
 30
0.0
 10
4.181280
 20
2.397914
 30
0.0
 10
4.159732
 20
2.425342
 30
0.0
 10
4.137427
 20
2.451987
 30
0.0
  0
SPLINE
  5
273
100
AcDbEntity
  8
0
 62
7
100
AcDbSpline
 70
8
 71
3
 72
8
 73
4
 74
0
 40
0
 40
0
 40
0
 40
0
 40
1
 40
1
 40
1
 40
1
 10
4.137427
 20
2.451987
 30
0.0
 10
3.866753
 20
2.784438
 30
0.0
 10
3.674964
 20
3.184314
 30
0.0
 10
3.604044
 20
3.608221
 30
0.0
  0
SPLINE
  5
274
100
AcDbEntity
  8
0
 62
7
100
AcDbSpline
 70
8
 71
3
 72
8
 73
4
 74
0
 40
0
 40
0
 40
0
 40
0
 40
1
 40
1
 40
1
 40
1
 10
3.604044
 20
3.608221
 30
0.0
 10
3.558906
 20
3.878951
 30
0.0
 10
3.564657
 20
4.158695
 30
0.0
 10
3.627109
 20
4.426249
 30
0.0
  0
SPLINE
  5
275
100
AcDbEntity
  8
0
 62
7
100
AcDbSpline
 70
8
 71
3
 72
8
 73
4
 74
0
 40
0
 40
0
 40
0
 40
0
 40
1
 40
1
 40
1
 40
1
 10
3.627109
 20
4.426249
 30
0.0
 10
3.671454
 20
4.620102
 30
0.0
 10
3.745472
 20
4.806595
 30
0.0
 10
3.840875
 20
4.980841
 30
0.0
  0
SPLINE
  5
276
100
AcDbEntity
  8
0
 62
7
100
AcDbSpline
 70
8
 71
3
 72
8
 73
4
 74
0
 40
0
 40
0
 40
0
 40
0
 40
1
 40
1
 40
1
 40
1
 10
3.840875
 20
4.980841
 30
0.0
 10
3.847668
 20
4.993692
 30
0.0
 10
3.854460
 20
5.006543
 30
0.0
 10
3.861252
 20
5.019394
 30
0.0
  0
SPLINE
  5
277
100
AcDbEntity
  8
0
 62
7
100
AcDbSpline
 70
8
 71
3
 72
8
 73
4
 74
0
 40
0
 40
0
 40
0
 40
0
 40
1
 40
1
 40
1
 40
1
 10
3.861252
 20
5.019394
 30
0.0
 10
3.869639
 20
5.017622
 30
0.0
 10
3.878025
 20
5.015849
 30
0.0
 10
3.886412
 20
5.014076
 30
0.0
  0
LWPOLYLINE
  5
278
100
AcDbEntity
  8
0
 62
7
100
AcDbPolyline
 90
1
 70
1
 10
2.971010
 20
5.691547
 30
0.0
  0
LWPOLYLINE
  5
279
100
AcDbEntity
  8
0
 62
7
100
AcDbPolyline
 90
1
 70
1
 10
3.886412
 20
5.014076
 30
0.0
  0
ENDSEC
  0
SECTION
  2
OBJECTS
  0
DICTIONARY
  5
C
330
0
100
AcDbDictionary
  3
ACAD_GROUP
350
D
  3
ACAD_MLINESTYLE
350
17
  0
DICTIONARY
  5
D
330
C
100
AcDbDictionary
  0
DICTIONARY
  5
1A
330
C
100
AcDbDictionary
  0
DICTIONARY
  5
17
330
C
100
AcDbDictionary
  3
STANDARD
350
18
  0
DICTIONARY
  5
19
330
C
100
AcDbDictionary
  0
ENDSEC
  0
EOF
