<?xml version="1.0" encoding="UTF-8" standalone="no"?>
<svg
   xmlns:dc="http://purl.org/dc/elements/1.1/"
   xmlns:cc="http://creativecommons.org/ns#"
   xmlns:rdf="http://www.w3.org/1999/02/22-rdf-syntax-ns#"
   xmlns:svg="http://www.w3.org/2000/svg"
   xmlns="http://www.w3.org/2000/svg"
   xmlns:sodipodi="http://sodipodi.sourceforge.net/DTD/sodipodi-0.dtd"
   xmlns:inkscape="http://www.inkscape.org/namespaces/inkscape"
   version="1.1"
   id="Layer_1"
   x="0px"
   y="0px"
   viewBox="0 0 25.568106 25.525548"
   xml:space="preserve"
   sodipodi:docname="daisy-flower-svgrepo-com_thinned.svg"
   inkscape:version="1.0.2 (e86c870879, 2021-01-15)"
   width="8.5227022mm"
   height="8.5085163mm"><metadata
   id="metadata47"><rdf:RDF><cc:Work
       rdf:about=""><dc:format>image/svg+xml</dc:format><dc:type
         rdf:resource="http://purl.org/dc/dcmitype/StillImage" /><dc:title></dc:title></cc:Work></rdf:RDF></metadata><defs
   id="defs45" /><sodipodi:namedview
   pagecolor="#ffffff"
   bordercolor="#666666"
   borderopacity="1"
   objecttolerance="10"
   gridtolerance="10"
   guidetolerance="10"
   inkscape:pageopacity="0"
   inkscape:pageshadow="2"
   inkscape:window-width="2169"
   inkscape:window-height="1548"
   id="namedview43"
   showgrid="false"
   inkscape:zoom="7.8619015"
   inkscape:cx="-7.6235839"
   inkscape:cy="3.7198273"
   inkscape:window-x="1413"
   inkscape:window-y="288"
   inkscape:window-maximized="0"
   inkscape:current-layer="Layer_1"
   inkscape:document-units="mm"
   units="mm"
   scale-x="55.17953"
   fit-margin-top="0"
   fit-margin-left="0"
   fit-margin-right="0"
   fit-margin-bottom="0" />
<g
   transform="matrix(0.05104939,0,0,0.05104939,-0.2563368,-0.27731771)"
   id="g10">
	<g
   id="g8">
		<g
   id="g6">
			<path
   id="path2"
   style="display:inline"
   d="m 253.5332,201.71289 c -13.72726,0.29318 -27.29085,6.04177 -36.90156,15.87398 -8.76038,8.8723 -14.2459,20.89176 -15.17812,33.32806 -0.2257,2.27244 -0.1636,4.55767 -0.0219,6.83312 1.37508,0.0614 2.98035,0.64436 4.15148,-0.37121 1.00771,-0.91094 0.64976,-2.35246 0.78234,-3.55592 0.22617,-8.80698 2.90453,-17.52984 7.68357,-24.93211 4.19474,-6.59701 10.0441,-12.12855 16.88456,-15.91811 0.48463,-0.27021 1.25974,-0.6872 1.8738,-0.99158 5.34041,-2.68456 11.17726,-4.36074 17.12034,-4.97717 0.8453,-0.0906 1.96953,-0.17473 2.92838,-0.21463 1.14875,-0.0549 2.2989,-0.0463 3.44858,-0.049 0.74755,-0.73348 1.38506,-1.67722 1.25662,-2.77577 -0.0369,-0.86252 -0.59992,-1.6698 -1.22746,-2.16496 -0.93318,-0.0843 -1.86374,-0.12547 -2.80065,-0.0847 z" />
			<path
   id="path4"
   style="display:inline"
   d="m 254.85742,5.4355469 c -1.45886,0.1963786 -2.2806,1.6108231 -3.2915,2.5296004 -2.84873,2.9156917 -5.68021,6.0298667 -8.25928,9.0797747 -8.72085,10.310484 -16.2073,21.698596 -21.9082,33.951172 -0.51394,1.121427 -1.12338,2.473067 -1.64844,3.693359 -0.79398,1.860224 -1.54698,3.737595 -2.26367,5.628906 -0.31496,0.853603 -0.73155,1.972045 -1.0582,2.937539 -2.88337,8.272013 -4.92592,16.837351 -6.04141,25.527305 -0.0918,0.838013 -0.24657,1.954096 -0.33412,2.907384 -0.63012,6.017176 -0.81303,11.940423 -0.56069,18.021163 0.30155,7.02001 1.16733,13.86611 2.59207,20.7277 0.92445,4.48876 2.13356,9.05425 3.52989,13.47366 0.58045,1.35616 0.28599,2.85228 0.38506,4.28547 0.0544,4.15256 0.10881,8.30511 0.16318,12.45767 -3.58272,-3.64663 -7.28372,-7.1786 -10.83395,-10.85501 -1.17616,-1.51541 -1.87214,-3.32907 -2.91408,-4.93315 -1.57968,-2.72079 -3.3735,-5.50778 -5.09181,-8.01457 -9.0345,-13.08304 -20.5108,-24.4671 -33.64844,-33.41993 -1.39494,-0.94192 -2.9712,-1.99765 -4.4695,-2.93204 C 141.74916,89.527184 121.91054,82.468888 101.52344,79.523438 97.802841,78.989309 93.759883,78.550039 89.872842,78.292739 86.373118,78.090467 82.860251,77.892412 79.356169,78.008872 c -0.908102,0.08377 -1.703136,0.781797 -1.745328,1.722295 -0.204464,1.739553 0.01965,3.49608 -0.01075,5.243481 0.02163,1.108151 0.07009,2.295506 0.110845,3.347618 0.137433,2.995616 0.346891,5.987885 0.636718,8.972656 0.160334,1.589806 0.356586,3.396528 0.576757,5.065518 1.024286,7.95292 2.660119,15.82891 4.936915,23.51847 0.341494,1.1454 0.775254,2.55206 1.144835,3.68189 5.661732,17.38604 14.883523,33.64797 27.209279,47.17884 8.78167,9.67457 19.07705,17.94406 30.29433,24.6295 2.00336,1.19464 4.1991,2.43052 6.32761,3.55049 1.32912,0.61672 2.60138,1.3882 3.53604,2.54138 3.13061,3.16155 6.27206,6.31507 9.40588,9.47454 -5.16539,-0.0254 -10.33096,0.0512 -15.4961,-0.01 -9.50257,-3.08223 -19.36211,-5.07985 -29.32617,-5.83789 -0.99755,-0.0654 -2.26774,-0.15852 -3.37075,-0.20577 -2.37178,-0.11858 -4.99053,-0.16699 -7.46712,-0.14166 -4.44775,0.0429 -8.892347,0.32374 -13.312521,0.81813 -1.146038,0.13714 -2.541193,0.31058 -3.778579,0.48946 -3.832076,0.54723 -7.773327,1.30936 -11.45775,2.16289 -2.855798,0.67576 -5.657956,1.41808 -8.41802,2.25194 -5.034785,1.50647 -9.977527,3.31117 -14.818308,5.35548 -1.419348,0.60213 -3.033043,1.31334 -4.508667,2.00294 -11.512255,5.32855 -22.335006,12.12411 -32.200317,20.09472 -0.938536,0.76567 -2.063842,1.70036 -3.06024,2.54673 -3.198543,2.74759 -6.3383384,5.58262 -9.2288225,8.65248 -0.6574566,1.05 -0.2223498,2.43274 0.7308684,3.14217 2.6069226,2.62105 5.3211561,5.13526 8.0933501,7.58049 1.298385,1.12457 2.761387,2.3815 4.159059,3.5163 15.376407,12.63634 33.2335,22.42058 52.480869,27.65728 9.430524,2.5915 19.165593,4.06433 28.94015,4.39087 7.783138,0.26722 15.886618,-0.21096 23.576178,-1.41796 6.62604,-1.02165 13.16255,-2.58559 19.56054,-4.58399 5.32807,-0.13619 10.65626,-0.26779 15.98438,-0.40234 -3.79029,3.68205 -7.47093,7.47578 -11.28711,11.13086 -1.97697,1.32057 -4.12202,2.36584 -6.10933,3.67355 -17.45404,10.81668 -32.13945,25.95398 -42.706489,43.53964 -5.122773,8.46991 -9.45395,17.73722 -12.743739,27.21215 -0.820603,2.3209 -1.608626,4.81045 -2.333023,7.25044 -0.33195,1.16192 -0.734021,2.56565 -1.065422,3.82747 -0.446812,1.66158 -0.89237,3.52491 -1.254891,5.08268 -1.319683,5.84536 -2.326117,11.76176 -2.964844,17.72071 -0.21837,2.07362 -0.418159,4.33564 -0.55664,6.48828 -0.105003,1.68243 -0.201815,3.66102 -0.240532,5.34946 3.88e-4,1.66858 -0.147885,3.35427 0.02537,5.01345 0.129941,0.90046 0.924076,1.51763 1.810866,1.55701 1.798539,0.14012 3.606688,-0.0376 5.409752,-0.0211 2.265022,-0.0577 4.731619,-0.1711 6.988618,-0.32705 7.078526,-0.4778 14.130734,-1.38985 21.084054,-2.80416 9.78684,-1.99469 19.55666,-5.01416 28.75994,-9.07775 7.12209,-3.124 14.08307,-6.96928 20.55851,-11.39143 11.36543,-7.7235 21.545,-17.49622 29.82239,-28.56386 4.51002,-5.96199 8.43277,-12.34781 11.92752,-18.95134 1.54141,-2.01997 3.50596,-3.65696 5.21654,-5.52578 1.9902,-2.02799 3.97962,-4.05676 5.96901,-6.08555 -0.0713,5.09485 -10e-4,10.19095 -0.10157,15.28516 -0.22462,1.9312 -1.04249,3.72461 -1.44954,5.61808 -3.45198,12.99507 -4.76746,26.54783 -3.93132,39.9659 0.12868,1.99813 0.31708,4.19377 0.54799,6.26093 2.19175,19.63283 8.88532,38.84695 18.86192,55.95274 4.60821,7.91606 9.92569,15.41676 15.84595,22.40547 0.34292,0.39866 0.91941,1.05637 1.35185,1.55432 2.43922,2.7803 4.93212,5.54021 7.64419,8.05012 0.91751,0.46132 2.17866,0.33321 2.78594,-0.56426 2.86984,-2.94506 5.71185,-5.98033 8.34682,-9.06387 1.46858,-1.72548 3.05296,-3.62826 4.4976,-5.48019 1.67438,-2.12704 3.28499,-4.28647 4.81542,-6.4425 3.29527,-4.6566 6.33722,-9.49296 9.08748,-14.49112 0.79176,-1.45636 1.67414,-3.1107 2.45118,-4.67018 8.87472,-17.63024 13.84736,-37.29148 13.82636,-57.05987 0.002,-1.86425 -0.0429,-3.78904 -0.11348,-5.51018 -0.44808,-10.41618 -2.17882,-20.77264 -5.10156,-30.7793 -1.05595,-3.6346 -2.33058,-7.40781 -3.70437,-11.01556 -0.3938,-1.13129 -0.93027,-2.23249 -1.26961,-3.36949 -0.0139,-0.56487 0.13583,-1.19934 0.0267,-1.72237 -1.16465,-0.9862 -1.92816,-2.32443 -2.4538,-3.73683 -1.80406,-3.9363 -3.79874,-7.78109 -5.71807,-11.66161 4.21169,-1.71489 8.42429,-3.42754 12.63672,-5.14062 1.69011,4.92937 3.28992,9.89465 5.26367,14.7207 0.0142,0.60338 -0.14197,1.27768 -0.0254,1.83789 1.13522,0.96471 1.8919,2.26545 2.40982,3.64339 2.76084,6.0074 5.98918,11.7981 9.63119,17.3156 0.31204,0.46946 0.82124,1.21565 1.20888,1.79122 7.93956,11.61262 17.85097,21.84987 29.10362,30.283 7.88202,5.91571 16.57472,11.03632 25.59766,15.16406 3.37458,1.53949 6.70841,2.92173 10.20553,4.21733 2.44862,0.9081 5.15512,1.82817 7.68099,2.60924 13.60484,4.22789 27.80713,6.50549 42.04903,6.80233 1.14669,0.005 2.53594,0.0751 3.76498,-0.0711 0.9753,-0.20536 1.54835,-1.1722 1.48697,-2.12809 0.0998,-2.42729 -0.0787,-4.85654 -0.11212,-7.28441 -0.17529,-4.54098 -0.53354,-9.07451 -1.07343,-13.58669 -0.15447,-1.18965 -0.33668,-2.63272 -0.52782,-3.91557 -0.45903,-3.15002 -1.02228,-6.28454 -1.67139,-9.40083 -0.23066,-1.07034 -0.5169,-2.39796 -0.79773,-3.56039 -1.25308,-5.31331 -2.82276,-10.55054 -4.66321,-15.68961 -0.2491,-0.67485 -0.60069,-1.6424 -0.90672,-2.42426 -3.648,-9.55149 -8.50919,-18.81753 -14.24953,-27.14996 -5.70379,-8.25722 -12.40288,-15.82109 -19.89063,-22.50196 -0.39332,-0.34777 -1.0547,-0.92132 -1.55076,-1.35563 -7.69913,-6.63009 -16.11805,-12.26539 -25.10275,-17.00384 -1.07983,-0.63459 -2.35921,-0.99415 -3.15828,-2.01283 -3.39157,-3.36803 -6.78327,-6.73593 -10.17454,-10.10426 5.00925,0.0321 10.01855,-0.0909 15.02735,-0.0254 1.9101,0.22081 3.67778,1.04398 5.54714,1.457 7.785,2.1228 15.65462,3.51194 23.7155,4.13297 5.92576,0.46244 11.91996,0.50209 17.91705,0.12683 1.15203,-0.0783 2.61511,-0.18587 3.76732,-0.29398 5.97146,-0.54839 11.91156,-1.5055 17.81388,-2.84507 2.20522,-0.50013 4.69982,-1.1366 6.87973,-1.74376 24.06189,-6.77939 46.28769,-19.59607 64.70703,-36.43946 0.74418,-0.83992 2.03033,-1.49284 1.93946,-2.78515 -10e-4,-1.43888 -1.43606,-2.16661 -2.26478,-3.13658 -5.39808,-5.25521 -11.09588,-10.2091 -17.13757,-14.71303 -1.31101,-0.97784 -2.81148,-2.06135 -4.22186,-3.04485 -16.55408,-11.59389 -35.57648,-19.86223 -55.57738,-23.08686 -4.73709,-0.77501 -9.58266,-1.27116 -14.30717,-1.48553 -16.86677,-0.76539 -33.83333,1.99495 -49.704,7.70919 -2.12461,0.7213 -4.20557,1.61264 -6.31106,2.35186 -0.58056,0.0741 -1.26615,-0.17173 -1.77696,0.0152 -0.97339,1.14916 -2.30029,1.89218 -3.69154,2.41361 -3.94161,1.80865 -7.79502,3.80067 -11.6737,5.73873 -1.71541,-4.21526 -3.43033,-8.43072 -5.14453,-12.64648 4.82457,-1.62221 9.64123,-3.27713 14.39844,-5.08398 0.69627,-0.21178 1.48414,-0.0845 2.15234,-0.1543 0.98924,-1.17072 2.33889,-1.9258 3.75266,-2.45957 2.10855,-0.96725 4.17874,-1.99815 6.12745,-3.01995 10.35958,-5.45606 20.15157,-12.43521 28.67875,-20.57783 16.58006,-15.7418 28.71119,-35.90585 35.76932,-57.59624 0.49097,-1.49888 0.96595,-3.02885 1.38163,-4.45489 0.43619,-1.48309 0.82324,-2.89266 1.2242,-4.4337 2.6484,-10.18543 4.25948,-20.643336 4.75349,-31.15704 0.0617,-1.396567 0.12103,-3.026864 0.13185,-4.515996 -0.0427,-1.207216 0.1295,-2.449465 -0.11622,-3.634395 -0.29797,-0.955178 -1.30569,-1.358951 -2.23466,-1.301494 -1.79164,-0.09568 -3.47623,0.06698 -5.29957,0.05897 -6.07831,0.170995 -12.05138,0.658205 -18.08625,1.48328 -15.80834,2.161088 -31.60171,6.887626 -45.88412,14.3122 -2.85547,1.475249 -5.78095,3.141449 -8.43095,4.784937 -1.47663,0.917114 -2.86498,1.820938 -4.3418,2.820308 -7.86526,5.32056 -15.10237,11.56161 -21.56054,18.52149 -5.30528,5.71803 -10.21051,12.06969 -14.41036,18.73132 -2.11327,3.26834 -3.98998,6.67798 -5.86895,10.08297 -0.76219,1.48483 -2.16193,2.47267 -3.25271,3.70092 -2.70517,2.7511 -5.41027,5.50226 -8.11447,8.25432 0.0713,-5.08899 0.001,-10.17923 0.10156,-15.26758 0.11468,-1.33309 0.65317,-2.67667 0.98119,-3.84313 2.19534,-7.93497 3.65946,-16.07427 4.28053,-24.28578 0.0641,-0.98972 0.16055,-2.25148 0.20589,-3.34709 0.14571,-2.81274 0.19422,-5.85468 0.13093,-8.7696 -0.0227,-1.13347 -0.0506,-2.17083 -0.11106,-3.27638 -0.56936,-12.62032 -3.06097,-25.1282 -7.10662,-37.087393 -0.33106,-0.951991 -0.73998,-2.163467 -1.1317,-3.20633 -0.97798,-2.694171 -2.05424,-5.351466 -3.1847,-7.985076 -0.43547,-0.986676 -0.97043,-2.218729 -1.47508,-3.286121 C 282.6273,39.791849 276.4933,29.784872 269.35352,20.564453 268.68349,19.726797 267.86488,18.666992 267.11815,17.758537 263.79197,13.701301 260.30969,9.7582057 256.54214,6.1038314 256.12143,5.6432456 255.4767,5.4012586 254.85742,5.4355469 Z m 1.7461,7.9218751 c 4.82626,5.591976 9.47862,11.348314 13.59654,17.487284 14.25755,21.143827 23.36619,46.023165 24.57472,71.590404 0.94251,18.7106 -2.56234,37.61477 -10.11132,54.75896 -1.97265,4.53622 -4.25193,8.93087 -6.6283,13.26687 -6.15705,-1.45741 -12.42539,-2.42785 -18.73633,-2.88477 -1.34743,-0.28451 -2.04272,-1.77138 -1.75345,-3.05027 -0.0405,-12.62479 0.0392,-25.26614 -0.061,-37.89504 -0.12249,-1.01046 -1.05219,-1.72873 -2.04677,-1.71894 -1.12012,-0.15091 -2.7142,0.22694 -2.84535,1.56906 -0.30733,1.9272 -0.0222,3.8892 -0.12546,5.83113 0,11.7013 0,23.4026 0,35.10391 -3.67959,0.32484 -7.52352,0.64753 -11.07813,1.19531 -3.18594,0.47019 -6.32889,1.1781 -9.47656,1.84961 -6.23156,-11.4733 -11.2735,-23.65612 -14.21125,-36.40106 -4.7587,-20.19743 -4.35372,-41.608234 1.3509,-61.570667 5.52731,-19.561371 15.82631,-37.61062 29.06556,-52.971148 2.29704,-2.67271 4.65273,-5.293637 6.99987,-7.922362 0.49544,0.58724 0.99088,1.174479 1.48633,1.761719 z M 84.451172,82.673828 c 5.764978,0.414196 11.616707,0.927595 17.370348,1.868991 25.15251,4.02603 49.45208,14.467861 68.94761,30.979471 13.59185,11.47346 24.64302,25.93346 32.11173,42.07732 3.25198,6.97749 5.77313,14.27027 7.88672,21.66601 -5.45448,3.35998 -10.61514,7.182 -15.45777,11.37453 -0.48242,0.11682 -1.10817,-0.0918 -1.60929,-0.2376 -1.10735,-0.53898 -1.77234,-1.65258 -2.69764,-2.43336 -9.52132,-9.50918 -19.00345,-19.06093 -28.57841,-28.51431 -1.34869,-1.0072 -3.35537,-0.005 -3.72031,1.54199 -0.37713,1.06133 0.3656,2.00478 1.08686,2.69649 8.47012,8.43987 16.91196,16.91146 25.37394,25.36092 1.93134,1.93113 3.86283,3.86211 5.79402,5.79338 -3.80571,4.45724 -7.49425,9.03417 -10.61496,14.00531 -0.5258,0.80835 -1.05199,1.61643 -1.5784,2.42437 -12.78687,-3.92122 -25.22832,-9.16805 -36.55829,-16.31973 C 123.96012,183.59842 108.69018,167.4424 98.612803,148.4383 89.006655,130.4836 83.936705,110.31308 82.654459,90.049741 c -0.177626,-2.520095 -0.34494,-5.040892 -0.515787,-7.56146 0.770833,0.06185 1.541667,0.123698 2.3125,0.185547 z m 342.373048,2.183594 c -0.34665,6.382971 -0.82511,12.76671 -1.84559,19.082048 -3.97512,25.26105 -14.69932,49.60747 -31.56261,68.92381 -11.20691,12.8495 -25.13819,23.30058 -40.61408,30.45647 -6.9675,3.24786 -14.25082,5.76738 -21.63788,7.87361 -3.12787,-5.03335 -6.58341,-9.86539 -10.45674,-14.35401 -0.979,-0.84206 -1.16818,-2.43678 -0.27373,-3.40771 4.55768,-4.49994 9.0794,-9.06965 13.62416,-13.59572 5.65462,-5.66928 11.34125,-11.31145 16.94811,-17.02537 0.99904,-1.41675 -0.13612,-3.46398 -1.75626,-3.72079 -1.34494,-0.33174 -2.2557,0.93611 -3.12585,1.73088 -4.73469,4.7978 -9.53523,9.53212 -14.28982,14.31114 -5.41731,5.41765 -10.83451,10.83541 -16.2519,16.25299 -4.43507,-3.77251 -8.97351,-7.44745 -13.91067,-10.55091 -0.82129,-0.53404 -1.64275,-1.06784 -2.46433,-1.60144 3.7289,-12.89261 8.90068,-25.42755 16.04536,-36.81715 11.04526,-17.79875 26.71969,-32.70812 45.1187,-42.737536 17.75036,-9.735133 37.73486,-15.067631 57.88018,-16.501748 2.90394,-0.221905 5.81176,-0.392973 8.71748,-0.592002 -0.0482,0.757813 -0.0963,1.515625 -0.14453,2.273438 z M 254.68359,172.8418 c 7.57468,0.007 15.13707,1.12076 22.42188,3.18359 2.5224,-0.0814 4.83058,1.10707 7.17322,1.87005 16.01155,5.95918 30.02599,17.10888 39.43597,31.36735 1.85193,2.73843 3.44829,5.63662 5.11809,8.48484 4.82845,9.5056 7.78009,19.95269 8.6552,30.57845 1.29087,15.09303 -1.54688,30.542 -8.31778,44.107 -6.9522,14.06204 -18.08971,25.98472 -31.58204,33.97185 -2.09781,1.20631 -4.17231,2.45691 -6.32446,3.56382 -8.07144,3.87235 -16.75466,6.47632 -25.64321,7.57773 -16.16025,2.0619 -32.93238,-0.63233 -47.53143,-7.9021 -14.00465,-6.89697 -25.89032,-17.94905 -33.8948,-31.34188 -1.18267,-2.00813 -2.34428,-4.02991 -3.46219,-6.07374 -1.80554,-3.74694 -3.43405,-7.59655 -4.62852,-11.58618 -0.2265,-0.68104 -0.36112,-1.36038 -0.28907,-2.07422 -0.30205,-1.44207 -0.99756,-2.77416 -1.26021,-4.23163 -2.73668,-10.30555 -2.91285,-21.1742 -1.38822,-31.68829 2.62399,-17.1358 10.73757,-33.4369 23.08836,-45.63719 5.78768,-5.80327 12.46965,-10.69347 19.68739,-14.56694 3.0582,-1.90586 6.44399,-3.20324 9.77899,-4.53327 1.77295,-0.64042 3.56044,-1.36114 5.41454,-1.68041 1.78615,0.10525 3.39141,-0.89106 5.13128,-1.13933 6.0158,-1.50256 12.21799,-2.23908 18.41701,-2.2495 z m 149.93555,42.36523 c 21.84591,-0.0791 43.59546,5.88927 62.57079,16.65702 9.92113,5.56744 19.09201,12.40886 27.54249,20.009 1.93108,1.30492 2.62594,4.29724 1.05004,6.13605 -0.87902,1.05948 -2.08613,1.77339 -3.07595,2.72145 -19.41943,16.31421 -42.91376,27.98886 -67.92526,32.55461 -17.48459,3.18986 -35.66952,2.72371 -52.89025,-1.74753 -10.55343,-2.69117 -20.68429,-6.90511 -30.21613,-12.14842 -0.56603,-0.3011 -1.13221,-0.60192 -1.69831,-0.90288 0.89054,-4.10318 1.75723,-8.21826 2.24414,-12.39258 0.16329,-1.38096 0.32752,-2.99632 0.45973,-4.4727 0.10727,-1.22003 0.21445,-2.44007 0.32152,-3.66011 13.60772,-0.019 27.21844,0.0567 40.82422,-0.0566 0.99478,-0.13115 1.68596,-1.04137 1.68683,-2.01736 0.16288,-1.1442 -0.23362,-2.77444 -1.61711,-2.87625 -1.97986,-0.28668 -3.98928,-0.017 -5.98183,-0.11616 -11.63737,0 -23.27474,0 -34.91211,0 -0.33281,-3.82051 -0.64795,-7.70805 -1.23889,-11.42317 -0.46828,-3.08806 -1.16337,-6.13429 -1.80994,-9.18816 11.78311,-6.18624 24.26238,-11.16986 37.28784,-14.01189 8.9815,-1.99489 18.17709,-3.03352 27.37818,-3.06428 z m -298.20508,0.082 c 20.51408,-0.0782 40.95195,5.16418 59.09062,14.69525 1.51386,0.77244 3.02265,1.55512 4.53438,2.3321 -1.09902,4.94231 -2.08073,9.92009 -2.53677,14.96843 -0.189,1.8682 -0.34315,3.73962 -0.51206,5.60969 -13.59155,0.014 -27.18512,-0.0459 -40.77539,0.0469 -0.95457,0.12152 -1.69493,0.94839 -1.71093,1.9082 -0.204,1.16953 0.1738,2.88759 1.60429,2.99223 2.01408,0.29355 4.05829,0.0203 6.08516,0.1191 11.60482,0 23.20963,0 34.81445,0 0.45568,6.36657 1.22347,12.73459 2.69531,18.94726 0.26371,1.31645 -0.80497,2.47785 -2.01562,2.8125 -13.82665,7.40419 -28.857,12.71842 -44.40691,14.9705 -19.40129,2.89879 -39.483953,0.99499 -58.009581,-5.44798 -17.1513,-5.89831 -32.93444,-15.44719 -46.615663,-27.30529 -1.709661,-1.47182 -3.393773,-2.97302 -5.075268,-4.47699 -0.340514,-1.79649 -0.203583,-3.90548 1.246094,-5.20508 4.396976,-3.90182 8.893259,-7.70614 13.696491,-11.10604 22.315602,-16.05384 49.492104,-25.62803 77.066927,-25.84786 0.27482,-0.004 0.54964,-0.009 0.82447,-0.0129 z m 226.29883,83.99219 c 0.93924,0.0493 1.76109,0.58675 2.67206,0.79096 18.38979,5.96191 35.81286,15.34998 50.16655,28.38144 13.57796,12.25501 24.28852,27.62339 31.23078,44.53749 6.27508,15.15156 9.62834,31.41661 10.62671,47.75825 0.13943,1.39725 0.34866,2.90662 -0.42657,4.17444 -0.84078,1.63425 -2.7837,2.47774 -4.56605,2.12997 -25.82494,-1.25827 -51.43912,-9.31974 -72.83975,-23.93664 -14.64346,-9.95181 -27.18299,-23.03092 -36.2757,-38.23778 -5.70544,-9.45786 -10.07331,-19.69472 -13.1712,-30.29031 -0.30269,-0.98271 -0.60509,-1.96551 -0.90706,-2.94845 4.27914,-2.7994 8.56549,-5.61282 12.46438,-8.93551 1.30455,-1.07184 2.60908,-2.14371 3.91257,-3.21683 10.69468,10.67688 21.34308,21.40454 32.09045,32.02587 1.14427,0.74757 2.70293,0.13938 3.32498,-1.00182 0.61134,-0.91506 0.44827,-2.21249 -0.42281,-2.90811 -2.09852,-2.24033 -4.34817,-4.33371 -6.48715,-6.53593 -8.35757,-8.35517 -16.71285,-16.71262 -25.07188,-25.06634 4.32386,-4.99877 8.40104,-10.24267 11.81617,-15.90522 0.46192,-0.53327 1.15333,-0.85078 1.86352,-0.81548 z m -153.0957,1.62109 c 2.02528,3.14686 4.12944,6.24593 6.45898,9.17774 0.75023,0.95753 1.67244,2.09761 2.50956,3.10788 0.78959,0.94152 1.57873,1.88342 2.36739,2.82571 -10.64093,10.65558 -21.33078,21.26486 -31.91558,31.97489 -0.77054,1.01032 -0.40018,2.49613 0.55816,3.24582 0.8962,0.89253 2.472,0.78986 3.26208,-0.19451 10.51484,-10.53264 21.04664,-21.05156 31.568,-31.57893 4.96289,4.27158 10.13211,8.36753 15.77344,11.69922 1.09938,0.78898 1.1081,2.34689 0.54519,3.46617 -5.2484,16.46761 -13.10518,32.23953 -23.98768,45.73369 -11.19085,13.97802 -25.47675,25.46107 -41.56121,33.33529 -16.55961,8.16818 -34.80364,12.64378 -53.183172,13.9654 -2.978458,0.22946 -5.960484,0.40795 -8.942036,0.59515 0.437079,-9.82877 1.282223,-19.67685 3.430524,-29.29589 4.906873,-22.7603 15.355484,-44.44769 30.880024,-61.87403 13.58049,-15.2946 31.10048,-27.01563 50.35918,-33.8794 3.64323,-1.31138 7.34631,-2.44489 11.05879,-3.54248 0.27278,0.41276 0.54557,0.82552 0.81836,1.23828 z m 53.79492,39.8125 c 3.58417,0.79409 7.33882,1.50302 10.89453,1.92969 2.71396,0.32164 5.43813,0.54338 8.16016,0.7832 0.014,13.59548 -0.0459,27.19286 0.0469,40.78711 0.12518,0.99152 1.01622,1.72313 2.00195,1.72071 1.16768,0.18014 2.83364,-0.24344 2.90989,-1.66099 0.2752,-2.00073 0.008,-4.02799 0.10769,-6.04018 0,-11.60547 0,-23.21094 0,-34.81641 6.39483,-0.45467 12.78838,-1.23607 19.0293,-2.70899 1.30432,-0.22442 2.41803,0.85446 2.74609,2.04493 8.90498,16.59753 14.7093,34.98655 15.97776,53.82556 1.33628,18.64605 -1.78909,37.554 -8.81912,54.86236 -6.11446,15.22413 -15.14272,29.18033 -25.95212,41.486 -0.94177,0.99265 -1.75147,2.10604 -2.72605,3.06045 -1.56872,1.36023 -4.14049,1.45222 -5.65345,-0.0429 -1.39513,-1.48778 -2.6614,-3.09962 -3.9722,-4.66545 -15.9066,-19.53701 -27.17734,-43.03633 -31.34505,-67.94785 -2.65261,-15.90983 -2.31466,-32.34943 1.35546,-48.07263 2.606,-11.39205 6.95576,-22.35162 12.56227,-32.59142 0.39917,-0.75521 0.79834,-1.51042 1.1975,-2.26564 0.49284,0.10417 0.98568,0.20834 1.47852,0.3125 z" />
		</g>
	</g>
</g>
<g
   id="g12"
   transform="translate(-6.0213489,-6.4323414)">
</g>
<g
   id="g14"
   transform="translate(-6.0213489,-6.4323414)">
</g>
<g
   id="g16"
   transform="translate(-6.0213489,-6.4323414)">
</g>
<g
   id="g18"
   transform="translate(-6.0213489,-6.4323414)">
</g>
<g
   id="g20"
   transform="translate(-6.0213489,-6.4323414)">
</g>
<g
   id="g22"
   transform="translate(-6.0213489,-6.4323414)">
</g>
<g
   id="g24"
   transform="translate(-6.0213489,-6.4323414)">
</g>
<g
   id="g26"
   transform="translate(-6.0213489,-6.4323414)">
</g>
<g
   id="g28"
   transform="translate(-6.0213489,-6.4323414)">
</g>
<g
   id="g30"
   transform="translate(-6.0213489,-6.4323414)">
</g>
<g
   id="g32"
   transform="translate(-6.0213489,-6.4323414)">
</g>
<g
   id="g34"
   transform="translate(-6.0213489,-6.4323414)">
</g>
<g
   id="g36"
   transform="translate(-6.0213489,-6.4323414)">
</g>
<g
   id="g38"
   style="display:inline"
   transform="translate(-6.0213489,-6.4323414)">
</g>
<g
   id="g40"
   style="display:inline"
   transform="translate(-6.0213489,-6.4323414)">
</g>
</svg>
