%TF.GenerationSoftware,KiCad,Pcbnew,5.1.9+dfsg1-1*%
%TF.CreationDate,2021-03-30T03:15:21-07:00*%
%TF.ProjectId,hygrometer_connector_board,68796772-6f6d-4657-9465-725f636f6e6e,1.0*%
%TF.SameCoordinates,Original*%
%TF.FileFunction,Legend,Top*%
%TF.FilePolarity,Positive*%
%FSLAX46Y46*%
G04 Gerber Fmt 4.6, Leading zero omitted, Abs format (unit mm)*
G04 Created by KiCad (PCBNEW 5.1.9+dfsg1-1) date 2021-03-30 03:15:21*
%MOMM*%
%LPD*%
G01*
G04 APERTURE LIST*
%ADD10C,0.200000*%
%ADD11C,0.153000*%
%ADD12C,0.120000*%
%ADD13C,0.100000*%
%ADD14C,0.150000*%
%ADD15O,1.700000X1.700000*%
%ADD16R,1.700000X1.700000*%
%ADD17O,2.000000X4.000000*%
%ADD18O,4.000000X2.000000*%
%ADD19R,4.000000X2.000000*%
G04 APERTURE END LIST*
D10*
X144428571Y-119607142D02*
X145571428Y-119607142D01*
X147285714Y-118678571D02*
X148285714Y-118678571D01*
X147642857Y-120178571D01*
X150642857Y-118678571D02*
X150357142Y-118678571D01*
X150214285Y-118750000D01*
X150142857Y-118821428D01*
X150000000Y-119035714D01*
X149928571Y-119321428D01*
X149928571Y-119892857D01*
X150000000Y-120035714D01*
X150071428Y-120107142D01*
X150214285Y-120178571D01*
X150500000Y-120178571D01*
X150642857Y-120107142D01*
X150714285Y-120035714D01*
X150785714Y-119892857D01*
X150785714Y-119535714D01*
X150714285Y-119392857D01*
X150642857Y-119321428D01*
X150500000Y-119250000D01*
X150214285Y-119250000D01*
X150071428Y-119321428D01*
X150000000Y-119392857D01*
X149928571Y-119535714D01*
X153285714Y-118678571D02*
X152571428Y-118678571D01*
X152500000Y-119392857D01*
X152571428Y-119321428D01*
X152714285Y-119250000D01*
X153071428Y-119250000D01*
X153214285Y-119321428D01*
X153285714Y-119392857D01*
X153357142Y-119535714D01*
X153357142Y-119892857D01*
X153285714Y-120035714D01*
X153214285Y-120107142D01*
X153071428Y-120178571D01*
X152714285Y-120178571D01*
X152571428Y-120107142D01*
X152500000Y-120035714D01*
X155785714Y-119178571D02*
X155785714Y-120178571D01*
X155428571Y-118607142D02*
X155071428Y-119678571D01*
X156000000Y-119678571D01*
X157571428Y-118678571D02*
X158500000Y-118678571D01*
X158000000Y-119250000D01*
X158214285Y-119250000D01*
X158357142Y-119321428D01*
X158428571Y-119392857D01*
X158500000Y-119535714D01*
X158500000Y-119892857D01*
X158428571Y-120035714D01*
X158357142Y-120107142D01*
X158214285Y-120178571D01*
X157785714Y-120178571D01*
X157642857Y-120107142D01*
X157571428Y-120035714D01*
X160214285Y-118821428D02*
X160285714Y-118750000D01*
X160428571Y-118678571D01*
X160785714Y-118678571D01*
X160928571Y-118750000D01*
X161000000Y-118821428D01*
X161071428Y-118964285D01*
X161071428Y-119107142D01*
X161000000Y-119321428D01*
X160142857Y-120178571D01*
X161071428Y-120178571D01*
X163642857Y-120178571D02*
X162785714Y-120178571D01*
X163214285Y-120178571D02*
X163214285Y-118678571D01*
X163071428Y-118892857D01*
X162928571Y-119035714D01*
X162785714Y-119107142D01*
X172642857Y-119392857D02*
X173142857Y-119392857D01*
X173357142Y-120178571D02*
X172642857Y-120178571D01*
X172642857Y-118678571D01*
X173357142Y-118678571D01*
X174000000Y-120178571D02*
X174000000Y-118678571D01*
X174857142Y-120178571D01*
X174857142Y-118678571D01*
X183678571Y-119357142D02*
X184821428Y-119357142D01*
X184250000Y-119928571D02*
X184250000Y-118785714D01*
X186678571Y-119357142D02*
X187821428Y-119357142D01*
D11*
%TO.C,REF\u002A\u002A*%
X106500000Y-122500000D02*
X106500454Y-122470692D01*
X108838395Y-123660221D02*
X108760697Y-123696466D01*
X104868754Y-119669490D02*
X104822850Y-119628083D01*
X108931122Y-123757930D02*
X108929214Y-123633975D01*
X106416625Y-119104398D02*
X106348441Y-119246651D01*
X106348441Y-119246651D02*
X106303834Y-119330154D01*
X105544506Y-122227279D02*
X105695542Y-122255546D01*
X105695542Y-122255546D02*
X105729893Y-122260115D01*
X102897211Y-123592151D02*
X102893118Y-123683181D01*
X106680822Y-118426216D02*
X106684326Y-118369260D01*
X106870463Y-122759606D02*
X106891034Y-122790087D01*
X104822103Y-119745130D02*
X104721729Y-119868435D01*
X104721729Y-119868435D02*
X104641473Y-119983452D01*
X105181576Y-118649128D02*
X105218335Y-118800122D01*
X105218335Y-118800122D02*
X105241642Y-118878404D01*
X102777419Y-121483597D02*
X102929244Y-121519347D01*
X102929244Y-121519347D02*
X103083280Y-121543858D01*
X103083280Y-121543858D02*
X103238701Y-121557043D01*
X103238701Y-121557043D02*
X103269879Y-121558314D01*
X103671062Y-121534185D02*
X103828530Y-121503844D01*
X103828530Y-121503844D02*
X103983474Y-121462471D01*
X103983474Y-121462471D02*
X104003915Y-121456182D01*
X107168231Y-120134808D02*
X107235799Y-120290748D01*
X107235799Y-120290748D02*
X107284032Y-120453698D01*
X107284032Y-120453698D02*
X107312307Y-120621282D01*
X107312307Y-120621282D02*
X107315513Y-120655146D01*
X105886897Y-119861953D02*
X105734678Y-119878308D01*
X105734678Y-119878308D02*
X105587308Y-119919851D01*
X105587308Y-119919851D02*
X105448838Y-119985115D01*
X105448838Y-119985115D02*
X105323315Y-120072633D01*
X105323315Y-120072633D02*
X105258961Y-120132072D01*
X105000683Y-120699199D02*
X105000310Y-120815475D01*
X105000310Y-120815475D02*
X105070954Y-120809158D01*
X108626449Y-121535698D02*
X108778455Y-121516539D01*
X108778455Y-121516539D02*
X108929579Y-121487285D01*
X103151893Y-120029488D02*
X103087595Y-120037817D01*
X102970362Y-117833167D02*
X103009712Y-117836324D01*
X107257123Y-120111448D02*
X107403033Y-120061263D01*
X107403033Y-120061263D02*
X107502134Y-120024936D01*
X110009131Y-120819917D02*
X109956788Y-120866227D01*
X106684664Y-118164280D02*
X106671362Y-118003689D01*
X106671362Y-118003689D02*
X106646382Y-117844512D01*
X106646382Y-117844512D02*
X106610310Y-117687444D01*
X106610310Y-117687444D02*
X106563734Y-117533182D01*
X107712303Y-118026332D02*
X107577346Y-118102507D01*
X107577346Y-118102507D02*
X107568838Y-118107755D01*
X104569315Y-121205060D02*
X104564396Y-121169764D01*
X106241758Y-124659321D02*
X106327378Y-124530489D01*
X106327378Y-124530489D02*
X106396395Y-124412733D01*
X105247222Y-119534069D02*
X105386985Y-119467538D01*
X105386985Y-119467538D02*
X105413626Y-119456928D01*
X103670452Y-121444118D02*
X103514994Y-121461271D01*
X103514994Y-121461271D02*
X103358710Y-121466556D01*
X103358710Y-121466556D02*
X103202471Y-121460075D01*
X103202471Y-121460075D02*
X103047148Y-121441931D01*
X103047148Y-121441931D02*
X102893615Y-121412226D01*
X102893615Y-121412226D02*
X102742742Y-121371062D01*
X102742742Y-121371062D02*
X102683333Y-121351412D01*
X103016419Y-123794628D02*
X103135341Y-123789062D01*
X105909430Y-116521999D02*
X105909430Y-116521999D01*
X109991263Y-120715503D02*
X110009131Y-120819917D01*
X105906472Y-119370668D02*
X106063156Y-119379957D01*
X106063156Y-119379957D02*
X106217816Y-119406817D01*
X106217816Y-119406817D02*
X106288014Y-119424841D01*
X105869548Y-122967496D02*
X105903615Y-122996777D01*
X108928795Y-117917383D02*
X108931039Y-117840536D01*
X103979886Y-121701255D02*
X103844202Y-121792797D01*
X103844202Y-121792797D02*
X103715945Y-121894380D01*
X103715945Y-121894380D02*
X103595641Y-122005274D01*
X103595641Y-122005274D02*
X103483815Y-122124751D01*
X103483815Y-122124751D02*
X103380993Y-122252081D01*
X103380993Y-122252081D02*
X103287701Y-122386534D01*
X103287701Y-122386534D02*
X103253171Y-122442147D01*
X105312025Y-117360128D02*
X105273505Y-117455913D01*
X106706040Y-119506665D02*
X106664105Y-119479414D01*
X105934554Y-119863394D02*
X105886896Y-119861953D01*
X103505490Y-120017977D02*
X103378426Y-120015566D01*
X108589546Y-120016460D02*
X108428055Y-120015397D01*
X108428055Y-120015397D02*
X108267012Y-120026604D01*
X108267012Y-120026604D02*
X108107220Y-120049698D01*
X108107220Y-120049698D02*
X107949483Y-120084292D01*
X107949483Y-120084292D02*
X107794608Y-120130002D01*
X107794608Y-120130002D02*
X107743758Y-120147643D01*
X103269879Y-121558314D02*
X103433153Y-121557594D01*
X103433153Y-121557594D02*
X103596798Y-121544428D01*
X103596798Y-121544428D02*
X103671062Y-121534185D01*
X108804298Y-118198191D02*
X108773568Y-118358520D01*
X108773568Y-118358520D02*
X108732194Y-118516569D01*
X108732194Y-118516569D02*
X108680296Y-118671518D01*
X108680296Y-118671518D02*
X108617997Y-118822546D01*
X108617997Y-118822546D02*
X108545417Y-118968832D01*
X108545417Y-118968832D02*
X108462678Y-119109556D01*
X108462678Y-119109556D02*
X108369903Y-119243896D01*
X108369903Y-119243896D02*
X108267213Y-119371033D01*
X103138377Y-123706793D02*
X102986215Y-123716920D01*
X105906472Y-119370668D02*
X105906472Y-119370668D01*
X103992520Y-119747001D02*
X103850825Y-119650542D01*
X103850825Y-119650542D02*
X103717415Y-119542886D01*
X103717415Y-119542886D02*
X103593152Y-119424792D01*
X103593152Y-119424792D02*
X103478899Y-119297017D01*
X103478899Y-119297017D02*
X103375518Y-119160321D01*
X103375518Y-119160321D02*
X103283873Y-119015464D01*
X103283873Y-119015464D02*
X103250694Y-118955406D01*
X107428113Y-122233293D02*
X107308124Y-122113325D01*
X107308124Y-122113325D02*
X107188141Y-121993352D01*
X107188141Y-121993352D02*
X107068148Y-121873389D01*
X107068148Y-121873389D02*
X107001477Y-121806752D01*
X107409342Y-120819097D02*
X107583015Y-120819081D01*
X107583015Y-120819081D02*
X107756696Y-120819217D01*
X107756696Y-120819217D02*
X107930371Y-120819052D01*
X107930371Y-120819052D02*
X108104027Y-120818134D01*
X107409342Y-120732886D02*
X107394237Y-120580368D01*
X107394237Y-120580368D02*
X107388260Y-120538503D01*
X104519329Y-120558532D02*
X104554156Y-120396376D01*
X104554156Y-120396376D02*
X104607846Y-120239414D01*
X104607846Y-120239414D02*
X104679554Y-120089845D01*
X104679554Y-120089845D02*
X104768438Y-119949867D01*
X104768438Y-119949867D02*
X104873655Y-119821677D01*
X104873655Y-119821677D02*
X104912212Y-119781947D01*
X107543311Y-120228993D02*
X107400294Y-120298691D01*
X107400294Y-120298691D02*
X107344665Y-120326646D01*
X104388959Y-120343033D02*
X104466119Y-120382717D01*
X106156103Y-116779440D02*
X106118065Y-116731693D01*
X104357805Y-118189583D02*
X104281750Y-118139690D01*
X106665567Y-122402958D02*
X106706574Y-122464956D01*
X106438105Y-124333263D02*
X106503960Y-124190229D01*
X106503960Y-124190229D02*
X106559663Y-124042882D01*
X106559663Y-124042882D02*
X106604789Y-123891970D01*
X106604789Y-123891970D02*
X106638914Y-123738245D01*
X106638914Y-123738245D02*
X106661611Y-123582453D01*
X106661611Y-123582453D02*
X106672456Y-123425346D01*
X106672456Y-123425346D02*
X106673381Y-123362303D01*
X108267213Y-119371033D02*
X108155185Y-119489620D01*
X108155185Y-119489620D02*
X108034173Y-119598996D01*
X108034173Y-119598996D02*
X107904970Y-119698555D01*
X107904970Y-119698555D02*
X107768370Y-119787694D01*
X107768370Y-119787694D02*
X107625167Y-119865811D01*
X107625167Y-119865811D02*
X107576103Y-119889296D01*
X108929214Y-123633975D02*
X108918654Y-123474859D01*
X108918654Y-123474859D02*
X108910948Y-123402777D01*
X104840818Y-122906975D02*
X104929584Y-122779994D01*
X104929584Y-122779994D02*
X105009545Y-122647282D01*
X105009545Y-122647282D02*
X105043782Y-122584489D01*
X103305295Y-117868128D02*
X103464986Y-117898924D01*
X103464986Y-117898924D02*
X103622528Y-117939888D01*
X103622528Y-117939888D02*
X103777135Y-117990948D01*
X103777135Y-117990948D02*
X103928016Y-118052036D01*
X103928016Y-118052036D02*
X104074386Y-118123083D01*
X104074386Y-118123083D02*
X104215455Y-118204021D01*
X104215455Y-118204021D02*
X104350436Y-118294779D01*
X104350436Y-118294779D02*
X104478542Y-118395290D01*
X104881095Y-121865612D02*
X105002634Y-121964826D01*
X105002634Y-121964826D02*
X105131597Y-122053911D01*
X105131597Y-122053911D02*
X105149504Y-122064691D01*
X105853420Y-116565044D02*
X105746533Y-116680490D01*
X105746533Y-116680490D02*
X105712876Y-116719550D01*
X108859950Y-123115593D02*
X108818992Y-122964315D01*
X108818992Y-122964315D02*
X108780599Y-122848611D01*
X106591286Y-118904871D02*
X106607983Y-118839475D01*
X107257143Y-119489683D02*
X107365521Y-119381258D01*
X107365521Y-119381258D02*
X107473758Y-119272691D01*
X107473758Y-119272691D02*
X107545540Y-119199971D01*
X105140830Y-123422685D02*
X105150154Y-123529224D01*
X105763765Y-124889055D02*
X105868257Y-125001592D01*
X105868257Y-125001592D02*
X105893842Y-125026040D01*
X105017028Y-118894653D02*
X104933127Y-118762285D01*
X104933127Y-118762285D02*
X104930383Y-118758273D01*
X102996618Y-123028580D02*
X102978488Y-123093710D01*
X102978488Y-123093710D02*
X102957134Y-123180200D01*
X106288014Y-119424841D02*
X106410077Y-119456663D01*
X106684326Y-118369260D02*
X106686554Y-118220032D01*
X105939143Y-116656802D02*
X105939143Y-116656802D01*
X105024971Y-119111299D02*
X105086624Y-119258418D01*
X105086624Y-119258418D02*
X105138177Y-119409397D01*
X105138177Y-119409397D02*
X105159176Y-119479979D01*
X110147735Y-120837540D02*
X110180737Y-120790146D01*
X107462464Y-119166110D02*
X107348622Y-119280395D01*
X107348622Y-119280395D02*
X107234479Y-119394395D01*
X107234479Y-119394395D02*
X107219301Y-119409635D01*
X108493090Y-117782788D02*
X108341970Y-117808092D01*
X108341970Y-117808092D02*
X108191912Y-117842695D01*
X108191912Y-117842695D02*
X108043921Y-117886684D01*
X108043921Y-117886684D02*
X107899003Y-117940150D01*
X107899003Y-117940150D02*
X107758167Y-118003180D01*
X107758167Y-118003180D02*
X107712303Y-118026332D01*
X107759509Y-121443420D02*
X107853902Y-121468213D01*
X108689822Y-117844869D02*
X108838163Y-117834796D01*
X106597390Y-123177900D02*
X106602235Y-123356636D01*
X106602235Y-123356636D02*
X106591441Y-123535061D01*
X106591441Y-123535061D02*
X106565382Y-123711919D01*
X106565382Y-123711919D02*
X106524432Y-123885959D01*
X106524432Y-123885959D02*
X106468968Y-124055928D01*
X106468968Y-124055928D02*
X106447319Y-124111464D01*
X108194897Y-119578906D02*
X108321562Y-119448018D01*
X108321562Y-119448018D02*
X108436894Y-119307235D01*
X108436894Y-119307235D02*
X108540651Y-119157684D01*
X108540651Y-119157684D02*
X108632588Y-119000494D01*
X108632588Y-119000494D02*
X108712465Y-118836793D01*
X108712465Y-118836793D02*
X108780036Y-118667708D01*
X108780036Y-118667708D02*
X108803565Y-118598819D01*
X104466119Y-120382717D02*
X104436372Y-120533284D01*
X104436372Y-120533284D02*
X104422952Y-120637427D01*
X104325567Y-120120989D02*
X104168999Y-120121200D01*
X104168999Y-120121200D02*
X104061877Y-120120819D01*
X102749379Y-120112942D02*
X102598462Y-120163762D01*
X102598462Y-120163762D02*
X102497223Y-120204073D01*
X105043782Y-122584489D02*
X105132550Y-122490460D01*
X106706574Y-122464956D02*
X106777789Y-122606179D01*
X106777789Y-122606179D02*
X106858925Y-122741947D01*
X106858925Y-122741947D02*
X106870463Y-122759606D01*
X108780599Y-122848611D02*
X108765169Y-122807359D01*
X103009712Y-117836324D02*
X103166837Y-117849825D01*
X103166837Y-117849825D02*
X103305295Y-117868128D01*
X105159176Y-119479979D02*
X105031990Y-119565403D01*
X105031990Y-119565403D02*
X104911652Y-119660230D01*
X104911652Y-119660230D02*
X104896138Y-119673533D01*
X105941249Y-125016439D02*
X106049041Y-124901391D01*
X106049041Y-124901391D02*
X106083283Y-124862203D01*
X107503796Y-121443852D02*
X107663619Y-121443211D01*
X107663619Y-121443211D02*
X107759509Y-121443420D01*
X108522692Y-122345361D02*
X108426845Y-122217189D01*
X108426845Y-122217189D02*
X108321718Y-122096521D01*
X108321718Y-122096521D02*
X108207955Y-121983948D01*
X108207955Y-121983948D02*
X108184223Y-121962457D01*
X105953131Y-122968513D02*
X105954963Y-122865730D01*
X108910948Y-123402777D02*
X108901966Y-123336148D01*
X108760697Y-123696466D02*
X108596204Y-123683018D01*
X108596204Y-123683018D02*
X108432846Y-123658766D01*
X108432846Y-123658766D02*
X108271420Y-123623761D01*
X108271420Y-123623761D02*
X108112725Y-123578050D01*
X108112725Y-123578050D02*
X107957559Y-123521684D01*
X107957559Y-123521684D02*
X107806721Y-123454712D01*
X107806721Y-123454712D02*
X107661008Y-123377183D01*
X107661008Y-123377183D02*
X107521219Y-123289148D01*
X105794737Y-116761634D02*
X105898868Y-116643593D01*
X105898868Y-116643593D02*
X105913851Y-116626824D01*
X107396047Y-120957489D02*
X107403870Y-120881380D01*
X106891034Y-122790087D02*
X106984400Y-122916329D01*
X106984400Y-122916329D02*
X107086726Y-123035394D01*
X107086726Y-123035394D02*
X107197337Y-123146824D01*
X107197337Y-123146824D02*
X107315561Y-123250158D01*
X107315561Y-123250158D02*
X107386276Y-123305397D01*
X107730674Y-121650043D02*
X107676931Y-121615792D01*
X106664105Y-119479414D02*
X106716439Y-119316224D01*
X106716439Y-119316224D02*
X106778826Y-119156573D01*
X106778826Y-119156573D02*
X106852111Y-119001718D01*
X106852111Y-119001718D02*
X106937141Y-118852915D01*
X106671450Y-123268539D02*
X106657954Y-123102818D01*
X106657954Y-123102818D02*
X106631952Y-122938597D01*
X106631952Y-122938597D02*
X106593727Y-122776778D01*
X106593727Y-122776778D02*
X106584640Y-122744783D01*
X104723509Y-119646547D02*
X104822103Y-119745130D01*
X103997667Y-119856103D02*
X104105340Y-119916520D01*
X104641473Y-119983452D02*
X104614614Y-120024706D01*
X105868750Y-118680994D02*
X105868750Y-118848997D01*
X105868750Y-118848997D02*
X105868750Y-119017001D01*
X105868750Y-119017001D02*
X105868750Y-119185004D01*
X105868750Y-119185004D02*
X105868750Y-119278340D01*
X105954963Y-122273276D02*
X106107708Y-122258092D01*
X106107708Y-122258092D02*
X106258833Y-122231742D01*
X106258833Y-122231742D02*
X106278775Y-122227179D01*
X105985008Y-119281065D02*
X105955170Y-119229161D01*
X107636366Y-120187664D02*
X107606128Y-120187922D01*
X108157835Y-121939389D02*
X108031502Y-121838527D01*
X108031502Y-121838527D02*
X107898473Y-121747280D01*
X107898473Y-121747280D02*
X107759227Y-121665340D01*
X107759227Y-121665340D02*
X107730674Y-121650043D01*
X107202547Y-121536101D02*
X107234258Y-121522224D01*
X104822850Y-119628083D02*
X104701424Y-119506624D01*
X104701424Y-119506624D02*
X104580039Y-119385120D01*
X104580039Y-119385120D02*
X104458483Y-119263793D01*
X104458483Y-119263793D02*
X104336545Y-119142869D01*
X104930383Y-118758273D02*
X104823668Y-118616454D01*
X104823668Y-118616454D02*
X104705858Y-118483719D01*
X104705858Y-118483719D02*
X104577786Y-118360849D01*
X104577786Y-118360849D02*
X104440287Y-118248627D01*
X104440287Y-118248627D02*
X104357805Y-118189583D01*
X105234121Y-122386905D02*
X105233395Y-122541344D01*
X105233395Y-122541344D02*
X105232393Y-122647005D01*
X106584640Y-122744783D02*
X106536681Y-122597974D01*
X106536681Y-122597974D02*
X106521604Y-122557337D01*
X105232393Y-122647005D02*
X105207727Y-122742605D01*
X102683333Y-121351412D02*
X102521702Y-121288553D01*
X102521702Y-121288553D02*
X102365476Y-121213494D01*
X102365476Y-121213494D02*
X102215148Y-121127137D01*
X102215148Y-121127137D02*
X102071213Y-121030384D01*
X102071213Y-121030384D02*
X101934165Y-120924140D01*
X101934165Y-120924140D02*
X101890098Y-120886772D01*
X108765169Y-122807359D02*
X108701098Y-122656743D01*
X108701098Y-122656743D02*
X108625971Y-122510994D01*
X108625971Y-122510994D02*
X108540830Y-122372129D01*
X108540830Y-122372129D02*
X108522692Y-122345361D01*
X105258961Y-120132072D02*
X105157946Y-120254619D01*
X105157946Y-120254619D02*
X105079869Y-120392893D01*
X105079869Y-120392893D02*
X105026768Y-120542538D01*
X105026768Y-120542538D02*
X105000683Y-120699199D01*
X101813605Y-120953132D02*
X101884378Y-121012967D01*
X101820490Y-120623435D02*
X101705883Y-120727486D01*
X101705883Y-120727486D02*
X101663448Y-120770670D01*
X106588684Y-118172592D02*
X106589768Y-118351814D01*
X106589768Y-118351814D02*
X106575161Y-118530416D01*
X106575161Y-118530416D02*
X106545134Y-118707083D01*
X106545134Y-118707083D02*
X106499957Y-118880501D01*
X106499957Y-118880501D02*
X106439902Y-119049355D01*
X106439902Y-119049355D02*
X106416625Y-119104398D01*
X105534216Y-120036648D02*
X105685204Y-119978501D01*
X105685204Y-119978501D02*
X105825544Y-119951954D01*
X105919303Y-118555069D02*
X105870885Y-118581769D01*
X106396395Y-124412733D02*
X106438105Y-124333263D01*
X106170508Y-116954374D02*
X106257289Y-117092175D01*
X106257289Y-117092175D02*
X106335308Y-117235327D01*
X106335308Y-117235327D02*
X106404016Y-117383223D01*
X106404016Y-117383223D02*
X106462864Y-117535256D01*
X106462864Y-117535256D02*
X106511303Y-117690817D01*
X106511303Y-117690817D02*
X106548785Y-117849298D01*
X106548785Y-117849298D02*
X106574762Y-118010092D01*
X106574762Y-118010092D02*
X106588684Y-118172592D01*
X107207902Y-120023277D02*
X107118123Y-119890035D01*
X107118123Y-119890035D02*
X107029965Y-119779022D01*
X108835703Y-117873482D02*
X108835703Y-117873482D01*
X106005705Y-124817411D02*
X105959317Y-124869489D01*
X108105213Y-120734862D02*
X108003423Y-120732886D01*
X105066616Y-118978598D02*
X105017028Y-118894653D01*
X107853902Y-121468213D02*
X108003637Y-121503553D01*
X108003637Y-121503553D02*
X108155162Y-121528174D01*
X108155162Y-121528174D02*
X108257457Y-121538542D01*
X104426997Y-121589019D02*
X104573753Y-121541107D01*
X104573753Y-121541107D02*
X104615179Y-121528738D01*
X108184223Y-121962457D02*
X108157835Y-121939389D01*
X104629105Y-121549809D02*
X104717104Y-121677632D01*
X104717104Y-121677632D02*
X104739014Y-121705982D01*
X104706990Y-121505570D02*
X104648076Y-121402216D01*
X108827076Y-118523013D02*
X108847907Y-118447567D01*
X105868750Y-122273443D02*
X105868753Y-122446958D01*
X105868753Y-122446958D02*
X105868646Y-122620477D01*
X105868646Y-122620477D02*
X105868790Y-122793992D01*
X105868790Y-122793992D02*
X105869548Y-122967496D01*
X109046648Y-121457612D02*
X109198661Y-121409602D01*
X109198661Y-121409602D02*
X109347352Y-121352362D01*
X109347352Y-121352362D02*
X109492328Y-121286293D01*
X109492328Y-121286293D02*
X109633197Y-121211795D01*
X109633197Y-121211795D02*
X109769565Y-121129270D01*
X109769565Y-121129270D02*
X109901039Y-121039119D01*
X109901039Y-121039119D02*
X110027226Y-120941741D01*
X110027226Y-120941741D02*
X110147735Y-120837540D01*
X107602617Y-119980457D02*
X107706885Y-119929068D01*
X108873525Y-123176179D02*
X108859950Y-123115593D01*
X105593079Y-119408946D02*
X105748606Y-119380285D01*
X105748606Y-119380285D02*
X105906472Y-119370668D01*
X105875375Y-119948302D02*
X105934057Y-119947468D01*
X105954132Y-118584319D02*
X105919303Y-118555069D01*
X105518981Y-119330154D02*
X105443490Y-119181502D01*
X105443490Y-119181502D02*
X105377050Y-119028559D01*
X105377050Y-119028559D02*
X105321118Y-118871558D01*
X105321118Y-118871558D02*
X105277156Y-118710735D01*
X103300223Y-117782716D02*
X103145672Y-117765076D01*
X103145672Y-117765076D02*
X103101970Y-117761774D01*
X107388260Y-120538503D02*
X107358494Y-120387024D01*
X107358494Y-120387024D02*
X107357461Y-120382153D01*
X108929579Y-121487285D02*
X109046648Y-121457612D01*
X105149504Y-122064691D02*
X105158781Y-122123674D01*
X109778736Y-120434596D02*
X109643713Y-120346373D01*
X109643713Y-120346373D02*
X109503117Y-120267109D01*
X109503117Y-120267109D02*
X109357530Y-120197473D01*
X109357530Y-120197473D02*
X109207530Y-120138135D01*
X109207530Y-120138135D02*
X109053699Y-120089762D01*
X109053699Y-120089762D02*
X108896617Y-120053025D01*
X108896617Y-120053025D02*
X108833004Y-120041738D01*
X105132550Y-122490460D02*
X105234121Y-122386905D01*
X105273505Y-117455913D02*
X105255498Y-117505899D01*
X102895017Y-117932441D02*
X102905852Y-118085124D01*
X107521219Y-123289148D02*
X107384981Y-123188391D01*
X107384981Y-123188391D02*
X107257200Y-123077081D01*
X107257200Y-123077081D02*
X107138777Y-122955892D01*
X107138777Y-122955892D02*
X107030618Y-122825495D01*
X107030618Y-122825495D02*
X106933626Y-122686565D01*
X106933626Y-122686565D02*
X106903934Y-122638475D01*
X106782988Y-118961236D02*
X106727638Y-119024213D01*
X107821858Y-123563437D02*
X107967816Y-123624753D01*
X107967816Y-123624753D02*
X107995521Y-123635201D01*
X105868750Y-119278340D02*
X105714731Y-119293815D01*
X105714731Y-119293815D02*
X105680239Y-119298680D01*
X104422952Y-120637427D02*
X104414238Y-120732884D01*
X106679806Y-122123039D02*
X106664371Y-122072867D01*
X107219301Y-119409635D02*
X107106952Y-119521991D01*
X107106952Y-119521991D02*
X106994604Y-119634347D01*
X106994604Y-119634347D02*
X106942751Y-119686204D01*
X104912212Y-119781947D02*
X105029106Y-119677499D01*
X105029106Y-119677499D02*
X105156911Y-119586720D01*
X105156911Y-119586720D02*
X105247222Y-119534069D01*
X106278775Y-122227179D02*
X106325504Y-122261976D01*
X106118065Y-116731693D02*
X106013976Y-116611392D01*
X106013976Y-116611392D02*
X105938098Y-116533371D01*
X108838163Y-117834796D02*
X108835703Y-117873482D01*
X106576430Y-122121189D02*
X106627687Y-122270623D01*
X106627687Y-122270623D02*
X106666000Y-122371683D01*
X102893118Y-123683181D02*
X102893549Y-123768492D01*
X107502134Y-120024936D02*
X107538760Y-120022310D01*
X107234258Y-121522224D02*
X107279727Y-121535683D01*
X104275913Y-121449336D02*
X104162126Y-121562059D01*
X104162126Y-121562059D02*
X104083846Y-121638744D01*
X105283761Y-122038899D02*
X105132860Y-121952052D01*
X105132860Y-121952052D02*
X104994194Y-121846845D01*
X104994194Y-121846845D02*
X104869648Y-121725216D01*
X104869648Y-121725216D02*
X104761105Y-121589104D01*
X104761105Y-121589104D02*
X104706990Y-121505570D01*
X105934057Y-119947468D02*
X105955441Y-119900234D01*
X103494118Y-123741345D02*
X103649876Y-123704405D01*
X103649876Y-123704405D02*
X103803753Y-123657187D01*
X103803753Y-123657187D02*
X103954036Y-123599631D01*
X103954036Y-123599631D02*
X103983511Y-123586874D01*
X104288409Y-122406284D02*
X104343918Y-122402975D01*
X103383444Y-120092971D02*
X103546835Y-120098911D01*
X103546835Y-120098911D02*
X103709170Y-120117712D01*
X103709170Y-120117712D02*
X103869583Y-120148971D01*
X103869583Y-120148971D02*
X104027209Y-120192287D01*
X104027209Y-120192287D02*
X104181182Y-120247258D01*
X104181182Y-120247258D02*
X104330636Y-120313482D01*
X104330636Y-120313482D02*
X104388959Y-120343033D01*
X103250694Y-118955406D02*
X103179675Y-118809566D01*
X103179675Y-118809566D02*
X103119673Y-118659030D01*
X103119673Y-118659030D02*
X103070394Y-118504625D01*
X103070394Y-118504625D02*
X103031548Y-118347177D01*
X103031548Y-118347177D02*
X103002843Y-118187514D01*
X103002843Y-118187514D02*
X102983988Y-118026461D01*
X102983988Y-118026461D02*
X102979139Y-117961837D01*
X104291733Y-119214993D02*
X104413248Y-119336277D01*
X104413248Y-119336277D02*
X104534645Y-119457696D01*
X104534645Y-119457696D02*
X104656033Y-119579126D01*
X104656033Y-119579126D02*
X104723509Y-119646547D01*
X106876471Y-121920816D02*
X106943050Y-121866077D01*
X108847907Y-118447567D02*
X108884944Y-118283832D01*
X108884944Y-118283832D02*
X108911390Y-118118057D01*
X108911390Y-118118057D02*
X108926996Y-117950915D01*
X108926996Y-117950915D02*
X108928795Y-117917383D01*
X105300143Y-117663018D02*
X105350059Y-117508948D01*
X105350059Y-117508948D02*
X105411157Y-117359105D01*
X105411157Y-117359105D02*
X105482722Y-117213948D01*
X105482722Y-117213948D02*
X105564042Y-117073935D01*
X105564042Y-117073935D02*
X105654402Y-116939524D01*
X105654402Y-116939524D02*
X105753089Y-116811174D01*
X105753089Y-116811174D02*
X105794737Y-116761634D01*
X106666000Y-122371683D02*
X106665567Y-122402958D01*
X104750595Y-122901901D02*
X104638069Y-123031092D01*
X104638069Y-123031092D02*
X104515306Y-123150579D01*
X104515306Y-123150579D02*
X104383180Y-123259611D01*
X104383180Y-123259611D02*
X104242561Y-123357438D01*
X104242561Y-123357438D02*
X104094323Y-123443312D01*
X104094323Y-123443312D02*
X104043369Y-123469151D01*
X105959317Y-124869489D02*
X105863115Y-124868759D01*
X102986215Y-123716920D02*
X102995687Y-123560154D01*
X102995687Y-123560154D02*
X103012016Y-123403971D01*
X103012016Y-123403971D02*
X103037992Y-123249142D01*
X103037992Y-123249142D02*
X103044591Y-123218408D01*
X101884378Y-121012967D02*
X102010048Y-121110095D01*
X102010048Y-121110095D02*
X102141478Y-121199455D01*
X102141478Y-121199455D02*
X102278241Y-121280384D01*
X102278241Y-121280384D02*
X102419914Y-121352223D01*
X102419914Y-121352223D02*
X102566072Y-121414311D01*
X102566072Y-121414311D02*
X102716290Y-121465989D01*
X102716290Y-121465989D02*
X102777419Y-121483597D01*
X105680239Y-119298680D02*
X105529023Y-119328005D01*
X105529023Y-119328005D02*
X105518981Y-119330154D01*
X107538502Y-122344512D02*
X107428113Y-122233293D01*
X106903934Y-122638475D02*
X106827392Y-122499695D01*
X106827392Y-122499695D02*
X106761500Y-122355578D01*
X106761500Y-122355578D02*
X106706103Y-122207080D01*
X106706103Y-122207080D02*
X106679806Y-122123039D01*
X104165511Y-119959765D02*
X104275544Y-120070608D01*
X104275544Y-120070608D02*
X104325567Y-120120989D01*
X104614614Y-120024706D02*
X104452728Y-119970278D01*
X104452728Y-119970278D02*
X104294270Y-119906468D01*
X104294270Y-119906468D02*
X104140460Y-119832350D01*
X104140460Y-119832350D02*
X103992520Y-119747001D01*
X105955170Y-119229161D02*
X105954956Y-119067992D01*
X105954956Y-119067992D02*
X105955032Y-118906765D01*
X105955032Y-118906765D02*
X105954916Y-118745525D01*
X105954916Y-118745525D02*
X105954132Y-118584319D01*
X108003423Y-120732886D02*
X107836337Y-120732886D01*
X107836337Y-120732886D02*
X107669252Y-120732886D01*
X107669252Y-120732886D02*
X107502167Y-120732886D01*
X107502167Y-120732886D02*
X107409342Y-120732886D01*
X106528937Y-122044418D02*
X106383888Y-122104558D01*
X106383888Y-122104558D02*
X106233144Y-122148425D01*
X106233144Y-122148425D02*
X106092580Y-122173365D01*
X106727638Y-119024213D02*
X106619758Y-119133941D01*
X106619758Y-119133941D02*
X106589558Y-119164672D01*
X107676931Y-121615792D02*
X107563309Y-121502958D01*
X107563309Y-121502958D02*
X107503796Y-121443852D01*
X108126224Y-123679601D02*
X108279510Y-123722044D01*
X108279510Y-123722044D02*
X108435119Y-123754927D01*
X108435119Y-123754927D02*
X108592455Y-123778216D01*
X108592455Y-123778216D02*
X108750921Y-123791879D01*
X108750921Y-123791879D02*
X108841752Y-123795353D01*
X106942751Y-119686204D02*
X106820228Y-119586508D01*
X106820228Y-119586508D02*
X106706040Y-119506665D01*
X106937141Y-118852915D02*
X107030889Y-118714673D01*
X107030889Y-118714673D02*
X107135434Y-118584409D01*
X107135434Y-118584409D02*
X107250035Y-118462898D01*
X107250035Y-118462898D02*
X107373949Y-118350916D01*
X107373949Y-118350916D02*
X107506435Y-118249236D01*
X107506435Y-118249236D02*
X107646751Y-118158635D01*
X107646751Y-118158635D02*
X107704904Y-118125671D01*
X104822003Y-121806951D02*
X104703082Y-121925855D01*
X104703082Y-121925855D02*
X104584087Y-122044691D01*
X104584087Y-122044691D02*
X104465183Y-122163615D01*
X104465183Y-122163615D02*
X104346533Y-122282784D01*
X104346533Y-122282784D02*
X104278911Y-122351052D01*
X107606128Y-120187922D02*
X107543311Y-120228993D01*
X108833004Y-120041738D02*
X108680652Y-120022583D01*
X108680652Y-120022583D02*
X108589546Y-120016460D01*
X107995521Y-123635201D02*
X108126224Y-123679601D01*
X106092580Y-122173365D02*
X105937111Y-122184585D01*
X105937111Y-122184585D02*
X105781321Y-122178855D01*
X105781321Y-122178855D02*
X105627083Y-122156297D01*
X105627083Y-122156297D02*
X105476272Y-122117031D01*
X105476272Y-122117031D02*
X105330762Y-122061180D01*
X105330762Y-122061180D02*
X105283761Y-122038899D01*
X106159816Y-124768950D02*
X106241758Y-124659321D01*
X108800855Y-117757548D02*
X108646695Y-117765994D01*
X108646695Y-117765994D02*
X108493090Y-117782788D01*
X107128071Y-118470918D02*
X107021763Y-118594471D01*
X107021763Y-118594471D02*
X106924288Y-118726487D01*
X106924288Y-118726487D02*
X106882857Y-118789659D01*
X104336545Y-119142869D02*
X104273238Y-119169108D01*
X107344665Y-120326646D02*
X107284473Y-120178700D01*
X107284473Y-120178700D02*
X107257123Y-120111448D01*
X101803735Y-120810589D02*
X101824939Y-120722017D01*
X106563734Y-117533182D02*
X106544477Y-117478622D01*
X103253171Y-122442147D02*
X103175523Y-122580936D01*
X103175523Y-122580936D02*
X103106547Y-122725838D01*
X103106547Y-122725838D02*
X103047020Y-122875016D01*
X103047020Y-122875016D02*
X103036318Y-122905203D01*
X104478542Y-118395290D02*
X104603963Y-118510325D01*
X104603963Y-118510325D02*
X104719564Y-118635203D01*
X104719564Y-118635203D02*
X104824643Y-118769048D01*
X104824643Y-118769048D02*
X104918499Y-118910983D01*
X104918499Y-118910983D02*
X105000431Y-119060131D01*
X105000431Y-119060131D02*
X105024971Y-119111299D01*
X104333345Y-123393032D02*
X104457239Y-123301911D01*
X104457239Y-123301911D02*
X104574574Y-123201585D01*
X104574574Y-123201585D02*
X104684584Y-123092860D01*
X104684584Y-123092860D02*
X104786505Y-122976541D01*
X104786505Y-122976541D02*
X104840818Y-122906975D01*
X105241642Y-118878404D02*
X105248195Y-118951326D01*
X104343918Y-122402975D02*
X104461374Y-122285385D01*
X104461374Y-122285385D02*
X104578885Y-122167839D01*
X104578885Y-122167839D02*
X104696419Y-122050313D01*
X104696419Y-122050313D02*
X104813949Y-121932783D01*
X104813949Y-121932783D02*
X104881095Y-121865612D01*
X103983511Y-123586874D02*
X104129487Y-123516173D01*
X104129487Y-123516173D02*
X104270528Y-123434308D01*
X104270528Y-123434308D02*
X104333345Y-123393032D01*
X108931039Y-117840536D02*
X108929061Y-117778692D01*
X104648076Y-121402216D02*
X104585875Y-121255540D01*
X104585875Y-121255540D02*
X104569315Y-121205060D01*
X107081139Y-119990425D02*
X107162916Y-120125711D01*
X107162916Y-120125711D02*
X107168231Y-120134808D01*
X107001477Y-121806752D02*
X107101449Y-121684080D01*
X107101449Y-121684080D02*
X107191520Y-121554084D01*
X107191520Y-121554084D02*
X107202547Y-121536101D01*
X103009712Y-117836324D02*
X103009712Y-117836324D01*
X106589558Y-119164672D02*
X106590283Y-119010410D01*
X106590283Y-119010410D02*
X106591286Y-118904871D01*
X104105340Y-119916520D02*
X104165511Y-119959765D01*
X102893131Y-117875476D02*
X102895017Y-117932441D01*
X107315513Y-120655146D02*
X107319877Y-120824161D01*
X107319877Y-120824161D02*
X107304280Y-120992522D01*
X107304280Y-120992522D02*
X107268929Y-121157834D01*
X107268929Y-121157834D02*
X107214035Y-121317703D01*
X107214035Y-121317703D02*
X107173973Y-121405693D01*
X109522586Y-120375020D02*
X109662012Y-120459904D01*
X109662012Y-120459904D02*
X109795446Y-120553907D01*
X109795446Y-120553907D02*
X109922957Y-120655859D01*
X109922957Y-120655859D02*
X109991263Y-120715503D01*
X108835703Y-117873482D02*
X108824300Y-118036267D01*
X108824300Y-118036267D02*
X108804298Y-118198191D01*
X106636557Y-121983775D02*
X106528937Y-122044418D01*
X106521604Y-122557337D02*
X106500000Y-122500000D01*
X107173973Y-121405693D02*
X107086439Y-121557178D01*
X107086439Y-121557178D02*
X106980414Y-121696292D01*
X106980414Y-121696292D02*
X106857854Y-121821115D01*
X106857854Y-121821115D02*
X106720715Y-121929728D01*
X106720715Y-121929728D02*
X106636557Y-121983775D01*
X101872565Y-120580098D02*
X101820490Y-120623435D01*
X109956788Y-120866227D02*
X109829703Y-120966547D01*
X109829703Y-120966547D02*
X109696629Y-121058975D01*
X109696629Y-121058975D02*
X109558073Y-121143016D01*
X109558073Y-121143016D02*
X109414547Y-121218178D01*
X109414547Y-121218178D02*
X109266561Y-121283969D01*
X109266561Y-121283969D02*
X109114624Y-121339897D01*
X109114624Y-121339897D02*
X108959246Y-121385468D01*
X108959246Y-121385468D02*
X108800939Y-121420192D01*
X106083283Y-124862203D02*
X106159816Y-124768950D01*
X103087595Y-120037817D02*
X102934330Y-120065335D01*
X102934330Y-120065335D02*
X102892624Y-120074622D01*
X106882857Y-118789659D02*
X106804007Y-118923226D01*
X106804007Y-118923226D02*
X106782988Y-118961236D01*
X108562342Y-121540700D02*
X108626449Y-121535698D01*
X107386276Y-123305397D02*
X107515809Y-123395703D01*
X107515809Y-123395703D02*
X107651929Y-123477466D01*
X107651929Y-123477466D02*
X107793137Y-123550069D01*
X107793137Y-123550069D02*
X107821858Y-123563437D01*
X102979139Y-117961837D02*
X102970362Y-117833167D01*
X107538760Y-120022310D02*
X107602617Y-119980457D01*
X107494956Y-118155747D02*
X107360827Y-118254526D01*
X107360827Y-118254526D02*
X107234902Y-118363575D01*
X107234902Y-118363575D02*
X107128071Y-118470918D01*
X106465184Y-117286825D02*
X106390043Y-117137210D01*
X106390043Y-117137210D02*
X106305396Y-116992765D01*
X106305396Y-116992765D02*
X106211784Y-116853953D01*
X106211784Y-116853953D02*
X106156103Y-116779440D01*
X104414238Y-120732884D02*
X104240772Y-120732887D01*
X104240772Y-120732887D02*
X104067303Y-120732780D01*
X104067303Y-120732780D02*
X103893836Y-120732924D01*
X103893836Y-120732924D02*
X103720383Y-120733682D01*
X110142199Y-120736773D02*
X110027673Y-120630493D01*
X110027673Y-120630493D02*
X109907794Y-120530309D01*
X109907794Y-120530309D02*
X109850577Y-120486408D01*
X105158781Y-122123674D02*
X105103816Y-122279872D01*
X105103816Y-122279872D02*
X105039208Y-122432508D01*
X105039208Y-122432508D02*
X104964676Y-122580518D01*
X104964676Y-122580518D02*
X104879938Y-122722836D01*
X104879938Y-122722836D02*
X104784714Y-122858398D01*
X104784714Y-122858398D02*
X104750595Y-122901901D01*
X106410077Y-119456663D02*
X106559459Y-119522784D01*
X106559459Y-119522784D02*
X106699918Y-119606136D01*
X106699918Y-119606136D02*
X106829699Y-119705317D01*
X106829699Y-119705317D02*
X106947048Y-119818925D01*
X106947048Y-119818925D02*
X107050208Y-119945560D01*
X107050208Y-119945560D02*
X107081139Y-119990425D01*
X106361398Y-122208664D02*
X106509229Y-122148516D01*
X106509229Y-122148516D02*
X106576430Y-122121189D01*
X107403870Y-120881380D02*
X107409342Y-120819097D01*
X105740760Y-124862606D02*
X105763765Y-124889055D01*
X106325504Y-122261976D02*
X106405014Y-122423908D01*
X106405014Y-122423908D02*
X106472430Y-122591369D01*
X106472430Y-122591369D02*
X106526784Y-122763454D01*
X106526784Y-122763454D02*
X106567110Y-122939261D01*
X106567110Y-122939261D02*
X106592444Y-123117887D01*
X106592444Y-123117887D02*
X106597390Y-123177900D01*
X105955441Y-119900234D02*
X105934554Y-119863394D01*
X107515655Y-119136657D02*
X107462464Y-119166110D01*
X102906683Y-123481744D02*
X102897211Y-123592151D01*
X107704904Y-118125671D02*
X107849139Y-118053473D01*
X107849139Y-118053473D02*
X107998136Y-117992053D01*
X107998136Y-117992053D02*
X108151086Y-117941215D01*
X108151086Y-117941215D02*
X108307183Y-117900761D01*
X108307183Y-117900761D02*
X108465619Y-117870496D01*
X108465619Y-117870496D02*
X108625587Y-117850224D01*
X108625587Y-117850224D02*
X108689822Y-117844869D01*
X107576103Y-119889296D02*
X107429186Y-119950875D01*
X107429186Y-119950875D02*
X107278399Y-120002339D01*
X107278399Y-120002339D02*
X107207902Y-120023277D01*
X104043369Y-123469151D02*
X103882014Y-123540768D01*
X103882014Y-123540768D02*
X103715656Y-123599494D01*
X103715656Y-123599494D02*
X103545337Y-123645690D01*
X103545337Y-123645690D02*
X103372099Y-123679719D01*
X103372099Y-123679719D02*
X103196985Y-123701945D01*
X103196985Y-123701945D02*
X103138377Y-123706793D01*
X105913851Y-116626824D02*
X105939143Y-116656802D01*
X106686554Y-118220032D02*
X106684664Y-118164280D01*
X105938098Y-116533371D02*
X105909430Y-116521999D01*
X108929061Y-117778692D02*
X108891035Y-117756545D01*
X107568838Y-118107755D02*
X107494956Y-118155747D01*
X105277156Y-118710735D02*
X105245642Y-118548291D01*
X105245642Y-118548291D02*
X105227053Y-118383859D01*
X105227053Y-118383859D02*
X105221441Y-118218476D01*
X105221441Y-118218476D02*
X105228859Y-118053179D01*
X105228859Y-118053179D02*
X105249361Y-117889004D01*
X105249361Y-117889004D02*
X105282998Y-117726987D01*
X105282998Y-117726987D02*
X105300143Y-117663018D01*
X102999675Y-118571524D02*
X103019156Y-118634177D01*
X108257457Y-121538542D02*
X108418982Y-121545012D01*
X108418982Y-121545012D02*
X108562342Y-121540700D01*
X108901966Y-123336148D02*
X108874556Y-123181151D01*
X108874556Y-123181151D02*
X108873525Y-123176179D01*
X109850577Y-120486408D02*
X109778736Y-120434596D01*
X103691270Y-120766153D02*
X103718569Y-120817071D01*
X104629105Y-121549809D02*
X104629105Y-121549809D01*
X105544507Y-122227280D02*
X105544507Y-122227280D01*
X104542951Y-121097756D02*
X104511611Y-120931021D01*
X104511611Y-120931021D02*
X104503123Y-120761531D01*
X104503123Y-120761531D02*
X104514807Y-120592145D01*
X104514807Y-120592145D02*
X104519329Y-120558532D01*
X105070954Y-120809158D02*
X105084267Y-120748649D01*
X105084267Y-120748649D02*
X105102784Y-120595463D01*
X105102784Y-120595463D02*
X105149428Y-120448421D01*
X105149428Y-120448421D02*
X105215014Y-120324392D01*
X105215014Y-120324392D02*
X105315191Y-120197325D01*
X105315191Y-120197325D02*
X105438707Y-120092844D01*
X105438707Y-120092844D02*
X105502330Y-120053521D01*
X103562848Y-120021478D02*
X103505490Y-120017977D01*
X105519347Y-122221962D02*
X105544507Y-122227280D01*
X102915666Y-118171322D02*
X102939691Y-118322918D01*
X102939691Y-118322918D02*
X102972654Y-118472821D01*
X102972654Y-118472821D02*
X102999675Y-118571524D01*
X105954963Y-122865730D02*
X105954963Y-122699102D01*
X105954963Y-122699102D02*
X105954963Y-122532474D01*
X105954963Y-122532474D02*
X105954963Y-122365847D01*
X105954963Y-122365847D02*
X105954963Y-122273276D01*
X104061877Y-120120819D02*
X103908634Y-120077135D01*
X103908634Y-120077135D02*
X103752619Y-120044749D01*
X103752619Y-120044749D02*
X103594617Y-120024143D01*
X103594617Y-120024143D02*
X103562848Y-120021478D01*
X105729893Y-122260115D02*
X105868750Y-122273443D01*
X106607983Y-118839475D02*
X106644659Y-118686222D01*
X106644659Y-118686222D02*
X106670235Y-118530748D01*
X106670235Y-118530748D02*
X106680822Y-118426216D01*
X105863115Y-124868759D02*
X105795521Y-124789369D01*
X103720383Y-120733682D02*
X103691270Y-120766153D01*
X105413626Y-119456928D02*
X105505763Y-119428334D01*
X107545540Y-119199971D02*
X107515655Y-119136657D01*
X103019156Y-118634177D02*
X103079687Y-118798394D01*
X103079687Y-118798394D02*
X103152689Y-118957495D01*
X103152689Y-118957495D02*
X103237857Y-119110398D01*
X103237857Y-119110398D02*
X103334881Y-119256022D01*
X103334881Y-119256022D02*
X103443457Y-119393285D01*
X103443457Y-119393285D02*
X103482163Y-119436995D01*
X103036318Y-122905203D02*
X102996618Y-123028580D01*
X102893549Y-123768492D02*
X102924364Y-123794987D01*
X108457850Y-120091576D02*
X108457850Y-120091576D01*
X101675885Y-120824138D02*
X101787179Y-120929598D01*
X101787179Y-120929598D02*
X101813605Y-120953132D01*
X104564396Y-121169764D02*
X104542951Y-121097756D01*
X106458699Y-122407104D02*
X106389158Y-122264283D01*
X106389158Y-122264283D02*
X106361398Y-122208664D01*
X105886896Y-119861953D02*
X105886896Y-119861953D01*
X108891035Y-117756545D02*
X108800855Y-117757548D01*
X106673381Y-123362303D02*
X106671450Y-123268539D01*
X105870885Y-118581769D02*
X105868750Y-118680994D01*
X102892624Y-120074622D02*
X102749379Y-120112942D01*
X105502330Y-120053521D02*
X105534216Y-120036648D01*
X110180737Y-120790146D02*
X110142199Y-120736773D01*
X104896138Y-119673533D02*
X104868754Y-119669490D01*
X105893842Y-125026040D02*
X105941249Y-125016439D01*
X105471118Y-124481344D02*
X105556189Y-124617684D01*
X105556189Y-124617684D02*
X105649375Y-124748613D01*
X105649375Y-124748613D02*
X105740760Y-124862606D01*
X103822117Y-120819097D02*
X103988735Y-120819097D01*
X103988735Y-120819097D02*
X104155353Y-120819097D01*
X104155353Y-120819097D02*
X104321971Y-120819097D01*
X104321971Y-120819097D02*
X104414537Y-120819097D01*
X103718569Y-120817071D02*
X103822117Y-120819097D01*
X105712876Y-116719550D02*
X105605662Y-116854518D01*
X105605662Y-116854518D02*
X105507205Y-116996022D01*
X105507205Y-116996022D02*
X105418383Y-117143722D01*
X105418383Y-117143722D02*
X105340076Y-117297280D01*
X105262139Y-123633135D02*
X105242154Y-123480038D01*
X105242154Y-123480038D02*
X105233134Y-123325879D01*
X105233134Y-123325879D02*
X105235307Y-123171495D01*
X105235307Y-123171495D02*
X105248905Y-123017726D01*
X105248905Y-123017726D02*
X105274157Y-122865411D01*
X105274157Y-122865411D02*
X105285204Y-122815107D01*
X105285204Y-122815107D02*
X105329477Y-122653398D01*
X105329477Y-122653398D02*
X105386727Y-122495836D01*
X105386727Y-122495836D02*
X105455847Y-122343071D01*
X105455847Y-122343071D02*
X105498970Y-122260515D01*
X105498970Y-122260515D02*
X105519347Y-122221962D01*
X103135341Y-123789062D02*
X103293073Y-123774051D01*
X103293073Y-123774051D02*
X103449671Y-123749971D01*
X103449671Y-123749971D02*
X103494118Y-123741345D01*
X101824939Y-120722017D02*
X101946145Y-120618387D01*
X101946145Y-120618387D02*
X102058005Y-120533031D01*
X107025307Y-119721035D02*
X107134070Y-119612769D01*
X107134070Y-119612769D02*
X107242646Y-119504132D01*
X107242646Y-119504132D02*
X107257143Y-119489683D01*
X105207727Y-122742605D02*
X105170492Y-122910048D01*
X105170492Y-122910048D02*
X105146914Y-123079946D01*
X105146914Y-123079946D02*
X105137019Y-123251193D01*
X105137019Y-123251193D02*
X105140830Y-123422685D01*
X108457850Y-120091576D02*
X108631809Y-120098401D01*
X108631809Y-120098401D02*
X108804486Y-120119814D01*
X108804486Y-120119814D02*
X108974836Y-120155329D01*
X108974836Y-120155329D02*
X109141818Y-120204460D01*
X109141818Y-120204460D02*
X109304387Y-120266721D01*
X109304387Y-120266721D02*
X109461501Y-120341626D01*
X109461501Y-120341626D02*
X109522586Y-120375020D01*
X105903615Y-122996777D02*
X105953131Y-122968513D01*
X104414537Y-120819097D02*
X104430985Y-120981287D01*
X104430985Y-120981287D02*
X104460402Y-121141513D01*
X107279727Y-121535683D02*
X107425071Y-121587522D01*
X107425071Y-121587522D02*
X107567187Y-121647986D01*
X107567187Y-121647986D02*
X107705255Y-121717160D01*
X107705255Y-121717160D02*
X107838457Y-121795127D01*
X107838457Y-121795127D02*
X107965973Y-121881973D01*
X107965973Y-121881973D02*
X108086985Y-121977783D01*
X108086985Y-121977783D02*
X108133386Y-122018636D01*
X103044591Y-123218408D02*
X103090606Y-123038404D01*
X103090606Y-123038404D02*
X103150255Y-122862317D01*
X103150255Y-122862317D02*
X103223354Y-122691387D01*
X103223354Y-122691387D02*
X103309722Y-122526858D01*
X103309722Y-122526858D02*
X103409178Y-122369969D01*
X103409178Y-122369969D02*
X103521541Y-122221963D01*
X103521541Y-122221963D02*
X103570060Y-122165527D01*
X105505763Y-119428334D02*
X105593079Y-119408946D01*
X108841752Y-123795353D02*
X108905818Y-123794143D01*
X104083846Y-121638744D02*
X103979886Y-121701255D01*
X108905818Y-123794143D02*
X108931122Y-123757930D01*
X103378426Y-120015566D02*
X103222518Y-120022678D01*
X103222518Y-120022678D02*
X103151893Y-120029488D01*
X103369414Y-120093191D02*
X103383444Y-120092971D01*
X102957134Y-123180200D02*
X102925996Y-123339676D01*
X102925996Y-123339676D02*
X102906683Y-123481744D01*
X108132731Y-120783806D02*
X108105213Y-120734862D01*
X107357860Y-121168368D02*
X107387657Y-121017201D01*
X107387657Y-121017201D02*
X107396047Y-120957489D01*
X102058005Y-120533031D02*
X102204133Y-120435852D01*
X102204133Y-120435852D02*
X102357127Y-120349584D01*
X102357127Y-120349584D02*
X102516095Y-120274799D01*
X102516095Y-120274799D02*
X102680149Y-120212071D01*
X102680149Y-120212071D02*
X102848397Y-120161973D01*
X102848397Y-120161973D02*
X103019951Y-120125078D01*
X103019951Y-120125078D02*
X103193919Y-120101959D01*
X103193919Y-120101959D02*
X103369414Y-120093191D01*
X104273238Y-119169108D02*
X104291733Y-119214993D01*
X105825544Y-119951954D02*
X105875375Y-119948302D01*
X101890098Y-120886772D02*
X101803735Y-120810589D01*
X102923013Y-117756943D02*
X102893314Y-117786251D01*
X104281750Y-118139690D02*
X104139667Y-118057046D01*
X104139667Y-118057046D02*
X103992358Y-117984241D01*
X103992358Y-117984241D02*
X103840538Y-117921350D01*
X103840538Y-117921350D02*
X103684920Y-117868451D01*
X103684920Y-117868451D02*
X103526220Y-117825619D01*
X103526220Y-117825619D02*
X103365152Y-117792933D01*
X103365152Y-117792933D02*
X103300223Y-117782716D01*
X105248195Y-118951326D02*
X105250277Y-119110315D01*
X105250277Y-119110315D02*
X105250972Y-119163312D01*
X108803565Y-118598819D02*
X108827076Y-118523013D01*
X106664371Y-122072867D02*
X106792798Y-121985999D01*
X106792798Y-121985999D02*
X106876471Y-121920816D01*
X105250972Y-119163312D02*
X105141206Y-119053921D01*
X105141206Y-119053921D02*
X105066616Y-118978598D01*
X106500454Y-122470692D02*
X106458699Y-122407104D01*
X106447319Y-124111464D02*
X106383690Y-124254867D01*
X106383690Y-124254867D02*
X106310365Y-124393462D01*
X106310365Y-124393462D02*
X106228105Y-124526991D01*
X106228105Y-124526991D02*
X106137674Y-124655196D01*
X106137674Y-124655196D02*
X106039833Y-124777820D01*
X106039833Y-124777820D02*
X106005705Y-124817411D01*
X108104027Y-120818134D02*
X108132731Y-120783806D01*
X105147009Y-117989758D02*
X105136607Y-118142680D01*
X105136607Y-118142680D02*
X105137468Y-118296415D01*
X104615179Y-121528738D02*
X104629105Y-121549809D01*
X108133386Y-122018636D02*
X108258103Y-122141349D01*
X108258103Y-122141349D02*
X108371923Y-122274184D01*
X108371923Y-122274184D02*
X108474238Y-122416083D01*
X108474238Y-122416083D02*
X108564441Y-122565992D01*
X108564441Y-122565992D02*
X108641927Y-122722856D01*
X108641927Y-122722856D02*
X108664825Y-122776508D01*
X104278911Y-122351052D02*
X104288409Y-122406284D01*
X103482163Y-119436995D02*
X103598910Y-119555935D01*
X103598910Y-119555935D02*
X103724372Y-119665623D01*
X103724372Y-119665623D02*
X103857606Y-119765774D01*
X103857606Y-119765774D02*
X103997667Y-119856103D01*
X107489117Y-122411045D02*
X107545696Y-122393998D01*
X107386759Y-121183732D02*
X107357860Y-121168368D01*
X106490284Y-117342744D02*
X106465184Y-117286825D01*
X105137468Y-118296415D02*
X105149708Y-118451771D01*
X105149708Y-118451771D02*
X105172930Y-118605349D01*
X105172930Y-118605349D02*
X105181576Y-118649128D01*
X107900932Y-121390455D02*
X107751182Y-121345853D01*
X107751182Y-121345853D02*
X107605246Y-121290075D01*
X107605246Y-121290075D02*
X107463524Y-121224239D01*
X107463524Y-121224239D02*
X107386759Y-121183732D01*
X101663448Y-120770670D02*
X101675885Y-120824138D01*
X108664825Y-122776508D02*
X108719708Y-122923417D01*
X108719708Y-122923417D02*
X108764485Y-123073626D01*
X108764485Y-123073626D02*
X108799538Y-123226435D01*
X108799538Y-123226435D02*
X108825248Y-123381148D01*
X108825248Y-123381148D02*
X108841996Y-123537066D01*
X108841996Y-123537066D02*
X108845654Y-123589187D01*
X106544477Y-117478622D02*
X106490284Y-117342744D01*
X105150154Y-123529224D02*
X105173168Y-123685193D01*
X105173168Y-123685193D02*
X105206928Y-123839461D01*
X105206928Y-123839461D02*
X105250961Y-123991368D01*
X105250961Y-123991368D02*
X105304792Y-124140258D01*
X105304792Y-124140258D02*
X105367945Y-124285472D01*
X105367945Y-124285472D02*
X105439946Y-124426352D01*
X105439946Y-124426352D02*
X105471118Y-124481344D01*
X105255498Y-117505899D02*
X105210031Y-117652711D01*
X105210031Y-117652711D02*
X105175066Y-117802363D01*
X105175066Y-117802363D02*
X105152695Y-117940285D01*
X105795521Y-124789369D02*
X105697798Y-124661624D01*
X105697798Y-124661624D02*
X105607963Y-124528066D01*
X105607963Y-124528066D02*
X105526507Y-124389205D01*
X105526507Y-124389205D02*
X105453922Y-124245548D01*
X105453922Y-124245548D02*
X105390701Y-124097603D01*
X105390701Y-124097603D02*
X105337335Y-123945881D01*
X105337335Y-123945881D02*
X105294317Y-123790888D01*
X105294317Y-123790888D02*
X105262139Y-123633135D01*
X104460402Y-121141513D02*
X104426103Y-121189372D01*
X104426103Y-121189372D02*
X104268881Y-121266776D01*
X104268881Y-121266776D02*
X104106509Y-121332931D01*
X104106509Y-121332931D02*
X103939719Y-121386798D01*
X103939719Y-121386798D02*
X103769242Y-121427336D01*
X103769242Y-121427336D02*
X103670452Y-121444118D01*
X102893314Y-117786251D02*
X102893131Y-117875476D01*
X107545696Y-122393998D02*
X107538502Y-122344512D01*
X102924364Y-123794987D02*
X103016419Y-123794628D01*
X108845654Y-123589187D02*
X108838395Y-123660221D01*
X102497223Y-120204073D02*
X102420502Y-120238156D01*
X104003915Y-121456182D02*
X104156913Y-121452322D01*
X104156913Y-121452322D02*
X104275913Y-121449336D01*
X108800939Y-121420192D02*
X108632509Y-121444123D01*
X108632509Y-121444123D02*
X108462687Y-121454698D01*
X108462687Y-121454698D02*
X108292592Y-121451679D01*
X108292592Y-121451679D02*
X108123343Y-121434832D01*
X108123343Y-121434832D02*
X107956061Y-121403923D01*
X107956061Y-121403923D02*
X107900932Y-121390455D01*
X104781718Y-121758868D02*
X104822003Y-121806951D01*
X104739014Y-121705982D02*
X104781718Y-121758868D01*
X106943050Y-121866077D02*
X107062391Y-121985402D01*
X107062391Y-121985402D02*
X107181661Y-122104808D01*
X107181661Y-122104808D02*
X107301015Y-122224126D01*
X107301015Y-122224126D02*
X107420610Y-122343188D01*
X107420610Y-122343188D02*
X107489117Y-122411045D01*
X107706885Y-119929068D02*
X107853068Y-119844717D01*
X107853068Y-119844717D02*
X107993084Y-119748882D01*
X107993084Y-119748882D02*
X108125348Y-119642381D01*
X108125348Y-119642381D02*
X108194897Y-119578906D01*
X107234258Y-121522224D02*
X107234258Y-121522224D01*
X105909430Y-116521999D02*
X105853420Y-116565044D01*
X103383444Y-120092971D02*
X103383444Y-120092971D01*
X105152695Y-117940285D02*
X105147009Y-117989758D01*
X105340076Y-117297280D02*
X105312025Y-117360128D01*
X103101970Y-117761774D02*
X102945379Y-117756440D01*
X102945379Y-117756440D02*
X102923013Y-117756943D01*
X107357461Y-120382153D02*
X107510022Y-120307288D01*
X107510022Y-120307288D02*
X107666787Y-120241596D01*
X107666787Y-120241596D02*
X107827516Y-120186574D01*
X107827516Y-120186574D02*
X107991970Y-120143720D01*
X106303834Y-119330154D02*
X106145403Y-119299225D01*
X106145403Y-119299225D02*
X105985008Y-119281065D01*
X107743758Y-120147643D02*
X107636366Y-120187664D01*
X107029965Y-119779022D02*
X107025307Y-119721035D01*
X102420502Y-120238156D02*
X102275849Y-120310764D01*
X102275849Y-120310764D02*
X102136023Y-120392267D01*
X102136023Y-120392267D02*
X102001453Y-120482200D01*
X102001453Y-120482200D02*
X101872565Y-120580098D01*
X102905852Y-118085124D02*
X102915666Y-118171322D01*
X105939143Y-116656802D02*
X106037357Y-116774406D01*
X106037357Y-116774406D02*
X106130173Y-116896275D01*
X106130173Y-116896275D02*
X106170508Y-116954374D01*
X107991970Y-120143720D02*
X108150726Y-120114517D01*
X108150726Y-120114517D02*
X108311201Y-120097064D01*
X108311201Y-120097064D02*
X108457850Y-120091576D01*
X103570060Y-122165527D02*
X103683151Y-122048067D01*
X103683151Y-122048067D02*
X103805206Y-121940015D01*
X103805206Y-121940015D02*
X103935366Y-121841870D01*
X103935366Y-121841870D02*
X104072774Y-121754133D01*
X104072774Y-121754133D02*
X104216573Y-121677303D01*
X104216573Y-121677303D02*
X104365906Y-121611881D01*
X104365906Y-121611881D02*
X104426997Y-121589019D01*
D12*
X107800000Y-119800000D02*
X107543311Y-120228993D01*
X107543311Y-120228993D02*
X107900000Y-120100000D01*
X107900000Y-120100000D02*
X107400000Y-120100000D01*
X106500000Y-122700000D02*
X106600000Y-122300000D01*
X106900000Y-122700000D02*
X106500000Y-122300000D01*
D13*
G36*
X106700000Y-122300000D02*
G01*
X106458699Y-122407104D01*
X106350000Y-122200000D01*
X106550000Y-122050000D01*
X106700000Y-122300000D01*
G37*
X106700000Y-122300000D02*
X106458699Y-122407104D01*
X106350000Y-122200000D01*
X106550000Y-122050000D01*
X106700000Y-122300000D01*
G36*
X105500000Y-122150000D02*
G01*
X105350000Y-122500000D01*
X105100000Y-122400000D01*
X105250000Y-122050000D01*
X105500000Y-122150000D01*
G37*
X105500000Y-122150000D02*
X105350000Y-122500000D01*
X105100000Y-122400000D01*
X105250000Y-122050000D01*
X105500000Y-122150000D01*
G36*
X104600000Y-121450000D02*
G01*
X104250000Y-121600000D01*
X104150000Y-121350000D01*
X104500000Y-121200000D01*
X104600000Y-121450000D01*
G37*
X104600000Y-121450000D02*
X104250000Y-121600000D01*
X104150000Y-121350000D01*
X104500000Y-121200000D01*
X104600000Y-121450000D01*
G36*
X104650000Y-120100000D02*
G01*
X104550000Y-120350000D01*
X104200000Y-120200000D01*
X104300000Y-119950000D01*
X104650000Y-120100000D01*
G37*
X104650000Y-120100000D02*
X104550000Y-120350000D01*
X104200000Y-120200000D01*
X104300000Y-119950000D01*
X104650000Y-120100000D01*
G36*
X105500000Y-119350000D02*
G01*
X105250000Y-119500000D01*
X105100000Y-119150000D01*
X105350000Y-119050000D01*
X105500000Y-119350000D01*
G37*
X105500000Y-119350000D02*
X105250000Y-119500000D01*
X105100000Y-119150000D01*
X105350000Y-119050000D01*
X105500000Y-119350000D01*
G36*
X106700000Y-119150000D02*
G01*
X106600000Y-119450000D01*
X106350000Y-119350000D01*
X106500000Y-119050000D01*
X106700000Y-119150000D01*
G37*
X106700000Y-119150000D02*
X106600000Y-119450000D01*
X106350000Y-119350000D01*
X106500000Y-119050000D01*
X106700000Y-119150000D01*
G36*
X107600000Y-120200000D02*
G01*
X107400000Y-120300000D01*
X107250000Y-120050000D01*
X107550000Y-120000000D01*
X107600000Y-120200000D01*
G37*
X107600000Y-120200000D02*
X107400000Y-120300000D01*
X107250000Y-120050000D01*
X107550000Y-120000000D01*
X107600000Y-120200000D01*
G36*
X107600000Y-121350000D02*
G01*
X107500000Y-121550000D01*
X107250000Y-121450000D01*
X107350000Y-121200000D01*
X107600000Y-121350000D01*
G37*
X107600000Y-121350000D02*
X107500000Y-121550000D01*
X107250000Y-121450000D01*
X107350000Y-121200000D01*
X107600000Y-121350000D01*
D12*
%TO.C,J10*%
X176270000Y-120730000D02*
X176270000Y-122000000D01*
X175000000Y-120730000D02*
X176270000Y-120730000D01*
X172080000Y-123042929D02*
X172080000Y-123440000D01*
X172840000Y-123042929D02*
X172840000Y-123440000D01*
X172080000Y-132100000D02*
X172080000Y-126100000D01*
X172840000Y-132100000D02*
X172080000Y-132100000D01*
X172840000Y-126100000D02*
X172840000Y-132100000D01*
X173730000Y-123440000D02*
X173730000Y-126100000D01*
X174620000Y-123110000D02*
X174620000Y-123440000D01*
X175380000Y-123110000D02*
X175380000Y-123440000D01*
X174720000Y-126100000D02*
X174720000Y-132100000D01*
X174840000Y-126100000D02*
X174840000Y-132100000D01*
X174960000Y-126100000D02*
X174960000Y-132100000D01*
X175080000Y-126100000D02*
X175080000Y-132100000D01*
X175200000Y-126100000D02*
X175200000Y-132100000D01*
X175320000Y-126100000D02*
X175320000Y-132100000D01*
X174620000Y-132100000D02*
X174620000Y-126100000D01*
X175380000Y-132100000D02*
X174620000Y-132100000D01*
X175380000Y-126100000D02*
X175380000Y-132100000D01*
X176330000Y-126100000D02*
X176330000Y-123440000D01*
X171130000Y-126100000D02*
X176330000Y-126100000D01*
X171130000Y-123440000D02*
X171130000Y-126100000D01*
X176330000Y-123440000D02*
X171130000Y-123440000D01*
%TO.C,J9*%
X188270000Y-120730000D02*
X188270000Y-122000000D01*
X187000000Y-120730000D02*
X188270000Y-120730000D01*
X184080000Y-123042929D02*
X184080000Y-123440000D01*
X184840000Y-123042929D02*
X184840000Y-123440000D01*
X184080000Y-132100000D02*
X184080000Y-126100000D01*
X184840000Y-132100000D02*
X184080000Y-132100000D01*
X184840000Y-126100000D02*
X184840000Y-132100000D01*
X185730000Y-123440000D02*
X185730000Y-126100000D01*
X186620000Y-123110000D02*
X186620000Y-123440000D01*
X187380000Y-123110000D02*
X187380000Y-123440000D01*
X186720000Y-126100000D02*
X186720000Y-132100000D01*
X186840000Y-126100000D02*
X186840000Y-132100000D01*
X186960000Y-126100000D02*
X186960000Y-132100000D01*
X187080000Y-126100000D02*
X187080000Y-132100000D01*
X187200000Y-126100000D02*
X187200000Y-132100000D01*
X187320000Y-126100000D02*
X187320000Y-132100000D01*
X186620000Y-132100000D02*
X186620000Y-126100000D01*
X187380000Y-132100000D02*
X186620000Y-132100000D01*
X187380000Y-126100000D02*
X187380000Y-132100000D01*
X188330000Y-126100000D02*
X188330000Y-123440000D01*
X183130000Y-126100000D02*
X188330000Y-126100000D01*
X183130000Y-123440000D02*
X183130000Y-126100000D01*
X188330000Y-123440000D02*
X183130000Y-123440000D01*
%TO.C,J8*%
X164270000Y-120730000D02*
X164270000Y-122000000D01*
X163000000Y-120730000D02*
X164270000Y-120730000D01*
X144840000Y-123042929D02*
X144840000Y-123440000D01*
X145600000Y-123042929D02*
X145600000Y-123440000D01*
X144840000Y-132100000D02*
X144840000Y-126100000D01*
X145600000Y-132100000D02*
X144840000Y-132100000D01*
X145600000Y-126100000D02*
X145600000Y-132100000D01*
X146490000Y-123440000D02*
X146490000Y-126100000D01*
X147380000Y-123042929D02*
X147380000Y-123440000D01*
X148140000Y-123042929D02*
X148140000Y-123440000D01*
X147380000Y-132100000D02*
X147380000Y-126100000D01*
X148140000Y-132100000D02*
X147380000Y-132100000D01*
X148140000Y-126100000D02*
X148140000Y-132100000D01*
X149030000Y-123440000D02*
X149030000Y-126100000D01*
X149920000Y-123042929D02*
X149920000Y-123440000D01*
X150680000Y-123042929D02*
X150680000Y-123440000D01*
X149920000Y-132100000D02*
X149920000Y-126100000D01*
X150680000Y-132100000D02*
X149920000Y-132100000D01*
X150680000Y-126100000D02*
X150680000Y-132100000D01*
X151570000Y-123440000D02*
X151570000Y-126100000D01*
X152460000Y-123042929D02*
X152460000Y-123440000D01*
X153220000Y-123042929D02*
X153220000Y-123440000D01*
X152460000Y-132100000D02*
X152460000Y-126100000D01*
X153220000Y-132100000D02*
X152460000Y-132100000D01*
X153220000Y-126100000D02*
X153220000Y-132100000D01*
X154110000Y-123440000D02*
X154110000Y-126100000D01*
X155000000Y-123042929D02*
X155000000Y-123440000D01*
X155760000Y-123042929D02*
X155760000Y-123440000D01*
X155000000Y-132100000D02*
X155000000Y-126100000D01*
X155760000Y-132100000D02*
X155000000Y-132100000D01*
X155760000Y-126100000D02*
X155760000Y-132100000D01*
X156650000Y-123440000D02*
X156650000Y-126100000D01*
X157540000Y-123042929D02*
X157540000Y-123440000D01*
X158300000Y-123042929D02*
X158300000Y-123440000D01*
X157540000Y-132100000D02*
X157540000Y-126100000D01*
X158300000Y-132100000D02*
X157540000Y-132100000D01*
X158300000Y-126100000D02*
X158300000Y-132100000D01*
X159190000Y-123440000D02*
X159190000Y-126100000D01*
X160080000Y-123042929D02*
X160080000Y-123440000D01*
X160840000Y-123042929D02*
X160840000Y-123440000D01*
X160080000Y-132100000D02*
X160080000Y-126100000D01*
X160840000Y-132100000D02*
X160080000Y-132100000D01*
X160840000Y-126100000D02*
X160840000Y-132100000D01*
X161730000Y-123440000D02*
X161730000Y-126100000D01*
X162620000Y-123110000D02*
X162620000Y-123440000D01*
X163380000Y-123110000D02*
X163380000Y-123440000D01*
X162720000Y-126100000D02*
X162720000Y-132100000D01*
X162840000Y-126100000D02*
X162840000Y-132100000D01*
X162960000Y-126100000D02*
X162960000Y-132100000D01*
X163080000Y-126100000D02*
X163080000Y-132100000D01*
X163200000Y-126100000D02*
X163200000Y-132100000D01*
X163320000Y-126100000D02*
X163320000Y-132100000D01*
X162620000Y-132100000D02*
X162620000Y-126100000D01*
X163380000Y-132100000D02*
X162620000Y-132100000D01*
X163380000Y-126100000D02*
X163380000Y-132100000D01*
X164330000Y-126100000D02*
X164330000Y-123440000D01*
X143890000Y-126100000D02*
X164330000Y-126100000D01*
X143890000Y-123440000D02*
X143890000Y-126100000D01*
X164330000Y-123440000D02*
X143890000Y-123440000D01*
%TO.C,J10*%
D14*
X176722380Y-122809523D02*
X177436666Y-122809523D01*
X177579523Y-122857142D01*
X177674761Y-122952380D01*
X177722380Y-123095238D01*
X177722380Y-123190476D01*
X177722380Y-121809523D02*
X177722380Y-122380952D01*
X177722380Y-122095238D02*
X176722380Y-122095238D01*
X176865238Y-122190476D01*
X176960476Y-122285714D01*
X177008095Y-122380952D01*
X176722380Y-121190476D02*
X176722380Y-121095238D01*
X176770000Y-121000000D01*
X176817619Y-120952380D01*
X176912857Y-120904761D01*
X177103333Y-120857142D01*
X177341428Y-120857142D01*
X177531904Y-120904761D01*
X177627142Y-120952380D01*
X177674761Y-121000000D01*
X177722380Y-121095238D01*
X177722380Y-121190476D01*
X177674761Y-121285714D01*
X177627142Y-121333333D01*
X177531904Y-121380952D01*
X177341428Y-121428571D01*
X177103333Y-121428571D01*
X176912857Y-121380952D01*
X176817619Y-121333333D01*
X176770000Y-121285714D01*
X176722380Y-121190476D01*
%TO.C,J9*%
X188702380Y-122333333D02*
X189416666Y-122333333D01*
X189559523Y-122380952D01*
X189654761Y-122476190D01*
X189702380Y-122619047D01*
X189702380Y-122714285D01*
X189702380Y-121809523D02*
X189702380Y-121619047D01*
X189654761Y-121523809D01*
X189607142Y-121476190D01*
X189464285Y-121380952D01*
X189273809Y-121333333D01*
X188892857Y-121333333D01*
X188797619Y-121380952D01*
X188750000Y-121428571D01*
X188702380Y-121523809D01*
X188702380Y-121714285D01*
X188750000Y-121809523D01*
X188797619Y-121857142D01*
X188892857Y-121904761D01*
X189130952Y-121904761D01*
X189226190Y-121857142D01*
X189273809Y-121809523D01*
X189321428Y-121714285D01*
X189321428Y-121523809D01*
X189273809Y-121428571D01*
X189226190Y-121380952D01*
X189130952Y-121333333D01*
%TO.C,J8*%
X164722380Y-122333333D02*
X165436666Y-122333333D01*
X165579523Y-122380952D01*
X165674761Y-122476190D01*
X165722380Y-122619047D01*
X165722380Y-122714285D01*
X165150952Y-121714285D02*
X165103333Y-121809523D01*
X165055714Y-121857142D01*
X164960476Y-121904761D01*
X164912857Y-121904761D01*
X164817619Y-121857142D01*
X164770000Y-121809523D01*
X164722380Y-121714285D01*
X164722380Y-121523809D01*
X164770000Y-121428571D01*
X164817619Y-121380952D01*
X164912857Y-121333333D01*
X164960476Y-121333333D01*
X165055714Y-121380952D01*
X165103333Y-121428571D01*
X165150952Y-121523809D01*
X165150952Y-121714285D01*
X165198571Y-121809523D01*
X165246190Y-121857142D01*
X165341428Y-121904761D01*
X165531904Y-121904761D01*
X165627142Y-121857142D01*
X165674761Y-121809523D01*
X165722380Y-121714285D01*
X165722380Y-121523809D01*
X165674761Y-121428571D01*
X165627142Y-121380952D01*
X165531904Y-121333333D01*
X165341428Y-121333333D01*
X165246190Y-121380952D01*
X165198571Y-121428571D01*
X165150952Y-121523809D01*
%TD*%
%LPC*%
D15*
%TO.C,J10*%
X172460000Y-122000000D03*
D16*
X175000000Y-122000000D03*
%TD*%
D15*
%TO.C,J9*%
X184460000Y-122000000D03*
D16*
X187000000Y-122000000D03*
%TD*%
D15*
%TO.C,J8*%
X145220000Y-122000000D03*
X147760000Y-122000000D03*
X150300000Y-122000000D03*
X152840000Y-122000000D03*
X155380000Y-122000000D03*
X157920000Y-122000000D03*
X160460000Y-122000000D03*
D16*
X163000000Y-122000000D03*
%TD*%
D17*
%TO.C,J7*%
X111500000Y-105300000D03*
D18*
X111200000Y-112900000D03*
D17*
X104500000Y-108400000D03*
X102000000Y-110100000D03*
D19*
X107000000Y-101800000D03*
%TD*%
D17*
%TO.C,J6*%
X124500000Y-105300000D03*
D18*
X124200000Y-112900000D03*
D17*
X117500000Y-108400000D03*
X115000000Y-110100000D03*
D19*
X120000000Y-101800000D03*
%TD*%
D17*
%TO.C,J5*%
X137500000Y-105300000D03*
D18*
X137200000Y-112900000D03*
D17*
X130500000Y-108400000D03*
X128000000Y-110100000D03*
D19*
X133000000Y-101800000D03*
%TD*%
D17*
%TO.C,J4*%
X150500000Y-105300000D03*
D18*
X150200000Y-112900000D03*
D17*
X143500000Y-108400000D03*
X141000000Y-110100000D03*
D19*
X146000000Y-101800000D03*
%TD*%
D17*
%TO.C,J3*%
X163500000Y-105300000D03*
D18*
X163200000Y-112900000D03*
D17*
X156500000Y-108400000D03*
X154000000Y-110100000D03*
D19*
X159000000Y-101800000D03*
%TD*%
D17*
%TO.C,J2*%
X176500000Y-105300000D03*
D18*
X176200000Y-112900000D03*
D17*
X169500000Y-108400000D03*
X167000000Y-110100000D03*
D19*
X172000000Y-101800000D03*
%TD*%
D17*
%TO.C,J1*%
X189500000Y-105300000D03*
D18*
X189200000Y-112900000D03*
D17*
X182500000Y-108400000D03*
X180000000Y-110100000D03*
D19*
X185000000Y-101800000D03*
%TD*%
M02*
