%TF.GenerationSoftware,KiCad,Pcbnew,5.1.9+dfsg1-1*%
%TF.CreationDate,2021-03-30T03:15:21-07:00*%
%TF.ProjectId,hygrometer_connector_board,68796772-6f6d-4657-9465-725f636f6e6e,1.0*%
%TF.SameCoordinates,Original*%
%TF.FileFunction,OtherDrawing,Comment*%
%FSLAX46Y46*%
G04 Gerber Fmt 4.6, Leading zero omitted, Abs format (unit mm)*
G04 Created by KiCad (PCBNEW 5.1.9+dfsg1-1) date 2021-03-30 03:15:21*
%MOMM*%
%LPD*%
G01*
G04 APERTURE LIST*
%ADD10C,0.150000*%
G04 APERTURE END LIST*
D10*
X193000000Y-127000000D02*
X194000000Y-127000000D01*
X193000000Y-127000000D02*
X193000000Y-128000000D01*
X195000000Y-129000000D02*
X193000000Y-127000000D01*
X195000000Y-134000000D02*
X195000000Y-129000000D01*
X196000000Y-135000000D02*
X195000000Y-134000000D01*
X198000000Y-135000000D02*
X196000000Y-135000000D01*
X200000000Y-133000000D02*
X198000000Y-135000000D01*
X198000000Y-133000000D02*
X212000000Y-133000000D01*
X198668928Y-131928571D02*
X198811785Y-131976190D01*
X198859404Y-132023809D01*
X198907023Y-132119047D01*
X198907023Y-132261904D01*
X198859404Y-132357142D01*
X198811785Y-132404761D01*
X198716547Y-132452380D01*
X198335595Y-132452380D01*
X198335595Y-131452380D01*
X198668928Y-131452380D01*
X198764166Y-131500000D01*
X198811785Y-131547619D01*
X198859404Y-131642857D01*
X198859404Y-131738095D01*
X198811785Y-131833333D01*
X198764166Y-131880952D01*
X198668928Y-131928571D01*
X198335595Y-131928571D01*
X199478452Y-132452380D02*
X199383214Y-132404761D01*
X199335595Y-132357142D01*
X199287976Y-132261904D01*
X199287976Y-131976190D01*
X199335595Y-131880952D01*
X199383214Y-131833333D01*
X199478452Y-131785714D01*
X199621309Y-131785714D01*
X199716547Y-131833333D01*
X199764166Y-131880952D01*
X199811785Y-131976190D01*
X199811785Y-132261904D01*
X199764166Y-132357142D01*
X199716547Y-132404761D01*
X199621309Y-132452380D01*
X199478452Y-132452380D01*
X200668928Y-132452380D02*
X200668928Y-131928571D01*
X200621309Y-131833333D01*
X200526071Y-131785714D01*
X200335595Y-131785714D01*
X200240357Y-131833333D01*
X200668928Y-132404761D02*
X200573690Y-132452380D01*
X200335595Y-132452380D01*
X200240357Y-132404761D01*
X200192738Y-132309523D01*
X200192738Y-132214285D01*
X200240357Y-132119047D01*
X200335595Y-132071428D01*
X200573690Y-132071428D01*
X200668928Y-132023809D01*
X201145119Y-132452380D02*
X201145119Y-131785714D01*
X201145119Y-131976190D02*
X201192738Y-131880952D01*
X201240357Y-131833333D01*
X201335595Y-131785714D01*
X201430833Y-131785714D01*
X202192738Y-132452380D02*
X202192738Y-131452380D01*
X202192738Y-132404761D02*
X202097500Y-132452380D01*
X201907023Y-132452380D01*
X201811785Y-132404761D01*
X201764166Y-132357142D01*
X201716547Y-132261904D01*
X201716547Y-131976190D01*
X201764166Y-131880952D01*
X201811785Y-131833333D01*
X201907023Y-131785714D01*
X202097500Y-131785714D01*
X202192738Y-131833333D01*
X203859404Y-132452380D02*
X203859404Y-131452380D01*
X203859404Y-132404761D02*
X203764166Y-132452380D01*
X203573690Y-132452380D01*
X203478452Y-132404761D01*
X203430833Y-132357142D01*
X203383214Y-132261904D01*
X203383214Y-131976190D01*
X203430833Y-131880952D01*
X203478452Y-131833333D01*
X203573690Y-131785714D01*
X203764166Y-131785714D01*
X203859404Y-131833333D01*
X204335595Y-132452380D02*
X204335595Y-131785714D01*
X204335595Y-131452380D02*
X204287976Y-131500000D01*
X204335595Y-131547619D01*
X204383214Y-131500000D01*
X204335595Y-131452380D01*
X204335595Y-131547619D01*
X204811785Y-132452380D02*
X204811785Y-131785714D01*
X204811785Y-131880952D02*
X204859404Y-131833333D01*
X204954642Y-131785714D01*
X205097500Y-131785714D01*
X205192738Y-131833333D01*
X205240357Y-131928571D01*
X205240357Y-132452380D01*
X205240357Y-131928571D02*
X205287976Y-131833333D01*
X205383214Y-131785714D01*
X205526071Y-131785714D01*
X205621309Y-131833333D01*
X205668928Y-131928571D01*
X205668928Y-132452380D01*
X206526071Y-132404761D02*
X206430833Y-132452380D01*
X206240357Y-132452380D01*
X206145119Y-132404761D01*
X206097500Y-132309523D01*
X206097500Y-131928571D01*
X206145119Y-131833333D01*
X206240357Y-131785714D01*
X206430833Y-131785714D01*
X206526071Y-131833333D01*
X206573690Y-131928571D01*
X206573690Y-132023809D01*
X206097500Y-132119047D01*
X207002261Y-131785714D02*
X207002261Y-132452380D01*
X207002261Y-131880952D02*
X207049880Y-131833333D01*
X207145119Y-131785714D01*
X207287976Y-131785714D01*
X207383214Y-131833333D01*
X207430833Y-131928571D01*
X207430833Y-132452380D01*
X207859404Y-132404761D02*
X207954642Y-132452380D01*
X208145119Y-132452380D01*
X208240357Y-132404761D01*
X208287976Y-132309523D01*
X208287976Y-132261904D01*
X208240357Y-132166666D01*
X208145119Y-132119047D01*
X208002261Y-132119047D01*
X207907023Y-132071428D01*
X207859404Y-131976190D01*
X207859404Y-131928571D01*
X207907023Y-131833333D01*
X208002261Y-131785714D01*
X208145119Y-131785714D01*
X208240357Y-131833333D01*
X208716547Y-132452380D02*
X208716547Y-131785714D01*
X208716547Y-131452380D02*
X208668928Y-131500000D01*
X208716547Y-131547619D01*
X208764166Y-131500000D01*
X208716547Y-131452380D01*
X208716547Y-131547619D01*
X209335595Y-132452380D02*
X209240357Y-132404761D01*
X209192738Y-132357142D01*
X209145119Y-132261904D01*
X209145119Y-131976190D01*
X209192738Y-131880952D01*
X209240357Y-131833333D01*
X209335595Y-131785714D01*
X209478452Y-131785714D01*
X209573690Y-131833333D01*
X209621309Y-131880952D01*
X209668928Y-131976190D01*
X209668928Y-132261904D01*
X209621309Y-132357142D01*
X209573690Y-132404761D01*
X209478452Y-132452380D01*
X209335595Y-132452380D01*
X210097500Y-131785714D02*
X210097500Y-132452380D01*
X210097500Y-131880952D02*
X210145119Y-131833333D01*
X210240357Y-131785714D01*
X210383214Y-131785714D01*
X210478452Y-131833333D01*
X210526071Y-131928571D01*
X210526071Y-132452380D01*
X210954642Y-132404761D02*
X211049880Y-132452380D01*
X211240357Y-132452380D01*
X211335595Y-132404761D01*
X211383214Y-132309523D01*
X211383214Y-132261904D01*
X211335595Y-132166666D01*
X211240357Y-132119047D01*
X211097500Y-132119047D01*
X211002261Y-132071428D01*
X210954642Y-131976190D01*
X210954642Y-131928571D01*
X211002261Y-131833333D01*
X211097500Y-131785714D01*
X211240357Y-131785714D01*
X211335595Y-131833333D01*
X200002380Y-108982142D02*
X200050000Y-109029761D01*
X200097619Y-109125000D01*
X200097619Y-109363095D01*
X200050000Y-109458333D01*
X200002380Y-109505952D01*
X199907142Y-109553571D01*
X199811904Y-109553571D01*
X199669047Y-109505952D01*
X199097619Y-108934523D01*
X199097619Y-109553571D01*
X200097619Y-110458333D02*
X200097619Y-109982142D01*
X199621428Y-109934523D01*
X199669047Y-109982142D01*
X199716666Y-110077380D01*
X199716666Y-110315476D01*
X199669047Y-110410714D01*
X199621428Y-110458333D01*
X199526190Y-110505952D01*
X199288095Y-110505952D01*
X199192857Y-110458333D01*
X199145238Y-110410714D01*
X199097619Y-110315476D01*
X199097619Y-110077380D01*
X199145238Y-109982142D01*
X199192857Y-109934523D01*
X199192857Y-110934523D02*
X199145238Y-110982142D01*
X199097619Y-110934523D01*
X199145238Y-110886904D01*
X199192857Y-110934523D01*
X199097619Y-110934523D01*
X200097619Y-111315476D02*
X200097619Y-111982142D01*
X199097619Y-111553571D01*
X200097619Y-112839285D02*
X200097619Y-112363095D01*
X199621428Y-112315476D01*
X199669047Y-112363095D01*
X199716666Y-112458333D01*
X199716666Y-112696428D01*
X199669047Y-112791666D01*
X199621428Y-112839285D01*
X199526190Y-112886904D01*
X199288095Y-112886904D01*
X199192857Y-112839285D01*
X199145238Y-112791666D01*
X199097619Y-112696428D01*
X199097619Y-112458333D01*
X199145238Y-112363095D01*
X199192857Y-112315476D01*
X200097619Y-113505952D02*
X200097619Y-113601190D01*
X200050000Y-113696428D01*
X200002380Y-113744047D01*
X199907142Y-113791666D01*
X199716666Y-113839285D01*
X199478571Y-113839285D01*
X199288095Y-113791666D01*
X199192857Y-113744047D01*
X199145238Y-113696428D01*
X199097619Y-113601190D01*
X199097619Y-113505952D01*
X199145238Y-113410714D01*
X199192857Y-113363095D01*
X199288095Y-113315476D01*
X199478571Y-113267857D01*
X199716666Y-113267857D01*
X199907142Y-113315476D01*
X200002380Y-113363095D01*
X200050000Y-113410714D01*
X200097619Y-113505952D01*
X199097619Y-115029761D02*
X199764285Y-115029761D01*
X199669047Y-115029761D02*
X199716666Y-115077380D01*
X199764285Y-115172619D01*
X199764285Y-115315476D01*
X199716666Y-115410714D01*
X199621428Y-115458333D01*
X199097619Y-115458333D01*
X199621428Y-115458333D02*
X199716666Y-115505952D01*
X199764285Y-115601190D01*
X199764285Y-115744047D01*
X199716666Y-115839285D01*
X199621428Y-115886904D01*
X199097619Y-115886904D01*
X199097619Y-116363095D02*
X199764285Y-116363095D01*
X199669047Y-116363095D02*
X199716666Y-116410714D01*
X199764285Y-116505952D01*
X199764285Y-116648809D01*
X199716666Y-116744047D01*
X199621428Y-116791666D01*
X199097619Y-116791666D01*
X199621428Y-116791666D02*
X199716666Y-116839285D01*
X199764285Y-116934523D01*
X199764285Y-117077380D01*
X199716666Y-117172619D01*
X199621428Y-117220238D01*
X199097619Y-117220238D01*
X198250000Y-100250000D02*
X198250000Y-126000000D01*
X190750000Y-100250000D02*
X198836421Y-100250000D01*
X190750000Y-126000000D02*
X198836421Y-126000000D01*
X198250000Y-126000000D02*
X197663579Y-124873496D01*
X198250000Y-126000000D02*
X198836421Y-124873496D01*
X198250000Y-100250000D02*
X197663579Y-101376504D01*
X198250000Y-100250000D02*
X198836421Y-101376504D01*
X141952380Y-137502380D02*
X142142857Y-137502380D01*
X142238095Y-137454761D01*
X142285714Y-137407142D01*
X142380952Y-137264285D01*
X142428571Y-137073809D01*
X142428571Y-136692857D01*
X142380952Y-136597619D01*
X142333333Y-136550000D01*
X142238095Y-136502380D01*
X142047619Y-136502380D01*
X141952380Y-136550000D01*
X141904761Y-136597619D01*
X141857142Y-136692857D01*
X141857142Y-136930952D01*
X141904761Y-137026190D01*
X141952380Y-137073809D01*
X142047619Y-137121428D01*
X142238095Y-137121428D01*
X142333333Y-137073809D01*
X142380952Y-137026190D01*
X142428571Y-136930952D01*
X143380952Y-137502380D02*
X142809523Y-137502380D01*
X143095238Y-137502380D02*
X143095238Y-136502380D01*
X143000000Y-136645238D01*
X142904761Y-136740476D01*
X142809523Y-136788095D01*
X143809523Y-137407142D02*
X143857142Y-137454761D01*
X143809523Y-137502380D01*
X143761904Y-137454761D01*
X143809523Y-137407142D01*
X143809523Y-137502380D01*
X144476190Y-136502380D02*
X144571428Y-136502380D01*
X144666666Y-136550000D01*
X144714285Y-136597619D01*
X144761904Y-136692857D01*
X144809523Y-136883333D01*
X144809523Y-137121428D01*
X144761904Y-137311904D01*
X144714285Y-137407142D01*
X144666666Y-137454761D01*
X144571428Y-137502380D01*
X144476190Y-137502380D01*
X144380952Y-137454761D01*
X144333333Y-137407142D01*
X144285714Y-137311904D01*
X144238095Y-137121428D01*
X144238095Y-136883333D01*
X144285714Y-136692857D01*
X144333333Y-136597619D01*
X144380952Y-136550000D01*
X144476190Y-136502380D01*
X145428571Y-136502380D02*
X145523809Y-136502380D01*
X145619047Y-136550000D01*
X145666666Y-136597619D01*
X145714285Y-136692857D01*
X145761904Y-136883333D01*
X145761904Y-137121428D01*
X145714285Y-137311904D01*
X145666666Y-137407142D01*
X145619047Y-137454761D01*
X145523809Y-137502380D01*
X145428571Y-137502380D01*
X145333333Y-137454761D01*
X145285714Y-137407142D01*
X145238095Y-137311904D01*
X145190476Y-137121428D01*
X145190476Y-136883333D01*
X145238095Y-136692857D01*
X145285714Y-136597619D01*
X145333333Y-136550000D01*
X145428571Y-136502380D01*
X146380952Y-136502380D02*
X146476190Y-136502380D01*
X146571428Y-136550000D01*
X146619047Y-136597619D01*
X146666666Y-136692857D01*
X146714285Y-136883333D01*
X146714285Y-137121428D01*
X146666666Y-137311904D01*
X146619047Y-137407142D01*
X146571428Y-137454761D01*
X146476190Y-137502380D01*
X146380952Y-137502380D01*
X146285714Y-137454761D01*
X146238095Y-137407142D01*
X146190476Y-137311904D01*
X146142857Y-137121428D01*
X146142857Y-136883333D01*
X146190476Y-136692857D01*
X146238095Y-136597619D01*
X146285714Y-136550000D01*
X146380952Y-136502380D01*
X147904761Y-137502380D02*
X147904761Y-136835714D01*
X147904761Y-136930952D02*
X147952380Y-136883333D01*
X148047619Y-136835714D01*
X148190476Y-136835714D01*
X148285714Y-136883333D01*
X148333333Y-136978571D01*
X148333333Y-137502380D01*
X148333333Y-136978571D02*
X148380952Y-136883333D01*
X148476190Y-136835714D01*
X148619047Y-136835714D01*
X148714285Y-136883333D01*
X148761904Y-136978571D01*
X148761904Y-137502380D01*
X149238095Y-137502380D02*
X149238095Y-136835714D01*
X149238095Y-136930952D02*
X149285714Y-136883333D01*
X149380952Y-136835714D01*
X149523809Y-136835714D01*
X149619047Y-136883333D01*
X149666666Y-136978571D01*
X149666666Y-137502380D01*
X149666666Y-136978571D02*
X149714285Y-136883333D01*
X149809523Y-136835714D01*
X149952380Y-136835714D01*
X150047619Y-136883333D01*
X150095238Y-136978571D01*
X150095238Y-137502380D01*
X100500000Y-135750000D02*
X191500000Y-135750000D01*
X100500000Y-125250000D02*
X100500000Y-136336421D01*
X191500000Y-125250000D02*
X191500000Y-136336421D01*
X191500000Y-135750000D02*
X190373496Y-136336421D01*
X191500000Y-135750000D02*
X190373496Y-135163579D01*
X100500000Y-135750000D02*
X101626504Y-136336421D01*
X100500000Y-135750000D02*
X101626504Y-135163579D01*
X98000000Y-98000000D02*
X97000000Y-98000000D01*
X98000000Y-97000000D02*
X98000000Y-98000000D01*
X98000000Y-98000000D02*
X98000000Y-97000000D01*
X94000000Y-94000000D02*
X98000000Y-98000000D01*
X74000000Y-94000000D02*
X96000000Y-94000000D01*
X74526071Y-90627380D02*
X74716547Y-90627380D01*
X74811785Y-90675000D01*
X74907023Y-90770238D01*
X74954642Y-90960714D01*
X74954642Y-91294047D01*
X74907023Y-91484523D01*
X74811785Y-91579761D01*
X74716547Y-91627380D01*
X74526071Y-91627380D01*
X74430833Y-91579761D01*
X74335595Y-91484523D01*
X74287976Y-91294047D01*
X74287976Y-90960714D01*
X74335595Y-90770238D01*
X74430833Y-90675000D01*
X74526071Y-90627380D01*
X75811785Y-90960714D02*
X75811785Y-91627380D01*
X75383214Y-90960714D02*
X75383214Y-91484523D01*
X75430833Y-91579761D01*
X75526071Y-91627380D01*
X75668928Y-91627380D01*
X75764166Y-91579761D01*
X75811785Y-91532142D01*
X76145119Y-90960714D02*
X76526071Y-90960714D01*
X76287976Y-90627380D02*
X76287976Y-91484523D01*
X76335595Y-91579761D01*
X76430833Y-91627380D01*
X76526071Y-91627380D01*
X77002261Y-91627380D02*
X76907023Y-91579761D01*
X76859404Y-91484523D01*
X76859404Y-90627380D01*
X77383214Y-91627380D02*
X77383214Y-90960714D01*
X77383214Y-90627380D02*
X77335595Y-90675000D01*
X77383214Y-90722619D01*
X77430833Y-90675000D01*
X77383214Y-90627380D01*
X77383214Y-90722619D01*
X77859404Y-90960714D02*
X77859404Y-91627380D01*
X77859404Y-91055952D02*
X77907023Y-91008333D01*
X78002261Y-90960714D01*
X78145119Y-90960714D01*
X78240357Y-91008333D01*
X78287976Y-91103571D01*
X78287976Y-91627380D01*
X79145119Y-91579761D02*
X79049880Y-91627380D01*
X78859404Y-91627380D01*
X78764166Y-91579761D01*
X78716547Y-91484523D01*
X78716547Y-91103571D01*
X78764166Y-91008333D01*
X78859404Y-90960714D01*
X79049880Y-90960714D01*
X79145119Y-91008333D01*
X79192738Y-91103571D01*
X79192738Y-91198809D01*
X78716547Y-91294047D01*
X80526071Y-91627380D02*
X80430833Y-91579761D01*
X80383214Y-91532142D01*
X80335595Y-91436904D01*
X80335595Y-91151190D01*
X80383214Y-91055952D01*
X80430833Y-91008333D01*
X80526071Y-90960714D01*
X80668928Y-90960714D01*
X80764166Y-91008333D01*
X80811785Y-91055952D01*
X80859404Y-91151190D01*
X80859404Y-91436904D01*
X80811785Y-91532142D01*
X80764166Y-91579761D01*
X80668928Y-91627380D01*
X80526071Y-91627380D01*
X81145119Y-90960714D02*
X81526071Y-90960714D01*
X81287976Y-91627380D02*
X81287976Y-90770238D01*
X81335595Y-90675000D01*
X81430833Y-90627380D01*
X81526071Y-90627380D01*
X82526071Y-90627380D02*
X83145119Y-90627380D01*
X82811785Y-91008333D01*
X82954642Y-91008333D01*
X83049880Y-91055952D01*
X83097500Y-91103571D01*
X83145119Y-91198809D01*
X83145119Y-91436904D01*
X83097500Y-91532142D01*
X83049880Y-91579761D01*
X82954642Y-91627380D01*
X82668928Y-91627380D01*
X82573690Y-91579761D01*
X82526071Y-91532142D01*
X84002261Y-91627380D02*
X84002261Y-90627380D01*
X84002261Y-91579761D02*
X83907023Y-91627380D01*
X83716547Y-91627380D01*
X83621309Y-91579761D01*
X83573690Y-91532142D01*
X83526071Y-91436904D01*
X83526071Y-91151190D01*
X83573690Y-91055952D01*
X83621309Y-91008333D01*
X83716547Y-90960714D01*
X83907023Y-90960714D01*
X84002261Y-91008333D01*
X85240357Y-90960714D02*
X85240357Y-91960714D01*
X85240357Y-91008333D02*
X85335595Y-90960714D01*
X85526071Y-90960714D01*
X85621309Y-91008333D01*
X85668928Y-91055952D01*
X85716547Y-91151190D01*
X85716547Y-91436904D01*
X85668928Y-91532142D01*
X85621309Y-91579761D01*
X85526071Y-91627380D01*
X85335595Y-91627380D01*
X85240357Y-91579761D01*
X86145119Y-91627380D02*
X86145119Y-90960714D01*
X86145119Y-91151190D02*
X86192738Y-91055952D01*
X86240357Y-91008333D01*
X86335595Y-90960714D01*
X86430833Y-90960714D01*
X86764166Y-91627380D02*
X86764166Y-90960714D01*
X86764166Y-90627380D02*
X86716547Y-90675000D01*
X86764166Y-90722619D01*
X86811785Y-90675000D01*
X86764166Y-90627380D01*
X86764166Y-90722619D01*
X87240357Y-90960714D02*
X87240357Y-91627380D01*
X87240357Y-91055952D02*
X87287976Y-91008333D01*
X87383214Y-90960714D01*
X87526071Y-90960714D01*
X87621309Y-91008333D01*
X87668928Y-91103571D01*
X87668928Y-91627380D01*
X88002261Y-90960714D02*
X88383214Y-90960714D01*
X88145119Y-90627380D02*
X88145119Y-91484523D01*
X88192738Y-91579761D01*
X88287976Y-91627380D01*
X88383214Y-91627380D01*
X89097500Y-91579761D02*
X89002261Y-91627380D01*
X88811785Y-91627380D01*
X88716547Y-91579761D01*
X88668928Y-91484523D01*
X88668928Y-91103571D01*
X88716547Y-91008333D01*
X88811785Y-90960714D01*
X89002261Y-90960714D01*
X89097500Y-91008333D01*
X89145119Y-91103571D01*
X89145119Y-91198809D01*
X88668928Y-91294047D01*
X90002261Y-91627380D02*
X90002261Y-90627380D01*
X90002261Y-91579761D02*
X89907023Y-91627380D01*
X89716547Y-91627380D01*
X89621309Y-91579761D01*
X89573690Y-91532142D01*
X89526071Y-91436904D01*
X89526071Y-91151190D01*
X89573690Y-91055952D01*
X89621309Y-91008333D01*
X89716547Y-90960714D01*
X89907023Y-90960714D01*
X90002261Y-91008333D01*
X91240357Y-90960714D02*
X91240357Y-91960714D01*
X91240357Y-91008333D02*
X91335595Y-90960714D01*
X91526071Y-90960714D01*
X91621309Y-91008333D01*
X91668928Y-91055952D01*
X91716547Y-91151190D01*
X91716547Y-91436904D01*
X91668928Y-91532142D01*
X91621309Y-91579761D01*
X91526071Y-91627380D01*
X91335595Y-91627380D01*
X91240357Y-91579761D01*
X92287976Y-91627380D02*
X92192738Y-91579761D01*
X92145119Y-91532142D01*
X92097500Y-91436904D01*
X92097500Y-91151190D01*
X92145119Y-91055952D01*
X92192738Y-91008333D01*
X92287976Y-90960714D01*
X92430833Y-90960714D01*
X92526071Y-91008333D01*
X92573690Y-91055952D01*
X92621309Y-91151190D01*
X92621309Y-91436904D01*
X92573690Y-91532142D01*
X92526071Y-91579761D01*
X92430833Y-91627380D01*
X92287976Y-91627380D01*
X93478452Y-91579761D02*
X93383214Y-91627380D01*
X93192738Y-91627380D01*
X93097500Y-91579761D01*
X93049880Y-91532142D01*
X93002261Y-91436904D01*
X93002261Y-91151190D01*
X93049880Y-91055952D01*
X93097500Y-91008333D01*
X93192738Y-90960714D01*
X93383214Y-90960714D01*
X93478452Y-91008333D01*
X93907023Y-91627380D02*
X93907023Y-90627380D01*
X94002261Y-91246428D02*
X94287976Y-91627380D01*
X94287976Y-90960714D02*
X93907023Y-91341666D01*
X95097500Y-91579761D02*
X95002261Y-91627380D01*
X94811785Y-91627380D01*
X94716547Y-91579761D01*
X94668928Y-91484523D01*
X94668928Y-91103571D01*
X94716547Y-91008333D01*
X94811785Y-90960714D01*
X95002261Y-90960714D01*
X95097500Y-91008333D01*
X95145119Y-91103571D01*
X95145119Y-91198809D01*
X94668928Y-91294047D01*
X95430833Y-90960714D02*
X95811785Y-90960714D01*
X95573690Y-90627380D02*
X95573690Y-91484523D01*
X95621309Y-91579761D01*
X95716547Y-91627380D01*
X95811785Y-91627380D01*
X74335595Y-93277380D02*
X74335595Y-92277380D01*
X74335595Y-92658333D02*
X74430833Y-92610714D01*
X74621309Y-92610714D01*
X74716547Y-92658333D01*
X74764166Y-92705952D01*
X74811785Y-92801190D01*
X74811785Y-93086904D01*
X74764166Y-93182142D01*
X74716547Y-93229761D01*
X74621309Y-93277380D01*
X74430833Y-93277380D01*
X74335595Y-93229761D01*
X75621309Y-93229761D02*
X75526071Y-93277380D01*
X75335595Y-93277380D01*
X75240357Y-93229761D01*
X75192738Y-93134523D01*
X75192738Y-92753571D01*
X75240357Y-92658333D01*
X75335595Y-92610714D01*
X75526071Y-92610714D01*
X75621309Y-92658333D01*
X75668928Y-92753571D01*
X75668928Y-92848809D01*
X75192738Y-92944047D01*
X76097500Y-93277380D02*
X76097500Y-92277380D01*
X76526071Y-93277380D02*
X76526071Y-92753571D01*
X76478452Y-92658333D01*
X76383214Y-92610714D01*
X76240357Y-92610714D01*
X76145119Y-92658333D01*
X76097500Y-92705952D01*
X77002261Y-93277380D02*
X77002261Y-92610714D01*
X77002261Y-92277380D02*
X76954642Y-92325000D01*
X77002261Y-92372619D01*
X77049880Y-92325000D01*
X77002261Y-92277380D01*
X77002261Y-92372619D01*
X77478452Y-92610714D02*
X77478452Y-93277380D01*
X77478452Y-92705952D02*
X77526071Y-92658333D01*
X77621309Y-92610714D01*
X77764166Y-92610714D01*
X77859404Y-92658333D01*
X77907023Y-92753571D01*
X77907023Y-93277380D01*
X78811785Y-93277380D02*
X78811785Y-92277380D01*
X78811785Y-93229761D02*
X78716547Y-93277380D01*
X78526071Y-93277380D01*
X78430833Y-93229761D01*
X78383214Y-93182142D01*
X78335595Y-93086904D01*
X78335595Y-92801190D01*
X78383214Y-92705952D01*
X78430833Y-92658333D01*
X78526071Y-92610714D01*
X78716547Y-92610714D01*
X78811785Y-92658333D01*
X80002261Y-93229761D02*
X80097500Y-93277380D01*
X80287976Y-93277380D01*
X80383214Y-93229761D01*
X80430833Y-93134523D01*
X80430833Y-93086904D01*
X80383214Y-92991666D01*
X80287976Y-92944047D01*
X80145119Y-92944047D01*
X80049880Y-92896428D01*
X80002261Y-92801190D01*
X80002261Y-92753571D01*
X80049880Y-92658333D01*
X80145119Y-92610714D01*
X80287976Y-92610714D01*
X80383214Y-92658333D01*
X81240357Y-93229761D02*
X81145119Y-93277380D01*
X80954642Y-93277380D01*
X80859404Y-93229761D01*
X80811785Y-93134523D01*
X80811785Y-92753571D01*
X80859404Y-92658333D01*
X80954642Y-92610714D01*
X81145119Y-92610714D01*
X81240357Y-92658333D01*
X81287976Y-92753571D01*
X81287976Y-92848809D01*
X80811785Y-92944047D01*
X81716547Y-92610714D02*
X81716547Y-93277380D01*
X81716547Y-92705952D02*
X81764166Y-92658333D01*
X81859404Y-92610714D01*
X82002261Y-92610714D01*
X82097500Y-92658333D01*
X82145119Y-92753571D01*
X82145119Y-93277380D01*
X82573690Y-93229761D02*
X82668928Y-93277380D01*
X82859404Y-93277380D01*
X82954642Y-93229761D01*
X83002261Y-93134523D01*
X83002261Y-93086904D01*
X82954642Y-92991666D01*
X82859404Y-92944047D01*
X82716547Y-92944047D01*
X82621309Y-92896428D01*
X82573690Y-92801190D01*
X82573690Y-92753571D01*
X82621309Y-92658333D01*
X82716547Y-92610714D01*
X82859404Y-92610714D01*
X82954642Y-92658333D01*
X83573690Y-93277380D02*
X83478452Y-93229761D01*
X83430833Y-93182142D01*
X83383214Y-93086904D01*
X83383214Y-92801190D01*
X83430833Y-92705952D01*
X83478452Y-92658333D01*
X83573690Y-92610714D01*
X83716547Y-92610714D01*
X83811785Y-92658333D01*
X83859404Y-92705952D01*
X83907023Y-92801190D01*
X83907023Y-93086904D01*
X83859404Y-93182142D01*
X83811785Y-93229761D01*
X83716547Y-93277380D01*
X83573690Y-93277380D01*
X84335595Y-93277380D02*
X84335595Y-92610714D01*
X84335595Y-92801190D02*
X84383214Y-92705952D01*
X84430833Y-92658333D01*
X84526071Y-92610714D01*
X84621309Y-92610714D01*
X85716547Y-92610714D02*
X85716547Y-93467857D01*
X85668928Y-93563095D01*
X85573690Y-93610714D01*
X85526071Y-93610714D01*
X85716547Y-92277380D02*
X85668928Y-92325000D01*
X85716547Y-92372619D01*
X85764166Y-92325000D01*
X85716547Y-92277380D01*
X85716547Y-92372619D01*
X86621309Y-93277380D02*
X86621309Y-92753571D01*
X86573690Y-92658333D01*
X86478452Y-92610714D01*
X86287976Y-92610714D01*
X86192738Y-92658333D01*
X86621309Y-93229761D02*
X86526071Y-93277380D01*
X86287976Y-93277380D01*
X86192738Y-93229761D01*
X86145119Y-93134523D01*
X86145119Y-93039285D01*
X86192738Y-92944047D01*
X86287976Y-92896428D01*
X86526071Y-92896428D01*
X86621309Y-92848809D01*
X87526071Y-93229761D02*
X87430833Y-93277380D01*
X87240357Y-93277380D01*
X87145119Y-93229761D01*
X87097500Y-93182142D01*
X87049880Y-93086904D01*
X87049880Y-92801190D01*
X87097500Y-92705952D01*
X87145119Y-92658333D01*
X87240357Y-92610714D01*
X87430833Y-92610714D01*
X87526071Y-92658333D01*
X87954642Y-93277380D02*
X87954642Y-92277380D01*
X88049880Y-92896428D02*
X88335595Y-93277380D01*
X88335595Y-92610714D02*
X87954642Y-92991666D01*
X89526071Y-92610714D02*
X89526071Y-93610714D01*
X89526071Y-92658333D02*
X89621309Y-92610714D01*
X89811785Y-92610714D01*
X89907023Y-92658333D01*
X89954642Y-92705952D01*
X90002261Y-92801190D01*
X90002261Y-93086904D01*
X89954642Y-93182142D01*
X89907023Y-93229761D01*
X89811785Y-93277380D01*
X89621309Y-93277380D01*
X89526071Y-93229761D01*
X90859404Y-93277380D02*
X90859404Y-92753571D01*
X90811785Y-92658333D01*
X90716547Y-92610714D01*
X90526071Y-92610714D01*
X90430833Y-92658333D01*
X90859404Y-93229761D02*
X90764166Y-93277380D01*
X90526071Y-93277380D01*
X90430833Y-93229761D01*
X90383214Y-93134523D01*
X90383214Y-93039285D01*
X90430833Y-92944047D01*
X90526071Y-92896428D01*
X90764166Y-92896428D01*
X90859404Y-92848809D01*
X91335595Y-92610714D02*
X91335595Y-93277380D01*
X91335595Y-92705952D02*
X91383214Y-92658333D01*
X91478452Y-92610714D01*
X91621309Y-92610714D01*
X91716547Y-92658333D01*
X91764166Y-92753571D01*
X91764166Y-93277380D01*
X92621309Y-93229761D02*
X92526071Y-93277380D01*
X92335595Y-93277380D01*
X92240357Y-93229761D01*
X92192738Y-93134523D01*
X92192738Y-92753571D01*
X92240357Y-92658333D01*
X92335595Y-92610714D01*
X92526071Y-92610714D01*
X92621309Y-92658333D01*
X92668928Y-92753571D01*
X92668928Y-92848809D01*
X92192738Y-92944047D01*
X93240357Y-93277380D02*
X93145119Y-93229761D01*
X93097500Y-93134523D01*
X93097500Y-92277380D01*
X94247619Y-104428571D02*
X94247619Y-103857142D01*
X94247619Y-104142857D02*
X95247619Y-104142857D01*
X95104761Y-104047619D01*
X95009523Y-103952380D01*
X94961904Y-103857142D01*
X95247619Y-105285714D02*
X95247619Y-105095238D01*
X95200000Y-105000000D01*
X95152380Y-104952380D01*
X95009523Y-104857142D01*
X94819047Y-104809523D01*
X94438095Y-104809523D01*
X94342857Y-104857142D01*
X94295238Y-104904761D01*
X94247619Y-105000000D01*
X94247619Y-105190476D01*
X94295238Y-105285714D01*
X94342857Y-105333333D01*
X94438095Y-105380952D01*
X94676190Y-105380952D01*
X94771428Y-105333333D01*
X94819047Y-105285714D01*
X94866666Y-105190476D01*
X94866666Y-105000000D01*
X94819047Y-104904761D01*
X94771428Y-104857142D01*
X94676190Y-104809523D01*
X94342857Y-105809523D02*
X94295238Y-105857142D01*
X94247619Y-105809523D01*
X94295238Y-105761904D01*
X94342857Y-105809523D01*
X94247619Y-105809523D01*
X95247619Y-106476190D02*
X95247619Y-106571428D01*
X95200000Y-106666666D01*
X95152380Y-106714285D01*
X95057142Y-106761904D01*
X94866666Y-106809523D01*
X94628571Y-106809523D01*
X94438095Y-106761904D01*
X94342857Y-106714285D01*
X94295238Y-106666666D01*
X94247619Y-106571428D01*
X94247619Y-106476190D01*
X94295238Y-106380952D01*
X94342857Y-106333333D01*
X94438095Y-106285714D01*
X94628571Y-106238095D01*
X94866666Y-106238095D01*
X95057142Y-106285714D01*
X95152380Y-106333333D01*
X95200000Y-106380952D01*
X95247619Y-106476190D01*
X95247619Y-107428571D02*
X95247619Y-107523809D01*
X95200000Y-107619047D01*
X95152380Y-107666666D01*
X95057142Y-107714285D01*
X94866666Y-107761904D01*
X94628571Y-107761904D01*
X94438095Y-107714285D01*
X94342857Y-107666666D01*
X94295238Y-107619047D01*
X94247619Y-107523809D01*
X94247619Y-107428571D01*
X94295238Y-107333333D01*
X94342857Y-107285714D01*
X94438095Y-107238095D01*
X94628571Y-107190476D01*
X94866666Y-107190476D01*
X95057142Y-107238095D01*
X95152380Y-107285714D01*
X95200000Y-107333333D01*
X95247619Y-107428571D01*
X95247619Y-108380952D02*
X95247619Y-108476190D01*
X95200000Y-108571428D01*
X95152380Y-108619047D01*
X95057142Y-108666666D01*
X94866666Y-108714285D01*
X94628571Y-108714285D01*
X94438095Y-108666666D01*
X94342857Y-108619047D01*
X94295238Y-108571428D01*
X94247619Y-108476190D01*
X94247619Y-108380952D01*
X94295238Y-108285714D01*
X94342857Y-108238095D01*
X94438095Y-108190476D01*
X94628571Y-108142857D01*
X94866666Y-108142857D01*
X95057142Y-108190476D01*
X95152380Y-108238095D01*
X95200000Y-108285714D01*
X95247619Y-108380952D01*
X94247619Y-109904761D02*
X94914285Y-109904761D01*
X94819047Y-109904761D02*
X94866666Y-109952380D01*
X94914285Y-110047619D01*
X94914285Y-110190476D01*
X94866666Y-110285714D01*
X94771428Y-110333333D01*
X94247619Y-110333333D01*
X94771428Y-110333333D02*
X94866666Y-110380952D01*
X94914285Y-110476190D01*
X94914285Y-110619047D01*
X94866666Y-110714285D01*
X94771428Y-110761904D01*
X94247619Y-110761904D01*
X94247619Y-111238095D02*
X94914285Y-111238095D01*
X94819047Y-111238095D02*
X94866666Y-111285714D01*
X94914285Y-111380952D01*
X94914285Y-111523809D01*
X94866666Y-111619047D01*
X94771428Y-111666666D01*
X94247619Y-111666666D01*
X94771428Y-111666666D02*
X94866666Y-111714285D01*
X94914285Y-111809523D01*
X94914285Y-111952380D01*
X94866666Y-112047619D01*
X94771428Y-112095238D01*
X94247619Y-112095238D01*
X96000000Y-100000000D02*
X96000000Y-116000000D01*
X100000000Y-100000000D02*
X95413579Y-100000000D01*
X100000000Y-116000000D02*
X95413579Y-116000000D01*
X96000000Y-116000000D02*
X95413579Y-114873496D01*
X96000000Y-116000000D02*
X96586421Y-114873496D01*
X96000000Y-100000000D02*
X95413579Y-101126504D01*
X96000000Y-100000000D02*
X96586421Y-101126504D01*
X141952380Y-85152380D02*
X142142857Y-85152380D01*
X142238095Y-85104761D01*
X142285714Y-85057142D01*
X142380952Y-84914285D01*
X142428571Y-84723809D01*
X142428571Y-84342857D01*
X142380952Y-84247619D01*
X142333333Y-84200000D01*
X142238095Y-84152380D01*
X142047619Y-84152380D01*
X141952380Y-84200000D01*
X141904761Y-84247619D01*
X141857142Y-84342857D01*
X141857142Y-84580952D01*
X141904761Y-84676190D01*
X141952380Y-84723809D01*
X142047619Y-84771428D01*
X142238095Y-84771428D01*
X142333333Y-84723809D01*
X142380952Y-84676190D01*
X142428571Y-84580952D01*
X142809523Y-84247619D02*
X142857142Y-84200000D01*
X142952380Y-84152380D01*
X143190476Y-84152380D01*
X143285714Y-84200000D01*
X143333333Y-84247619D01*
X143380952Y-84342857D01*
X143380952Y-84438095D01*
X143333333Y-84580952D01*
X142761904Y-85152380D01*
X143380952Y-85152380D01*
X143809523Y-85057142D02*
X143857142Y-85104761D01*
X143809523Y-85152380D01*
X143761904Y-85104761D01*
X143809523Y-85057142D01*
X143809523Y-85152380D01*
X144476190Y-84152380D02*
X144571428Y-84152380D01*
X144666666Y-84200000D01*
X144714285Y-84247619D01*
X144761904Y-84342857D01*
X144809523Y-84533333D01*
X144809523Y-84771428D01*
X144761904Y-84961904D01*
X144714285Y-85057142D01*
X144666666Y-85104761D01*
X144571428Y-85152380D01*
X144476190Y-85152380D01*
X144380952Y-85104761D01*
X144333333Y-85057142D01*
X144285714Y-84961904D01*
X144238095Y-84771428D01*
X144238095Y-84533333D01*
X144285714Y-84342857D01*
X144333333Y-84247619D01*
X144380952Y-84200000D01*
X144476190Y-84152380D01*
X145428571Y-84152380D02*
X145523809Y-84152380D01*
X145619047Y-84200000D01*
X145666666Y-84247619D01*
X145714285Y-84342857D01*
X145761904Y-84533333D01*
X145761904Y-84771428D01*
X145714285Y-84961904D01*
X145666666Y-85057142D01*
X145619047Y-85104761D01*
X145523809Y-85152380D01*
X145428571Y-85152380D01*
X145333333Y-85104761D01*
X145285714Y-85057142D01*
X145238095Y-84961904D01*
X145190476Y-84771428D01*
X145190476Y-84533333D01*
X145238095Y-84342857D01*
X145285714Y-84247619D01*
X145333333Y-84200000D01*
X145428571Y-84152380D01*
X146380952Y-84152380D02*
X146476190Y-84152380D01*
X146571428Y-84200000D01*
X146619047Y-84247619D01*
X146666666Y-84342857D01*
X146714285Y-84533333D01*
X146714285Y-84771428D01*
X146666666Y-84961904D01*
X146619047Y-85057142D01*
X146571428Y-85104761D01*
X146476190Y-85152380D01*
X146380952Y-85152380D01*
X146285714Y-85104761D01*
X146238095Y-85057142D01*
X146190476Y-84961904D01*
X146142857Y-84771428D01*
X146142857Y-84533333D01*
X146190476Y-84342857D01*
X146238095Y-84247619D01*
X146285714Y-84200000D01*
X146380952Y-84152380D01*
X147904761Y-85152380D02*
X147904761Y-84485714D01*
X147904761Y-84580952D02*
X147952380Y-84533333D01*
X148047619Y-84485714D01*
X148190476Y-84485714D01*
X148285714Y-84533333D01*
X148333333Y-84628571D01*
X148333333Y-85152380D01*
X148333333Y-84628571D02*
X148380952Y-84533333D01*
X148476190Y-84485714D01*
X148619047Y-84485714D01*
X148714285Y-84533333D01*
X148761904Y-84628571D01*
X148761904Y-85152380D01*
X149238095Y-85152380D02*
X149238095Y-84485714D01*
X149238095Y-84580952D02*
X149285714Y-84533333D01*
X149380952Y-84485714D01*
X149523809Y-84485714D01*
X149619047Y-84533333D01*
X149666666Y-84628571D01*
X149666666Y-85152380D01*
X149666666Y-84628571D02*
X149714285Y-84533333D01*
X149809523Y-84485714D01*
X149952380Y-84485714D01*
X150047619Y-84533333D01*
X150095238Y-84628571D01*
X150095238Y-85152380D01*
X100000000Y-86000000D02*
X192000000Y-86000000D01*
X100000000Y-100000000D02*
X100000000Y-85413579D01*
X192000000Y-100000000D02*
X192000000Y-85413579D01*
X192000000Y-86000000D02*
X190873496Y-86586421D01*
X192000000Y-86000000D02*
X190873496Y-85413579D01*
X100000000Y-86000000D02*
X101126504Y-86586421D01*
X100000000Y-86000000D02*
X101126504Y-85413579D01*
X165333333Y-87485714D02*
X165333333Y-88152380D01*
X165095238Y-87104761D02*
X164857142Y-87819047D01*
X165476190Y-87819047D01*
X166285714Y-87152380D02*
X166095238Y-87152380D01*
X166000000Y-87200000D01*
X165952380Y-87247619D01*
X165857142Y-87390476D01*
X165809523Y-87580952D01*
X165809523Y-87961904D01*
X165857142Y-88057142D01*
X165904761Y-88104761D01*
X166000000Y-88152380D01*
X166190476Y-88152380D01*
X166285714Y-88104761D01*
X166333333Y-88057142D01*
X166380952Y-87961904D01*
X166380952Y-87723809D01*
X166333333Y-87628571D01*
X166285714Y-87580952D01*
X166190476Y-87533333D01*
X166000000Y-87533333D01*
X165904761Y-87580952D01*
X165857142Y-87628571D01*
X165809523Y-87723809D01*
X166809523Y-88057142D02*
X166857142Y-88104761D01*
X166809523Y-88152380D01*
X166761904Y-88104761D01*
X166809523Y-88057142D01*
X166809523Y-88152380D01*
X167476190Y-87152380D02*
X167571428Y-87152380D01*
X167666666Y-87200000D01*
X167714285Y-87247619D01*
X167761904Y-87342857D01*
X167809523Y-87533333D01*
X167809523Y-87771428D01*
X167761904Y-87961904D01*
X167714285Y-88057142D01*
X167666666Y-88104761D01*
X167571428Y-88152380D01*
X167476190Y-88152380D01*
X167380952Y-88104761D01*
X167333333Y-88057142D01*
X167285714Y-87961904D01*
X167238095Y-87771428D01*
X167238095Y-87533333D01*
X167285714Y-87342857D01*
X167333333Y-87247619D01*
X167380952Y-87200000D01*
X167476190Y-87152380D01*
X168428571Y-87152380D02*
X168523809Y-87152380D01*
X168619047Y-87200000D01*
X168666666Y-87247619D01*
X168714285Y-87342857D01*
X168761904Y-87533333D01*
X168761904Y-87771428D01*
X168714285Y-87961904D01*
X168666666Y-88057142D01*
X168619047Y-88104761D01*
X168523809Y-88152380D01*
X168428571Y-88152380D01*
X168333333Y-88104761D01*
X168285714Y-88057142D01*
X168238095Y-87961904D01*
X168190476Y-87771428D01*
X168190476Y-87533333D01*
X168238095Y-87342857D01*
X168285714Y-87247619D01*
X168333333Y-87200000D01*
X168428571Y-87152380D01*
X169380952Y-87152380D02*
X169476190Y-87152380D01*
X169571428Y-87200000D01*
X169619047Y-87247619D01*
X169666666Y-87342857D01*
X169714285Y-87533333D01*
X169714285Y-87771428D01*
X169666666Y-87961904D01*
X169619047Y-88057142D01*
X169571428Y-88104761D01*
X169476190Y-88152380D01*
X169380952Y-88152380D01*
X169285714Y-88104761D01*
X169238095Y-88057142D01*
X169190476Y-87961904D01*
X169142857Y-87771428D01*
X169142857Y-87533333D01*
X169190476Y-87342857D01*
X169238095Y-87247619D01*
X169285714Y-87200000D01*
X169380952Y-87152380D01*
X170904761Y-88152380D02*
X170904761Y-87485714D01*
X170904761Y-87580952D02*
X170952380Y-87533333D01*
X171047619Y-87485714D01*
X171190476Y-87485714D01*
X171285714Y-87533333D01*
X171333333Y-87628571D01*
X171333333Y-88152380D01*
X171333333Y-87628571D02*
X171380952Y-87533333D01*
X171476190Y-87485714D01*
X171619047Y-87485714D01*
X171714285Y-87533333D01*
X171761904Y-87628571D01*
X171761904Y-88152380D01*
X172238095Y-88152380D02*
X172238095Y-87485714D01*
X172238095Y-87580952D02*
X172285714Y-87533333D01*
X172380952Y-87485714D01*
X172523809Y-87485714D01*
X172619047Y-87533333D01*
X172666666Y-87628571D01*
X172666666Y-88152380D01*
X172666666Y-87628571D02*
X172714285Y-87533333D01*
X172809523Y-87485714D01*
X172952380Y-87485714D01*
X173047619Y-87533333D01*
X173095238Y-87628571D01*
X173095238Y-88152380D01*
X192000000Y-89000000D02*
X146000000Y-89000000D01*
X192000000Y-100000000D02*
X192000000Y-88413579D01*
X146000000Y-100000000D02*
X146000000Y-88413579D01*
X146000000Y-89000000D02*
X147126504Y-88413579D01*
X146000000Y-89000000D02*
X147126504Y-89586421D01*
X192000000Y-89000000D02*
X190873496Y-88413579D01*
X192000000Y-89000000D02*
X190873496Y-89586421D01*
X119333333Y-87485714D02*
X119333333Y-88152380D01*
X119095238Y-87104761D02*
X118857142Y-87819047D01*
X119476190Y-87819047D01*
X120285714Y-87152380D02*
X120095238Y-87152380D01*
X120000000Y-87200000D01*
X119952380Y-87247619D01*
X119857142Y-87390476D01*
X119809523Y-87580952D01*
X119809523Y-87961904D01*
X119857142Y-88057142D01*
X119904761Y-88104761D01*
X120000000Y-88152380D01*
X120190476Y-88152380D01*
X120285714Y-88104761D01*
X120333333Y-88057142D01*
X120380952Y-87961904D01*
X120380952Y-87723809D01*
X120333333Y-87628571D01*
X120285714Y-87580952D01*
X120190476Y-87533333D01*
X120000000Y-87533333D01*
X119904761Y-87580952D01*
X119857142Y-87628571D01*
X119809523Y-87723809D01*
X120809523Y-88057142D02*
X120857142Y-88104761D01*
X120809523Y-88152380D01*
X120761904Y-88104761D01*
X120809523Y-88057142D01*
X120809523Y-88152380D01*
X121476190Y-87152380D02*
X121571428Y-87152380D01*
X121666666Y-87200000D01*
X121714285Y-87247619D01*
X121761904Y-87342857D01*
X121809523Y-87533333D01*
X121809523Y-87771428D01*
X121761904Y-87961904D01*
X121714285Y-88057142D01*
X121666666Y-88104761D01*
X121571428Y-88152380D01*
X121476190Y-88152380D01*
X121380952Y-88104761D01*
X121333333Y-88057142D01*
X121285714Y-87961904D01*
X121238095Y-87771428D01*
X121238095Y-87533333D01*
X121285714Y-87342857D01*
X121333333Y-87247619D01*
X121380952Y-87200000D01*
X121476190Y-87152380D01*
X122428571Y-87152380D02*
X122523809Y-87152380D01*
X122619047Y-87200000D01*
X122666666Y-87247619D01*
X122714285Y-87342857D01*
X122761904Y-87533333D01*
X122761904Y-87771428D01*
X122714285Y-87961904D01*
X122666666Y-88057142D01*
X122619047Y-88104761D01*
X122523809Y-88152380D01*
X122428571Y-88152380D01*
X122333333Y-88104761D01*
X122285714Y-88057142D01*
X122238095Y-87961904D01*
X122190476Y-87771428D01*
X122190476Y-87533333D01*
X122238095Y-87342857D01*
X122285714Y-87247619D01*
X122333333Y-87200000D01*
X122428571Y-87152380D01*
X123380952Y-87152380D02*
X123476190Y-87152380D01*
X123571428Y-87200000D01*
X123619047Y-87247619D01*
X123666666Y-87342857D01*
X123714285Y-87533333D01*
X123714285Y-87771428D01*
X123666666Y-87961904D01*
X123619047Y-88057142D01*
X123571428Y-88104761D01*
X123476190Y-88152380D01*
X123380952Y-88152380D01*
X123285714Y-88104761D01*
X123238095Y-88057142D01*
X123190476Y-87961904D01*
X123142857Y-87771428D01*
X123142857Y-87533333D01*
X123190476Y-87342857D01*
X123238095Y-87247619D01*
X123285714Y-87200000D01*
X123380952Y-87152380D01*
X124904761Y-88152380D02*
X124904761Y-87485714D01*
X124904761Y-87580952D02*
X124952380Y-87533333D01*
X125047619Y-87485714D01*
X125190476Y-87485714D01*
X125285714Y-87533333D01*
X125333333Y-87628571D01*
X125333333Y-88152380D01*
X125333333Y-87628571D02*
X125380952Y-87533333D01*
X125476190Y-87485714D01*
X125619047Y-87485714D01*
X125714285Y-87533333D01*
X125761904Y-87628571D01*
X125761904Y-88152380D01*
X126238095Y-88152380D02*
X126238095Y-87485714D01*
X126238095Y-87580952D02*
X126285714Y-87533333D01*
X126380952Y-87485714D01*
X126523809Y-87485714D01*
X126619047Y-87533333D01*
X126666666Y-87628571D01*
X126666666Y-88152380D01*
X126666666Y-87628571D02*
X126714285Y-87533333D01*
X126809523Y-87485714D01*
X126952380Y-87485714D01*
X127047619Y-87533333D01*
X127095238Y-87628571D01*
X127095238Y-88152380D01*
X100000000Y-89000000D02*
X146000000Y-89000000D01*
X100000000Y-100000000D02*
X100000000Y-88413579D01*
X146000000Y-100000000D02*
X146000000Y-88413579D01*
X146000000Y-89000000D02*
X144873496Y-89586421D01*
X146000000Y-89000000D02*
X144873496Y-88413579D01*
X100000000Y-89000000D02*
X101126504Y-89586421D01*
X100000000Y-89000000D02*
X101126504Y-88413579D01*
X100000000Y-100000000D02*
X100000000Y-116000000D01*
X192000000Y-100000000D02*
X192000000Y-116000000D01*
X100000000Y-100000000D02*
X192000000Y-100000000D01*
X100000000Y-116000000D02*
X192000000Y-116000000D01*
M02*
