M48
; DRILL file {KiCad 5.1.9+dfsg1-1} date Tue Mar 30 03:16:29 2021
; FORMAT={-:-/ absolute / inch / decimal}
; #@! TF.CreationDate,2021-03-30T03:16:29-07:00
; #@! TF.GenerationSoftware,Kicad,Pcbnew,5.1.9+dfsg1-1
; #@! TF.FileFunction,Plated,1,2,PTH
FMAT,2
INCH
T1C0.0157
T2C0.0394
%
G90
G05
T1
X4.3307Y-4.3209
X4.5571Y-4.6063
X4.7933Y-4.311
X5.0591Y-4.6063
X5.3051Y-4.311
X5.5906Y-4.5177
X5.8169Y-4.3504
X6.2008Y-4.4882
X6.3484Y-4.3209
X6.8209Y-4.3012
T2
X5.7173Y-4.8031
X5.8173Y-4.8031
X5.9173Y-4.8031
X6.0173Y-4.8031
X6.1173Y-4.8031
X6.2173Y-4.8031
X6.3173Y-4.8031
X6.4173Y-4.8031
X6.7898Y-4.8031
X6.8898Y-4.8031
X7.2622Y-4.8031
X7.3622Y-4.8031
T2
G00X4.0157Y-4.315
M15
G01X4.0157Y-4.3543
M16
G05
G00X4.1142Y-4.248
M15
G01X4.1142Y-4.2874
M16
G05
G00X4.2323Y-4.0079
M15
G01X4.1929Y-4.0079
M16
G05
G00X4.3976Y-4.4449
M15
G01X4.3583Y-4.4449
M16
G05
G00X4.3898Y-4.126
M15
G01X4.3898Y-4.1654
M16
G05
G00X4.5276Y-4.315
M15
G01X4.5276Y-4.3543
M16
G05
G00X4.626Y-4.248
M15
G01X4.626Y-4.2874
M16
G05
G00X4.7441Y-4.0079
M15
G01X4.7047Y-4.0079
M16
G05
G00X4.9094Y-4.4449
M15
G01X4.8701Y-4.4449
M16
G05
G00X4.9016Y-4.126
M15
G01X4.9016Y-4.1654
M16
G05
G00X5.0394Y-4.315
M15
G01X5.0394Y-4.3543
M16
G05
G00X5.1378Y-4.248
M15
G01X5.1378Y-4.2874
M16
G05
G00X5.2559Y-4.0079
M15
G01X5.2165Y-4.0079
M16
G05
G00X5.4213Y-4.4449
M15
G01X5.3819Y-4.4449
M16
G05
G00X5.4134Y-4.126
M15
G01X5.4134Y-4.1654
M16
G05
G00X5.5512Y-4.315
M15
G01X5.5512Y-4.3543
M16
G05
G00X5.6496Y-4.248
M15
G01X5.6496Y-4.2874
M16
G05
G00X5.7677Y-4.0079
M15
G01X5.7283Y-4.0079
M16
G05
G00X5.9331Y-4.4449
M15
G01X5.8937Y-4.4449
M16
G05
G00X5.9252Y-4.126
M15
G01X5.9252Y-4.1654
M16
G05
G00X6.063Y-4.315
M15
G01X6.063Y-4.3543
M16
G05
G00X6.1614Y-4.248
M15
G01X6.1614Y-4.2874
M16
G05
G00X6.2795Y-4.0079
M15
G01X6.2402Y-4.0079
M16
G05
G00X6.4449Y-4.4449
M15
G01X6.4055Y-4.4449
M16
G05
G00X6.437Y-4.126
M15
G01X6.437Y-4.1654
M16
G05
G00X6.5748Y-4.315
M15
G01X6.5748Y-4.3543
M16
G05
G00X6.6732Y-4.248
M15
G01X6.6732Y-4.2874
M16
G05
G00X6.7913Y-4.0079
M15
G01X6.752Y-4.0079
M16
G05
G00X6.9567Y-4.4449
M15
G01X6.9173Y-4.4449
M16
G05
G00X6.9488Y-4.126
M15
G01X6.9488Y-4.1654
M16
G05
G00X7.0866Y-4.315
M15
G01X7.0866Y-4.3543
M16
G05
G00X7.185Y-4.248
M15
G01X7.185Y-4.2874
M16
G05
G00X7.3031Y-4.0079
M15
G01X7.2638Y-4.0079
M16
G05
G00X7.4685Y-4.4449
M15
G01X7.4291Y-4.4449
M16
G05
G00X7.4606Y-4.126
M15
G01X7.4606Y-4.1654
M16
G05
T0
M30
