%TF.GenerationSoftware,KiCad,Pcbnew,5.1.9+dfsg1-1*%
%TF.CreationDate,2021-03-30T03:15:21-07:00*%
%TF.ProjectId,hygrometer_connector_board,68796772-6f6d-4657-9465-725f636f6e6e,1.0*%
%TF.SameCoordinates,Original*%
%TF.FileFunction,Legend,Bot*%
%TF.FilePolarity,Positive*%
%FSLAX46Y46*%
G04 Gerber Fmt 4.6, Leading zero omitted, Abs format (unit mm)*
G04 Created by KiCad (PCBNEW 5.1.9+dfsg1-1) date 2021-03-30 03:15:21*
%MOMM*%
%LPD*%
G01*
G04 APERTURE LIST*
%ADD10C,0.150000*%
%ADD11C,0.120000*%
%ADD12O,1.700000X1.700000*%
%ADD13R,1.700000X1.700000*%
%ADD14O,2.000000X4.000000*%
%ADD15O,4.000000X2.000000*%
%ADD16R,4.000000X2.000000*%
G04 APERTURE END LIST*
D10*
%TO.C,J7*%
X110100000Y-96400000D02*
X110100000Y-99900000D01*
X103900000Y-96400000D02*
X110100000Y-96400000D01*
X103900000Y-99900000D02*
X103900000Y-96400000D01*
X112650000Y-99900000D02*
X100950000Y-99900000D01*
X112650000Y-103300000D02*
X112650000Y-99900000D01*
X112650000Y-111300000D02*
X112650000Y-107300000D01*
X100950000Y-114100000D02*
X112650000Y-114100000D01*
X100950000Y-112100000D02*
X100950000Y-114100000D01*
X100950000Y-99900000D02*
X100950000Y-108100000D01*
D11*
X109600000Y-101800000D02*
X110150000Y-101300000D01*
X110150000Y-101300000D02*
X110150000Y-102300000D01*
X110150000Y-102300000D02*
X109600000Y-101800000D01*
D10*
%TO.C,J6*%
X123100000Y-96400000D02*
X123100000Y-99900000D01*
X116900000Y-96400000D02*
X123100000Y-96400000D01*
X116900000Y-99900000D02*
X116900000Y-96400000D01*
X125650000Y-99900000D02*
X113950000Y-99900000D01*
X125650000Y-103300000D02*
X125650000Y-99900000D01*
X125650000Y-111300000D02*
X125650000Y-107300000D01*
X113950000Y-114100000D02*
X125650000Y-114100000D01*
X113950000Y-112100000D02*
X113950000Y-114100000D01*
X113950000Y-99900000D02*
X113950000Y-108100000D01*
D11*
X122600000Y-101800000D02*
X123150000Y-101300000D01*
X123150000Y-101300000D02*
X123150000Y-102300000D01*
X123150000Y-102300000D02*
X122600000Y-101800000D01*
D10*
%TO.C,J5*%
X136100000Y-96400000D02*
X136100000Y-99900000D01*
X129900000Y-96400000D02*
X136100000Y-96400000D01*
X129900000Y-99900000D02*
X129900000Y-96400000D01*
X138650000Y-99900000D02*
X126950000Y-99900000D01*
X138650000Y-103300000D02*
X138650000Y-99900000D01*
X138650000Y-111300000D02*
X138650000Y-107300000D01*
X126950000Y-114100000D02*
X138650000Y-114100000D01*
X126950000Y-112100000D02*
X126950000Y-114100000D01*
X126950000Y-99900000D02*
X126950000Y-108100000D01*
D11*
X135600000Y-101800000D02*
X136150000Y-101300000D01*
X136150000Y-101300000D02*
X136150000Y-102300000D01*
X136150000Y-102300000D02*
X135600000Y-101800000D01*
D10*
%TO.C,J4*%
X149100000Y-96400000D02*
X149100000Y-99900000D01*
X142900000Y-96400000D02*
X149100000Y-96400000D01*
X142900000Y-99900000D02*
X142900000Y-96400000D01*
X151650000Y-99900000D02*
X139950000Y-99900000D01*
X151650000Y-103300000D02*
X151650000Y-99900000D01*
X151650000Y-111300000D02*
X151650000Y-107300000D01*
X139950000Y-114100000D02*
X151650000Y-114100000D01*
X139950000Y-112100000D02*
X139950000Y-114100000D01*
X139950000Y-99900000D02*
X139950000Y-108100000D01*
D11*
X148600000Y-101800000D02*
X149150000Y-101300000D01*
X149150000Y-101300000D02*
X149150000Y-102300000D01*
X149150000Y-102300000D02*
X148600000Y-101800000D01*
D10*
%TO.C,J3*%
X162100000Y-96400000D02*
X162100000Y-99900000D01*
X155900000Y-96400000D02*
X162100000Y-96400000D01*
X155900000Y-99900000D02*
X155900000Y-96400000D01*
X164650000Y-99900000D02*
X152950000Y-99900000D01*
X164650000Y-103300000D02*
X164650000Y-99900000D01*
X164650000Y-111300000D02*
X164650000Y-107300000D01*
X152950000Y-114100000D02*
X164650000Y-114100000D01*
X152950000Y-112100000D02*
X152950000Y-114100000D01*
X152950000Y-99900000D02*
X152950000Y-108100000D01*
D11*
X161600000Y-101800000D02*
X162150000Y-101300000D01*
X162150000Y-101300000D02*
X162150000Y-102300000D01*
X162150000Y-102300000D02*
X161600000Y-101800000D01*
D10*
%TO.C,J2*%
X175100000Y-96400000D02*
X175100000Y-99900000D01*
X168900000Y-96400000D02*
X175100000Y-96400000D01*
X168900000Y-99900000D02*
X168900000Y-96400000D01*
X177650000Y-99900000D02*
X165950000Y-99900000D01*
X177650000Y-103300000D02*
X177650000Y-99900000D01*
X177650000Y-111300000D02*
X177650000Y-107300000D01*
X165950000Y-114100000D02*
X177650000Y-114100000D01*
X165950000Y-112100000D02*
X165950000Y-114100000D01*
X165950000Y-99900000D02*
X165950000Y-108100000D01*
D11*
X174600000Y-101800000D02*
X175150000Y-101300000D01*
X175150000Y-101300000D02*
X175150000Y-102300000D01*
X175150000Y-102300000D02*
X174600000Y-101800000D01*
D10*
%TO.C,J1*%
X188100000Y-96400000D02*
X188100000Y-99900000D01*
X181900000Y-96400000D02*
X188100000Y-96400000D01*
X181900000Y-99900000D02*
X181900000Y-96400000D01*
X190650000Y-99900000D02*
X178950000Y-99900000D01*
X190650000Y-103300000D02*
X190650000Y-99900000D01*
X190650000Y-111300000D02*
X190650000Y-107300000D01*
X178950000Y-114100000D02*
X190650000Y-114100000D01*
X178950000Y-112100000D02*
X178950000Y-114100000D01*
X178950000Y-99900000D02*
X178950000Y-108100000D01*
D11*
X187600000Y-101800000D02*
X188150000Y-101300000D01*
X188150000Y-101300000D02*
X188150000Y-102300000D01*
X188150000Y-102300000D02*
X187600000Y-101800000D01*
%TO.C,J7*%
D10*
X107333333Y-114752380D02*
X107333333Y-115466666D01*
X107380952Y-115609523D01*
X107476190Y-115704761D01*
X107619047Y-115752380D01*
X107714285Y-115752380D01*
X106952380Y-114752380D02*
X106285714Y-114752380D01*
X106714285Y-115752380D01*
%TO.C,J6*%
X120333333Y-114752380D02*
X120333333Y-115466666D01*
X120380952Y-115609523D01*
X120476190Y-115704761D01*
X120619047Y-115752380D01*
X120714285Y-115752380D01*
X119428571Y-114752380D02*
X119619047Y-114752380D01*
X119714285Y-114800000D01*
X119761904Y-114847619D01*
X119857142Y-114990476D01*
X119904761Y-115180952D01*
X119904761Y-115561904D01*
X119857142Y-115657142D01*
X119809523Y-115704761D01*
X119714285Y-115752380D01*
X119523809Y-115752380D01*
X119428571Y-115704761D01*
X119380952Y-115657142D01*
X119333333Y-115561904D01*
X119333333Y-115323809D01*
X119380952Y-115228571D01*
X119428571Y-115180952D01*
X119523809Y-115133333D01*
X119714285Y-115133333D01*
X119809523Y-115180952D01*
X119857142Y-115228571D01*
X119904761Y-115323809D01*
%TO.C,J5*%
X133333333Y-114752380D02*
X133333333Y-115466666D01*
X133380952Y-115609523D01*
X133476190Y-115704761D01*
X133619047Y-115752380D01*
X133714285Y-115752380D01*
X132380952Y-114752380D02*
X132857142Y-114752380D01*
X132904761Y-115228571D01*
X132857142Y-115180952D01*
X132761904Y-115133333D01*
X132523809Y-115133333D01*
X132428571Y-115180952D01*
X132380952Y-115228571D01*
X132333333Y-115323809D01*
X132333333Y-115561904D01*
X132380952Y-115657142D01*
X132428571Y-115704761D01*
X132523809Y-115752380D01*
X132761904Y-115752380D01*
X132857142Y-115704761D01*
X132904761Y-115657142D01*
%TO.C,J4*%
X146333333Y-114752380D02*
X146333333Y-115466666D01*
X146380952Y-115609523D01*
X146476190Y-115704761D01*
X146619047Y-115752380D01*
X146714285Y-115752380D01*
X145428571Y-115085714D02*
X145428571Y-115752380D01*
X145666666Y-114704761D02*
X145904761Y-115419047D01*
X145285714Y-115419047D01*
%TO.C,J3*%
X159333333Y-114752380D02*
X159333333Y-115466666D01*
X159380952Y-115609523D01*
X159476190Y-115704761D01*
X159619047Y-115752380D01*
X159714285Y-115752380D01*
X158952380Y-114752380D02*
X158333333Y-114752380D01*
X158666666Y-115133333D01*
X158523809Y-115133333D01*
X158428571Y-115180952D01*
X158380952Y-115228571D01*
X158333333Y-115323809D01*
X158333333Y-115561904D01*
X158380952Y-115657142D01*
X158428571Y-115704761D01*
X158523809Y-115752380D01*
X158809523Y-115752380D01*
X158904761Y-115704761D01*
X158952380Y-115657142D01*
%TO.C,J2*%
X172333333Y-114752380D02*
X172333333Y-115466666D01*
X172380952Y-115609523D01*
X172476190Y-115704761D01*
X172619047Y-115752380D01*
X172714285Y-115752380D01*
X171904761Y-114847619D02*
X171857142Y-114800000D01*
X171761904Y-114752380D01*
X171523809Y-114752380D01*
X171428571Y-114800000D01*
X171380952Y-114847619D01*
X171333333Y-114942857D01*
X171333333Y-115038095D01*
X171380952Y-115180952D01*
X171952380Y-115752380D01*
X171333333Y-115752380D01*
%TO.C,J1*%
X185333333Y-114752380D02*
X185333333Y-115466666D01*
X185380952Y-115609523D01*
X185476190Y-115704761D01*
X185619047Y-115752380D01*
X185714285Y-115752380D01*
X184333333Y-115752380D02*
X184904761Y-115752380D01*
X184619047Y-115752380D02*
X184619047Y-114752380D01*
X184714285Y-114895238D01*
X184809523Y-114990476D01*
X184904761Y-115038095D01*
%TD*%
%LPC*%
D12*
%TO.C,J10*%
X172460000Y-122000000D03*
D13*
X175000000Y-122000000D03*
%TD*%
D12*
%TO.C,J9*%
X184460000Y-122000000D03*
D13*
X187000000Y-122000000D03*
%TD*%
D12*
%TO.C,J8*%
X145220000Y-122000000D03*
X147760000Y-122000000D03*
X150300000Y-122000000D03*
X152840000Y-122000000D03*
X155380000Y-122000000D03*
X157920000Y-122000000D03*
X160460000Y-122000000D03*
D13*
X163000000Y-122000000D03*
%TD*%
D14*
%TO.C,J7*%
X111500000Y-105300000D03*
D15*
X111200000Y-112900000D03*
D14*
X104500000Y-108400000D03*
X102000000Y-110100000D03*
D16*
X107000000Y-101800000D03*
%TD*%
D14*
%TO.C,J6*%
X124500000Y-105300000D03*
D15*
X124200000Y-112900000D03*
D14*
X117500000Y-108400000D03*
X115000000Y-110100000D03*
D16*
X120000000Y-101800000D03*
%TD*%
D14*
%TO.C,J5*%
X137500000Y-105300000D03*
D15*
X137200000Y-112900000D03*
D14*
X130500000Y-108400000D03*
X128000000Y-110100000D03*
D16*
X133000000Y-101800000D03*
%TD*%
D14*
%TO.C,J4*%
X150500000Y-105300000D03*
D15*
X150200000Y-112900000D03*
D14*
X143500000Y-108400000D03*
X141000000Y-110100000D03*
D16*
X146000000Y-101800000D03*
%TD*%
D14*
%TO.C,J3*%
X163500000Y-105300000D03*
D15*
X163200000Y-112900000D03*
D14*
X156500000Y-108400000D03*
X154000000Y-110100000D03*
D16*
X159000000Y-101800000D03*
%TD*%
D14*
%TO.C,J2*%
X176500000Y-105300000D03*
D15*
X176200000Y-112900000D03*
D14*
X169500000Y-108400000D03*
X167000000Y-110100000D03*
D16*
X172000000Y-101800000D03*
%TD*%
D14*
%TO.C,J1*%
X189500000Y-105300000D03*
D15*
X189200000Y-112900000D03*
D14*
X182500000Y-108400000D03*
X180000000Y-110100000D03*
D16*
X185000000Y-101800000D03*
%TD*%
M02*
