%TF.GenerationSoftware,KiCad,Pcbnew,5.1.9+dfsg1-1*%
%TF.CreationDate,2021-03-30T03:15:21-07:00*%
%TF.ProjectId,hygrometer_connector_board,68796772-6f6d-4657-9465-725f636f6e6e,1.0*%
%TF.SameCoordinates,Original*%
%TF.FileFunction,Copper,L2,Bot*%
%TF.FilePolarity,Positive*%
%FSLAX46Y46*%
G04 Gerber Fmt 4.6, Leading zero omitted, Abs format (unit mm)*
G04 Created by KiCad (PCBNEW 5.1.9+dfsg1-1) date 2021-03-30 03:15:21*
%MOMM*%
%LPD*%
G01*
G04 APERTURE LIST*
%TA.AperFunction,ComponentPad*%
%ADD10O,1.700000X1.700000*%
%TD*%
%TA.AperFunction,ComponentPad*%
%ADD11R,1.700000X1.700000*%
%TD*%
%TA.AperFunction,ComponentPad*%
%ADD12O,2.000000X4.000000*%
%TD*%
%TA.AperFunction,ComponentPad*%
%ADD13O,4.000000X2.000000*%
%TD*%
%TA.AperFunction,ComponentPad*%
%ADD14R,4.000000X2.000000*%
%TD*%
%TA.AperFunction,ViaPad*%
%ADD15C,0.800000*%
%TD*%
%TA.AperFunction,Conductor*%
%ADD16C,0.250000*%
%TD*%
%TA.AperFunction,Conductor*%
%ADD17C,0.100000*%
%TD*%
G04 APERTURE END LIST*
D10*
%TO.P,J10,2*%
%TO.N,VCC*%
X172460000Y-122000000D03*
D11*
%TO.P,J10,1*%
%TO.N,Net-(J10-Pad1)*%
X175000000Y-122000000D03*
%TD*%
D10*
%TO.P,J9,2*%
%TO.N,Net-(J10-Pad1)*%
X184460000Y-122000000D03*
D11*
%TO.P,J9,1*%
%TO.N,GND*%
X187000000Y-122000000D03*
%TD*%
D10*
%TO.P,J8,8*%
%TO.N,GND*%
X145220000Y-122000000D03*
%TO.P,J8,7*%
%TO.N,/CH7*%
X147760000Y-122000000D03*
%TO.P,J8,6*%
%TO.N,/CH6*%
X150300000Y-122000000D03*
%TO.P,J8,5*%
%TO.N,/CH5*%
X152840000Y-122000000D03*
%TO.P,J8,4*%
%TO.N,/CH4*%
X155380000Y-122000000D03*
%TO.P,J8,3*%
%TO.N,/CH3*%
X157920000Y-122000000D03*
%TO.P,J8,2*%
%TO.N,/CH2*%
X160460000Y-122000000D03*
D11*
%TO.P,J8,1*%
%TO.N,/CH1*%
X163000000Y-122000000D03*
%TD*%
D12*
%TO.P,J7,T*%
%TO.N,VCC*%
X111500000Y-105300000D03*
D13*
%TO.P,J7,TN*%
%TO.N,N/C*%
X111200000Y-112900000D03*
D12*
%TO.P,J7,RN*%
X104500000Y-108400000D03*
%TO.P,J7,R*%
%TO.N,/CH7*%
X102000000Y-110100000D03*
D14*
%TO.P,J7,S*%
%TO.N,GND*%
X107000000Y-101800000D03*
%TD*%
D12*
%TO.P,J6,T*%
%TO.N,VCC*%
X124500000Y-105300000D03*
D13*
%TO.P,J6,TN*%
%TO.N,N/C*%
X124200000Y-112900000D03*
D12*
%TO.P,J6,RN*%
X117500000Y-108400000D03*
%TO.P,J6,R*%
%TO.N,/CH6*%
X115000000Y-110100000D03*
D14*
%TO.P,J6,S*%
%TO.N,GND*%
X120000000Y-101800000D03*
%TD*%
D12*
%TO.P,J5,T*%
%TO.N,VCC*%
X137500000Y-105300000D03*
D13*
%TO.P,J5,TN*%
%TO.N,N/C*%
X137200000Y-112900000D03*
D12*
%TO.P,J5,RN*%
X130500000Y-108400000D03*
%TO.P,J5,R*%
%TO.N,/CH5*%
X128000000Y-110100000D03*
D14*
%TO.P,J5,S*%
%TO.N,GND*%
X133000000Y-101800000D03*
%TD*%
D12*
%TO.P,J4,T*%
%TO.N,VCC*%
X150500000Y-105300000D03*
D13*
%TO.P,J4,TN*%
%TO.N,N/C*%
X150200000Y-112900000D03*
D12*
%TO.P,J4,RN*%
X143500000Y-108400000D03*
%TO.P,J4,R*%
%TO.N,/CH4*%
X141000000Y-110100000D03*
D14*
%TO.P,J4,S*%
%TO.N,GND*%
X146000000Y-101800000D03*
%TD*%
D12*
%TO.P,J3,T*%
%TO.N,VCC*%
X163500000Y-105300000D03*
D13*
%TO.P,J3,TN*%
%TO.N,N/C*%
X163200000Y-112900000D03*
D12*
%TO.P,J3,RN*%
X156500000Y-108400000D03*
%TO.P,J3,R*%
%TO.N,/CH3*%
X154000000Y-110100000D03*
D14*
%TO.P,J3,S*%
%TO.N,GND*%
X159000000Y-101800000D03*
%TD*%
D12*
%TO.P,J2,T*%
%TO.N,VCC*%
X176500000Y-105300000D03*
D13*
%TO.P,J2,TN*%
%TO.N,N/C*%
X176200000Y-112900000D03*
D12*
%TO.P,J2,RN*%
X169500000Y-108400000D03*
%TO.P,J2,R*%
%TO.N,/CH2*%
X167000000Y-110100000D03*
D14*
%TO.P,J2,S*%
%TO.N,GND*%
X172000000Y-101800000D03*
%TD*%
D12*
%TO.P,J1,T*%
%TO.N,VCC*%
X189500000Y-105300000D03*
D13*
%TO.P,J1,TN*%
%TO.N,N/C*%
X189200000Y-112900000D03*
D12*
%TO.P,J1,RN*%
X182500000Y-108400000D03*
%TO.P,J1,R*%
%TO.N,/CH1*%
X180000000Y-110100000D03*
D14*
%TO.P,J1,S*%
%TO.N,GND*%
X185000000Y-101800000D03*
%TD*%
D15*
%TO.N,GND*%
X173250000Y-109250000D03*
X134750000Y-109500000D03*
X121750000Y-109500000D03*
X110000000Y-109750000D03*
X115750000Y-117000000D03*
X128500000Y-117000000D03*
X142000000Y-114750000D03*
X147750000Y-110500000D03*
X157500000Y-114000000D03*
X161250000Y-109750000D03*
%TD*%
D16*
%TO.N,GND*%
X104581150Y-100716686D02*
X104572944Y-100800000D01*
X104575000Y-101518750D01*
X104681250Y-101625000D01*
X106825000Y-101625000D01*
X106825000Y-101605000D01*
X107175000Y-101605000D01*
X107175000Y-101625000D01*
X109318750Y-101625000D01*
X109425000Y-101518750D01*
X109427056Y-100800000D01*
X109418850Y-100716686D01*
X109406205Y-100675000D01*
X117593795Y-100675000D01*
X117581150Y-100716686D01*
X117572944Y-100800000D01*
X117575000Y-101518750D01*
X117681250Y-101625000D01*
X119825000Y-101625000D01*
X119825000Y-101605000D01*
X120175000Y-101605000D01*
X120175000Y-101625000D01*
X122318750Y-101625000D01*
X122425000Y-101518750D01*
X122427056Y-100800000D01*
X122418850Y-100716686D01*
X122406205Y-100675000D01*
X130593795Y-100675000D01*
X130581150Y-100716686D01*
X130572944Y-100800000D01*
X130575000Y-101518750D01*
X130681250Y-101625000D01*
X132825000Y-101625000D01*
X132825000Y-101605000D01*
X133175000Y-101605000D01*
X133175000Y-101625000D01*
X135318750Y-101625000D01*
X135425000Y-101518750D01*
X135427056Y-100800000D01*
X135418850Y-100716686D01*
X135406205Y-100675000D01*
X143593795Y-100675000D01*
X143581150Y-100716686D01*
X143572944Y-100800000D01*
X143575000Y-101518750D01*
X143681250Y-101625000D01*
X145825000Y-101625000D01*
X145825000Y-101605000D01*
X146175000Y-101605000D01*
X146175000Y-101625000D01*
X148318750Y-101625000D01*
X148425000Y-101518750D01*
X148427056Y-100800000D01*
X148418850Y-100716686D01*
X148406205Y-100675000D01*
X156593795Y-100675000D01*
X156581150Y-100716686D01*
X156572944Y-100800000D01*
X156575000Y-101518750D01*
X156681250Y-101625000D01*
X158825000Y-101625000D01*
X158825000Y-101605000D01*
X159175000Y-101605000D01*
X159175000Y-101625000D01*
X161318750Y-101625000D01*
X161425000Y-101518750D01*
X161427056Y-100800000D01*
X161418850Y-100716686D01*
X161406205Y-100675000D01*
X169593795Y-100675000D01*
X169581150Y-100716686D01*
X169572944Y-100800000D01*
X169575000Y-101518750D01*
X169681250Y-101625000D01*
X171825000Y-101625000D01*
X171825000Y-101605000D01*
X172175000Y-101605000D01*
X172175000Y-101625000D01*
X174318750Y-101625000D01*
X174425000Y-101518750D01*
X174427056Y-100800000D01*
X174418850Y-100716686D01*
X174406205Y-100675000D01*
X182593795Y-100675000D01*
X182581150Y-100716686D01*
X182572944Y-100800000D01*
X182575000Y-101518750D01*
X182681250Y-101625000D01*
X184825000Y-101625000D01*
X184825000Y-101605000D01*
X185175000Y-101605000D01*
X185175000Y-101625000D01*
X187318750Y-101625000D01*
X187425000Y-101518750D01*
X187427056Y-100800000D01*
X187418850Y-100716686D01*
X187406205Y-100675000D01*
X190729209Y-100675000D01*
X190812736Y-100683190D01*
X190873071Y-100701406D01*
X190928723Y-100730996D01*
X190977571Y-100770836D01*
X191017746Y-100819400D01*
X191047725Y-100874845D01*
X191066365Y-100935060D01*
X191075000Y-101017214D01*
X191075000Y-111839335D01*
X190967605Y-111751198D01*
X190728736Y-111623519D01*
X190469547Y-111544895D01*
X190267549Y-111525000D01*
X188132451Y-111525000D01*
X187930453Y-111544895D01*
X187671264Y-111623519D01*
X187432395Y-111751198D01*
X187223024Y-111923024D01*
X187051198Y-112132395D01*
X186923519Y-112371264D01*
X186844895Y-112630453D01*
X186818347Y-112900000D01*
X186844895Y-113169547D01*
X186923519Y-113428736D01*
X187051198Y-113667605D01*
X187223024Y-113876976D01*
X187432395Y-114048802D01*
X187671264Y-114176481D01*
X187930453Y-114255105D01*
X188132451Y-114275000D01*
X190267549Y-114275000D01*
X190469547Y-114255105D01*
X190728736Y-114176481D01*
X190967605Y-114048802D01*
X191075001Y-113960665D01*
X191075001Y-125229198D01*
X191066810Y-125312736D01*
X191048594Y-125373071D01*
X191019004Y-125428722D01*
X190979165Y-125477569D01*
X190930599Y-125517747D01*
X190875155Y-125547725D01*
X190814940Y-125566365D01*
X190732786Y-125575000D01*
X101270791Y-125575000D01*
X101187264Y-125566810D01*
X101126929Y-125548594D01*
X101071278Y-125519004D01*
X101022431Y-125479165D01*
X100982253Y-125430599D01*
X100952275Y-125375155D01*
X100933635Y-125314940D01*
X100925000Y-125232786D01*
X100925000Y-122370413D01*
X143999984Y-122370413D01*
X144095690Y-122601309D01*
X144234603Y-122809097D01*
X144411384Y-122985792D01*
X144619240Y-123124603D01*
X144849588Y-123220008D01*
X145045000Y-123155574D01*
X145045000Y-122175000D01*
X145395000Y-122175000D01*
X145395000Y-123155574D01*
X145590412Y-123220008D01*
X145820760Y-123124603D01*
X146028616Y-122985792D01*
X146205397Y-122809097D01*
X146344310Y-122601309D01*
X146440016Y-122370413D01*
X146376691Y-122175000D01*
X145395000Y-122175000D01*
X145045000Y-122175000D01*
X144063309Y-122175000D01*
X143999984Y-122370413D01*
X100925000Y-122370413D01*
X100925000Y-121879348D01*
X146535000Y-121879348D01*
X146535000Y-122120652D01*
X146582076Y-122357319D01*
X146674419Y-122580255D01*
X146808481Y-122780892D01*
X146979108Y-122951519D01*
X147179745Y-123085581D01*
X147402681Y-123177924D01*
X147639348Y-123225000D01*
X147880652Y-123225000D01*
X148117319Y-123177924D01*
X148340255Y-123085581D01*
X148540892Y-122951519D01*
X148711519Y-122780892D01*
X148845581Y-122580255D01*
X148937924Y-122357319D01*
X148985000Y-122120652D01*
X148985000Y-121879348D01*
X149075000Y-121879348D01*
X149075000Y-122120652D01*
X149122076Y-122357319D01*
X149214419Y-122580255D01*
X149348481Y-122780892D01*
X149519108Y-122951519D01*
X149719745Y-123085581D01*
X149942681Y-123177924D01*
X150179348Y-123225000D01*
X150420652Y-123225000D01*
X150657319Y-123177924D01*
X150880255Y-123085581D01*
X151080892Y-122951519D01*
X151251519Y-122780892D01*
X151385581Y-122580255D01*
X151477924Y-122357319D01*
X151525000Y-122120652D01*
X151525000Y-121879348D01*
X151615000Y-121879348D01*
X151615000Y-122120652D01*
X151662076Y-122357319D01*
X151754419Y-122580255D01*
X151888481Y-122780892D01*
X152059108Y-122951519D01*
X152259745Y-123085581D01*
X152482681Y-123177924D01*
X152719348Y-123225000D01*
X152960652Y-123225000D01*
X153197319Y-123177924D01*
X153420255Y-123085581D01*
X153620892Y-122951519D01*
X153791519Y-122780892D01*
X153925581Y-122580255D01*
X154017924Y-122357319D01*
X154065000Y-122120652D01*
X154065000Y-121879348D01*
X154155000Y-121879348D01*
X154155000Y-122120652D01*
X154202076Y-122357319D01*
X154294419Y-122580255D01*
X154428481Y-122780892D01*
X154599108Y-122951519D01*
X154799745Y-123085581D01*
X155022681Y-123177924D01*
X155259348Y-123225000D01*
X155500652Y-123225000D01*
X155737319Y-123177924D01*
X155960255Y-123085581D01*
X156160892Y-122951519D01*
X156331519Y-122780892D01*
X156465581Y-122580255D01*
X156557924Y-122357319D01*
X156605000Y-122120652D01*
X156605000Y-121879348D01*
X156695000Y-121879348D01*
X156695000Y-122120652D01*
X156742076Y-122357319D01*
X156834419Y-122580255D01*
X156968481Y-122780892D01*
X157139108Y-122951519D01*
X157339745Y-123085581D01*
X157562681Y-123177924D01*
X157799348Y-123225000D01*
X158040652Y-123225000D01*
X158277319Y-123177924D01*
X158500255Y-123085581D01*
X158700892Y-122951519D01*
X158871519Y-122780892D01*
X159005581Y-122580255D01*
X159097924Y-122357319D01*
X159145000Y-122120652D01*
X159145000Y-121879348D01*
X159235000Y-121879348D01*
X159235000Y-122120652D01*
X159282076Y-122357319D01*
X159374419Y-122580255D01*
X159508481Y-122780892D01*
X159679108Y-122951519D01*
X159879745Y-123085581D01*
X160102681Y-123177924D01*
X160339348Y-123225000D01*
X160580652Y-123225000D01*
X160817319Y-123177924D01*
X161040255Y-123085581D01*
X161240892Y-122951519D01*
X161411519Y-122780892D01*
X161545581Y-122580255D01*
X161637924Y-122357319D01*
X161685000Y-122120652D01*
X161685000Y-121879348D01*
X161637924Y-121642681D01*
X161545581Y-121419745D01*
X161411519Y-121219108D01*
X161342411Y-121150000D01*
X161773186Y-121150000D01*
X161773186Y-122850000D01*
X161780426Y-122923513D01*
X161801869Y-122994200D01*
X161836691Y-123059347D01*
X161883552Y-123116448D01*
X161940653Y-123163309D01*
X162005800Y-123198131D01*
X162076487Y-123219574D01*
X162150000Y-123226814D01*
X163850000Y-123226814D01*
X163923513Y-123219574D01*
X163994200Y-123198131D01*
X164059347Y-123163309D01*
X164116448Y-123116448D01*
X164163309Y-123059347D01*
X164198131Y-122994200D01*
X164219574Y-122923513D01*
X164226814Y-122850000D01*
X164226814Y-121879348D01*
X171235000Y-121879348D01*
X171235000Y-122120652D01*
X171282076Y-122357319D01*
X171374419Y-122580255D01*
X171508481Y-122780892D01*
X171679108Y-122951519D01*
X171879745Y-123085581D01*
X172102681Y-123177924D01*
X172339348Y-123225000D01*
X172580652Y-123225000D01*
X172817319Y-123177924D01*
X173040255Y-123085581D01*
X173240892Y-122951519D01*
X173411519Y-122780892D01*
X173545581Y-122580255D01*
X173637924Y-122357319D01*
X173685000Y-122120652D01*
X173685000Y-121879348D01*
X173637924Y-121642681D01*
X173545581Y-121419745D01*
X173411519Y-121219108D01*
X173342411Y-121150000D01*
X173773186Y-121150000D01*
X173773186Y-122850000D01*
X173780426Y-122923513D01*
X173801869Y-122994200D01*
X173836691Y-123059347D01*
X173883552Y-123116448D01*
X173940653Y-123163309D01*
X174005800Y-123198131D01*
X174076487Y-123219574D01*
X174150000Y-123226814D01*
X175850000Y-123226814D01*
X175923513Y-123219574D01*
X175994200Y-123198131D01*
X176059347Y-123163309D01*
X176116448Y-123116448D01*
X176163309Y-123059347D01*
X176198131Y-122994200D01*
X176219574Y-122923513D01*
X176226814Y-122850000D01*
X176226814Y-121879348D01*
X183235000Y-121879348D01*
X183235000Y-122120652D01*
X183282076Y-122357319D01*
X183374419Y-122580255D01*
X183508481Y-122780892D01*
X183679108Y-122951519D01*
X183879745Y-123085581D01*
X184102681Y-123177924D01*
X184339348Y-123225000D01*
X184580652Y-123225000D01*
X184817319Y-123177924D01*
X185040255Y-123085581D01*
X185240892Y-122951519D01*
X185342411Y-122850000D01*
X185722944Y-122850000D01*
X185731150Y-122933314D01*
X185755452Y-123013427D01*
X185794916Y-123087260D01*
X185848026Y-123151974D01*
X185912740Y-123205084D01*
X185986573Y-123244548D01*
X186066686Y-123268850D01*
X186150000Y-123277056D01*
X186718750Y-123275000D01*
X186825000Y-123168750D01*
X186825000Y-122175000D01*
X187175000Y-122175000D01*
X187175000Y-123168750D01*
X187281250Y-123275000D01*
X187850000Y-123277056D01*
X187933314Y-123268850D01*
X188013427Y-123244548D01*
X188087260Y-123205084D01*
X188151974Y-123151974D01*
X188205084Y-123087260D01*
X188244548Y-123013427D01*
X188268850Y-122933314D01*
X188277056Y-122850000D01*
X188275000Y-122281250D01*
X188168750Y-122175000D01*
X187175000Y-122175000D01*
X186825000Y-122175000D01*
X185831250Y-122175000D01*
X185725000Y-122281250D01*
X185722944Y-122850000D01*
X185342411Y-122850000D01*
X185411519Y-122780892D01*
X185545581Y-122580255D01*
X185637924Y-122357319D01*
X185685000Y-122120652D01*
X185685000Y-121879348D01*
X185637924Y-121642681D01*
X185545581Y-121419745D01*
X185411519Y-121219108D01*
X185342411Y-121150000D01*
X185722944Y-121150000D01*
X185725000Y-121718750D01*
X185831250Y-121825000D01*
X186825000Y-121825000D01*
X186825000Y-120831250D01*
X187175000Y-120831250D01*
X187175000Y-121825000D01*
X188168750Y-121825000D01*
X188275000Y-121718750D01*
X188277056Y-121150000D01*
X188268850Y-121066686D01*
X188244548Y-120986573D01*
X188205084Y-120912740D01*
X188151974Y-120848026D01*
X188087260Y-120794916D01*
X188013427Y-120755452D01*
X187933314Y-120731150D01*
X187850000Y-120722944D01*
X187281250Y-120725000D01*
X187175000Y-120831250D01*
X186825000Y-120831250D01*
X186718750Y-120725000D01*
X186150000Y-120722944D01*
X186066686Y-120731150D01*
X185986573Y-120755452D01*
X185912740Y-120794916D01*
X185848026Y-120848026D01*
X185794916Y-120912740D01*
X185755452Y-120986573D01*
X185731150Y-121066686D01*
X185722944Y-121150000D01*
X185342411Y-121150000D01*
X185240892Y-121048481D01*
X185040255Y-120914419D01*
X184817319Y-120822076D01*
X184580652Y-120775000D01*
X184339348Y-120775000D01*
X184102681Y-120822076D01*
X183879745Y-120914419D01*
X183679108Y-121048481D01*
X183508481Y-121219108D01*
X183374419Y-121419745D01*
X183282076Y-121642681D01*
X183235000Y-121879348D01*
X176226814Y-121879348D01*
X176226814Y-121150000D01*
X176219574Y-121076487D01*
X176198131Y-121005800D01*
X176163309Y-120940653D01*
X176116448Y-120883552D01*
X176059347Y-120836691D01*
X175994200Y-120801869D01*
X175923513Y-120780426D01*
X175850000Y-120773186D01*
X174150000Y-120773186D01*
X174076487Y-120780426D01*
X174005800Y-120801869D01*
X173940653Y-120836691D01*
X173883552Y-120883552D01*
X173836691Y-120940653D01*
X173801869Y-121005800D01*
X173780426Y-121076487D01*
X173773186Y-121150000D01*
X173342411Y-121150000D01*
X173240892Y-121048481D01*
X173040255Y-120914419D01*
X172817319Y-120822076D01*
X172580652Y-120775000D01*
X172339348Y-120775000D01*
X172102681Y-120822076D01*
X171879745Y-120914419D01*
X171679108Y-121048481D01*
X171508481Y-121219108D01*
X171374419Y-121419745D01*
X171282076Y-121642681D01*
X171235000Y-121879348D01*
X164226814Y-121879348D01*
X164226814Y-121150000D01*
X164219574Y-121076487D01*
X164198131Y-121005800D01*
X164163309Y-120940653D01*
X164116448Y-120883552D01*
X164059347Y-120836691D01*
X163994200Y-120801869D01*
X163923513Y-120780426D01*
X163850000Y-120773186D01*
X162150000Y-120773186D01*
X162076487Y-120780426D01*
X162005800Y-120801869D01*
X161940653Y-120836691D01*
X161883552Y-120883552D01*
X161836691Y-120940653D01*
X161801869Y-121005800D01*
X161780426Y-121076487D01*
X161773186Y-121150000D01*
X161342411Y-121150000D01*
X161240892Y-121048481D01*
X161040255Y-120914419D01*
X160817319Y-120822076D01*
X160580652Y-120775000D01*
X160339348Y-120775000D01*
X160102681Y-120822076D01*
X159879745Y-120914419D01*
X159679108Y-121048481D01*
X159508481Y-121219108D01*
X159374419Y-121419745D01*
X159282076Y-121642681D01*
X159235000Y-121879348D01*
X159145000Y-121879348D01*
X159097924Y-121642681D01*
X159005581Y-121419745D01*
X158871519Y-121219108D01*
X158700892Y-121048481D01*
X158500255Y-120914419D01*
X158277319Y-120822076D01*
X158040652Y-120775000D01*
X157799348Y-120775000D01*
X157562681Y-120822076D01*
X157339745Y-120914419D01*
X157139108Y-121048481D01*
X156968481Y-121219108D01*
X156834419Y-121419745D01*
X156742076Y-121642681D01*
X156695000Y-121879348D01*
X156605000Y-121879348D01*
X156557924Y-121642681D01*
X156465581Y-121419745D01*
X156331519Y-121219108D01*
X156160892Y-121048481D01*
X155960255Y-120914419D01*
X155737319Y-120822076D01*
X155500652Y-120775000D01*
X155259348Y-120775000D01*
X155022681Y-120822076D01*
X154799745Y-120914419D01*
X154599108Y-121048481D01*
X154428481Y-121219108D01*
X154294419Y-121419745D01*
X154202076Y-121642681D01*
X154155000Y-121879348D01*
X154065000Y-121879348D01*
X154017924Y-121642681D01*
X153925581Y-121419745D01*
X153791519Y-121219108D01*
X153620892Y-121048481D01*
X153420255Y-120914419D01*
X153197319Y-120822076D01*
X152960652Y-120775000D01*
X152719348Y-120775000D01*
X152482681Y-120822076D01*
X152259745Y-120914419D01*
X152059108Y-121048481D01*
X151888481Y-121219108D01*
X151754419Y-121419745D01*
X151662076Y-121642681D01*
X151615000Y-121879348D01*
X151525000Y-121879348D01*
X151477924Y-121642681D01*
X151385581Y-121419745D01*
X151251519Y-121219108D01*
X151080892Y-121048481D01*
X150880255Y-120914419D01*
X150657319Y-120822076D01*
X150420652Y-120775000D01*
X150179348Y-120775000D01*
X149942681Y-120822076D01*
X149719745Y-120914419D01*
X149519108Y-121048481D01*
X149348481Y-121219108D01*
X149214419Y-121419745D01*
X149122076Y-121642681D01*
X149075000Y-121879348D01*
X148985000Y-121879348D01*
X148937924Y-121642681D01*
X148845581Y-121419745D01*
X148711519Y-121219108D01*
X148540892Y-121048481D01*
X148340255Y-120914419D01*
X148117319Y-120822076D01*
X147880652Y-120775000D01*
X147639348Y-120775000D01*
X147402681Y-120822076D01*
X147179745Y-120914419D01*
X146979108Y-121048481D01*
X146808481Y-121219108D01*
X146674419Y-121419745D01*
X146582076Y-121642681D01*
X146535000Y-121879348D01*
X100925000Y-121879348D01*
X100925000Y-121629587D01*
X143999984Y-121629587D01*
X144063309Y-121825000D01*
X145045000Y-121825000D01*
X145045000Y-120844426D01*
X145395000Y-120844426D01*
X145395000Y-121825000D01*
X146376691Y-121825000D01*
X146440016Y-121629587D01*
X146344310Y-121398691D01*
X146205397Y-121190903D01*
X146028616Y-121014208D01*
X145820760Y-120875397D01*
X145590412Y-120779992D01*
X145395000Y-120844426D01*
X145045000Y-120844426D01*
X144849588Y-120779992D01*
X144619240Y-120875397D01*
X144411384Y-121014208D01*
X144234603Y-121190903D01*
X144095690Y-121398691D01*
X143999984Y-121629587D01*
X100925000Y-121629587D01*
X100925000Y-112900000D01*
X108818347Y-112900000D01*
X108844895Y-113169547D01*
X108923519Y-113428736D01*
X109051198Y-113667605D01*
X109223024Y-113876976D01*
X109432395Y-114048802D01*
X109671264Y-114176481D01*
X109930453Y-114255105D01*
X110132451Y-114275000D01*
X112267549Y-114275000D01*
X112469547Y-114255105D01*
X112728736Y-114176481D01*
X112967605Y-114048802D01*
X113176976Y-113876976D01*
X113348802Y-113667605D01*
X113476481Y-113428736D01*
X113555105Y-113169547D01*
X113581653Y-112900000D01*
X121818347Y-112900000D01*
X121844895Y-113169547D01*
X121923519Y-113428736D01*
X122051198Y-113667605D01*
X122223024Y-113876976D01*
X122432395Y-114048802D01*
X122671264Y-114176481D01*
X122930453Y-114255105D01*
X123132451Y-114275000D01*
X125267549Y-114275000D01*
X125469547Y-114255105D01*
X125728736Y-114176481D01*
X125967605Y-114048802D01*
X126176976Y-113876976D01*
X126348802Y-113667605D01*
X126476481Y-113428736D01*
X126555105Y-113169547D01*
X126581653Y-112900000D01*
X134818347Y-112900000D01*
X134844895Y-113169547D01*
X134923519Y-113428736D01*
X135051198Y-113667605D01*
X135223024Y-113876976D01*
X135432395Y-114048802D01*
X135671264Y-114176481D01*
X135930453Y-114255105D01*
X136132451Y-114275000D01*
X138267549Y-114275000D01*
X138469547Y-114255105D01*
X138728736Y-114176481D01*
X138967605Y-114048802D01*
X139176976Y-113876976D01*
X139348802Y-113667605D01*
X139476481Y-113428736D01*
X139555105Y-113169547D01*
X139581653Y-112900000D01*
X147818347Y-112900000D01*
X147844895Y-113169547D01*
X147923519Y-113428736D01*
X148051198Y-113667605D01*
X148223024Y-113876976D01*
X148432395Y-114048802D01*
X148671264Y-114176481D01*
X148930453Y-114255105D01*
X149132451Y-114275000D01*
X151267549Y-114275000D01*
X151469547Y-114255105D01*
X151728736Y-114176481D01*
X151967605Y-114048802D01*
X152176976Y-113876976D01*
X152348802Y-113667605D01*
X152476481Y-113428736D01*
X152555105Y-113169547D01*
X152581653Y-112900000D01*
X160818347Y-112900000D01*
X160844895Y-113169547D01*
X160923519Y-113428736D01*
X161051198Y-113667605D01*
X161223024Y-113876976D01*
X161432395Y-114048802D01*
X161671264Y-114176481D01*
X161930453Y-114255105D01*
X162132451Y-114275000D01*
X164267549Y-114275000D01*
X164469547Y-114255105D01*
X164728736Y-114176481D01*
X164967605Y-114048802D01*
X165176976Y-113876976D01*
X165348802Y-113667605D01*
X165476481Y-113428736D01*
X165555105Y-113169547D01*
X165581653Y-112900000D01*
X173818347Y-112900000D01*
X173844895Y-113169547D01*
X173923519Y-113428736D01*
X174051198Y-113667605D01*
X174223024Y-113876976D01*
X174432395Y-114048802D01*
X174671264Y-114176481D01*
X174930453Y-114255105D01*
X175132451Y-114275000D01*
X177267549Y-114275000D01*
X177469547Y-114255105D01*
X177728736Y-114176481D01*
X177967605Y-114048802D01*
X178176976Y-113876976D01*
X178348802Y-113667605D01*
X178476481Y-113428736D01*
X178555105Y-113169547D01*
X178581653Y-112900000D01*
X178555105Y-112630453D01*
X178476481Y-112371264D01*
X178348802Y-112132395D01*
X178176976Y-111923024D01*
X177967605Y-111751198D01*
X177728736Y-111623519D01*
X177469547Y-111544895D01*
X177267549Y-111525000D01*
X175132451Y-111525000D01*
X174930453Y-111544895D01*
X174671264Y-111623519D01*
X174432395Y-111751198D01*
X174223024Y-111923024D01*
X174051198Y-112132395D01*
X173923519Y-112371264D01*
X173844895Y-112630453D01*
X173818347Y-112900000D01*
X165581653Y-112900000D01*
X165555105Y-112630453D01*
X165476481Y-112371264D01*
X165348802Y-112132395D01*
X165176976Y-111923024D01*
X164967605Y-111751198D01*
X164728736Y-111623519D01*
X164469547Y-111544895D01*
X164267549Y-111525000D01*
X162132451Y-111525000D01*
X161930453Y-111544895D01*
X161671264Y-111623519D01*
X161432395Y-111751198D01*
X161223024Y-111923024D01*
X161051198Y-112132395D01*
X160923519Y-112371264D01*
X160844895Y-112630453D01*
X160818347Y-112900000D01*
X152581653Y-112900000D01*
X152555105Y-112630453D01*
X152476481Y-112371264D01*
X152348802Y-112132395D01*
X152176976Y-111923024D01*
X151967605Y-111751198D01*
X151728736Y-111623519D01*
X151469547Y-111544895D01*
X151267549Y-111525000D01*
X149132451Y-111525000D01*
X148930453Y-111544895D01*
X148671264Y-111623519D01*
X148432395Y-111751198D01*
X148223024Y-111923024D01*
X148051198Y-112132395D01*
X147923519Y-112371264D01*
X147844895Y-112630453D01*
X147818347Y-112900000D01*
X139581653Y-112900000D01*
X139555105Y-112630453D01*
X139476481Y-112371264D01*
X139348802Y-112132395D01*
X139176976Y-111923024D01*
X138967605Y-111751198D01*
X138728736Y-111623519D01*
X138469547Y-111544895D01*
X138267549Y-111525000D01*
X136132451Y-111525000D01*
X135930453Y-111544895D01*
X135671264Y-111623519D01*
X135432395Y-111751198D01*
X135223024Y-111923024D01*
X135051198Y-112132395D01*
X134923519Y-112371264D01*
X134844895Y-112630453D01*
X134818347Y-112900000D01*
X126581653Y-112900000D01*
X126555105Y-112630453D01*
X126476481Y-112371264D01*
X126348802Y-112132395D01*
X126176976Y-111923024D01*
X125967605Y-111751198D01*
X125728736Y-111623519D01*
X125469547Y-111544895D01*
X125267549Y-111525000D01*
X123132451Y-111525000D01*
X122930453Y-111544895D01*
X122671264Y-111623519D01*
X122432395Y-111751198D01*
X122223024Y-111923024D01*
X122051198Y-112132395D01*
X121923519Y-112371264D01*
X121844895Y-112630453D01*
X121818347Y-112900000D01*
X113581653Y-112900000D01*
X113555105Y-112630453D01*
X113476481Y-112371264D01*
X113348802Y-112132395D01*
X113176976Y-111923024D01*
X112967605Y-111751198D01*
X112728736Y-111623519D01*
X112469547Y-111544895D01*
X112267549Y-111525000D01*
X110132451Y-111525000D01*
X109930453Y-111544895D01*
X109671264Y-111623519D01*
X109432395Y-111751198D01*
X109223024Y-111923024D01*
X109051198Y-112132395D01*
X108923519Y-112371264D01*
X108844895Y-112630453D01*
X108818347Y-112900000D01*
X100925000Y-112900000D01*
X100925000Y-111957532D01*
X101023024Y-112076975D01*
X101232395Y-112248802D01*
X101471264Y-112376481D01*
X101730453Y-112455105D01*
X102000000Y-112481653D01*
X102269546Y-112455105D01*
X102528735Y-112376481D01*
X102767604Y-112248802D01*
X102976975Y-112076976D01*
X103148802Y-111867605D01*
X103276481Y-111628736D01*
X103355105Y-111369547D01*
X103375000Y-111167549D01*
X103375000Y-111167548D01*
X113625000Y-111167548D01*
X113644895Y-111369546D01*
X113723519Y-111628735D01*
X113851198Y-111867604D01*
X114023024Y-112076975D01*
X114232395Y-112248802D01*
X114471264Y-112376481D01*
X114730453Y-112455105D01*
X115000000Y-112481653D01*
X115269546Y-112455105D01*
X115528735Y-112376481D01*
X115767604Y-112248802D01*
X115976975Y-112076976D01*
X116148802Y-111867605D01*
X116276481Y-111628736D01*
X116355105Y-111369547D01*
X116375000Y-111167549D01*
X116375000Y-111167548D01*
X126625000Y-111167548D01*
X126644895Y-111369546D01*
X126723519Y-111628735D01*
X126851198Y-111867604D01*
X127023024Y-112076975D01*
X127232395Y-112248802D01*
X127471264Y-112376481D01*
X127730453Y-112455105D01*
X128000000Y-112481653D01*
X128269546Y-112455105D01*
X128528735Y-112376481D01*
X128767604Y-112248802D01*
X128976975Y-112076976D01*
X129148802Y-111867605D01*
X129276481Y-111628736D01*
X129355105Y-111369547D01*
X129375000Y-111167549D01*
X129375000Y-111167548D01*
X139625000Y-111167548D01*
X139644895Y-111369546D01*
X139723519Y-111628735D01*
X139851198Y-111867604D01*
X140023024Y-112076975D01*
X140232395Y-112248802D01*
X140471264Y-112376481D01*
X140730453Y-112455105D01*
X141000000Y-112481653D01*
X141269546Y-112455105D01*
X141528735Y-112376481D01*
X141767604Y-112248802D01*
X141976975Y-112076976D01*
X142148802Y-111867605D01*
X142276481Y-111628736D01*
X142355105Y-111369547D01*
X142375000Y-111167549D01*
X142375000Y-111167548D01*
X152625000Y-111167548D01*
X152644895Y-111369546D01*
X152723519Y-111628735D01*
X152851198Y-111867604D01*
X153023024Y-112076975D01*
X153232395Y-112248802D01*
X153471264Y-112376481D01*
X153730453Y-112455105D01*
X154000000Y-112481653D01*
X154269546Y-112455105D01*
X154528735Y-112376481D01*
X154767604Y-112248802D01*
X154976975Y-112076976D01*
X155148802Y-111867605D01*
X155276481Y-111628736D01*
X155355105Y-111369547D01*
X155375000Y-111167549D01*
X155375000Y-111167548D01*
X165625000Y-111167548D01*
X165644895Y-111369546D01*
X165723519Y-111628735D01*
X165851198Y-111867604D01*
X166023024Y-112076975D01*
X166232395Y-112248802D01*
X166471264Y-112376481D01*
X166730453Y-112455105D01*
X167000000Y-112481653D01*
X167269546Y-112455105D01*
X167528735Y-112376481D01*
X167767604Y-112248802D01*
X167976975Y-112076976D01*
X168148802Y-111867605D01*
X168276481Y-111628736D01*
X168355105Y-111369547D01*
X168375000Y-111167549D01*
X168375000Y-111167548D01*
X178625000Y-111167548D01*
X178644895Y-111369546D01*
X178723519Y-111628735D01*
X178851198Y-111867604D01*
X179023024Y-112076975D01*
X179232395Y-112248802D01*
X179471264Y-112376481D01*
X179730453Y-112455105D01*
X180000000Y-112481653D01*
X180269546Y-112455105D01*
X180528735Y-112376481D01*
X180767604Y-112248802D01*
X180976975Y-112076976D01*
X181148802Y-111867605D01*
X181276481Y-111628736D01*
X181355105Y-111369547D01*
X181375000Y-111167549D01*
X181375000Y-110196607D01*
X181523024Y-110376975D01*
X181732395Y-110548802D01*
X181971264Y-110676481D01*
X182230453Y-110755105D01*
X182500000Y-110781653D01*
X182769546Y-110755105D01*
X183028735Y-110676481D01*
X183267604Y-110548802D01*
X183476975Y-110376976D01*
X183648802Y-110167605D01*
X183776481Y-109928736D01*
X183855105Y-109669547D01*
X183875000Y-109467549D01*
X183875000Y-107332451D01*
X183855105Y-107130453D01*
X183776481Y-106871264D01*
X183648802Y-106632395D01*
X183476976Y-106423024D01*
X183409379Y-106367548D01*
X188125000Y-106367548D01*
X188144895Y-106569546D01*
X188223519Y-106828735D01*
X188351198Y-107067604D01*
X188523024Y-107276975D01*
X188732395Y-107448802D01*
X188971264Y-107576481D01*
X189230453Y-107655105D01*
X189500000Y-107681653D01*
X189769546Y-107655105D01*
X190028735Y-107576481D01*
X190267604Y-107448802D01*
X190476975Y-107276976D01*
X190648802Y-107067605D01*
X190776481Y-106828736D01*
X190855105Y-106569547D01*
X190875000Y-106367549D01*
X190875000Y-104232451D01*
X190855105Y-104030453D01*
X190776481Y-103771264D01*
X190648802Y-103532395D01*
X190476976Y-103323024D01*
X190267605Y-103151198D01*
X190028736Y-103023519D01*
X189769547Y-102944895D01*
X189500000Y-102918347D01*
X189230454Y-102944895D01*
X188971265Y-103023519D01*
X188732396Y-103151198D01*
X188523025Y-103323024D01*
X188351199Y-103532395D01*
X188223520Y-103771264D01*
X188144896Y-104030453D01*
X188125001Y-104232451D01*
X188125000Y-106367548D01*
X183409379Y-106367548D01*
X183267605Y-106251198D01*
X183028736Y-106123519D01*
X182769547Y-106044895D01*
X182500000Y-106018347D01*
X182230454Y-106044895D01*
X181971265Y-106123519D01*
X181732396Y-106251198D01*
X181523025Y-106423024D01*
X181351199Y-106632395D01*
X181223520Y-106871264D01*
X181144896Y-107130453D01*
X181125001Y-107332451D01*
X181125001Y-108303393D01*
X180976976Y-108123024D01*
X180767605Y-107951198D01*
X180528736Y-107823519D01*
X180269547Y-107744895D01*
X180000000Y-107718347D01*
X179730454Y-107744895D01*
X179471265Y-107823519D01*
X179232396Y-107951198D01*
X179023025Y-108123024D01*
X178851199Y-108332395D01*
X178723520Y-108571264D01*
X178644896Y-108830453D01*
X178625001Y-109032451D01*
X178625000Y-111167548D01*
X168375000Y-111167548D01*
X168375000Y-110196607D01*
X168523024Y-110376975D01*
X168732395Y-110548802D01*
X168971264Y-110676481D01*
X169230453Y-110755105D01*
X169500000Y-110781653D01*
X169769546Y-110755105D01*
X170028735Y-110676481D01*
X170267604Y-110548802D01*
X170476975Y-110376976D01*
X170648802Y-110167605D01*
X170776481Y-109928736D01*
X170855105Y-109669547D01*
X170875000Y-109467549D01*
X170875000Y-107332451D01*
X170855105Y-107130453D01*
X170776481Y-106871264D01*
X170648802Y-106632395D01*
X170476976Y-106423024D01*
X170409379Y-106367548D01*
X175125000Y-106367548D01*
X175144895Y-106569546D01*
X175223519Y-106828735D01*
X175351198Y-107067604D01*
X175523024Y-107276975D01*
X175732395Y-107448802D01*
X175971264Y-107576481D01*
X176230453Y-107655105D01*
X176500000Y-107681653D01*
X176769546Y-107655105D01*
X177028735Y-107576481D01*
X177267604Y-107448802D01*
X177476975Y-107276976D01*
X177648802Y-107067605D01*
X177776481Y-106828736D01*
X177855105Y-106569547D01*
X177875000Y-106367549D01*
X177875000Y-104232451D01*
X177855105Y-104030453D01*
X177776481Y-103771264D01*
X177648802Y-103532395D01*
X177476976Y-103323024D01*
X177267605Y-103151198D01*
X177028736Y-103023519D01*
X176769547Y-102944895D01*
X176500000Y-102918347D01*
X176230454Y-102944895D01*
X175971265Y-103023519D01*
X175732396Y-103151198D01*
X175523025Y-103323024D01*
X175351199Y-103532395D01*
X175223520Y-103771264D01*
X175144896Y-104030453D01*
X175125001Y-104232451D01*
X175125000Y-106367548D01*
X170409379Y-106367548D01*
X170267605Y-106251198D01*
X170028736Y-106123519D01*
X169769547Y-106044895D01*
X169500000Y-106018347D01*
X169230454Y-106044895D01*
X168971265Y-106123519D01*
X168732396Y-106251198D01*
X168523025Y-106423024D01*
X168351199Y-106632395D01*
X168223520Y-106871264D01*
X168144896Y-107130453D01*
X168125001Y-107332451D01*
X168125001Y-108303393D01*
X167976976Y-108123024D01*
X167767605Y-107951198D01*
X167528736Y-107823519D01*
X167269547Y-107744895D01*
X167000000Y-107718347D01*
X166730454Y-107744895D01*
X166471265Y-107823519D01*
X166232396Y-107951198D01*
X166023025Y-108123024D01*
X165851199Y-108332395D01*
X165723520Y-108571264D01*
X165644896Y-108830453D01*
X165625001Y-109032451D01*
X165625000Y-111167548D01*
X155375000Y-111167548D01*
X155375000Y-110196607D01*
X155523024Y-110376975D01*
X155732395Y-110548802D01*
X155971264Y-110676481D01*
X156230453Y-110755105D01*
X156500000Y-110781653D01*
X156769546Y-110755105D01*
X157028735Y-110676481D01*
X157267604Y-110548802D01*
X157476975Y-110376976D01*
X157648802Y-110167605D01*
X157776481Y-109928736D01*
X157855105Y-109669547D01*
X157875000Y-109467549D01*
X157875000Y-107332451D01*
X157855105Y-107130453D01*
X157776481Y-106871264D01*
X157648802Y-106632395D01*
X157476976Y-106423024D01*
X157409379Y-106367548D01*
X162125000Y-106367548D01*
X162144895Y-106569546D01*
X162223519Y-106828735D01*
X162351198Y-107067604D01*
X162523024Y-107276975D01*
X162732395Y-107448802D01*
X162971264Y-107576481D01*
X163230453Y-107655105D01*
X163500000Y-107681653D01*
X163769546Y-107655105D01*
X164028735Y-107576481D01*
X164267604Y-107448802D01*
X164476975Y-107276976D01*
X164648802Y-107067605D01*
X164776481Y-106828736D01*
X164855105Y-106569547D01*
X164875000Y-106367549D01*
X164875000Y-104232451D01*
X164855105Y-104030453D01*
X164776481Y-103771264D01*
X164648802Y-103532395D01*
X164476976Y-103323024D01*
X164267605Y-103151198D01*
X164028736Y-103023519D01*
X163769547Y-102944895D01*
X163500000Y-102918347D01*
X163230454Y-102944895D01*
X162971265Y-103023519D01*
X162732396Y-103151198D01*
X162523025Y-103323024D01*
X162351199Y-103532395D01*
X162223520Y-103771264D01*
X162144896Y-104030453D01*
X162125001Y-104232451D01*
X162125000Y-106367548D01*
X157409379Y-106367548D01*
X157267605Y-106251198D01*
X157028736Y-106123519D01*
X156769547Y-106044895D01*
X156500000Y-106018347D01*
X156230454Y-106044895D01*
X155971265Y-106123519D01*
X155732396Y-106251198D01*
X155523025Y-106423024D01*
X155351199Y-106632395D01*
X155223520Y-106871264D01*
X155144896Y-107130453D01*
X155125001Y-107332451D01*
X155125001Y-108303393D01*
X154976976Y-108123024D01*
X154767605Y-107951198D01*
X154528736Y-107823519D01*
X154269547Y-107744895D01*
X154000000Y-107718347D01*
X153730454Y-107744895D01*
X153471265Y-107823519D01*
X153232396Y-107951198D01*
X153023025Y-108123024D01*
X152851199Y-108332395D01*
X152723520Y-108571264D01*
X152644896Y-108830453D01*
X152625001Y-109032451D01*
X152625000Y-111167548D01*
X142375000Y-111167548D01*
X142375000Y-110196607D01*
X142523024Y-110376975D01*
X142732395Y-110548802D01*
X142971264Y-110676481D01*
X143230453Y-110755105D01*
X143500000Y-110781653D01*
X143769546Y-110755105D01*
X144028735Y-110676481D01*
X144267604Y-110548802D01*
X144476975Y-110376976D01*
X144648802Y-110167605D01*
X144776481Y-109928736D01*
X144855105Y-109669547D01*
X144875000Y-109467549D01*
X144875000Y-107332451D01*
X144855105Y-107130453D01*
X144776481Y-106871264D01*
X144648802Y-106632395D01*
X144476976Y-106423024D01*
X144409379Y-106367548D01*
X149125000Y-106367548D01*
X149144895Y-106569546D01*
X149223519Y-106828735D01*
X149351198Y-107067604D01*
X149523024Y-107276975D01*
X149732395Y-107448802D01*
X149971264Y-107576481D01*
X150230453Y-107655105D01*
X150500000Y-107681653D01*
X150769546Y-107655105D01*
X151028735Y-107576481D01*
X151267604Y-107448802D01*
X151476975Y-107276976D01*
X151648802Y-107067605D01*
X151776481Y-106828736D01*
X151855105Y-106569547D01*
X151875000Y-106367549D01*
X151875000Y-104232451D01*
X151855105Y-104030453D01*
X151776481Y-103771264D01*
X151648802Y-103532395D01*
X151476976Y-103323024D01*
X151267605Y-103151198D01*
X151028736Y-103023519D01*
X150769547Y-102944895D01*
X150500000Y-102918347D01*
X150230454Y-102944895D01*
X149971265Y-103023519D01*
X149732396Y-103151198D01*
X149523025Y-103323024D01*
X149351199Y-103532395D01*
X149223520Y-103771264D01*
X149144896Y-104030453D01*
X149125001Y-104232451D01*
X149125000Y-106367548D01*
X144409379Y-106367548D01*
X144267605Y-106251198D01*
X144028736Y-106123519D01*
X143769547Y-106044895D01*
X143500000Y-106018347D01*
X143230454Y-106044895D01*
X142971265Y-106123519D01*
X142732396Y-106251198D01*
X142523025Y-106423024D01*
X142351199Y-106632395D01*
X142223520Y-106871264D01*
X142144896Y-107130453D01*
X142125001Y-107332451D01*
X142125001Y-108303393D01*
X141976976Y-108123024D01*
X141767605Y-107951198D01*
X141528736Y-107823519D01*
X141269547Y-107744895D01*
X141000000Y-107718347D01*
X140730454Y-107744895D01*
X140471265Y-107823519D01*
X140232396Y-107951198D01*
X140023025Y-108123024D01*
X139851199Y-108332395D01*
X139723520Y-108571264D01*
X139644896Y-108830453D01*
X139625001Y-109032451D01*
X139625000Y-111167548D01*
X129375000Y-111167548D01*
X129375000Y-110196607D01*
X129523024Y-110376975D01*
X129732395Y-110548802D01*
X129971264Y-110676481D01*
X130230453Y-110755105D01*
X130500000Y-110781653D01*
X130769546Y-110755105D01*
X131028735Y-110676481D01*
X131267604Y-110548802D01*
X131476975Y-110376976D01*
X131648802Y-110167605D01*
X131776481Y-109928736D01*
X131855105Y-109669547D01*
X131875000Y-109467549D01*
X131875000Y-107332451D01*
X131855105Y-107130453D01*
X131776481Y-106871264D01*
X131648802Y-106632395D01*
X131476976Y-106423024D01*
X131409379Y-106367548D01*
X136125000Y-106367548D01*
X136144895Y-106569546D01*
X136223519Y-106828735D01*
X136351198Y-107067604D01*
X136523024Y-107276975D01*
X136732395Y-107448802D01*
X136971264Y-107576481D01*
X137230453Y-107655105D01*
X137500000Y-107681653D01*
X137769546Y-107655105D01*
X138028735Y-107576481D01*
X138267604Y-107448802D01*
X138476975Y-107276976D01*
X138648802Y-107067605D01*
X138776481Y-106828736D01*
X138855105Y-106569547D01*
X138875000Y-106367549D01*
X138875000Y-104232451D01*
X138855105Y-104030453D01*
X138776481Y-103771264D01*
X138648802Y-103532395D01*
X138476976Y-103323024D01*
X138267605Y-103151198D01*
X138028736Y-103023519D01*
X137769547Y-102944895D01*
X137500000Y-102918347D01*
X137230454Y-102944895D01*
X136971265Y-103023519D01*
X136732396Y-103151198D01*
X136523025Y-103323024D01*
X136351199Y-103532395D01*
X136223520Y-103771264D01*
X136144896Y-104030453D01*
X136125001Y-104232451D01*
X136125000Y-106367548D01*
X131409379Y-106367548D01*
X131267605Y-106251198D01*
X131028736Y-106123519D01*
X130769547Y-106044895D01*
X130500000Y-106018347D01*
X130230454Y-106044895D01*
X129971265Y-106123519D01*
X129732396Y-106251198D01*
X129523025Y-106423024D01*
X129351199Y-106632395D01*
X129223520Y-106871264D01*
X129144896Y-107130453D01*
X129125001Y-107332451D01*
X129125001Y-108303393D01*
X128976976Y-108123024D01*
X128767605Y-107951198D01*
X128528736Y-107823519D01*
X128269547Y-107744895D01*
X128000000Y-107718347D01*
X127730454Y-107744895D01*
X127471265Y-107823519D01*
X127232396Y-107951198D01*
X127023025Y-108123024D01*
X126851199Y-108332395D01*
X126723520Y-108571264D01*
X126644896Y-108830453D01*
X126625001Y-109032451D01*
X126625000Y-111167548D01*
X116375000Y-111167548D01*
X116375000Y-110196607D01*
X116523024Y-110376975D01*
X116732395Y-110548802D01*
X116971264Y-110676481D01*
X117230453Y-110755105D01*
X117500000Y-110781653D01*
X117769546Y-110755105D01*
X118028735Y-110676481D01*
X118267604Y-110548802D01*
X118476975Y-110376976D01*
X118648802Y-110167605D01*
X118776481Y-109928736D01*
X118855105Y-109669547D01*
X118875000Y-109467549D01*
X118875000Y-107332451D01*
X118855105Y-107130453D01*
X118776481Y-106871264D01*
X118648802Y-106632395D01*
X118476976Y-106423024D01*
X118409379Y-106367548D01*
X123125000Y-106367548D01*
X123144895Y-106569546D01*
X123223519Y-106828735D01*
X123351198Y-107067604D01*
X123523024Y-107276975D01*
X123732395Y-107448802D01*
X123971264Y-107576481D01*
X124230453Y-107655105D01*
X124500000Y-107681653D01*
X124769546Y-107655105D01*
X125028735Y-107576481D01*
X125267604Y-107448802D01*
X125476975Y-107276976D01*
X125648802Y-107067605D01*
X125776481Y-106828736D01*
X125855105Y-106569547D01*
X125875000Y-106367549D01*
X125875000Y-104232451D01*
X125855105Y-104030453D01*
X125776481Y-103771264D01*
X125648802Y-103532395D01*
X125476976Y-103323024D01*
X125267605Y-103151198D01*
X125028736Y-103023519D01*
X124769547Y-102944895D01*
X124500000Y-102918347D01*
X124230454Y-102944895D01*
X123971265Y-103023519D01*
X123732396Y-103151198D01*
X123523025Y-103323024D01*
X123351199Y-103532395D01*
X123223520Y-103771264D01*
X123144896Y-104030453D01*
X123125001Y-104232451D01*
X123125000Y-106367548D01*
X118409379Y-106367548D01*
X118267605Y-106251198D01*
X118028736Y-106123519D01*
X117769547Y-106044895D01*
X117500000Y-106018347D01*
X117230454Y-106044895D01*
X116971265Y-106123519D01*
X116732396Y-106251198D01*
X116523025Y-106423024D01*
X116351199Y-106632395D01*
X116223520Y-106871264D01*
X116144896Y-107130453D01*
X116125001Y-107332451D01*
X116125001Y-108303393D01*
X115976976Y-108123024D01*
X115767605Y-107951198D01*
X115528736Y-107823519D01*
X115269547Y-107744895D01*
X115000000Y-107718347D01*
X114730454Y-107744895D01*
X114471265Y-107823519D01*
X114232396Y-107951198D01*
X114023025Y-108123024D01*
X113851199Y-108332395D01*
X113723520Y-108571264D01*
X113644896Y-108830453D01*
X113625001Y-109032451D01*
X113625000Y-111167548D01*
X103375000Y-111167548D01*
X103375000Y-110196607D01*
X103523024Y-110376975D01*
X103732395Y-110548802D01*
X103971264Y-110676481D01*
X104230453Y-110755105D01*
X104500000Y-110781653D01*
X104769546Y-110755105D01*
X105028735Y-110676481D01*
X105267604Y-110548802D01*
X105476975Y-110376976D01*
X105648802Y-110167605D01*
X105776481Y-109928736D01*
X105855105Y-109669547D01*
X105875000Y-109467549D01*
X105875000Y-107332451D01*
X105855105Y-107130453D01*
X105776481Y-106871264D01*
X105648802Y-106632395D01*
X105476976Y-106423024D01*
X105409379Y-106367548D01*
X110125000Y-106367548D01*
X110144895Y-106569546D01*
X110223519Y-106828735D01*
X110351198Y-107067604D01*
X110523024Y-107276975D01*
X110732395Y-107448802D01*
X110971264Y-107576481D01*
X111230453Y-107655105D01*
X111500000Y-107681653D01*
X111769546Y-107655105D01*
X112028735Y-107576481D01*
X112267604Y-107448802D01*
X112476975Y-107276976D01*
X112648802Y-107067605D01*
X112776481Y-106828736D01*
X112855105Y-106569547D01*
X112875000Y-106367549D01*
X112875000Y-104232451D01*
X112855105Y-104030453D01*
X112776481Y-103771264D01*
X112648802Y-103532395D01*
X112476976Y-103323024D01*
X112267605Y-103151198D01*
X112028736Y-103023519D01*
X111769547Y-102944895D01*
X111500000Y-102918347D01*
X111230454Y-102944895D01*
X110971265Y-103023519D01*
X110732396Y-103151198D01*
X110523025Y-103323024D01*
X110351199Y-103532395D01*
X110223520Y-103771264D01*
X110144896Y-104030453D01*
X110125001Y-104232451D01*
X110125000Y-106367548D01*
X105409379Y-106367548D01*
X105267605Y-106251198D01*
X105028736Y-106123519D01*
X104769547Y-106044895D01*
X104500000Y-106018347D01*
X104230454Y-106044895D01*
X103971265Y-106123519D01*
X103732396Y-106251198D01*
X103523025Y-106423024D01*
X103351199Y-106632395D01*
X103223520Y-106871264D01*
X103144896Y-107130453D01*
X103125001Y-107332451D01*
X103125001Y-108303393D01*
X102976976Y-108123024D01*
X102767605Y-107951198D01*
X102528736Y-107823519D01*
X102269547Y-107744895D01*
X102000000Y-107718347D01*
X101730454Y-107744895D01*
X101471265Y-107823519D01*
X101232396Y-107951198D01*
X101023025Y-108123024D01*
X100925000Y-108242468D01*
X100925000Y-102800000D01*
X104572944Y-102800000D01*
X104581150Y-102883314D01*
X104605452Y-102963427D01*
X104644916Y-103037260D01*
X104698026Y-103101974D01*
X104762740Y-103155084D01*
X104836573Y-103194548D01*
X104916686Y-103218850D01*
X105000000Y-103227056D01*
X106718750Y-103225000D01*
X106825000Y-103118750D01*
X106825000Y-101975000D01*
X107175000Y-101975000D01*
X107175000Y-103118750D01*
X107281250Y-103225000D01*
X109000000Y-103227056D01*
X109083314Y-103218850D01*
X109163427Y-103194548D01*
X109237260Y-103155084D01*
X109301974Y-103101974D01*
X109355084Y-103037260D01*
X109394548Y-102963427D01*
X109418850Y-102883314D01*
X109427056Y-102800000D01*
X117572944Y-102800000D01*
X117581150Y-102883314D01*
X117605452Y-102963427D01*
X117644916Y-103037260D01*
X117698026Y-103101974D01*
X117762740Y-103155084D01*
X117836573Y-103194548D01*
X117916686Y-103218850D01*
X118000000Y-103227056D01*
X119718750Y-103225000D01*
X119825000Y-103118750D01*
X119825000Y-101975000D01*
X120175000Y-101975000D01*
X120175000Y-103118750D01*
X120281250Y-103225000D01*
X122000000Y-103227056D01*
X122083314Y-103218850D01*
X122163427Y-103194548D01*
X122237260Y-103155084D01*
X122301974Y-103101974D01*
X122355084Y-103037260D01*
X122394548Y-102963427D01*
X122418850Y-102883314D01*
X122427056Y-102800000D01*
X130572944Y-102800000D01*
X130581150Y-102883314D01*
X130605452Y-102963427D01*
X130644916Y-103037260D01*
X130698026Y-103101974D01*
X130762740Y-103155084D01*
X130836573Y-103194548D01*
X130916686Y-103218850D01*
X131000000Y-103227056D01*
X132718750Y-103225000D01*
X132825000Y-103118750D01*
X132825000Y-101975000D01*
X133175000Y-101975000D01*
X133175000Y-103118750D01*
X133281250Y-103225000D01*
X135000000Y-103227056D01*
X135083314Y-103218850D01*
X135163427Y-103194548D01*
X135237260Y-103155084D01*
X135301974Y-103101974D01*
X135355084Y-103037260D01*
X135394548Y-102963427D01*
X135418850Y-102883314D01*
X135427056Y-102800000D01*
X143572944Y-102800000D01*
X143581150Y-102883314D01*
X143605452Y-102963427D01*
X143644916Y-103037260D01*
X143698026Y-103101974D01*
X143762740Y-103155084D01*
X143836573Y-103194548D01*
X143916686Y-103218850D01*
X144000000Y-103227056D01*
X145718750Y-103225000D01*
X145825000Y-103118750D01*
X145825000Y-101975000D01*
X146175000Y-101975000D01*
X146175000Y-103118750D01*
X146281250Y-103225000D01*
X148000000Y-103227056D01*
X148083314Y-103218850D01*
X148163427Y-103194548D01*
X148237260Y-103155084D01*
X148301974Y-103101974D01*
X148355084Y-103037260D01*
X148394548Y-102963427D01*
X148418850Y-102883314D01*
X148427056Y-102800000D01*
X156572944Y-102800000D01*
X156581150Y-102883314D01*
X156605452Y-102963427D01*
X156644916Y-103037260D01*
X156698026Y-103101974D01*
X156762740Y-103155084D01*
X156836573Y-103194548D01*
X156916686Y-103218850D01*
X157000000Y-103227056D01*
X158718750Y-103225000D01*
X158825000Y-103118750D01*
X158825000Y-101975000D01*
X159175000Y-101975000D01*
X159175000Y-103118750D01*
X159281250Y-103225000D01*
X161000000Y-103227056D01*
X161083314Y-103218850D01*
X161163427Y-103194548D01*
X161237260Y-103155084D01*
X161301974Y-103101974D01*
X161355084Y-103037260D01*
X161394548Y-102963427D01*
X161418850Y-102883314D01*
X161427056Y-102800000D01*
X169572944Y-102800000D01*
X169581150Y-102883314D01*
X169605452Y-102963427D01*
X169644916Y-103037260D01*
X169698026Y-103101974D01*
X169762740Y-103155084D01*
X169836573Y-103194548D01*
X169916686Y-103218850D01*
X170000000Y-103227056D01*
X171718750Y-103225000D01*
X171825000Y-103118750D01*
X171825000Y-101975000D01*
X172175000Y-101975000D01*
X172175000Y-103118750D01*
X172281250Y-103225000D01*
X174000000Y-103227056D01*
X174083314Y-103218850D01*
X174163427Y-103194548D01*
X174237260Y-103155084D01*
X174301974Y-103101974D01*
X174355084Y-103037260D01*
X174394548Y-102963427D01*
X174418850Y-102883314D01*
X174427056Y-102800000D01*
X182572944Y-102800000D01*
X182581150Y-102883314D01*
X182605452Y-102963427D01*
X182644916Y-103037260D01*
X182698026Y-103101974D01*
X182762740Y-103155084D01*
X182836573Y-103194548D01*
X182916686Y-103218850D01*
X183000000Y-103227056D01*
X184718750Y-103225000D01*
X184825000Y-103118750D01*
X184825000Y-101975000D01*
X185175000Y-101975000D01*
X185175000Y-103118750D01*
X185281250Y-103225000D01*
X187000000Y-103227056D01*
X187083314Y-103218850D01*
X187163427Y-103194548D01*
X187237260Y-103155084D01*
X187301974Y-103101974D01*
X187355084Y-103037260D01*
X187394548Y-102963427D01*
X187418850Y-102883314D01*
X187427056Y-102800000D01*
X187425000Y-102081250D01*
X187318750Y-101975000D01*
X185175000Y-101975000D01*
X184825000Y-101975000D01*
X182681250Y-101975000D01*
X182575000Y-102081250D01*
X182572944Y-102800000D01*
X174427056Y-102800000D01*
X174425000Y-102081250D01*
X174318750Y-101975000D01*
X172175000Y-101975000D01*
X171825000Y-101975000D01*
X169681250Y-101975000D01*
X169575000Y-102081250D01*
X169572944Y-102800000D01*
X161427056Y-102800000D01*
X161425000Y-102081250D01*
X161318750Y-101975000D01*
X159175000Y-101975000D01*
X158825000Y-101975000D01*
X156681250Y-101975000D01*
X156575000Y-102081250D01*
X156572944Y-102800000D01*
X148427056Y-102800000D01*
X148425000Y-102081250D01*
X148318750Y-101975000D01*
X146175000Y-101975000D01*
X145825000Y-101975000D01*
X143681250Y-101975000D01*
X143575000Y-102081250D01*
X143572944Y-102800000D01*
X135427056Y-102800000D01*
X135425000Y-102081250D01*
X135318750Y-101975000D01*
X133175000Y-101975000D01*
X132825000Y-101975000D01*
X130681250Y-101975000D01*
X130575000Y-102081250D01*
X130572944Y-102800000D01*
X122427056Y-102800000D01*
X122425000Y-102081250D01*
X122318750Y-101975000D01*
X120175000Y-101975000D01*
X119825000Y-101975000D01*
X117681250Y-101975000D01*
X117575000Y-102081250D01*
X117572944Y-102800000D01*
X109427056Y-102800000D01*
X109425000Y-102081250D01*
X109318750Y-101975000D01*
X107175000Y-101975000D01*
X106825000Y-101975000D01*
X104681250Y-101975000D01*
X104575000Y-102081250D01*
X104572944Y-102800000D01*
X100925000Y-102800000D01*
X100925000Y-101020791D01*
X100933190Y-100937264D01*
X100951406Y-100876929D01*
X100980996Y-100821277D01*
X101020836Y-100772429D01*
X101069400Y-100732254D01*
X101124845Y-100702275D01*
X101185060Y-100683635D01*
X101267214Y-100675000D01*
X104593795Y-100675000D01*
X104581150Y-100716686D01*
%TA.AperFunction,Conductor*%
D17*
G36*
X104581150Y-100716686D02*
G01*
X104572944Y-100800000D01*
X104575000Y-101518750D01*
X104681250Y-101625000D01*
X106825000Y-101625000D01*
X106825000Y-101605000D01*
X107175000Y-101605000D01*
X107175000Y-101625000D01*
X109318750Y-101625000D01*
X109425000Y-101518750D01*
X109427056Y-100800000D01*
X109418850Y-100716686D01*
X109406205Y-100675000D01*
X117593795Y-100675000D01*
X117581150Y-100716686D01*
X117572944Y-100800000D01*
X117575000Y-101518750D01*
X117681250Y-101625000D01*
X119825000Y-101625000D01*
X119825000Y-101605000D01*
X120175000Y-101605000D01*
X120175000Y-101625000D01*
X122318750Y-101625000D01*
X122425000Y-101518750D01*
X122427056Y-100800000D01*
X122418850Y-100716686D01*
X122406205Y-100675000D01*
X130593795Y-100675000D01*
X130581150Y-100716686D01*
X130572944Y-100800000D01*
X130575000Y-101518750D01*
X130681250Y-101625000D01*
X132825000Y-101625000D01*
X132825000Y-101605000D01*
X133175000Y-101605000D01*
X133175000Y-101625000D01*
X135318750Y-101625000D01*
X135425000Y-101518750D01*
X135427056Y-100800000D01*
X135418850Y-100716686D01*
X135406205Y-100675000D01*
X143593795Y-100675000D01*
X143581150Y-100716686D01*
X143572944Y-100800000D01*
X143575000Y-101518750D01*
X143681250Y-101625000D01*
X145825000Y-101625000D01*
X145825000Y-101605000D01*
X146175000Y-101605000D01*
X146175000Y-101625000D01*
X148318750Y-101625000D01*
X148425000Y-101518750D01*
X148427056Y-100800000D01*
X148418850Y-100716686D01*
X148406205Y-100675000D01*
X156593795Y-100675000D01*
X156581150Y-100716686D01*
X156572944Y-100800000D01*
X156575000Y-101518750D01*
X156681250Y-101625000D01*
X158825000Y-101625000D01*
X158825000Y-101605000D01*
X159175000Y-101605000D01*
X159175000Y-101625000D01*
X161318750Y-101625000D01*
X161425000Y-101518750D01*
X161427056Y-100800000D01*
X161418850Y-100716686D01*
X161406205Y-100675000D01*
X169593795Y-100675000D01*
X169581150Y-100716686D01*
X169572944Y-100800000D01*
X169575000Y-101518750D01*
X169681250Y-101625000D01*
X171825000Y-101625000D01*
X171825000Y-101605000D01*
X172175000Y-101605000D01*
X172175000Y-101625000D01*
X174318750Y-101625000D01*
X174425000Y-101518750D01*
X174427056Y-100800000D01*
X174418850Y-100716686D01*
X174406205Y-100675000D01*
X182593795Y-100675000D01*
X182581150Y-100716686D01*
X182572944Y-100800000D01*
X182575000Y-101518750D01*
X182681250Y-101625000D01*
X184825000Y-101625000D01*
X184825000Y-101605000D01*
X185175000Y-101605000D01*
X185175000Y-101625000D01*
X187318750Y-101625000D01*
X187425000Y-101518750D01*
X187427056Y-100800000D01*
X187418850Y-100716686D01*
X187406205Y-100675000D01*
X190729209Y-100675000D01*
X190812736Y-100683190D01*
X190873071Y-100701406D01*
X190928723Y-100730996D01*
X190977571Y-100770836D01*
X191017746Y-100819400D01*
X191047725Y-100874845D01*
X191066365Y-100935060D01*
X191075000Y-101017214D01*
X191075000Y-111839335D01*
X190967605Y-111751198D01*
X190728736Y-111623519D01*
X190469547Y-111544895D01*
X190267549Y-111525000D01*
X188132451Y-111525000D01*
X187930453Y-111544895D01*
X187671264Y-111623519D01*
X187432395Y-111751198D01*
X187223024Y-111923024D01*
X187051198Y-112132395D01*
X186923519Y-112371264D01*
X186844895Y-112630453D01*
X186818347Y-112900000D01*
X186844895Y-113169547D01*
X186923519Y-113428736D01*
X187051198Y-113667605D01*
X187223024Y-113876976D01*
X187432395Y-114048802D01*
X187671264Y-114176481D01*
X187930453Y-114255105D01*
X188132451Y-114275000D01*
X190267549Y-114275000D01*
X190469547Y-114255105D01*
X190728736Y-114176481D01*
X190967605Y-114048802D01*
X191075001Y-113960665D01*
X191075001Y-125229198D01*
X191066810Y-125312736D01*
X191048594Y-125373071D01*
X191019004Y-125428722D01*
X190979165Y-125477569D01*
X190930599Y-125517747D01*
X190875155Y-125547725D01*
X190814940Y-125566365D01*
X190732786Y-125575000D01*
X101270791Y-125575000D01*
X101187264Y-125566810D01*
X101126929Y-125548594D01*
X101071278Y-125519004D01*
X101022431Y-125479165D01*
X100982253Y-125430599D01*
X100952275Y-125375155D01*
X100933635Y-125314940D01*
X100925000Y-125232786D01*
X100925000Y-122370413D01*
X143999984Y-122370413D01*
X144095690Y-122601309D01*
X144234603Y-122809097D01*
X144411384Y-122985792D01*
X144619240Y-123124603D01*
X144849588Y-123220008D01*
X145045000Y-123155574D01*
X145045000Y-122175000D01*
X145395000Y-122175000D01*
X145395000Y-123155574D01*
X145590412Y-123220008D01*
X145820760Y-123124603D01*
X146028616Y-122985792D01*
X146205397Y-122809097D01*
X146344310Y-122601309D01*
X146440016Y-122370413D01*
X146376691Y-122175000D01*
X145395000Y-122175000D01*
X145045000Y-122175000D01*
X144063309Y-122175000D01*
X143999984Y-122370413D01*
X100925000Y-122370413D01*
X100925000Y-121879348D01*
X146535000Y-121879348D01*
X146535000Y-122120652D01*
X146582076Y-122357319D01*
X146674419Y-122580255D01*
X146808481Y-122780892D01*
X146979108Y-122951519D01*
X147179745Y-123085581D01*
X147402681Y-123177924D01*
X147639348Y-123225000D01*
X147880652Y-123225000D01*
X148117319Y-123177924D01*
X148340255Y-123085581D01*
X148540892Y-122951519D01*
X148711519Y-122780892D01*
X148845581Y-122580255D01*
X148937924Y-122357319D01*
X148985000Y-122120652D01*
X148985000Y-121879348D01*
X149075000Y-121879348D01*
X149075000Y-122120652D01*
X149122076Y-122357319D01*
X149214419Y-122580255D01*
X149348481Y-122780892D01*
X149519108Y-122951519D01*
X149719745Y-123085581D01*
X149942681Y-123177924D01*
X150179348Y-123225000D01*
X150420652Y-123225000D01*
X150657319Y-123177924D01*
X150880255Y-123085581D01*
X151080892Y-122951519D01*
X151251519Y-122780892D01*
X151385581Y-122580255D01*
X151477924Y-122357319D01*
X151525000Y-122120652D01*
X151525000Y-121879348D01*
X151615000Y-121879348D01*
X151615000Y-122120652D01*
X151662076Y-122357319D01*
X151754419Y-122580255D01*
X151888481Y-122780892D01*
X152059108Y-122951519D01*
X152259745Y-123085581D01*
X152482681Y-123177924D01*
X152719348Y-123225000D01*
X152960652Y-123225000D01*
X153197319Y-123177924D01*
X153420255Y-123085581D01*
X153620892Y-122951519D01*
X153791519Y-122780892D01*
X153925581Y-122580255D01*
X154017924Y-122357319D01*
X154065000Y-122120652D01*
X154065000Y-121879348D01*
X154155000Y-121879348D01*
X154155000Y-122120652D01*
X154202076Y-122357319D01*
X154294419Y-122580255D01*
X154428481Y-122780892D01*
X154599108Y-122951519D01*
X154799745Y-123085581D01*
X155022681Y-123177924D01*
X155259348Y-123225000D01*
X155500652Y-123225000D01*
X155737319Y-123177924D01*
X155960255Y-123085581D01*
X156160892Y-122951519D01*
X156331519Y-122780892D01*
X156465581Y-122580255D01*
X156557924Y-122357319D01*
X156605000Y-122120652D01*
X156605000Y-121879348D01*
X156695000Y-121879348D01*
X156695000Y-122120652D01*
X156742076Y-122357319D01*
X156834419Y-122580255D01*
X156968481Y-122780892D01*
X157139108Y-122951519D01*
X157339745Y-123085581D01*
X157562681Y-123177924D01*
X157799348Y-123225000D01*
X158040652Y-123225000D01*
X158277319Y-123177924D01*
X158500255Y-123085581D01*
X158700892Y-122951519D01*
X158871519Y-122780892D01*
X159005581Y-122580255D01*
X159097924Y-122357319D01*
X159145000Y-122120652D01*
X159145000Y-121879348D01*
X159235000Y-121879348D01*
X159235000Y-122120652D01*
X159282076Y-122357319D01*
X159374419Y-122580255D01*
X159508481Y-122780892D01*
X159679108Y-122951519D01*
X159879745Y-123085581D01*
X160102681Y-123177924D01*
X160339348Y-123225000D01*
X160580652Y-123225000D01*
X160817319Y-123177924D01*
X161040255Y-123085581D01*
X161240892Y-122951519D01*
X161411519Y-122780892D01*
X161545581Y-122580255D01*
X161637924Y-122357319D01*
X161685000Y-122120652D01*
X161685000Y-121879348D01*
X161637924Y-121642681D01*
X161545581Y-121419745D01*
X161411519Y-121219108D01*
X161342411Y-121150000D01*
X161773186Y-121150000D01*
X161773186Y-122850000D01*
X161780426Y-122923513D01*
X161801869Y-122994200D01*
X161836691Y-123059347D01*
X161883552Y-123116448D01*
X161940653Y-123163309D01*
X162005800Y-123198131D01*
X162076487Y-123219574D01*
X162150000Y-123226814D01*
X163850000Y-123226814D01*
X163923513Y-123219574D01*
X163994200Y-123198131D01*
X164059347Y-123163309D01*
X164116448Y-123116448D01*
X164163309Y-123059347D01*
X164198131Y-122994200D01*
X164219574Y-122923513D01*
X164226814Y-122850000D01*
X164226814Y-121879348D01*
X171235000Y-121879348D01*
X171235000Y-122120652D01*
X171282076Y-122357319D01*
X171374419Y-122580255D01*
X171508481Y-122780892D01*
X171679108Y-122951519D01*
X171879745Y-123085581D01*
X172102681Y-123177924D01*
X172339348Y-123225000D01*
X172580652Y-123225000D01*
X172817319Y-123177924D01*
X173040255Y-123085581D01*
X173240892Y-122951519D01*
X173411519Y-122780892D01*
X173545581Y-122580255D01*
X173637924Y-122357319D01*
X173685000Y-122120652D01*
X173685000Y-121879348D01*
X173637924Y-121642681D01*
X173545581Y-121419745D01*
X173411519Y-121219108D01*
X173342411Y-121150000D01*
X173773186Y-121150000D01*
X173773186Y-122850000D01*
X173780426Y-122923513D01*
X173801869Y-122994200D01*
X173836691Y-123059347D01*
X173883552Y-123116448D01*
X173940653Y-123163309D01*
X174005800Y-123198131D01*
X174076487Y-123219574D01*
X174150000Y-123226814D01*
X175850000Y-123226814D01*
X175923513Y-123219574D01*
X175994200Y-123198131D01*
X176059347Y-123163309D01*
X176116448Y-123116448D01*
X176163309Y-123059347D01*
X176198131Y-122994200D01*
X176219574Y-122923513D01*
X176226814Y-122850000D01*
X176226814Y-121879348D01*
X183235000Y-121879348D01*
X183235000Y-122120652D01*
X183282076Y-122357319D01*
X183374419Y-122580255D01*
X183508481Y-122780892D01*
X183679108Y-122951519D01*
X183879745Y-123085581D01*
X184102681Y-123177924D01*
X184339348Y-123225000D01*
X184580652Y-123225000D01*
X184817319Y-123177924D01*
X185040255Y-123085581D01*
X185240892Y-122951519D01*
X185342411Y-122850000D01*
X185722944Y-122850000D01*
X185731150Y-122933314D01*
X185755452Y-123013427D01*
X185794916Y-123087260D01*
X185848026Y-123151974D01*
X185912740Y-123205084D01*
X185986573Y-123244548D01*
X186066686Y-123268850D01*
X186150000Y-123277056D01*
X186718750Y-123275000D01*
X186825000Y-123168750D01*
X186825000Y-122175000D01*
X187175000Y-122175000D01*
X187175000Y-123168750D01*
X187281250Y-123275000D01*
X187850000Y-123277056D01*
X187933314Y-123268850D01*
X188013427Y-123244548D01*
X188087260Y-123205084D01*
X188151974Y-123151974D01*
X188205084Y-123087260D01*
X188244548Y-123013427D01*
X188268850Y-122933314D01*
X188277056Y-122850000D01*
X188275000Y-122281250D01*
X188168750Y-122175000D01*
X187175000Y-122175000D01*
X186825000Y-122175000D01*
X185831250Y-122175000D01*
X185725000Y-122281250D01*
X185722944Y-122850000D01*
X185342411Y-122850000D01*
X185411519Y-122780892D01*
X185545581Y-122580255D01*
X185637924Y-122357319D01*
X185685000Y-122120652D01*
X185685000Y-121879348D01*
X185637924Y-121642681D01*
X185545581Y-121419745D01*
X185411519Y-121219108D01*
X185342411Y-121150000D01*
X185722944Y-121150000D01*
X185725000Y-121718750D01*
X185831250Y-121825000D01*
X186825000Y-121825000D01*
X186825000Y-120831250D01*
X187175000Y-120831250D01*
X187175000Y-121825000D01*
X188168750Y-121825000D01*
X188275000Y-121718750D01*
X188277056Y-121150000D01*
X188268850Y-121066686D01*
X188244548Y-120986573D01*
X188205084Y-120912740D01*
X188151974Y-120848026D01*
X188087260Y-120794916D01*
X188013427Y-120755452D01*
X187933314Y-120731150D01*
X187850000Y-120722944D01*
X187281250Y-120725000D01*
X187175000Y-120831250D01*
X186825000Y-120831250D01*
X186718750Y-120725000D01*
X186150000Y-120722944D01*
X186066686Y-120731150D01*
X185986573Y-120755452D01*
X185912740Y-120794916D01*
X185848026Y-120848026D01*
X185794916Y-120912740D01*
X185755452Y-120986573D01*
X185731150Y-121066686D01*
X185722944Y-121150000D01*
X185342411Y-121150000D01*
X185240892Y-121048481D01*
X185040255Y-120914419D01*
X184817319Y-120822076D01*
X184580652Y-120775000D01*
X184339348Y-120775000D01*
X184102681Y-120822076D01*
X183879745Y-120914419D01*
X183679108Y-121048481D01*
X183508481Y-121219108D01*
X183374419Y-121419745D01*
X183282076Y-121642681D01*
X183235000Y-121879348D01*
X176226814Y-121879348D01*
X176226814Y-121150000D01*
X176219574Y-121076487D01*
X176198131Y-121005800D01*
X176163309Y-120940653D01*
X176116448Y-120883552D01*
X176059347Y-120836691D01*
X175994200Y-120801869D01*
X175923513Y-120780426D01*
X175850000Y-120773186D01*
X174150000Y-120773186D01*
X174076487Y-120780426D01*
X174005800Y-120801869D01*
X173940653Y-120836691D01*
X173883552Y-120883552D01*
X173836691Y-120940653D01*
X173801869Y-121005800D01*
X173780426Y-121076487D01*
X173773186Y-121150000D01*
X173342411Y-121150000D01*
X173240892Y-121048481D01*
X173040255Y-120914419D01*
X172817319Y-120822076D01*
X172580652Y-120775000D01*
X172339348Y-120775000D01*
X172102681Y-120822076D01*
X171879745Y-120914419D01*
X171679108Y-121048481D01*
X171508481Y-121219108D01*
X171374419Y-121419745D01*
X171282076Y-121642681D01*
X171235000Y-121879348D01*
X164226814Y-121879348D01*
X164226814Y-121150000D01*
X164219574Y-121076487D01*
X164198131Y-121005800D01*
X164163309Y-120940653D01*
X164116448Y-120883552D01*
X164059347Y-120836691D01*
X163994200Y-120801869D01*
X163923513Y-120780426D01*
X163850000Y-120773186D01*
X162150000Y-120773186D01*
X162076487Y-120780426D01*
X162005800Y-120801869D01*
X161940653Y-120836691D01*
X161883552Y-120883552D01*
X161836691Y-120940653D01*
X161801869Y-121005800D01*
X161780426Y-121076487D01*
X161773186Y-121150000D01*
X161342411Y-121150000D01*
X161240892Y-121048481D01*
X161040255Y-120914419D01*
X160817319Y-120822076D01*
X160580652Y-120775000D01*
X160339348Y-120775000D01*
X160102681Y-120822076D01*
X159879745Y-120914419D01*
X159679108Y-121048481D01*
X159508481Y-121219108D01*
X159374419Y-121419745D01*
X159282076Y-121642681D01*
X159235000Y-121879348D01*
X159145000Y-121879348D01*
X159097924Y-121642681D01*
X159005581Y-121419745D01*
X158871519Y-121219108D01*
X158700892Y-121048481D01*
X158500255Y-120914419D01*
X158277319Y-120822076D01*
X158040652Y-120775000D01*
X157799348Y-120775000D01*
X157562681Y-120822076D01*
X157339745Y-120914419D01*
X157139108Y-121048481D01*
X156968481Y-121219108D01*
X156834419Y-121419745D01*
X156742076Y-121642681D01*
X156695000Y-121879348D01*
X156605000Y-121879348D01*
X156557924Y-121642681D01*
X156465581Y-121419745D01*
X156331519Y-121219108D01*
X156160892Y-121048481D01*
X155960255Y-120914419D01*
X155737319Y-120822076D01*
X155500652Y-120775000D01*
X155259348Y-120775000D01*
X155022681Y-120822076D01*
X154799745Y-120914419D01*
X154599108Y-121048481D01*
X154428481Y-121219108D01*
X154294419Y-121419745D01*
X154202076Y-121642681D01*
X154155000Y-121879348D01*
X154065000Y-121879348D01*
X154017924Y-121642681D01*
X153925581Y-121419745D01*
X153791519Y-121219108D01*
X153620892Y-121048481D01*
X153420255Y-120914419D01*
X153197319Y-120822076D01*
X152960652Y-120775000D01*
X152719348Y-120775000D01*
X152482681Y-120822076D01*
X152259745Y-120914419D01*
X152059108Y-121048481D01*
X151888481Y-121219108D01*
X151754419Y-121419745D01*
X151662076Y-121642681D01*
X151615000Y-121879348D01*
X151525000Y-121879348D01*
X151477924Y-121642681D01*
X151385581Y-121419745D01*
X151251519Y-121219108D01*
X151080892Y-121048481D01*
X150880255Y-120914419D01*
X150657319Y-120822076D01*
X150420652Y-120775000D01*
X150179348Y-120775000D01*
X149942681Y-120822076D01*
X149719745Y-120914419D01*
X149519108Y-121048481D01*
X149348481Y-121219108D01*
X149214419Y-121419745D01*
X149122076Y-121642681D01*
X149075000Y-121879348D01*
X148985000Y-121879348D01*
X148937924Y-121642681D01*
X148845581Y-121419745D01*
X148711519Y-121219108D01*
X148540892Y-121048481D01*
X148340255Y-120914419D01*
X148117319Y-120822076D01*
X147880652Y-120775000D01*
X147639348Y-120775000D01*
X147402681Y-120822076D01*
X147179745Y-120914419D01*
X146979108Y-121048481D01*
X146808481Y-121219108D01*
X146674419Y-121419745D01*
X146582076Y-121642681D01*
X146535000Y-121879348D01*
X100925000Y-121879348D01*
X100925000Y-121629587D01*
X143999984Y-121629587D01*
X144063309Y-121825000D01*
X145045000Y-121825000D01*
X145045000Y-120844426D01*
X145395000Y-120844426D01*
X145395000Y-121825000D01*
X146376691Y-121825000D01*
X146440016Y-121629587D01*
X146344310Y-121398691D01*
X146205397Y-121190903D01*
X146028616Y-121014208D01*
X145820760Y-120875397D01*
X145590412Y-120779992D01*
X145395000Y-120844426D01*
X145045000Y-120844426D01*
X144849588Y-120779992D01*
X144619240Y-120875397D01*
X144411384Y-121014208D01*
X144234603Y-121190903D01*
X144095690Y-121398691D01*
X143999984Y-121629587D01*
X100925000Y-121629587D01*
X100925000Y-112900000D01*
X108818347Y-112900000D01*
X108844895Y-113169547D01*
X108923519Y-113428736D01*
X109051198Y-113667605D01*
X109223024Y-113876976D01*
X109432395Y-114048802D01*
X109671264Y-114176481D01*
X109930453Y-114255105D01*
X110132451Y-114275000D01*
X112267549Y-114275000D01*
X112469547Y-114255105D01*
X112728736Y-114176481D01*
X112967605Y-114048802D01*
X113176976Y-113876976D01*
X113348802Y-113667605D01*
X113476481Y-113428736D01*
X113555105Y-113169547D01*
X113581653Y-112900000D01*
X121818347Y-112900000D01*
X121844895Y-113169547D01*
X121923519Y-113428736D01*
X122051198Y-113667605D01*
X122223024Y-113876976D01*
X122432395Y-114048802D01*
X122671264Y-114176481D01*
X122930453Y-114255105D01*
X123132451Y-114275000D01*
X125267549Y-114275000D01*
X125469547Y-114255105D01*
X125728736Y-114176481D01*
X125967605Y-114048802D01*
X126176976Y-113876976D01*
X126348802Y-113667605D01*
X126476481Y-113428736D01*
X126555105Y-113169547D01*
X126581653Y-112900000D01*
X134818347Y-112900000D01*
X134844895Y-113169547D01*
X134923519Y-113428736D01*
X135051198Y-113667605D01*
X135223024Y-113876976D01*
X135432395Y-114048802D01*
X135671264Y-114176481D01*
X135930453Y-114255105D01*
X136132451Y-114275000D01*
X138267549Y-114275000D01*
X138469547Y-114255105D01*
X138728736Y-114176481D01*
X138967605Y-114048802D01*
X139176976Y-113876976D01*
X139348802Y-113667605D01*
X139476481Y-113428736D01*
X139555105Y-113169547D01*
X139581653Y-112900000D01*
X147818347Y-112900000D01*
X147844895Y-113169547D01*
X147923519Y-113428736D01*
X148051198Y-113667605D01*
X148223024Y-113876976D01*
X148432395Y-114048802D01*
X148671264Y-114176481D01*
X148930453Y-114255105D01*
X149132451Y-114275000D01*
X151267549Y-114275000D01*
X151469547Y-114255105D01*
X151728736Y-114176481D01*
X151967605Y-114048802D01*
X152176976Y-113876976D01*
X152348802Y-113667605D01*
X152476481Y-113428736D01*
X152555105Y-113169547D01*
X152581653Y-112900000D01*
X160818347Y-112900000D01*
X160844895Y-113169547D01*
X160923519Y-113428736D01*
X161051198Y-113667605D01*
X161223024Y-113876976D01*
X161432395Y-114048802D01*
X161671264Y-114176481D01*
X161930453Y-114255105D01*
X162132451Y-114275000D01*
X164267549Y-114275000D01*
X164469547Y-114255105D01*
X164728736Y-114176481D01*
X164967605Y-114048802D01*
X165176976Y-113876976D01*
X165348802Y-113667605D01*
X165476481Y-113428736D01*
X165555105Y-113169547D01*
X165581653Y-112900000D01*
X173818347Y-112900000D01*
X173844895Y-113169547D01*
X173923519Y-113428736D01*
X174051198Y-113667605D01*
X174223024Y-113876976D01*
X174432395Y-114048802D01*
X174671264Y-114176481D01*
X174930453Y-114255105D01*
X175132451Y-114275000D01*
X177267549Y-114275000D01*
X177469547Y-114255105D01*
X177728736Y-114176481D01*
X177967605Y-114048802D01*
X178176976Y-113876976D01*
X178348802Y-113667605D01*
X178476481Y-113428736D01*
X178555105Y-113169547D01*
X178581653Y-112900000D01*
X178555105Y-112630453D01*
X178476481Y-112371264D01*
X178348802Y-112132395D01*
X178176976Y-111923024D01*
X177967605Y-111751198D01*
X177728736Y-111623519D01*
X177469547Y-111544895D01*
X177267549Y-111525000D01*
X175132451Y-111525000D01*
X174930453Y-111544895D01*
X174671264Y-111623519D01*
X174432395Y-111751198D01*
X174223024Y-111923024D01*
X174051198Y-112132395D01*
X173923519Y-112371264D01*
X173844895Y-112630453D01*
X173818347Y-112900000D01*
X165581653Y-112900000D01*
X165555105Y-112630453D01*
X165476481Y-112371264D01*
X165348802Y-112132395D01*
X165176976Y-111923024D01*
X164967605Y-111751198D01*
X164728736Y-111623519D01*
X164469547Y-111544895D01*
X164267549Y-111525000D01*
X162132451Y-111525000D01*
X161930453Y-111544895D01*
X161671264Y-111623519D01*
X161432395Y-111751198D01*
X161223024Y-111923024D01*
X161051198Y-112132395D01*
X160923519Y-112371264D01*
X160844895Y-112630453D01*
X160818347Y-112900000D01*
X152581653Y-112900000D01*
X152555105Y-112630453D01*
X152476481Y-112371264D01*
X152348802Y-112132395D01*
X152176976Y-111923024D01*
X151967605Y-111751198D01*
X151728736Y-111623519D01*
X151469547Y-111544895D01*
X151267549Y-111525000D01*
X149132451Y-111525000D01*
X148930453Y-111544895D01*
X148671264Y-111623519D01*
X148432395Y-111751198D01*
X148223024Y-111923024D01*
X148051198Y-112132395D01*
X147923519Y-112371264D01*
X147844895Y-112630453D01*
X147818347Y-112900000D01*
X139581653Y-112900000D01*
X139555105Y-112630453D01*
X139476481Y-112371264D01*
X139348802Y-112132395D01*
X139176976Y-111923024D01*
X138967605Y-111751198D01*
X138728736Y-111623519D01*
X138469547Y-111544895D01*
X138267549Y-111525000D01*
X136132451Y-111525000D01*
X135930453Y-111544895D01*
X135671264Y-111623519D01*
X135432395Y-111751198D01*
X135223024Y-111923024D01*
X135051198Y-112132395D01*
X134923519Y-112371264D01*
X134844895Y-112630453D01*
X134818347Y-112900000D01*
X126581653Y-112900000D01*
X126555105Y-112630453D01*
X126476481Y-112371264D01*
X126348802Y-112132395D01*
X126176976Y-111923024D01*
X125967605Y-111751198D01*
X125728736Y-111623519D01*
X125469547Y-111544895D01*
X125267549Y-111525000D01*
X123132451Y-111525000D01*
X122930453Y-111544895D01*
X122671264Y-111623519D01*
X122432395Y-111751198D01*
X122223024Y-111923024D01*
X122051198Y-112132395D01*
X121923519Y-112371264D01*
X121844895Y-112630453D01*
X121818347Y-112900000D01*
X113581653Y-112900000D01*
X113555105Y-112630453D01*
X113476481Y-112371264D01*
X113348802Y-112132395D01*
X113176976Y-111923024D01*
X112967605Y-111751198D01*
X112728736Y-111623519D01*
X112469547Y-111544895D01*
X112267549Y-111525000D01*
X110132451Y-111525000D01*
X109930453Y-111544895D01*
X109671264Y-111623519D01*
X109432395Y-111751198D01*
X109223024Y-111923024D01*
X109051198Y-112132395D01*
X108923519Y-112371264D01*
X108844895Y-112630453D01*
X108818347Y-112900000D01*
X100925000Y-112900000D01*
X100925000Y-111957532D01*
X101023024Y-112076975D01*
X101232395Y-112248802D01*
X101471264Y-112376481D01*
X101730453Y-112455105D01*
X102000000Y-112481653D01*
X102269546Y-112455105D01*
X102528735Y-112376481D01*
X102767604Y-112248802D01*
X102976975Y-112076976D01*
X103148802Y-111867605D01*
X103276481Y-111628736D01*
X103355105Y-111369547D01*
X103375000Y-111167549D01*
X103375000Y-111167548D01*
X113625000Y-111167548D01*
X113644895Y-111369546D01*
X113723519Y-111628735D01*
X113851198Y-111867604D01*
X114023024Y-112076975D01*
X114232395Y-112248802D01*
X114471264Y-112376481D01*
X114730453Y-112455105D01*
X115000000Y-112481653D01*
X115269546Y-112455105D01*
X115528735Y-112376481D01*
X115767604Y-112248802D01*
X115976975Y-112076976D01*
X116148802Y-111867605D01*
X116276481Y-111628736D01*
X116355105Y-111369547D01*
X116375000Y-111167549D01*
X116375000Y-111167548D01*
X126625000Y-111167548D01*
X126644895Y-111369546D01*
X126723519Y-111628735D01*
X126851198Y-111867604D01*
X127023024Y-112076975D01*
X127232395Y-112248802D01*
X127471264Y-112376481D01*
X127730453Y-112455105D01*
X128000000Y-112481653D01*
X128269546Y-112455105D01*
X128528735Y-112376481D01*
X128767604Y-112248802D01*
X128976975Y-112076976D01*
X129148802Y-111867605D01*
X129276481Y-111628736D01*
X129355105Y-111369547D01*
X129375000Y-111167549D01*
X129375000Y-111167548D01*
X139625000Y-111167548D01*
X139644895Y-111369546D01*
X139723519Y-111628735D01*
X139851198Y-111867604D01*
X140023024Y-112076975D01*
X140232395Y-112248802D01*
X140471264Y-112376481D01*
X140730453Y-112455105D01*
X141000000Y-112481653D01*
X141269546Y-112455105D01*
X141528735Y-112376481D01*
X141767604Y-112248802D01*
X141976975Y-112076976D01*
X142148802Y-111867605D01*
X142276481Y-111628736D01*
X142355105Y-111369547D01*
X142375000Y-111167549D01*
X142375000Y-111167548D01*
X152625000Y-111167548D01*
X152644895Y-111369546D01*
X152723519Y-111628735D01*
X152851198Y-111867604D01*
X153023024Y-112076975D01*
X153232395Y-112248802D01*
X153471264Y-112376481D01*
X153730453Y-112455105D01*
X154000000Y-112481653D01*
X154269546Y-112455105D01*
X154528735Y-112376481D01*
X154767604Y-112248802D01*
X154976975Y-112076976D01*
X155148802Y-111867605D01*
X155276481Y-111628736D01*
X155355105Y-111369547D01*
X155375000Y-111167549D01*
X155375000Y-111167548D01*
X165625000Y-111167548D01*
X165644895Y-111369546D01*
X165723519Y-111628735D01*
X165851198Y-111867604D01*
X166023024Y-112076975D01*
X166232395Y-112248802D01*
X166471264Y-112376481D01*
X166730453Y-112455105D01*
X167000000Y-112481653D01*
X167269546Y-112455105D01*
X167528735Y-112376481D01*
X167767604Y-112248802D01*
X167976975Y-112076976D01*
X168148802Y-111867605D01*
X168276481Y-111628736D01*
X168355105Y-111369547D01*
X168375000Y-111167549D01*
X168375000Y-111167548D01*
X178625000Y-111167548D01*
X178644895Y-111369546D01*
X178723519Y-111628735D01*
X178851198Y-111867604D01*
X179023024Y-112076975D01*
X179232395Y-112248802D01*
X179471264Y-112376481D01*
X179730453Y-112455105D01*
X180000000Y-112481653D01*
X180269546Y-112455105D01*
X180528735Y-112376481D01*
X180767604Y-112248802D01*
X180976975Y-112076976D01*
X181148802Y-111867605D01*
X181276481Y-111628736D01*
X181355105Y-111369547D01*
X181375000Y-111167549D01*
X181375000Y-110196607D01*
X181523024Y-110376975D01*
X181732395Y-110548802D01*
X181971264Y-110676481D01*
X182230453Y-110755105D01*
X182500000Y-110781653D01*
X182769546Y-110755105D01*
X183028735Y-110676481D01*
X183267604Y-110548802D01*
X183476975Y-110376976D01*
X183648802Y-110167605D01*
X183776481Y-109928736D01*
X183855105Y-109669547D01*
X183875000Y-109467549D01*
X183875000Y-107332451D01*
X183855105Y-107130453D01*
X183776481Y-106871264D01*
X183648802Y-106632395D01*
X183476976Y-106423024D01*
X183409379Y-106367548D01*
X188125000Y-106367548D01*
X188144895Y-106569546D01*
X188223519Y-106828735D01*
X188351198Y-107067604D01*
X188523024Y-107276975D01*
X188732395Y-107448802D01*
X188971264Y-107576481D01*
X189230453Y-107655105D01*
X189500000Y-107681653D01*
X189769546Y-107655105D01*
X190028735Y-107576481D01*
X190267604Y-107448802D01*
X190476975Y-107276976D01*
X190648802Y-107067605D01*
X190776481Y-106828736D01*
X190855105Y-106569547D01*
X190875000Y-106367549D01*
X190875000Y-104232451D01*
X190855105Y-104030453D01*
X190776481Y-103771264D01*
X190648802Y-103532395D01*
X190476976Y-103323024D01*
X190267605Y-103151198D01*
X190028736Y-103023519D01*
X189769547Y-102944895D01*
X189500000Y-102918347D01*
X189230454Y-102944895D01*
X188971265Y-103023519D01*
X188732396Y-103151198D01*
X188523025Y-103323024D01*
X188351199Y-103532395D01*
X188223520Y-103771264D01*
X188144896Y-104030453D01*
X188125001Y-104232451D01*
X188125000Y-106367548D01*
X183409379Y-106367548D01*
X183267605Y-106251198D01*
X183028736Y-106123519D01*
X182769547Y-106044895D01*
X182500000Y-106018347D01*
X182230454Y-106044895D01*
X181971265Y-106123519D01*
X181732396Y-106251198D01*
X181523025Y-106423024D01*
X181351199Y-106632395D01*
X181223520Y-106871264D01*
X181144896Y-107130453D01*
X181125001Y-107332451D01*
X181125001Y-108303393D01*
X180976976Y-108123024D01*
X180767605Y-107951198D01*
X180528736Y-107823519D01*
X180269547Y-107744895D01*
X180000000Y-107718347D01*
X179730454Y-107744895D01*
X179471265Y-107823519D01*
X179232396Y-107951198D01*
X179023025Y-108123024D01*
X178851199Y-108332395D01*
X178723520Y-108571264D01*
X178644896Y-108830453D01*
X178625001Y-109032451D01*
X178625000Y-111167548D01*
X168375000Y-111167548D01*
X168375000Y-110196607D01*
X168523024Y-110376975D01*
X168732395Y-110548802D01*
X168971264Y-110676481D01*
X169230453Y-110755105D01*
X169500000Y-110781653D01*
X169769546Y-110755105D01*
X170028735Y-110676481D01*
X170267604Y-110548802D01*
X170476975Y-110376976D01*
X170648802Y-110167605D01*
X170776481Y-109928736D01*
X170855105Y-109669547D01*
X170875000Y-109467549D01*
X170875000Y-107332451D01*
X170855105Y-107130453D01*
X170776481Y-106871264D01*
X170648802Y-106632395D01*
X170476976Y-106423024D01*
X170409379Y-106367548D01*
X175125000Y-106367548D01*
X175144895Y-106569546D01*
X175223519Y-106828735D01*
X175351198Y-107067604D01*
X175523024Y-107276975D01*
X175732395Y-107448802D01*
X175971264Y-107576481D01*
X176230453Y-107655105D01*
X176500000Y-107681653D01*
X176769546Y-107655105D01*
X177028735Y-107576481D01*
X177267604Y-107448802D01*
X177476975Y-107276976D01*
X177648802Y-107067605D01*
X177776481Y-106828736D01*
X177855105Y-106569547D01*
X177875000Y-106367549D01*
X177875000Y-104232451D01*
X177855105Y-104030453D01*
X177776481Y-103771264D01*
X177648802Y-103532395D01*
X177476976Y-103323024D01*
X177267605Y-103151198D01*
X177028736Y-103023519D01*
X176769547Y-102944895D01*
X176500000Y-102918347D01*
X176230454Y-102944895D01*
X175971265Y-103023519D01*
X175732396Y-103151198D01*
X175523025Y-103323024D01*
X175351199Y-103532395D01*
X175223520Y-103771264D01*
X175144896Y-104030453D01*
X175125001Y-104232451D01*
X175125000Y-106367548D01*
X170409379Y-106367548D01*
X170267605Y-106251198D01*
X170028736Y-106123519D01*
X169769547Y-106044895D01*
X169500000Y-106018347D01*
X169230454Y-106044895D01*
X168971265Y-106123519D01*
X168732396Y-106251198D01*
X168523025Y-106423024D01*
X168351199Y-106632395D01*
X168223520Y-106871264D01*
X168144896Y-107130453D01*
X168125001Y-107332451D01*
X168125001Y-108303393D01*
X167976976Y-108123024D01*
X167767605Y-107951198D01*
X167528736Y-107823519D01*
X167269547Y-107744895D01*
X167000000Y-107718347D01*
X166730454Y-107744895D01*
X166471265Y-107823519D01*
X166232396Y-107951198D01*
X166023025Y-108123024D01*
X165851199Y-108332395D01*
X165723520Y-108571264D01*
X165644896Y-108830453D01*
X165625001Y-109032451D01*
X165625000Y-111167548D01*
X155375000Y-111167548D01*
X155375000Y-110196607D01*
X155523024Y-110376975D01*
X155732395Y-110548802D01*
X155971264Y-110676481D01*
X156230453Y-110755105D01*
X156500000Y-110781653D01*
X156769546Y-110755105D01*
X157028735Y-110676481D01*
X157267604Y-110548802D01*
X157476975Y-110376976D01*
X157648802Y-110167605D01*
X157776481Y-109928736D01*
X157855105Y-109669547D01*
X157875000Y-109467549D01*
X157875000Y-107332451D01*
X157855105Y-107130453D01*
X157776481Y-106871264D01*
X157648802Y-106632395D01*
X157476976Y-106423024D01*
X157409379Y-106367548D01*
X162125000Y-106367548D01*
X162144895Y-106569546D01*
X162223519Y-106828735D01*
X162351198Y-107067604D01*
X162523024Y-107276975D01*
X162732395Y-107448802D01*
X162971264Y-107576481D01*
X163230453Y-107655105D01*
X163500000Y-107681653D01*
X163769546Y-107655105D01*
X164028735Y-107576481D01*
X164267604Y-107448802D01*
X164476975Y-107276976D01*
X164648802Y-107067605D01*
X164776481Y-106828736D01*
X164855105Y-106569547D01*
X164875000Y-106367549D01*
X164875000Y-104232451D01*
X164855105Y-104030453D01*
X164776481Y-103771264D01*
X164648802Y-103532395D01*
X164476976Y-103323024D01*
X164267605Y-103151198D01*
X164028736Y-103023519D01*
X163769547Y-102944895D01*
X163500000Y-102918347D01*
X163230454Y-102944895D01*
X162971265Y-103023519D01*
X162732396Y-103151198D01*
X162523025Y-103323024D01*
X162351199Y-103532395D01*
X162223520Y-103771264D01*
X162144896Y-104030453D01*
X162125001Y-104232451D01*
X162125000Y-106367548D01*
X157409379Y-106367548D01*
X157267605Y-106251198D01*
X157028736Y-106123519D01*
X156769547Y-106044895D01*
X156500000Y-106018347D01*
X156230454Y-106044895D01*
X155971265Y-106123519D01*
X155732396Y-106251198D01*
X155523025Y-106423024D01*
X155351199Y-106632395D01*
X155223520Y-106871264D01*
X155144896Y-107130453D01*
X155125001Y-107332451D01*
X155125001Y-108303393D01*
X154976976Y-108123024D01*
X154767605Y-107951198D01*
X154528736Y-107823519D01*
X154269547Y-107744895D01*
X154000000Y-107718347D01*
X153730454Y-107744895D01*
X153471265Y-107823519D01*
X153232396Y-107951198D01*
X153023025Y-108123024D01*
X152851199Y-108332395D01*
X152723520Y-108571264D01*
X152644896Y-108830453D01*
X152625001Y-109032451D01*
X152625000Y-111167548D01*
X142375000Y-111167548D01*
X142375000Y-110196607D01*
X142523024Y-110376975D01*
X142732395Y-110548802D01*
X142971264Y-110676481D01*
X143230453Y-110755105D01*
X143500000Y-110781653D01*
X143769546Y-110755105D01*
X144028735Y-110676481D01*
X144267604Y-110548802D01*
X144476975Y-110376976D01*
X144648802Y-110167605D01*
X144776481Y-109928736D01*
X144855105Y-109669547D01*
X144875000Y-109467549D01*
X144875000Y-107332451D01*
X144855105Y-107130453D01*
X144776481Y-106871264D01*
X144648802Y-106632395D01*
X144476976Y-106423024D01*
X144409379Y-106367548D01*
X149125000Y-106367548D01*
X149144895Y-106569546D01*
X149223519Y-106828735D01*
X149351198Y-107067604D01*
X149523024Y-107276975D01*
X149732395Y-107448802D01*
X149971264Y-107576481D01*
X150230453Y-107655105D01*
X150500000Y-107681653D01*
X150769546Y-107655105D01*
X151028735Y-107576481D01*
X151267604Y-107448802D01*
X151476975Y-107276976D01*
X151648802Y-107067605D01*
X151776481Y-106828736D01*
X151855105Y-106569547D01*
X151875000Y-106367549D01*
X151875000Y-104232451D01*
X151855105Y-104030453D01*
X151776481Y-103771264D01*
X151648802Y-103532395D01*
X151476976Y-103323024D01*
X151267605Y-103151198D01*
X151028736Y-103023519D01*
X150769547Y-102944895D01*
X150500000Y-102918347D01*
X150230454Y-102944895D01*
X149971265Y-103023519D01*
X149732396Y-103151198D01*
X149523025Y-103323024D01*
X149351199Y-103532395D01*
X149223520Y-103771264D01*
X149144896Y-104030453D01*
X149125001Y-104232451D01*
X149125000Y-106367548D01*
X144409379Y-106367548D01*
X144267605Y-106251198D01*
X144028736Y-106123519D01*
X143769547Y-106044895D01*
X143500000Y-106018347D01*
X143230454Y-106044895D01*
X142971265Y-106123519D01*
X142732396Y-106251198D01*
X142523025Y-106423024D01*
X142351199Y-106632395D01*
X142223520Y-106871264D01*
X142144896Y-107130453D01*
X142125001Y-107332451D01*
X142125001Y-108303393D01*
X141976976Y-108123024D01*
X141767605Y-107951198D01*
X141528736Y-107823519D01*
X141269547Y-107744895D01*
X141000000Y-107718347D01*
X140730454Y-107744895D01*
X140471265Y-107823519D01*
X140232396Y-107951198D01*
X140023025Y-108123024D01*
X139851199Y-108332395D01*
X139723520Y-108571264D01*
X139644896Y-108830453D01*
X139625001Y-109032451D01*
X139625000Y-111167548D01*
X129375000Y-111167548D01*
X129375000Y-110196607D01*
X129523024Y-110376975D01*
X129732395Y-110548802D01*
X129971264Y-110676481D01*
X130230453Y-110755105D01*
X130500000Y-110781653D01*
X130769546Y-110755105D01*
X131028735Y-110676481D01*
X131267604Y-110548802D01*
X131476975Y-110376976D01*
X131648802Y-110167605D01*
X131776481Y-109928736D01*
X131855105Y-109669547D01*
X131875000Y-109467549D01*
X131875000Y-107332451D01*
X131855105Y-107130453D01*
X131776481Y-106871264D01*
X131648802Y-106632395D01*
X131476976Y-106423024D01*
X131409379Y-106367548D01*
X136125000Y-106367548D01*
X136144895Y-106569546D01*
X136223519Y-106828735D01*
X136351198Y-107067604D01*
X136523024Y-107276975D01*
X136732395Y-107448802D01*
X136971264Y-107576481D01*
X137230453Y-107655105D01*
X137500000Y-107681653D01*
X137769546Y-107655105D01*
X138028735Y-107576481D01*
X138267604Y-107448802D01*
X138476975Y-107276976D01*
X138648802Y-107067605D01*
X138776481Y-106828736D01*
X138855105Y-106569547D01*
X138875000Y-106367549D01*
X138875000Y-104232451D01*
X138855105Y-104030453D01*
X138776481Y-103771264D01*
X138648802Y-103532395D01*
X138476976Y-103323024D01*
X138267605Y-103151198D01*
X138028736Y-103023519D01*
X137769547Y-102944895D01*
X137500000Y-102918347D01*
X137230454Y-102944895D01*
X136971265Y-103023519D01*
X136732396Y-103151198D01*
X136523025Y-103323024D01*
X136351199Y-103532395D01*
X136223520Y-103771264D01*
X136144896Y-104030453D01*
X136125001Y-104232451D01*
X136125000Y-106367548D01*
X131409379Y-106367548D01*
X131267605Y-106251198D01*
X131028736Y-106123519D01*
X130769547Y-106044895D01*
X130500000Y-106018347D01*
X130230454Y-106044895D01*
X129971265Y-106123519D01*
X129732396Y-106251198D01*
X129523025Y-106423024D01*
X129351199Y-106632395D01*
X129223520Y-106871264D01*
X129144896Y-107130453D01*
X129125001Y-107332451D01*
X129125001Y-108303393D01*
X128976976Y-108123024D01*
X128767605Y-107951198D01*
X128528736Y-107823519D01*
X128269547Y-107744895D01*
X128000000Y-107718347D01*
X127730454Y-107744895D01*
X127471265Y-107823519D01*
X127232396Y-107951198D01*
X127023025Y-108123024D01*
X126851199Y-108332395D01*
X126723520Y-108571264D01*
X126644896Y-108830453D01*
X126625001Y-109032451D01*
X126625000Y-111167548D01*
X116375000Y-111167548D01*
X116375000Y-110196607D01*
X116523024Y-110376975D01*
X116732395Y-110548802D01*
X116971264Y-110676481D01*
X117230453Y-110755105D01*
X117500000Y-110781653D01*
X117769546Y-110755105D01*
X118028735Y-110676481D01*
X118267604Y-110548802D01*
X118476975Y-110376976D01*
X118648802Y-110167605D01*
X118776481Y-109928736D01*
X118855105Y-109669547D01*
X118875000Y-109467549D01*
X118875000Y-107332451D01*
X118855105Y-107130453D01*
X118776481Y-106871264D01*
X118648802Y-106632395D01*
X118476976Y-106423024D01*
X118409379Y-106367548D01*
X123125000Y-106367548D01*
X123144895Y-106569546D01*
X123223519Y-106828735D01*
X123351198Y-107067604D01*
X123523024Y-107276975D01*
X123732395Y-107448802D01*
X123971264Y-107576481D01*
X124230453Y-107655105D01*
X124500000Y-107681653D01*
X124769546Y-107655105D01*
X125028735Y-107576481D01*
X125267604Y-107448802D01*
X125476975Y-107276976D01*
X125648802Y-107067605D01*
X125776481Y-106828736D01*
X125855105Y-106569547D01*
X125875000Y-106367549D01*
X125875000Y-104232451D01*
X125855105Y-104030453D01*
X125776481Y-103771264D01*
X125648802Y-103532395D01*
X125476976Y-103323024D01*
X125267605Y-103151198D01*
X125028736Y-103023519D01*
X124769547Y-102944895D01*
X124500000Y-102918347D01*
X124230454Y-102944895D01*
X123971265Y-103023519D01*
X123732396Y-103151198D01*
X123523025Y-103323024D01*
X123351199Y-103532395D01*
X123223520Y-103771264D01*
X123144896Y-104030453D01*
X123125001Y-104232451D01*
X123125000Y-106367548D01*
X118409379Y-106367548D01*
X118267605Y-106251198D01*
X118028736Y-106123519D01*
X117769547Y-106044895D01*
X117500000Y-106018347D01*
X117230454Y-106044895D01*
X116971265Y-106123519D01*
X116732396Y-106251198D01*
X116523025Y-106423024D01*
X116351199Y-106632395D01*
X116223520Y-106871264D01*
X116144896Y-107130453D01*
X116125001Y-107332451D01*
X116125001Y-108303393D01*
X115976976Y-108123024D01*
X115767605Y-107951198D01*
X115528736Y-107823519D01*
X115269547Y-107744895D01*
X115000000Y-107718347D01*
X114730454Y-107744895D01*
X114471265Y-107823519D01*
X114232396Y-107951198D01*
X114023025Y-108123024D01*
X113851199Y-108332395D01*
X113723520Y-108571264D01*
X113644896Y-108830453D01*
X113625001Y-109032451D01*
X113625000Y-111167548D01*
X103375000Y-111167548D01*
X103375000Y-110196607D01*
X103523024Y-110376975D01*
X103732395Y-110548802D01*
X103971264Y-110676481D01*
X104230453Y-110755105D01*
X104500000Y-110781653D01*
X104769546Y-110755105D01*
X105028735Y-110676481D01*
X105267604Y-110548802D01*
X105476975Y-110376976D01*
X105648802Y-110167605D01*
X105776481Y-109928736D01*
X105855105Y-109669547D01*
X105875000Y-109467549D01*
X105875000Y-107332451D01*
X105855105Y-107130453D01*
X105776481Y-106871264D01*
X105648802Y-106632395D01*
X105476976Y-106423024D01*
X105409379Y-106367548D01*
X110125000Y-106367548D01*
X110144895Y-106569546D01*
X110223519Y-106828735D01*
X110351198Y-107067604D01*
X110523024Y-107276975D01*
X110732395Y-107448802D01*
X110971264Y-107576481D01*
X111230453Y-107655105D01*
X111500000Y-107681653D01*
X111769546Y-107655105D01*
X112028735Y-107576481D01*
X112267604Y-107448802D01*
X112476975Y-107276976D01*
X112648802Y-107067605D01*
X112776481Y-106828736D01*
X112855105Y-106569547D01*
X112875000Y-106367549D01*
X112875000Y-104232451D01*
X112855105Y-104030453D01*
X112776481Y-103771264D01*
X112648802Y-103532395D01*
X112476976Y-103323024D01*
X112267605Y-103151198D01*
X112028736Y-103023519D01*
X111769547Y-102944895D01*
X111500000Y-102918347D01*
X111230454Y-102944895D01*
X110971265Y-103023519D01*
X110732396Y-103151198D01*
X110523025Y-103323024D01*
X110351199Y-103532395D01*
X110223520Y-103771264D01*
X110144896Y-104030453D01*
X110125001Y-104232451D01*
X110125000Y-106367548D01*
X105409379Y-106367548D01*
X105267605Y-106251198D01*
X105028736Y-106123519D01*
X104769547Y-106044895D01*
X104500000Y-106018347D01*
X104230454Y-106044895D01*
X103971265Y-106123519D01*
X103732396Y-106251198D01*
X103523025Y-106423024D01*
X103351199Y-106632395D01*
X103223520Y-106871264D01*
X103144896Y-107130453D01*
X103125001Y-107332451D01*
X103125001Y-108303393D01*
X102976976Y-108123024D01*
X102767605Y-107951198D01*
X102528736Y-107823519D01*
X102269547Y-107744895D01*
X102000000Y-107718347D01*
X101730454Y-107744895D01*
X101471265Y-107823519D01*
X101232396Y-107951198D01*
X101023025Y-108123024D01*
X100925000Y-108242468D01*
X100925000Y-102800000D01*
X104572944Y-102800000D01*
X104581150Y-102883314D01*
X104605452Y-102963427D01*
X104644916Y-103037260D01*
X104698026Y-103101974D01*
X104762740Y-103155084D01*
X104836573Y-103194548D01*
X104916686Y-103218850D01*
X105000000Y-103227056D01*
X106718750Y-103225000D01*
X106825000Y-103118750D01*
X106825000Y-101975000D01*
X107175000Y-101975000D01*
X107175000Y-103118750D01*
X107281250Y-103225000D01*
X109000000Y-103227056D01*
X109083314Y-103218850D01*
X109163427Y-103194548D01*
X109237260Y-103155084D01*
X109301974Y-103101974D01*
X109355084Y-103037260D01*
X109394548Y-102963427D01*
X109418850Y-102883314D01*
X109427056Y-102800000D01*
X117572944Y-102800000D01*
X117581150Y-102883314D01*
X117605452Y-102963427D01*
X117644916Y-103037260D01*
X117698026Y-103101974D01*
X117762740Y-103155084D01*
X117836573Y-103194548D01*
X117916686Y-103218850D01*
X118000000Y-103227056D01*
X119718750Y-103225000D01*
X119825000Y-103118750D01*
X119825000Y-101975000D01*
X120175000Y-101975000D01*
X120175000Y-103118750D01*
X120281250Y-103225000D01*
X122000000Y-103227056D01*
X122083314Y-103218850D01*
X122163427Y-103194548D01*
X122237260Y-103155084D01*
X122301974Y-103101974D01*
X122355084Y-103037260D01*
X122394548Y-102963427D01*
X122418850Y-102883314D01*
X122427056Y-102800000D01*
X130572944Y-102800000D01*
X130581150Y-102883314D01*
X130605452Y-102963427D01*
X130644916Y-103037260D01*
X130698026Y-103101974D01*
X130762740Y-103155084D01*
X130836573Y-103194548D01*
X130916686Y-103218850D01*
X131000000Y-103227056D01*
X132718750Y-103225000D01*
X132825000Y-103118750D01*
X132825000Y-101975000D01*
X133175000Y-101975000D01*
X133175000Y-103118750D01*
X133281250Y-103225000D01*
X135000000Y-103227056D01*
X135083314Y-103218850D01*
X135163427Y-103194548D01*
X135237260Y-103155084D01*
X135301974Y-103101974D01*
X135355084Y-103037260D01*
X135394548Y-102963427D01*
X135418850Y-102883314D01*
X135427056Y-102800000D01*
X143572944Y-102800000D01*
X143581150Y-102883314D01*
X143605452Y-102963427D01*
X143644916Y-103037260D01*
X143698026Y-103101974D01*
X143762740Y-103155084D01*
X143836573Y-103194548D01*
X143916686Y-103218850D01*
X144000000Y-103227056D01*
X145718750Y-103225000D01*
X145825000Y-103118750D01*
X145825000Y-101975000D01*
X146175000Y-101975000D01*
X146175000Y-103118750D01*
X146281250Y-103225000D01*
X148000000Y-103227056D01*
X148083314Y-103218850D01*
X148163427Y-103194548D01*
X148237260Y-103155084D01*
X148301974Y-103101974D01*
X148355084Y-103037260D01*
X148394548Y-102963427D01*
X148418850Y-102883314D01*
X148427056Y-102800000D01*
X156572944Y-102800000D01*
X156581150Y-102883314D01*
X156605452Y-102963427D01*
X156644916Y-103037260D01*
X156698026Y-103101974D01*
X156762740Y-103155084D01*
X156836573Y-103194548D01*
X156916686Y-103218850D01*
X157000000Y-103227056D01*
X158718750Y-103225000D01*
X158825000Y-103118750D01*
X158825000Y-101975000D01*
X159175000Y-101975000D01*
X159175000Y-103118750D01*
X159281250Y-103225000D01*
X161000000Y-103227056D01*
X161083314Y-103218850D01*
X161163427Y-103194548D01*
X161237260Y-103155084D01*
X161301974Y-103101974D01*
X161355084Y-103037260D01*
X161394548Y-102963427D01*
X161418850Y-102883314D01*
X161427056Y-102800000D01*
X169572944Y-102800000D01*
X169581150Y-102883314D01*
X169605452Y-102963427D01*
X169644916Y-103037260D01*
X169698026Y-103101974D01*
X169762740Y-103155084D01*
X169836573Y-103194548D01*
X169916686Y-103218850D01*
X170000000Y-103227056D01*
X171718750Y-103225000D01*
X171825000Y-103118750D01*
X171825000Y-101975000D01*
X172175000Y-101975000D01*
X172175000Y-103118750D01*
X172281250Y-103225000D01*
X174000000Y-103227056D01*
X174083314Y-103218850D01*
X174163427Y-103194548D01*
X174237260Y-103155084D01*
X174301974Y-103101974D01*
X174355084Y-103037260D01*
X174394548Y-102963427D01*
X174418850Y-102883314D01*
X174427056Y-102800000D01*
X182572944Y-102800000D01*
X182581150Y-102883314D01*
X182605452Y-102963427D01*
X182644916Y-103037260D01*
X182698026Y-103101974D01*
X182762740Y-103155084D01*
X182836573Y-103194548D01*
X182916686Y-103218850D01*
X183000000Y-103227056D01*
X184718750Y-103225000D01*
X184825000Y-103118750D01*
X184825000Y-101975000D01*
X185175000Y-101975000D01*
X185175000Y-103118750D01*
X185281250Y-103225000D01*
X187000000Y-103227056D01*
X187083314Y-103218850D01*
X187163427Y-103194548D01*
X187237260Y-103155084D01*
X187301974Y-103101974D01*
X187355084Y-103037260D01*
X187394548Y-102963427D01*
X187418850Y-102883314D01*
X187427056Y-102800000D01*
X187425000Y-102081250D01*
X187318750Y-101975000D01*
X185175000Y-101975000D01*
X184825000Y-101975000D01*
X182681250Y-101975000D01*
X182575000Y-102081250D01*
X182572944Y-102800000D01*
X174427056Y-102800000D01*
X174425000Y-102081250D01*
X174318750Y-101975000D01*
X172175000Y-101975000D01*
X171825000Y-101975000D01*
X169681250Y-101975000D01*
X169575000Y-102081250D01*
X169572944Y-102800000D01*
X161427056Y-102800000D01*
X161425000Y-102081250D01*
X161318750Y-101975000D01*
X159175000Y-101975000D01*
X158825000Y-101975000D01*
X156681250Y-101975000D01*
X156575000Y-102081250D01*
X156572944Y-102800000D01*
X148427056Y-102800000D01*
X148425000Y-102081250D01*
X148318750Y-101975000D01*
X146175000Y-101975000D01*
X145825000Y-101975000D01*
X143681250Y-101975000D01*
X143575000Y-102081250D01*
X143572944Y-102800000D01*
X135427056Y-102800000D01*
X135425000Y-102081250D01*
X135318750Y-101975000D01*
X133175000Y-101975000D01*
X132825000Y-101975000D01*
X130681250Y-101975000D01*
X130575000Y-102081250D01*
X130572944Y-102800000D01*
X122427056Y-102800000D01*
X122425000Y-102081250D01*
X122318750Y-101975000D01*
X120175000Y-101975000D01*
X119825000Y-101975000D01*
X117681250Y-101975000D01*
X117575000Y-102081250D01*
X117572944Y-102800000D01*
X109427056Y-102800000D01*
X109425000Y-102081250D01*
X109318750Y-101975000D01*
X107175000Y-101975000D01*
X106825000Y-101975000D01*
X104681250Y-101975000D01*
X104575000Y-102081250D01*
X104572944Y-102800000D01*
X100925000Y-102800000D01*
X100925000Y-101020791D01*
X100933190Y-100937264D01*
X100951406Y-100876929D01*
X100980996Y-100821277D01*
X101020836Y-100772429D01*
X101069400Y-100732254D01*
X101124845Y-100702275D01*
X101185060Y-100683635D01*
X101267214Y-100675000D01*
X104593795Y-100675000D01*
X104581150Y-100716686D01*
G37*
%TD.AperFunction*%
%TD*%
M02*
